<svg width="160" height="104" viewBox="0 0 160 104" fill="none" xmlns="http://www.w3.org/2000/svg">
<g filter="url(#filter0_d_183_969)">
<path d="M44.6759 34.6362C43.4777 32.7016 42.0772 30.9229 40.4899 29.3003C39.5718 28.3642 38.6226 27.4593 37.5956 26.648C36.2106 25.5715 34.779 24.5886 33.1606 23.9021C31.4489 23.1844 29.6905 22.7787 27.8232 22.8724C26.6561 22.9348 25.5357 23.2 24.462 23.6525C23.4038 24.1049 22.4702 24.7758 21.5676 25.4623C21.0074 25.8991 20.6028 26.4608 20.1983 27.0225C19.8403 27.5061 19.4513 27.9586 19.1401 28.4734C18.8911 28.8947 18.7044 29.3471 18.5488 29.7996C18.2064 30.7669 17.9575 31.781 17.7085 32.7796C17.3973 34.1369 17.2105 35.4943 17.086 36.8829C17.0082 37.8346 16.9771 38.7707 16.946 39.7224C16.7437 39.7224 16.7281 39.5508 16.6659 39.426C16.3702 38.8643 16.1524 38.2558 15.8256 37.7098C15.2498 36.29 14.9075 34.8078 14.7674 33.2944C14.5807 31.157 14.923 29.0975 15.7322 27.1161C16.0434 26.336 16.3547 25.5715 16.7126 24.807C17.3039 23.5744 17.9108 22.3575 18.9067 21.359C20.0271 20.22 21.1008 19.0343 22.4235 18.145C24.3219 16.8656 26.4071 16.0855 28.6635 15.6799C29.6905 15.4927 30.702 15.2586 31.7601 15.1806C31.9469 15.1806 32.1336 15.1494 32.3203 15.1806C32.5538 15.243 32.8027 15.2274 33.0362 15.2742C33.0673 15.2742 33.114 15.2742 33.1451 15.2742C33.3785 15.321 33.6119 15.2742 33.8453 15.321C34.1566 15.3678 34.4678 15.4302 34.7946 15.4458C35.1058 15.5083 35.4014 15.5551 35.7127 15.6019C35.7438 15.6019 35.7905 15.6019 35.8216 15.6331C36.1173 15.6955 36.4129 15.7423 36.7086 15.7579C38.2491 16.0855 39.6807 16.7564 41.0501 17.5053C42.7152 18.3946 44.2868 19.4243 45.7029 20.6725C46.8544 21.6866 48.0371 22.6383 49.1574 23.6837C50.838 25.275 52.5342 26.8508 54.2148 28.4266C55.2263 29.3627 56.2222 30.3301 57.2181 31.2662C58.7431 32.7172 60.2681 34.1681 61.8086 35.5879C62.4311 36.1652 63.0846 36.7424 63.676 37.3665C63.7538 37.4601 63.8627 37.5381 63.9094 37.663C63.9561 37.8034 63.9405 37.9282 63.9094 38.0686C63.8627 38.209 63.8627 38.365 63.8316 38.5211C63.7849 38.7239 63.7382 38.9267 63.7226 39.1295C63.7226 39.2231 63.7226 39.3168 63.6915 39.4104C63.6293 39.6288 63.6293 39.8784 63.5515 40.0969C63.4892 40.2997 63.4425 40.5025 63.3959 40.7209C63.3336 41.1578 63.2091 41.579 63.3181 42.0315C63.3492 42.1719 63.3492 42.3123 63.3647 42.4527C63.4425 42.7804 63.4581 43.108 63.5515 43.4201C63.5826 43.5761 63.6293 43.7321 63.676 43.8881C63.6915 43.9349 63.7071 43.9817 63.7226 44.0441C63.7693 44.2314 63.8471 44.3874 63.9094 44.559C63.9561 44.6994 64.0183 44.8242 64.0805 44.9646C64.0961 44.9959 64.1117 45.0271 64.1272 45.0427C64.1584 45.1051 64.1739 45.1519 64.205 45.2143C64.2517 45.2923 64.2828 45.3859 64.3295 45.4639C64.3606 45.5263 64.3918 45.5731 64.4073 45.6355C64.4229 45.6667 64.4384 45.6979 64.454 45.7135C64.5163 45.854 64.5785 45.9788 64.6719 46.1036C64.6874 46.1348 64.703 46.1504 64.7341 46.1816C64.7652 46.244 64.7964 46.2908 64.843 46.3376C64.8586 46.3688 64.8742 46.3844 64.8897 46.4156C64.952 46.5404 65.0298 46.6653 65.1076 46.7745C65.1543 46.8525 65.2165 46.9149 65.2787 46.9929C65.2787 46.9929 65.2943 47.0241 65.3099 47.0241C65.3254 47.0553 65.341 47.0709 65.3566 47.1021C65.4032 47.1801 65.4655 47.2425 65.5277 47.3049C65.5277 47.3049 65.5433 47.3361 65.5588 47.3361C65.5744 47.3673 65.59 47.3829 65.6055 47.4141C65.6522 47.4922 65.7145 47.5546 65.7767 47.617C65.7923 47.6326 65.8234 47.6638 65.839 47.6794C65.8545 47.695 65.8856 47.7262 65.9012 47.7418C65.9012 47.7418 65.9168 47.7574 65.9323 47.773C65.9479 47.7886 65.979 47.8198 65.9946 47.8354C65.9946 47.8354 66.0101 47.8666 66.0257 47.8666C66.0412 47.8978 66.0568 47.9134 66.0724 47.9446C66.1346 48.0382 66.2124 48.1006 66.2902 48.1786C66.3058 48.1942 66.3369 48.2254 66.3525 48.2411C66.368 48.2567 66.3836 48.2879 66.4147 48.3035C66.4147 48.3035 66.4303 48.3191 66.4458 48.3347C66.4614 48.3503 66.477 48.3659 66.4925 48.3971C66.4925 48.3971 66.5081 48.4127 66.5236 48.4283C66.5392 48.4439 66.5548 48.4595 66.5703 48.4751C66.5703 48.4751 66.5859 48.4907 66.6014 48.5063C66.617 48.5219 66.6326 48.5375 66.6481 48.5531L66.6792 48.5843C66.6948 48.5999 66.7104 48.6155 66.7259 48.6311L66.7571 48.6623C66.7726 48.6779 66.7882 48.6935 66.8037 48.7091L66.8349 48.7403C66.8504 48.7559 66.866 48.7715 66.8815 48.7871L66.9127 48.8183C66.9282 48.8339 66.9438 48.8495 66.9749 48.8651C66.9749 48.8651 66.9905 48.8807 67.006 48.8963C67.0216 48.9119 67.0527 48.9275 67.0683 48.9587C67.0683 48.9587 67.0838 48.9743 67.0994 48.9899C67.115 49.0055 67.1461 49.0211 67.1616 49.0523C67.1616 49.0523 67.1772 49.068 67.1928 49.0836C67.2706 49.146 67.3328 49.224 67.4106 49.2708C67.4106 49.2708 67.4417 49.2864 67.4573 49.302C67.4573 49.302 67.4884 49.3176 67.4884 49.3332C67.5196 49.3488 67.5351 49.3644 67.5662 49.3956C67.5662 49.3956 67.5818 49.4112 67.5974 49.4268C67.644 49.458 67.6907 49.5048 67.7374 49.536C67.7685 49.536 67.7841 49.5672 67.8152 49.5828C67.8308 49.5984 67.8619 49.614 67.8775 49.6452C67.8775 49.6452 67.893 49.6608 67.9086 49.6764C67.9553 49.7076 68.0019 49.7388 68.0486 49.77C68.0486 49.77 68.0797 49.77 68.0797 49.7856C68.0797 49.7856 68.1109 49.8012 68.1109 49.8168C68.1731 49.8636 68.2354 49.8949 68.2976 49.9417C68.3287 49.9417 68.3443 49.9729 68.3754 49.9885C68.4532 50.0509 68.5621 50.0977 68.6555 50.1445C68.6866 50.1445 68.7178 50.1757 68.7333 50.1913C68.8111 50.2537 68.8889 50.3005 68.9823 50.3473C69.0134 50.3473 69.029 50.3785 69.0601 50.3941C69.0912 50.4097 69.1223 50.4409 69.169 50.4565C69.2001 50.4565 69.2157 50.4877 69.2313 50.4877C69.2624 50.5033 69.2935 50.5189 69.3402 50.5345C69.3713 50.5345 69.3869 50.5501 69.418 50.5657C69.4491 50.5657 69.4647 50.5813 69.4958 50.5969C69.5269 50.5969 69.5425 50.6125 69.5736 50.6281C69.6047 50.6281 69.6203 50.6437 69.6514 50.6593C69.6825 50.6593 69.6981 50.6905 69.7292 50.6905C69.7603 50.7061 69.807 50.7218 69.8382 50.7374C69.8693 50.7374 69.9004 50.7686 69.916 50.7686C69.9938 50.7998 70.056 50.831 70.1338 50.8466C70.1649 50.8466 70.1961 50.8622 70.2116 50.8778C70.2739 50.909 70.3517 50.9246 70.4139 50.9558C70.4762 50.987 70.554 51.0026 70.6162 51.0182C70.6784 51.0494 70.7563 51.065 70.8185 51.0806C70.8496 51.0806 70.8807 51.0962 70.9119 51.1118C70.9897 51.143 71.0675 51.143 71.1453 51.1586C71.1764 51.1586 71.2075 51.1586 71.2542 51.1898C71.581 51.2054 71.9078 51.2366 72.2034 51.4238C72.3902 51.5799 72.468 51.8139 72.5613 52.0323C72.6703 52.2663 72.8414 52.3912 73.106 52.4224C74.5687 52.5784 76.047 52.75 77.5098 52.9372C78.599 53.062 79.6728 53.1712 80.762 53.3273C80.9021 53.3429 81.0577 53.3741 81.0888 53.5301C81.1199 53.6861 81.0421 53.7953 80.871 53.7953C80.0462 53.7953 79.2371 53.8577 78.4123 53.9045C77.7587 53.9513 77.1207 53.8421 76.4672 53.8421C74.3197 53.8421 72.219 53.3897 70.1183 52.9996C68.8267 52.7656 67.5196 52.5316 66.2435 52.2195C64.3295 51.7359 62.4155 51.2522 60.5793 50.5033C59.2566 49.9573 57.9806 49.3176 56.7201 48.6311C56.3156 48.5219 56.0043 48.2566 55.662 48.0538C55.6309 48.0382 55.6153 48.0226 55.5842 48.007C55.5219 47.9602 55.4597 47.9134 55.3975 47.8666C55.3663 47.8666 55.3508 47.8354 55.3196 47.8198C55.273 47.773 55.2263 47.7418 55.1796 47.695C55.0862 47.6326 54.9929 47.5702 54.8995 47.5078C54.8684 47.4922 54.8528 47.4766 54.8217 47.4454C54.7439 47.3829 54.6816 47.3205 54.6038 47.2737C54.4949 47.2113 54.4171 47.1177 54.3082 47.0553C54.2304 47.0085 54.1526 46.9461 54.0748 46.8837C53.9503 46.8057 53.8413 46.7121 53.7169 46.6184C53.7169 46.6184 53.6857 46.6028 53.6702 46.5872C53.6702 46.5872 53.639 46.5716 53.6235 46.556C53.5301 46.478 53.4368 46.3688 53.3278 46.3064C53.3278 46.3064 53.2967 46.2908 53.2811 46.2752C53.2811 46.2752 53.25 46.2596 53.25 46.244C53.1255 46.1348 53.0322 46.01 52.8921 45.932C52.8921 45.932 52.861 45.9164 52.8454 45.9008C52.8454 45.9008 52.8143 45.8852 52.7987 45.8696C52.7676 45.854 52.7521 45.8228 52.7209 45.8072C52.7209 45.8072 52.6898 45.7915 52.6898 45.7759C52.4253 45.5107 52.1607 45.2455 51.9118 44.9802C51.8806 44.9646 51.8651 44.9334 51.8495 44.9022C51.834 44.871 51.8028 44.8554 51.7873 44.8242C51.7873 44.8242 51.7717 44.793 51.7562 44.7774C51.7406 44.7462 51.725 44.7306 51.6939 44.6994C51.5694 44.5434 51.4138 44.403 51.3049 44.2314C51.1804 44.0753 51.0403 43.9505 50.9314 43.7789C50.8692 43.7009 50.8069 43.6229 50.7602 43.5449C50.698 43.4357 50.6046 43.3421 50.5268 43.2328C50.449 43.108 50.3401 42.9988 50.2623 42.874C50.2156 42.796 50.1689 42.718 50.1067 42.64C50.0444 42.562 49.9822 42.4995 49.9355 42.4215C49.8577 42.3123 49.7955 42.2031 49.7177 42.1095C49.5776 41.9535 49.4687 41.7663 49.3442 41.5946C49.1886 41.3606 49.0174 41.1266 48.8929 40.8769C48.8307 40.7677 48.7529 40.6585 48.6906 40.5493C48.6595 40.5025 48.6128 40.4401 48.5817 40.3933C48.4261 40.1749 48.2549 39.9564 48.0993 39.7536C48.0059 39.6288 47.8659 39.5196 47.7725 39.3792C47.6636 39.2231 47.508 39.0827 47.399 38.9111C47.1656 38.5835 46.9322 38.2558 46.7299 37.9126C46.6832 37.8346 46.6366 37.741 46.5743 37.663C46.5276 37.5849 46.4654 37.5069 46.4187 37.4289C46.3409 37.3041 46.2631 37.1949 46.1697 37.0857C46.1542 37.0545 46.1386 37.0389 46.123 37.0077C46.0764 36.9141 46.0141 36.8049 45.9519 36.7112C45.9363 36.68 45.9207 36.6644 45.9052 36.6332C45.8585 36.5396 45.7963 36.4304 45.734 36.3368C45.7184 36.3056 45.7029 36.29 45.6873 36.2588C45.6406 36.1808 45.6095 36.0872 45.5473 36.0092C45.485 35.9155 45.4228 35.8219 45.3605 35.7439C45.345 35.7127 45.3294 35.6971 45.3139 35.6659C45.2672 35.5723 45.2205 35.4631 45.1427 35.3851C44.9871 35.1355 44.8003 34.917 44.7225 34.6206L44.6759 34.6362Z" fill="#8C0029"/>
<path d="M56.5334 48.7248C55.3663 48.7248 54.1993 48.8028 53.0322 48.8964C51.6161 49.0056 50.2156 49.1928 48.8151 49.4113C46.5432 49.7701 44.2868 50.2226 42.0772 50.831C39.3851 51.5487 36.7397 52.4068 34.1721 53.5146C31.7913 54.5599 29.5194 55.7613 27.4497 57.3682C25.8625 58.5852 24.3842 59.9114 23.0459 61.3935C21.8944 62.6573 21.0541 64.0927 20.6495 65.7777C20.4939 66.4174 20.4472 67.057 20.4006 67.6967C20.385 67.9775 20.4472 68.2428 20.5095 68.508C21.2409 71.2539 22.2523 73.8751 23.5906 76.387C25.3801 79.7726 27.4497 82.9866 29.7217 86.0757C29.7372 86.1538 29.6905 86.1694 29.6283 86.1694C29.0992 85.7793 28.6635 85.2957 28.2433 84.8276C27.2786 83.7511 26.3138 82.6901 25.2245 81.7228C24.3375 80.9427 23.575 80.0222 22.8436 79.0861C22.7347 78.9457 22.6414 78.8053 22.5169 78.6804C21.2097 77.4011 20.3227 75.8097 19.4669 74.2183C18.4399 72.2837 17.5996 70.271 17.0705 68.1492C16.7904 66.9946 16.5725 65.8401 16.448 64.6543C16.3858 63.9835 16.308 63.3126 16.3235 62.6417C16.3858 57.9299 17.7552 53.6394 20.5717 49.8325C21.5521 48.5064 22.6258 47.2582 23.824 46.1349C26.0337 44.0598 28.3212 42.0784 30.9199 40.5026C33.4563 38.9736 36.0239 37.4914 38.856 36.5397C39.1361 36.4461 39.4318 36.3837 39.7119 36.3057C40.2254 36.1965 40.6922 35.978 41.1902 35.8064C42.3261 35.4164 43.4621 35.0263 44.6292 34.7455C44.8937 34.9171 44.9404 35.2447 45.1583 35.4632C45.2049 35.5412 45.2361 35.6348 45.3139 35.7128C45.4072 35.822 45.4384 35.978 45.5473 36.0716C45.594 36.1497 45.6251 36.2433 45.6873 36.3057C45.7807 36.4305 45.8118 36.5709 45.9208 36.6801C46.0141 36.8049 46.0452 36.9454 46.1386 37.0546C46.2164 37.1638 46.2631 37.3198 46.372 37.4134C46.4031 37.507 46.4654 37.585 46.5276 37.6474C46.5432 37.7567 46.6366 37.8035 46.6832 37.8971C46.8855 38.2871 47.119 38.646 47.3991 38.9736C47.4613 39.1296 47.6014 39.2232 47.7103 39.348C47.7725 39.5041 47.897 39.5977 48.0059 39.7225C48.0371 39.7537 48.0682 39.8005 48.0993 39.8317C48.2238 40.0345 48.3638 40.2218 48.5195 40.3934C48.5506 40.487 48.6128 40.565 48.6751 40.643C48.7062 40.7366 48.784 40.799 48.8307 40.8926C48.9552 41.1891 49.1575 41.4387 49.3286 41.6883C49.4376 41.8756 49.5465 42.0628 49.7021 42.2032C49.7332 42.2968 49.7955 42.3748 49.8577 42.4372C49.8888 42.562 49.9978 42.64 50.0756 42.7337C50.1067 42.8273 50.1689 42.8897 50.2312 42.9677C50.2623 43.0925 50.3868 43.1705 50.449 43.2641C50.4802 43.3889 50.6046 43.467 50.6669 43.5606C50.698 43.6854 50.8225 43.7634 50.9003 43.8726C50.947 44.0286 51.087 44.1066 51.1804 44.2158C51.2115 44.247 51.2426 44.2939 51.2738 44.3251C51.336 44.4967 51.5072 44.5903 51.6161 44.7307C51.6472 44.7619 51.6628 44.8087 51.7095 44.8399C51.725 44.8711 51.7562 44.8867 51.7873 44.9179C52.0518 45.2456 52.3475 45.5576 52.6898 45.8072C52.7054 45.8384 52.7365 45.854 52.7676 45.8852C52.7988 45.9164 52.8454 45.9321 52.8921 45.9633C53.001 46.0569 53.0944 46.1817 53.2189 46.2441C53.25 46.2753 53.2967 46.2909 53.3278 46.3221C53.4056 46.4001 53.4834 46.4781 53.5924 46.5405C53.6235 46.5717 53.6702 46.5873 53.7013 46.6185C53.7791 46.6965 53.8569 46.7902 53.9658 46.8214C54.0592 46.8994 54.137 47.0086 54.2615 47.0398C54.3549 47.1178 54.4327 47.227 54.5572 47.2582C54.635 47.3206 54.6972 47.383 54.775 47.4298C54.8684 47.5078 54.9617 47.6015 55.0707 47.6327C55.1329 47.6951 55.2107 47.7575 55.2885 47.8043C55.3508 47.8667 55.4441 47.8979 55.5219 47.9603C55.7709 48.1631 56.0355 48.3191 56.3 48.4908C56.3778 48.5376 56.5179 48.5532 56.4867 48.7092L56.5334 48.7248Z" fill="#1FB5D3"/>
<path d="M135.164 37.351C134.541 38.1779 133.81 38.88 133.032 39.5353C130.122 42.0004 126.823 43.7478 123.119 44.6683C122.995 44.6995 122.87 44.7931 122.73 44.6995C122.73 44.5279 122.839 44.4343 122.933 44.3251C123.337 43.8882 123.757 43.4514 124.224 43.0769C124.395 42.9365 124.567 42.7961 124.707 42.6245C125.345 41.8288 126.107 41.1267 126.823 40.4246C127.928 39.3324 128.893 38.1311 129.593 36.7425C129.748 36.4305 129.888 36.1185 129.966 35.7752C130.106 35.0887 129.795 34.6831 129.095 34.6519C128.566 34.6207 128.037 34.6675 127.508 34.7767C126.434 34.9795 125.438 35.354 124.427 35.7752C118.218 38.4119 112.009 41.0643 105.784 43.6698C102.983 44.8399 100.198 46.0413 97.4591 47.3362C97.3191 47.5078 97.1012 47.5703 96.9456 47.7107C95.3895 48.4752 93.8334 49.2241 92.215 49.8325C92.0594 49.8325 91.9349 49.7389 91.8105 49.6609C91.2347 49.3177 90.6745 48.9744 90.1143 48.6468C89.6008 48.3503 89.0561 48.2099 88.4648 48.3191C87.998 48.3972 87.998 48.3816 87.8735 47.9291C87.5778 46.837 86.5041 46.3065 85.4771 46.7746C85.0881 46.9462 84.8702 47.2738 84.6523 47.6171C84.2478 48.2879 84.2011 48.2879 83.7498 47.6639C82.6917 46.1817 81.6646 44.6839 80.622 43.2017C80.5442 43.0925 80.4197 42.9677 80.4975 42.7961C80.5909 42.7025 80.7154 42.6713 80.8399 42.6557C82.0848 42.5464 83.2363 42.1252 84.3567 41.5947C85.2592 41.1735 86.1307 40.6898 87.0332 40.2842C87.998 39.8473 88.8538 39.2232 89.772 38.6772C93.6778 36.3525 97.7237 34.3398 101.972 32.7328C105.971 31.2351 110.064 30.1117 114.312 29.5657C115.666 29.394 117.035 29.3316 118.389 29.2224C120.054 29.0976 121.719 28.9572 123.384 29.0196C125.749 29.1132 128.099 29.3004 130.371 30.0649C131.569 30.4706 132.627 31.0946 133.67 31.7967C133.997 32.0152 134.23 32.3272 134.417 32.6704C134.93 33.6065 135.164 34.6207 135.179 35.6816C135.179 36.2433 135.257 36.8049 135.148 37.3666L135.164 37.351Z" fill="#FE8615"/>
<path d="M72.0635 51.5019C71.7523 51.3927 71.4255 51.3615 71.0987 51.2991C71.1454 51.2055 71.2388 51.2211 71.3321 51.1431C70.7875 50.8622 70.2584 50.597 69.7605 50.2694C68.7023 49.5985 67.7531 48.8028 66.9439 47.8355C66.1036 46.8214 65.6212 45.6356 65.1855 44.4343C64.8743 43.5918 64.7031 42.7025 64.6564 41.7975C64.6097 40.8614 64.7187 39.9253 64.9365 39.0204C65.5434 36.4305 66.7572 34.1526 68.4533 32.1244C69.3559 31.0322 70.274 29.9557 71.2388 28.8948C72.3592 27.6622 73.7441 26.7417 75.0824 25.7588C77.6344 23.8866 80.3887 22.3576 83.1119 20.7974C85.1815 19.6116 87.2978 18.4883 89.2741 17.1309C90.6279 16.1948 91.9195 15.1807 93.071 14.0106C93.9268 13.1368 94.7049 12.1851 95.1873 11.0462C95.7942 9.64202 95.7475 8.28466 94.6738 7.09891C94.1291 6.49044 93.4289 6.05359 92.6819 5.75715C91.4059 5.25789 90.0833 5.00826 88.7294 4.88344C88.0914 4.83664 87.469 4.83664 86.831 4.82103C85.0415 4.77423 83.2831 4.99266 81.5247 5.30469C78.5836 5.81956 75.7048 6.50604 72.8882 7.52016C71.7523 7.92581 70.6008 8.31586 69.5426 8.89313C69.4337 8.95554 69.3247 9.01795 69.2003 8.92434C69.7449 8.40947 70.3362 7.97262 70.9275 7.50456C71.5033 7.05211 72.1102 6.63086 72.6859 6.1784C73.5418 5.49192 74.5066 4.99266 75.5025 4.58701C77.1209 3.94733 78.7548 3.33885 80.4043 2.80839C82.0693 2.26232 83.8121 1.99709 85.555 1.85667C86.8932 1.74746 88.247 1.74746 89.5853 1.80987C90.7991 1.87227 92.0128 2.02829 93.1955 2.30913C93.3044 2.34033 93.4133 2.35593 93.5223 2.40274C94.985 3.02682 96.3077 3.82251 97.2102 5.19548C97.6615 5.86636 98.1128 6.53724 98.3462 7.33294C98.7352 8.6123 99.1554 9.87605 98.9842 11.249C98.8286 12.466 98.5796 13.6517 98.2217 14.8219C97.8638 15.9608 97.3347 17.0217 96.6345 17.9734C95.6386 19.362 94.596 20.7038 93.4133 21.9363C92.7286 22.654 92.0595 23.3873 91.4215 24.1518C90.8924 24.7915 90.2389 25.3375 89.6475 25.9148C89.4919 26.0708 89.3052 26.2112 89.1807 26.3985C89.1807 26.5233 89.0718 26.5545 89.0095 26.6325C88.2315 27.4282 87.4223 28.1771 86.6131 28.9416C86.5976 28.9572 86.5664 28.9884 86.5509 29.004C86.5509 29.004 86.5353 29.0196 86.5198 29.0352C86.4731 29.0664 86.4264 29.1132 86.3953 29.1444C86.3797 29.16 86.3641 29.1756 86.333 29.1912C86.3175 29.2068 86.3019 29.2224 86.2708 29.238C86.2708 29.238 86.2552 29.2536 86.2397 29.2692C86.2241 29.2848 86.2085 29.3004 86.193 29.316L86.1619 29.3472C86.1463 29.3628 86.1307 29.3784 86.1152 29.394L86.084 29.4252C86.0685 29.4408 86.0529 29.4564 86.0374 29.472L86.0062 29.5032C85.9907 29.5188 85.9751 29.5344 85.9596 29.5501L85.9284 29.5813C85.9129 29.5969 85.8973 29.6125 85.8818 29.6281L85.8506 29.6593C85.8351 29.6749 85.8195 29.6905 85.804 29.7061L85.7728 29.7373C85.7573 29.7529 85.7417 29.7685 85.7261 29.7997C85.7261 29.7997 85.7106 29.8153 85.695 29.8309C85.6795 29.8465 85.6639 29.8777 85.6328 29.8933C85.6328 29.8933 85.6172 29.9089 85.6017 29.9245C85.5861 29.9401 85.5705 29.9713 85.5394 29.9869C85.5394 29.9869 85.5238 30.0025 85.5083 30.0181C85.4927 30.0493 85.4616 30.0649 85.446 30.0961C85.0726 30.455 84.7458 30.845 84.3568 31.157C84.3256 31.1726 84.3101 31.1883 84.279 31.2039C84.279 31.2039 84.2478 31.2195 84.2478 31.2351C84.2323 31.2507 84.2012 31.2663 84.17 31.2975C84.17 31.2975 84.1545 31.3131 84.1389 31.3287C84.1234 31.3443 84.0922 31.3755 84.0767 31.3911C84.0767 31.3911 84.0611 31.4067 84.0455 31.4223C84.03 31.4535 83.9989 31.4691 83.9833 31.5003C83.8433 31.6407 83.7032 31.7967 83.532 31.9215C83.5009 31.9371 83.4853 31.9527 83.4542 31.9839C83.4542 31.9839 83.4231 31.9995 83.4231 32.0152C83.4075 32.0308 83.3764 32.062 83.3453 32.0776C83.3453 32.0776 83.3297 32.0932 83.3142 32.1088C83.2986 32.14 83.2675 32.1556 83.2519 32.1712C83.0652 32.3428 82.9251 32.53 82.7228 32.6704C82.6917 32.686 82.6762 32.7016 82.645 32.7328C82.645 32.7328 82.6139 32.7484 82.6139 32.764C82.5984 32.7796 82.5672 32.8108 82.5361 32.8265C82.5361 32.8265 82.5206 32.8421 82.505 32.8577C82.4894 32.8889 82.4583 32.9045 82.4428 32.9201C82.1938 33.1541 81.9604 33.4349 81.6647 33.6378C81.6336 33.669 81.5869 33.7002 81.5558 33.7314C81.3379 33.9186 81.1667 34.1526 80.9333 34.3242C80.8866 34.3554 80.8555 34.3866 80.8088 34.4178C79.9219 35.2447 78.9726 35.978 78.0234 36.7113C77.6811 36.9766 77.3387 37.2574 77.0586 37.585C77.0275 37.6318 76.9964 37.663 76.9652 37.7098C76.6073 38.2247 76.3117 38.7552 76.3272 39.4105C76.2961 39.8941 76.4517 40.331 76.6073 40.7834C76.6696 40.955 76.7629 41.1267 76.6851 41.3139C76.6073 41.3763 76.4984 41.3919 76.405 41.3919C75.7359 41.3607 75.0668 41.4543 74.3977 41.4699C72.9972 41.5167 71.5967 41.6103 70.1962 41.6571C69.4337 41.6883 68.6867 41.7663 67.9242 41.7663C67.5352 41.7663 67.5352 41.7819 67.7064 42.1408C68.5467 43.857 69.387 45.5888 70.2117 47.3206C70.8186 48.5688 71.4255 49.8013 72.0168 51.0495C72.0791 51.1743 72.188 51.3147 72.0635 51.4551V51.5019Z" fill="#FE8615"/>
<path d="M80.9021 34.2774C81.1044 34.0745 81.3067 33.8873 81.509 33.6845C81.5712 33.6689 81.6024 33.6221 81.6335 33.5753L82.4115 32.8576C82.4582 32.842 82.4893 32.8108 82.5205 32.7796C82.5516 32.764 82.5671 32.7328 82.5983 32.7016C82.6294 32.6704 82.6605 32.6392 82.7072 32.6236C82.8784 32.4519 83.0651 32.2803 83.2363 32.1087C83.283 32.0931 83.3141 32.0619 83.3452 32.0307C83.3763 32.0151 83.3919 31.9839 83.423 31.9527C83.4541 31.9215 83.4853 31.8903 83.5319 31.8747C83.6875 31.7342 83.8276 31.5782 83.9832 31.4378C84.0299 31.4222 84.061 31.391 84.0921 31.3598C84.1233 31.3442 84.1388 31.313 84.1699 31.2818C84.2011 31.2662 84.2166 31.235 84.2478 31.2038C84.2789 31.1726 84.31 31.1414 84.3567 31.1258C84.7301 30.7513 85.1036 30.3769 85.4771 30.018C85.5238 30.0024 85.5549 29.9712 85.586 29.94C85.6171 29.9244 85.6482 29.8932 85.6638 29.862C85.6949 29.8464 85.7105 29.8152 85.7416 29.784C85.7727 29.7684 85.8039 29.7372 85.8194 29.706C85.8505 29.6904 85.8661 29.6592 85.8972 29.628C85.9283 29.6124 85.9439 29.5812 85.975 29.55C86.0062 29.5344 86.0217 29.5032 86.0528 29.472C86.084 29.4564 86.0995 29.4252 86.1306 29.394C86.1618 29.3784 86.1773 29.3471 86.2084 29.3159C86.2396 29.3003 86.2551 29.2691 86.2863 29.2379C86.3174 29.2223 86.3329 29.1911 86.3641 29.1599C86.4263 29.1287 86.4885 29.0819 86.5508 29.0507C87.7179 28.6607 88.9005 28.333 90.0832 27.9586C92.5263 27.1629 94.9382 26.3048 97.288 25.2751C98.7818 24.6198 100.276 23.9645 101.77 23.3092C102.439 23.0128 103.061 22.6071 103.746 22.3575C105.629 21.6554 107.372 20.6569 109.114 19.6584C111.34 18.3946 113.503 17.006 115.572 15.4771C116.615 14.697 117.642 13.8701 118.638 13.0432C119.105 12.6687 119.618 12.3723 120.054 11.951C121.361 10.6405 122.217 9.11148 122.45 7.25485C122.466 7.09883 122.466 6.92721 122.59 6.80239C122.793 7.02082 122.793 7.33286 122.855 7.59809C123.073 8.64342 123.166 9.68875 123.166 10.7497C123.166 11.1397 123.119 11.5454 122.995 11.9198C122.715 12.8715 122.388 13.8233 121.983 14.7282C121.874 15.3054 121.548 15.7735 121.268 16.2884C121.392 16.3664 121.485 16.2884 121.579 16.2415C124.8 14.7282 127.165 12.3255 128.784 9.17388C129.328 8.12856 129.624 6.98962 129.671 5.80387C129.686 5.11739 129.531 4.46211 129.219 3.85363C129.173 3.76002 129.11 3.65081 129.11 3.5416C129.126 3.46359 129.142 3.38558 129.25 3.40118C129.92 3.86924 130.542 4.3841 131.04 5.03938C131.164 5.36702 131.398 5.61665 131.647 5.86628C131.958 6.34994 132.207 6.8492 132.316 7.42647C132.378 7.52008 132.285 7.6605 132.394 7.73851C132.425 7.78531 132.44 7.86332 132.425 7.91013C132.347 8.19096 132.487 8.4874 132.44 8.72143C132.378 9.08027 132.44 9.42351 132.394 9.76676C132.394 9.82916 132.394 9.90717 132.378 9.96958C132.347 10.0164 132.347 10.0788 132.332 10.1412C132.254 10.6717 131.958 11.1085 131.725 11.5766C131.507 12.029 131.211 12.4191 130.853 12.7779C130.449 13.1836 130.028 13.6048 129.624 14.0261C129.157 14.4941 128.644 14.8686 128.099 15.2274C127.943 15.3366 127.788 15.4459 127.679 15.5863C127.601 15.7111 127.508 15.8203 127.414 15.9451C127.243 16.1947 127.29 16.3352 127.554 16.4912C127.648 16.538 127.741 16.5692 127.834 16.6004C128.908 16.8344 129.966 16.85 131.009 16.4132C131.927 16.0387 132.752 15.5395 133.53 14.931C133.623 14.8686 133.701 14.775 133.81 14.775C133.903 14.775 133.934 14.8374 133.872 14.9154C133.841 14.9622 133.841 15.0246 133.81 15.0714C133.296 16.0075 132.689 16.8656 131.958 17.6457C131.6 18.0358 131.164 18.3166 130.729 18.613C129.624 19.3619 128.348 19.6896 127.119 20.0952C125.282 20.6881 123.446 21.2342 121.594 21.8114C120.614 22.1235 119.665 22.5603 118.716 22.9348C117.237 23.5276 115.759 24.1361 114.312 24.7914C113.378 25.2126 112.507 25.7275 111.62 26.258C111.2 26.5076 110.779 26.7884 110.313 26.9757C110.001 27.2253 109.612 27.2253 109.254 27.2721C108.321 27.3657 107.434 27.6621 106.516 27.8494C104.586 28.2706 102.734 28.9259 100.976 29.8308C97.7859 31.4846 94.5492 33.0604 91.4525 34.8858C90.4411 35.4787 89.4607 36.1652 88.4959 36.8361C87.6089 37.4445 86.6442 37.9438 85.6949 38.4743C84.061 39.3948 82.4738 40.4089 80.8554 41.3762C80.6531 41.501 80.4353 41.6102 80.2019 41.6571C80.1241 41.6571 80.0618 41.6571 79.984 41.6571C79.8906 41.6259 79.7973 41.5478 79.7195 41.501C79.6417 41.4386 79.5639 41.3918 79.4705 41.345C79.3616 41.267 79.2371 41.2514 79.1281 41.189C79.097 41.1734 79.0815 41.1422 79.0503 41.1266C78.8947 40.955 78.7236 40.8458 78.5057 40.7833C78.4123 40.7521 78.319 40.7053 78.2567 40.6273C78.1634 40.5025 78.0389 40.4401 77.8988 40.4089C77.8055 40.3777 77.7276 40.3309 77.6498 40.2529C77.5565 40.1437 77.432 40.0813 77.2919 40.0345C77.1986 40.0033 77.1208 39.9564 77.043 39.8784C76.9652 39.7848 76.8562 39.7068 76.7473 39.66C76.7162 39.66 76.7006 39.6288 76.6695 39.6132C76.6073 39.5664 76.545 39.5352 76.4672 39.504C76.3894 39.4728 76.3271 39.426 76.296 39.3636C76.2493 39.2856 76.2182 39.2076 76.2493 39.1139C76.3894 38.5991 76.545 38.0686 76.934 37.663C76.9496 37.6162 76.9963 37.5694 77.0118 37.5225C77.4475 36.9765 78.07 36.6332 78.5991 36.1808C79.3304 35.5723 80.0929 34.995 80.7776 34.3398C80.8243 34.3242 80.871 34.2774 80.9177 34.2461L80.9021 34.2774Z" fill="#1FB5D3"/>
<path d="M32.3204 15.2742C31.4957 15.3054 30.6709 15.3835 29.8462 15.5707C28.7569 15.8047 27.6521 15.9763 26.5784 16.304C24.8666 16.8188 23.295 17.5989 21.8789 18.6755C21.2876 19.1279 20.7118 19.6116 20.1983 20.142C19.5292 20.8285 18.8912 21.5306 18.2532 22.2483C17.9575 22.5759 17.7552 22.966 17.5529 23.3404C16.9305 24.5418 16.4014 25.8055 15.8568 27.0381C15.3744 28.1302 15.1254 29.2848 14.9542 30.4549C14.8608 31.0946 14.7519 31.7343 14.783 32.3895C14.7986 33.1384 14.9075 33.8717 15.0476 34.605C15.1565 35.1355 15.2654 35.6503 15.3744 36.1652C15.4055 36.3368 15.4677 36.5084 15.53 36.6645C15.6545 37.0077 15.8101 37.3509 15.8879 37.7254C16.2302 38.4743 16.5881 39.2076 16.9305 39.9565C17.055 41.0798 17.1328 42.1875 16.9305 43.3109C16.9305 43.3421 16.9305 43.3577 16.9305 43.3889C16.8838 43.5293 16.9305 43.7165 16.7593 43.7633C16.6037 43.8101 16.5414 43.6229 16.4636 43.5137C15.7167 42.4996 14.9231 41.5166 14.3473 40.3933C13.4603 38.6615 12.7912 36.8673 12.4644 34.9482C11.9354 31.7499 12.3088 28.6451 13.3047 25.5871C13.8961 23.8085 14.7208 22.1391 15.6856 20.5321C15.9657 20.064 16.3236 19.674 16.6971 19.2839C17.8797 18.0358 19.0001 16.7252 20.2761 15.5707C22.9993 13.09 26.1738 11.4986 29.7839 10.7653C31.2 10.4845 32.6005 10.5469 34.0166 10.7341C34.7791 10.8277 35.5415 10.9057 36.304 11.0461C37.2066 11.2177 38.0936 11.4986 38.965 11.7482C40.6145 12.2319 42.2173 12.8247 43.8045 13.5112C45.9986 14.4629 48.0838 15.6175 50.0756 16.9436C52.472 18.5506 54.6506 20.4229 56.7358 22.4199C57.7006 23.356 58.6809 24.2765 59.7546 25.0878C60.7817 25.8523 61.6531 26.7728 62.6179 27.5997C63.8316 28.6763 65.0298 29.7684 66.2747 30.7981C66.3992 30.8917 66.5548 30.9854 66.6015 31.1414C66.6015 31.313 66.477 31.4066 66.4303 31.547C66.1658 32.0463 65.9324 32.5612 65.6678 33.076C65.6678 33.1072 65.6367 33.1384 65.6212 33.154C65.6056 33.2008 65.5745 33.232 65.5433 33.2788C65.5433 33.31 65.5122 33.3256 65.4967 33.3568C65.4655 33.4037 65.45 33.4349 65.4189 33.4817C65.2632 33.8093 65.0765 34.1369 64.952 34.4802C64.812 34.7922 64.6875 35.1043 64.5941 35.4319C64.5008 35.7283 64.4229 36.0248 64.314 36.3212C64.314 36.3836 64.2829 36.4304 64.2673 36.4772C64.1895 36.7581 64.1273 37.0389 64.0495 37.3197C64.0184 37.4445 64.0339 37.6006 63.8627 37.6318C63.8161 37.6006 63.7538 37.5694 63.7071 37.5226C63.1469 36.9921 62.5867 36.4616 62.0265 35.9312C61.1084 35.0731 60.1903 34.215 59.2878 33.3412C58.4164 32.5143 57.5605 31.703 56.6891 30.8761C55.8488 30.0648 54.9929 29.2691 54.1371 28.4735C53.3746 27.7558 52.6121 27.0381 51.8496 26.336C50.6669 25.2127 49.4687 24.1205 48.2861 22.9972C47.9126 22.6383 47.4925 22.3263 47.0723 21.9987C46.6833 21.7022 46.3409 21.3278 45.9675 21.0001C44.9093 20.0952 43.7889 19.2683 42.6063 18.5194C41.6882 17.9422 40.7545 17.4117 39.7742 16.9592C38.9339 16.5692 38.0936 16.2104 37.2066 15.9607C37.051 15.9139 36.8798 15.9295 36.7398 15.8515C36.413 15.7735 36.0862 15.7579 35.7594 15.6955C35.4326 15.6019 35.0903 15.6019 34.7635 15.5083C34.4834 15.5395 34.2033 15.3835 33.9232 15.4303C33.6431 15.2742 33.3319 15.4147 33.0518 15.321H33.0206H32.9895C32.7717 15.2274 32.5227 15.321 32.3048 15.243L32.3204 15.2742Z" fill="#FC0334"/>
<path d="M92.215 49.7545C93.0398 49.3956 93.8801 49.0524 94.7048 48.6624C95.4362 48.3035 96.1831 47.9603 96.93 47.617C97.1168 47.5546 97.2724 47.4454 97.4591 47.383C98.7974 47.7106 100.136 48.0227 101.489 48.3035C102.89 48.5843 104.306 48.8028 105.706 49.0212C107.543 49.302 109.394 49.5361 111.246 49.7545C112.164 49.8637 113.098 49.9261 114.032 50.0197C115.339 50.1289 116.63 50.1601 117.938 50.2694C119.136 50.363 120.334 50.4254 121.532 50.5034C121.812 50.519 122.108 50.4722 122.388 50.4566C123.617 50.3786 124.831 50.2069 126.029 49.9105C126.465 49.8013 126.901 49.7077 127.336 49.5985C128.052 49.4268 128.675 49.0212 129.328 48.678C131.756 47.461 133.841 45.8228 135.599 43.7478C135.848 43.4513 136.097 43.1549 136.3 42.8272C136.346 42.7492 136.393 42.6712 136.471 42.64C136.72 42.6712 136.704 42.8896 136.751 43.0613C136.798 43.2017 136.813 43.3577 136.813 43.4981C136.766 44.2938 136.689 45.0739 136.58 45.854C136.346 46.7121 136.206 47.6014 135.864 48.4439C135.335 49.7545 134.541 50.8934 133.623 51.9544C132.876 52.7969 132.083 53.577 131.087 54.1386C129.562 54.9967 127.928 55.4648 126.232 55.7924C123.773 56.2605 121.283 56.3385 118.793 56.2293C114.732 56.0577 110.733 55.418 106.765 54.5131C103.621 53.7954 100.525 52.9061 97.4747 51.8451C96.2142 51.4083 95.0005 50.8466 93.6778 50.597C93.6 50.5814 93.5066 50.5658 93.4288 50.5502C93.0398 50.441 92.713 50.1757 92.3551 49.9885C92.2617 49.9417 92.1995 49.8637 92.1995 49.7545H92.215Z" fill="#FC0334"/>
<path d="M39.7275 36.3056C39.5719 36.4148 39.3851 36.4616 39.214 36.524C37.1288 37.2105 35.1681 38.1934 33.2541 39.2699C32.2893 39.816 31.3245 40.3621 30.3908 40.9549C28.9903 41.8599 27.6676 42.874 26.4072 43.9661C25.1779 45.027 23.9641 46.088 22.8437 47.2581C21.1475 49.0523 19.6848 51.0182 18.5955 53.2336C17.693 55.0747 17.055 56.9937 16.7282 59.0064C16.5881 59.8801 16.4792 60.7538 16.4636 61.6431C16.4636 61.8927 16.417 62.1423 16.417 62.392C16.4325 64.1394 16.6348 65.8712 17.0238 67.5718C17.6152 70.0837 18.58 72.4552 19.8248 74.7175C20.3228 75.6068 20.8674 76.4649 21.4432 77.323C21.661 77.6506 21.8945 77.9471 22.1746 78.2123C22.5636 78.5711 22.8748 79.0236 23.2172 79.4292C24.1508 80.5838 25.1779 81.6447 26.3138 82.612C26.5939 82.8617 26.8429 83.1425 27.0763 83.4233C27.901 84.3594 28.7413 85.2644 29.6128 86.1537C29.7839 86.2005 29.8151 86.4189 30.0018 86.4501C30.0796 86.6217 30.1574 86.7933 30.3441 86.8713C30.3908 86.887 30.4375 86.9494 30.4686 86.9962C30.9199 87.667 31.449 88.2755 31.9781 88.884C32.8339 89.8825 33.7209 90.8342 34.639 91.7547C34.9347 92.0356 35.2614 92.2852 35.5727 92.566C35.7127 92.6909 35.8528 92.8157 35.9773 92.9561C36.0395 93.0185 36.1796 93.0809 36.1173 93.1901C36.0551 93.3305 35.8995 93.2837 35.775 93.2525C35.6972 93.2525 35.6349 93.1901 35.5727 93.1589C33.9232 92.3632 32.3515 91.4427 30.8265 90.4286C30.2352 90.0385 29.7061 89.5705 29.1459 89.1336C28.3523 88.5252 27.6365 87.8543 26.8585 87.2302C26.0648 86.6061 25.3023 85.9508 24.571 85.2644C23.8552 84.5935 23.1394 83.9226 22.408 83.2517C21.3187 82.2532 20.1827 81.3015 19.1246 80.2717C18.7978 79.9441 18.4088 79.6945 18.082 79.3668C17.7397 79.0392 17.4596 78.6647 17.2106 78.2435C17.1016 78.0563 16.9772 77.9003 16.8371 77.7442C15.6078 76.3713 14.5963 74.8579 13.8338 73.1729C13.1491 71.6439 12.6356 70.0369 12.3555 68.3675C12.231 67.6342 12.1532 66.9009 12.091 66.152C12.0287 65.4187 12.0287 64.6854 12.0443 63.9522C12.0599 63.2657 12.1532 62.5948 12.231 61.9083C12.3555 60.9254 12.5578 59.9737 12.7912 59.0219C12.9624 58.3355 13.1958 57.6646 13.4292 56.9937C13.6938 56.2136 13.9739 55.4491 14.254 54.669C14.6119 53.7017 15.1098 52.828 15.6389 51.9543C16.168 51.0806 16.6815 50.2069 17.2106 49.3332C17.5218 48.8027 17.8953 48.3346 18.2843 47.8666C19.0468 46.9617 19.9026 46.1504 20.7585 45.3235C21.4743 44.6526 22.2524 44.0597 23.046 43.4669C23.8552 42.8584 24.6488 42.2499 25.5202 41.735C25.9559 41.4854 26.4072 41.2202 26.8429 40.9862C27.8077 40.4713 28.7725 39.9408 29.7528 39.4572C31.34 38.6771 32.9895 37.9906 34.6857 37.4601C36.0706 37.0233 37.4711 36.6488 38.9027 36.3836C39.1517 36.3368 39.4007 36.2432 39.6808 36.29L39.7275 36.3056Z" fill="#ADF2FF"/>
<path d="M92.215 49.7544C92.5885 50.0197 92.9931 50.2537 93.4132 50.4565C94.2224 50.7998 94.9538 51.3146 95.7163 51.7671C98.2527 53.2649 100.789 54.7782 103.326 56.2916C104.944 57.2589 106.578 58.2263 108.196 59.1936C109.021 59.6928 109.846 60.1609 110.67 60.6758C110.888 60.8162 111.122 60.8786 111.34 61.0034C111.386 61.0658 111.371 61.1594 111.433 61.2374C113.549 62.5012 115.666 63.7493 117.782 65.0131C119.229 65.8868 120.676 66.7605 122.139 67.6186C124.037 68.7575 125.951 69.8809 127.85 71.0042C129.344 71.8935 130.838 72.7984 132.332 73.6877C133.934 74.6395 135.537 75.5912 137.14 76.5429C138.463 77.3386 139.785 78.1187 141.108 78.9144C142.322 79.6477 143.551 80.3654 144.765 81.0831C145.621 81.5979 146.025 82.3624 146.041 83.3453C146.041 83.5794 145.994 83.8134 145.901 84.0318C145.792 84.3126 145.823 84.3439 146.056 84.4687C147.255 85.1708 148.453 85.8884 149.651 86.6061C150.569 87.1522 151.16 87.9791 151.316 89.0088C151.565 90.6938 150.756 92.1448 149.309 92.8313C148.188 93.3774 147.083 93.2837 146.025 92.6753C144.827 91.9888 143.644 91.2711 142.462 90.5534C142.197 90.3974 142.197 90.3818 141.979 90.6158C141.186 91.4739 139.925 91.6611 138.914 91.0683C136.844 89.8357 134.759 88.6032 132.689 87.3706C130.106 85.826 127.508 84.2814 124.924 82.7525C122.341 81.2079 119.758 79.6633 117.159 78.1343C113.985 76.2465 110.811 74.3586 107.636 72.4552C105.084 70.9262 102.532 69.4128 99.98 67.8838C96.5254 65.8244 93.0709 63.7649 89.6163 61.7211C87.7957 60.629 85.9595 59.5368 84.1388 58.4603C83.6097 58.1483 83.2674 57.6802 83.0962 57.1029C83.0029 56.8065 83.0029 56.7909 82.6916 56.8845C81.7424 57.2121 80.622 56.6505 80.3886 55.5739C80.2797 55.1215 80.3575 54.6846 80.5753 54.279C80.6531 54.123 80.7932 53.9981 80.7932 53.8109C80.8243 53.7797 80.8554 53.7641 80.871 53.7329C80.9955 53.5457 80.9799 53.4677 80.7621 53.4365C80.622 53.4209 80.4664 53.4209 80.3108 53.4053C79.7506 53.3429 79.2059 53.2649 78.6613 53.2024C78.1011 53.14 77.5565 53.062 76.9963 52.9996C76.4983 52.9372 75.9848 52.8904 75.4868 52.828C74.9266 52.7656 74.3509 52.6876 73.7907 52.6252C73.495 52.594 73.1994 52.5472 72.9037 52.5316C72.6703 52.5316 72.5458 52.4224 72.4524 52.2195C72.3279 51.9699 72.2346 51.6891 72.0478 51.4706C72.0478 51.1898 71.8456 50.9558 71.7366 50.7217C70.6473 48.4439 69.5269 46.1816 68.4221 43.9037C68.0642 43.186 67.7219 42.4527 67.3795 41.735C67.4262 41.6414 67.5196 41.657 67.5818 41.657C68.4377 41.6882 69.2935 41.5946 70.1494 41.5634C71.1764 41.5322 72.2035 41.4854 73.2461 41.4386C74.3353 41.3762 75.4246 41.3138 76.5139 41.2826C76.5606 41.2826 76.6072 41.267 76.6539 41.2514C76.794 41.1422 76.9807 41.1422 77.1519 41.1266C77.6654 41.0798 78.1789 41.1266 78.6924 41.0486C78.8325 41.0174 78.957 41.0486 79.0815 41.1422C79.2215 41.1266 79.346 41.1422 79.4394 41.2826C79.486 41.3294 79.5483 41.3606 79.5794 41.4074C79.6572 41.501 79.735 41.6102 79.8128 41.7194C80.0463 42.0159 80.2641 42.3123 80.4664 42.64C80.482 42.6712 80.4975 42.7024 80.4975 42.7336C80.4975 42.7492 80.4975 42.7648 80.4975 42.7804C81.011 43.5293 81.5246 44.2782 82.0536 45.0114C82.6916 45.9164 83.3296 46.8213 83.9676 47.7262C83.9832 47.7574 83.9988 47.7886 84.0299 47.8198C84.2166 48.0694 84.2477 48.0694 84.4034 47.8198C84.5434 47.5858 84.6679 47.3361 84.8391 47.1333C85.2903 46.5872 85.8817 46.3688 86.5663 46.4936C87.2822 46.634 87.7646 47.0709 87.9668 47.7886C88.0135 47.929 87.9668 48.1162 88.0913 48.2098C88.2158 48.3035 88.3714 48.1786 88.5115 48.163C89.1028 48.085 89.6319 48.2254 90.1454 48.5219C90.8301 48.9275 91.4992 49.3644 92.1995 49.7232L92.215 49.7544Z" fill="#606060"/>
<path d="M111.324 61.0659C110.92 60.9723 110.577 60.7383 110.235 60.5198C108.554 59.5213 106.858 58.5072 105.178 57.5087C103.73 56.6506 102.283 55.7769 100.82 54.9188C99.4044 54.0763 97.9883 53.2338 96.5567 52.3757C95.5919 51.7984 94.6115 51.2211 93.6467 50.6438C93.5689 50.597 93.46 50.5502 93.4133 50.4566C94.2225 50.597 95.0161 50.7843 95.7786 51.0807C97.4125 51.736 99.0931 52.282 100.774 52.7969C102.501 53.3274 104.228 53.7954 105.987 54.2011C107.807 54.6379 109.644 55.0124 111.495 55.3244C112.662 55.5272 113.829 55.6833 114.997 55.8081C115.681 55.8861 116.382 55.9329 117.066 55.9953C118.669 56.1357 120.272 56.1513 121.875 56.1201C122.746 56.1045 123.602 56.0109 124.473 55.9173C125.718 55.7925 126.932 55.5584 128.13 55.2308C129.593 54.8095 130.993 54.2323 132.207 53.265C132.565 52.9841 132.907 52.6565 133.188 52.2976C133.483 51.9232 133.826 51.6112 134.121 51.2367C135.086 50.0042 135.833 48.6624 136.191 47.1334C136.284 46.7122 136.362 46.2753 136.502 45.8697C136.595 45.7916 136.486 45.6356 136.626 45.5576C136.751 45.6824 136.689 45.8229 136.673 45.9633C136.393 47.9759 135.895 49.9261 135.102 51.7828C134.853 52.0636 134.759 52.4381 134.588 52.7657C134.401 53.1401 134.183 53.5146 134.059 53.9202C134.028 54.0295 133.981 54.1387 133.903 54.2167C133.343 54.8876 132.985 55.6989 132.409 56.3541C132.114 56.6818 131.849 57.025 131.507 57.3058C131.118 57.6335 130.76 58.0079 130.418 58.3824C130.324 58.4916 130.246 58.5852 130.138 58.6788C129.437 59.3029 128.721 59.9426 127.959 60.4886C126.994 61.1907 125.92 61.6276 124.785 61.9396C122.715 62.5169 120.599 62.7821 118.436 62.6261C116.226 62.4545 114.063 62.0332 111.962 61.2843C111.807 61.2375 111.651 61.1907 111.495 61.1439C111.433 61.1127 111.34 61.1439 111.324 61.0659Z" fill="#8C0029"/>
<path d="M69.2002 8.90867C69.5426 8.83066 69.8227 8.61224 70.1339 8.47182C71.2076 7.95696 72.3436 7.58251 73.4795 7.20807C74.7711 6.77121 76.0782 6.36556 77.4009 6.05353C78.8481 5.71028 80.2953 5.41385 81.7736 5.16422C82.2871 5.08621 82.8006 4.97699 83.3141 4.89898C83.5787 4.85218 83.8588 4.83658 84.1233 4.80537C85.4616 4.69616 86.7998 4.66496 88.1536 4.72736C89.6942 4.80537 91.2036 5.055 92.6508 5.61667C93.3977 5.91311 94.0824 6.33436 94.6426 6.89603C95.4985 7.75413 95.8097 8.79946 95.6074 10.0008C95.4362 10.9837 94.9538 11.795 94.3936 12.5751C93.9424 13.2148 93.4289 13.8077 92.8531 14.3537C91.935 15.1962 91.0013 15.9919 89.9899 16.7252C88.5582 17.755 87.0488 18.6599 85.5083 19.5336C84.03 20.3761 82.5672 21.2498 81.0733 22.0767C79.9996 22.6696 78.9259 23.278 77.8989 23.9489C76.4673 24.885 75.0356 25.8367 73.6818 26.8821C72.9038 27.4749 72.1102 28.0522 71.441 28.7855C70.8964 29.3784 70.3673 29.9868 69.8694 30.6265C69.6204 30.9542 69.3247 31.235 69.0446 31.547C67.3018 33.5129 65.9635 35.6971 65.2166 38.2247C64.9832 39.0047 64.8587 39.816 64.7809 40.6429C64.6875 41.5323 64.7809 42.406 64.952 43.2641C65.1077 43.9974 65.3411 44.6994 65.6367 45.3859C65.9791 46.166 66.3214 46.9305 66.8661 47.6014C67.4729 48.3659 68.1732 49.0368 68.9668 49.614C69.6982 50.1445 70.4607 50.597 71.2699 50.987C71.3632 51.0338 71.4721 51.0962 71.5811 51.1586C71.4255 51.3459 71.2387 51.2366 71.0831 51.299C71.0053 51.2054 70.8653 51.299 70.7875 51.221C70.7097 51.143 70.6007 51.1898 70.5229 51.143C70.4607 51.143 70.3984 51.143 70.3362 51.0962C70.2895 50.987 70.165 51.0494 70.1028 50.987C69.9938 50.909 69.8538 50.8934 69.7293 50.831C69.6826 50.7842 69.6204 50.7998 69.5737 50.753C69.5426 50.7062 69.4648 50.7218 69.4181 50.675C69.387 50.6282 69.3092 50.6438 69.2625 50.597C69.2313 50.5502 69.1535 50.5658 69.1069 50.519C69.0757 50.4721 68.9979 50.4877 68.9512 50.4409C68.8423 50.3473 68.6867 50.3005 68.5778 50.2225C68.4689 50.1289 68.3132 50.0821 68.2043 49.9885C68.1421 49.9261 68.0487 49.8949 67.9709 49.8325C67.9398 49.8013 67.8931 49.7857 67.862 49.7545C67.8308 49.7233 67.7842 49.7077 67.753 49.6764C67.7375 49.6452 67.7064 49.6296 67.6752 49.5984C67.613 49.536 67.5196 49.5048 67.4574 49.4424C67.4263 49.4112 67.4107 49.3956 67.3796 49.3644C67.3485 49.3332 67.3018 49.3176 67.2706 49.2864C67.1928 49.2084 67.115 49.1304 67.0061 49.068C66.9905 49.0368 66.9594 49.0212 66.9283 48.99C66.9127 48.9588 66.8816 48.9432 66.8505 48.912C66.8349 48.8808 66.8038 48.8652 66.7727 48.834C66.7571 48.8027 66.726 48.7871 66.6949 48.7559C66.6793 48.7247 66.6482 48.7091 66.6171 48.6779C66.6015 48.6467 66.5704 48.6311 66.5393 48.5999C66.5237 48.5687 66.4926 48.5531 66.4615 48.5219C66.4459 48.4907 66.4148 48.4751 66.3837 48.4439C66.3681 48.4127 66.337 48.3971 66.3059 48.3659C66.2903 48.3347 66.2592 48.3191 66.2281 48.2879C66.1503 48.1631 66.0413 48.0695 65.9324 47.9602C65.9013 47.929 65.8857 47.8822 65.839 47.851C65.8235 47.8198 65.7923 47.8042 65.7612 47.773C65.7457 47.7418 65.7145 47.7262 65.6834 47.695C65.6367 47.6014 65.5434 47.5234 65.4656 47.4298C65.4344 47.3986 65.4189 47.3518 65.3722 47.3206C65.3411 47.2582 65.2944 47.1958 65.2321 47.1333C65.201 47.1021 65.1855 47.0553 65.1543 47.0241C65.1077 46.9461 65.0454 46.8681 64.9832 46.7901C64.8898 46.6341 64.812 46.4937 64.7031 46.3376C64.6564 46.2596 64.6097 46.1816 64.5475 46.1192C64.4385 45.9476 64.3763 45.7448 64.2518 45.5888C64.2051 45.542 64.2207 45.4639 64.1429 45.4327C64.0962 45.3547 64.0339 45.2767 64.0339 45.1831C64.0028 45.1207 64.0028 45.0427 63.9561 44.9959C63.9095 44.8399 63.8316 44.715 63.7694 44.559C63.7072 44.3718 63.6138 44.2002 63.5515 44.0286C63.5515 43.935 63.5204 43.8569 63.4737 43.7789C63.4737 43.6541 63.3648 43.5293 63.3959 43.4045C63.287 43.0612 63.287 42.7024 63.1781 42.3592C63.1781 42.1407 63.1625 41.9067 63.1003 41.6883C63.0536 41.4074 63.2092 41.1266 63.1625 40.8458C63.2403 40.5805 63.287 40.3153 63.3804 40.0501C63.4582 39.8316 63.4426 39.5976 63.536 39.3792C63.536 39.2856 63.536 39.192 63.536 39.0828C63.6138 38.8799 63.5671 38.6615 63.676 38.4587C63.676 38.3651 63.676 38.2559 63.6916 38.1622C63.8005 37.6006 63.9406 37.0545 64.0495 36.4928C64.0962 36.4148 64.1273 36.3212 64.1273 36.2276C64.2674 35.9468 64.314 35.6347 64.4074 35.3227C64.5008 34.9951 64.6408 34.6674 64.7809 34.3554C64.8898 34.0121 65.0921 33.7157 65.2321 33.4037C65.2633 33.3413 65.3099 33.2945 65.3411 33.232C65.3878 33.2008 65.3722 33.1228 65.4189 33.076C65.7457 32.5456 65.9635 31.9683 66.2747 31.4378C66.337 31.2974 66.4148 31.1726 66.5393 31.0634C66.8349 30.6577 67.115 30.2521 67.4107 29.8464C68.889 27.7714 70.7408 26.0864 72.7326 24.5262C74.0086 23.5277 75.3935 22.6852 76.7162 21.7646C79.1282 20.0796 81.6802 18.6131 84.1544 17.0373C84.8236 16.616 85.4616 16.1636 86.1151 15.7267C86.2396 15.6487 86.3641 15.5551 86.473 15.4459C87.1889 14.6502 88.0758 14.0573 88.8694 13.3708C89.6631 12.6999 90.41 11.9822 91.048 11.171C91.437 10.6717 91.7794 10.1256 91.935 9.50155C92.1684 8.64344 91.8883 7.92575 91.1414 7.42649C90.5345 7.02084 89.8498 6.84922 89.1496 6.72441C88.1225 6.53718 87.0955 6.53718 86.0685 6.56839C84.1544 6.6308 82.256 6.91163 80.3731 7.27047C78.0856 7.70733 75.8448 8.269 73.604 8.92428C72.9971 9.0959 72.3747 9.1427 71.7678 9.25192C71.3788 9.32993 70.9898 9.40794 70.5852 9.42354C69.7915 9.47034 69.0291 9.70437 68.251 9.82919C67.9087 9.87599 67.5819 9.9384 67.1617 9.89159C67.4574 9.65757 67.7219 9.54835 67.9865 9.42354C68.3599 9.25192 68.7178 9.06469 69.0602 8.81506L69.2002 8.90867Z" fill="#FDDA00"/>
<path d="M80.4509 42.7648C80.2175 42.4372 79.9997 42.1095 79.7662 41.7975C79.7818 41.7195 79.844 41.6883 79.9063 41.6727C79.9841 41.6727 80.0775 41.6727 80.1553 41.6259C80.9178 41.2826 81.618 40.8146 82.3183 40.3777C83.9366 39.3636 85.6017 38.4119 87.2823 37.4758C88.4027 36.8361 89.4141 36.056 90.5034 35.3695C92.1684 34.3242 93.8802 33.3569 95.6541 32.5144C95.9342 32.3739 96.1988 32.2179 96.4789 32.0619C98.3306 31.1102 100.151 30.1117 102.034 29.238C103.435 28.5827 104.913 28.1458 106.422 27.8026C107.029 27.6622 107.636 27.5062 108.243 27.3813C108.912 27.2253 109.597 27.1473 110.266 27.0381C110.92 27.0069 111.573 26.8821 112.227 26.7885C113.16 26.6324 114.094 26.5232 115.043 26.4452C117.144 26.258 119.245 26.258 121.345 26.2268C121.797 26.2268 122.232 26.1644 122.684 26.1644C124.006 26.1176 125.314 26.2892 126.621 26.492C127.352 26.6012 128.099 26.6792 128.83 26.8353C129.671 27.0069 130.511 27.1785 131.32 27.4593C132.192 27.7558 133.016 28.177 133.794 28.6763C133.903 28.7387 133.997 28.8167 134.074 28.9103C134.323 29.3316 134.681 29.6592 135.055 29.9556C135.444 30.2833 135.584 30.7357 135.833 31.1414C136.004 31.469 136.175 31.7967 136.315 32.1399C136.595 32.6548 136.689 33.2321 136.798 33.7937C136.875 34.2618 136.782 34.6986 136.689 35.1511C136.673 35.2603 136.626 35.3695 136.533 35.4475C136.346 35.7128 136.16 35.9624 136.082 36.2744C135.848 36.6957 135.537 37.0545 135.179 37.3978C135.024 37.1793 135.133 36.9453 135.117 36.7113C135.086 36.0716 135.117 35.4475 135.024 34.8078C134.868 33.8249 134.572 32.8888 133.903 32.1243C133.794 31.9995 133.67 31.8903 133.53 31.8279C132.939 31.5158 132.409 31.079 131.803 30.7982C130.573 30.2209 129.282 29.8308 127.943 29.5968C127.025 29.4408 126.107 29.3628 125.189 29.238C125.158 29.238 125.142 29.238 125.111 29.238C123.882 29.1756 122.653 29.1131 121.423 29.1756C120.552 29.2224 119.696 29.2536 118.825 29.316C118.14 29.3784 117.44 29.4096 116.755 29.472C116.086 29.5188 115.417 29.5812 114.763 29.6592C114.047 29.7528 113.347 29.862 112.631 29.9713C111.666 30.1273 110.702 30.3145 109.752 30.5329C107.481 31.0322 105.271 31.7187 103.077 32.4832C101.754 32.9512 100.447 33.4817 99.1554 34.0277C97.4903 34.7298 95.8408 35.5099 94.2381 36.3524C92.5263 37.2417 90.8302 38.1935 89.1807 39.2076C88.5116 39.6132 87.8736 40.0813 87.1578 40.3933C86.1618 40.8146 85.2282 41.3606 84.2478 41.8131C83.2831 42.2656 82.2871 42.5932 81.2445 42.7648C81.0111 42.796 80.7777 42.7648 80.5443 42.8428C80.5132 42.8428 80.4976 42.8272 80.4976 42.796L80.4509 42.7648Z" fill="#FDDA00"/>
<path d="M122.544 6.81797C122.466 8.11293 122.092 9.32988 121.392 10.4064C120.77 11.3737 120.007 12.2474 118.996 12.8871C118.498 13.1992 118.047 13.6204 117.595 13.9948C115.899 15.399 114.11 16.6784 112.258 17.8641C110.219 19.1591 108.134 20.376 105.987 21.4838C105.38 21.7958 104.757 22.0922 104.119 22.3107C103.575 22.4979 103.092 22.8099 102.579 23.044C100.96 23.7616 99.3576 24.4793 97.7393 25.197C95.3584 26.2579 92.8998 27.1473 90.41 27.9586C89.1963 28.3486 87.9669 28.7074 86.7376 29.0819C86.6598 29.1131 86.5664 29.1131 86.4886 29.1287C86.4419 29.0975 86.4419 29.0663 86.4886 29.0351C86.5197 29.0195 86.5509 28.9883 86.5664 28.9571C87.4379 28.099 88.3093 27.2409 89.2118 26.4296C89.5697 26.4296 89.8965 26.2891 90.2233 26.1799C91.8416 25.7119 93.4444 25.1814 95.0317 24.5885C96.2299 24.1361 97.4125 23.668 98.5952 23.1844C99.4977 22.8255 100.369 22.4043 101.256 22.0142C102.859 21.3121 104.431 20.5164 105.987 19.7051C107.574 18.8938 109.13 17.9889 110.655 17.0528C111.526 16.5068 112.382 15.9295 113.238 15.3522C113.487 15.1806 113.736 15.0246 114.001 14.8842C114.327 14.7125 114.608 14.4941 114.872 14.2445C115.821 13.324 116.817 12.4659 117.704 11.4829C118.98 10.0632 119.836 8.44057 120.194 6.55274C120.334 5.81945 120.35 5.07056 120.194 4.33727C120.116 3.97843 119.945 3.66639 119.743 3.32315C119.992 3.29194 120.163 3.43236 120.318 3.54157C120.941 3.94722 121.501 4.46209 121.937 5.07056C122.295 5.58542 122.528 6.16269 122.575 6.78677L122.544 6.81797Z" fill="#ADF2FF"/>
<path d="M129.126 3.58845C129.842 4.75859 129.826 5.99114 129.531 7.2705C129.157 8.87749 128.379 10.2817 127.383 11.5766C126.574 12.622 125.703 13.6205 124.676 14.4474C124.178 14.8374 123.68 15.2275 123.119 15.5239C122.606 15.7891 122.092 16.0856 121.579 16.3664C121.408 16.46 121.252 16.538 121.019 16.4444C121.423 15.914 121.672 15.3211 121.968 14.7594C121.999 15.1339 122.155 15.2275 122.497 15.0871C122.886 14.931 123.197 14.6814 123.524 14.4162C124.411 13.7297 125.096 12.856 125.734 11.9667C126.605 10.7497 127.29 9.42356 127.881 8.05059C128.27 7.13008 128.566 6.17836 128.659 5.17984C128.721 4.47776 128.706 3.77567 128.659 3.05798C128.83 3.05798 128.924 3.2296 129.064 3.29201C129.157 3.35442 128.846 3.29201 129.033 3.38562C129.11 3.43243 129.064 3.54164 129.142 3.58845H129.126Z" fill="#ADF2FF"/>
<path d="M133.81 14.9623C133.81 14.8999 133.794 14.8219 133.701 14.8999C133.421 15.1495 133.11 15.3523 132.814 15.5707C132.036 16.1168 131.196 16.5381 130.277 16.7721C129.764 16.9125 129.25 16.9437 128.737 16.8657C128.426 16.8189 128.115 16.8189 127.819 16.7565C127.585 16.6941 127.352 16.6473 127.212 16.4444C127.134 16.3508 127.072 16.2416 127.165 16.1324C127.305 15.9608 127.399 15.7112 127.648 15.6332C127.648 15.8516 127.741 15.9452 127.959 15.9452C128.363 15.9608 128.737 15.8204 129.126 15.7268C129.982 15.5083 130.729 15.0871 131.476 14.619C132.456 14.0106 133.312 13.2773 134.106 12.4348C134.23 12.2943 134.339 12.1383 134.463 12.0135C134.572 11.9043 134.666 11.9355 134.681 12.0915C134.681 12.1695 134.681 12.2631 134.681 12.3568C134.619 12.9652 134.526 13.5581 134.246 14.1198C134.137 14.3382 133.997 14.5722 133.965 14.8219C133.965 14.8843 133.919 14.9311 133.841 14.9623H133.81Z" fill="#ADF2FF"/>
<path d="M136.735 43.4982C136.673 43.2017 136.735 42.8897 136.486 42.6556C136.595 42.3748 136.782 42.1564 136.984 41.9224C136.906 42.5932 137.015 43.2797 136.875 43.9506C136.658 43.857 136.844 43.6386 136.735 43.4982Z" fill="#931035"/>
<path d="M135.755 31.1414C135.584 31.001 135.506 30.8138 135.459 30.5954C135.428 30.4705 135.382 30.3769 135.273 30.2833C134.961 29.9869 134.65 29.6904 134.339 29.3784C134.199 29.238 134.059 29.0976 134.043 28.8792C134.541 29.316 135.008 29.8153 135.459 30.2833C135.459 30.3301 135.491 30.3613 135.522 30.3769C135.537 30.6422 135.817 30.8138 135.771 31.0946C135.771 31.0946 135.739 31.1258 135.724 31.1414H135.755Z" fill="#FDE446"/>
<path d="M136.735 43.498C136.891 43.6073 136.735 43.8257 136.875 43.9505C136.875 44.637 136.782 45.3079 136.673 45.9944C136.673 45.8851 136.673 45.7915 136.658 45.6667C136.564 45.7135 136.626 45.8539 136.517 45.9007C136.502 45.7291 136.564 45.5575 136.595 45.3859C136.673 44.7618 136.751 44.1377 136.751 43.498H136.735Z" fill="#9E163B"/>
<path d="M132.332 9.82925C132.3 9.70443 132.285 9.57962 132.238 9.47041C132.16 9.26758 132.145 9.08036 132.285 8.90874C132.347 8.83073 132.347 8.75272 132.285 8.69031C132.129 8.53429 132.145 8.36267 132.238 8.17545C132.3 8.05063 132.316 7.91022 132.332 7.7854C132.456 8.03503 132.409 8.31586 132.441 8.5811C132.487 9.00235 132.441 9.4236 132.332 9.82925Z" fill="#3BBED8"/>
<path d="M16.946 39.972C16.7437 39.7068 16.6193 39.3948 16.4792 39.0983C16.308 38.7395 16.1524 38.3806 15.9812 38.0218C15.9346 37.9282 15.9034 37.8346 15.9034 37.741C16.1369 38.0374 16.2769 38.3962 16.4325 38.7551C16.5881 39.0983 16.7282 39.4572 16.9616 39.7692C16.9927 39.8472 16.9616 39.9096 16.9616 39.9876L16.946 39.972Z" fill="#C02A4E"/>
<path d="M136.3 32.1087C136.066 31.8123 135.911 31.4846 135.755 31.1414C135.895 31.0946 135.911 31.2506 135.988 31.2818C136.097 31.547 136.284 31.7967 136.284 32.1087H136.3Z" fill="#FDE54C"/>
<path d="M56.5335 48.7247C56.3312 48.5063 56.0511 48.4127 55.8177 48.2255C55.7243 48.1475 55.5843 48.1162 55.5687 47.9758C55.9733 48.1318 56.3157 48.4127 56.6736 48.6623C56.6269 48.6779 56.5802 48.7091 56.5335 48.7247Z" fill="#C4C6D2"/>
<path d="M131.6 5.91308C131.32 5.69466 130.993 5.50743 130.993 5.08618C131.227 5.33581 131.429 5.61665 131.6 5.91308Z" fill="#4EC5DC"/>
<path d="M134.572 52.7813C134.681 52.4224 134.759 52.048 135.086 51.7983C134.915 52.126 134.852 52.5004 134.572 52.7813Z" fill="#C2788D"/>
<path d="M136.066 36.2432C136.051 35.8687 136.237 35.6191 136.517 35.4163C136.393 35.7127 136.269 35.9935 136.066 36.2432Z" fill="#FDDF26"/>
<path d="M136.004 31.2818C135.926 31.235 135.848 31.1882 135.771 31.1413C135.771 31.0009 135.724 30.8761 135.646 30.7669C135.553 30.6577 135.537 30.5329 135.553 30.3925C135.739 30.6733 135.895 30.9697 136.02 31.2818H136.004Z" fill="#FEE863"/>
<path d="M45.1739 35.5099C44.9716 35.2759 44.8471 34.9951 44.6604 34.7454C44.6604 34.7142 44.6604 34.683 44.676 34.6362C44.8938 34.8547 45.0339 35.1355 45.1895 35.4007C45.2206 35.4475 45.2206 35.4787 45.1895 35.5099H45.1739Z" fill="#BFC7D3"/>
<path d="M30.0329 86.4501C29.9863 86.4969 29.9551 86.4969 29.9085 86.4501C29.8151 86.3565 29.7062 86.2785 29.6439 86.1537C29.675 86.1225 29.6906 86.1069 29.7217 86.0757C29.8618 86.1693 29.924 86.3253 30.0329 86.4501Z" fill="#70D1E4"/>
<path d="M97.4591 47.383C97.3191 47.5234 97.1323 47.6014 96.9301 47.617C97.0701 47.461 97.2724 47.3986 97.4747 47.3362C97.4747 47.3518 97.4747 47.3674 97.4747 47.3986L97.4591 47.383Z" fill="#FE9A89"/>
<path d="M129.126 3.58841C129.048 3.5416 129.017 3.46359 128.97 3.38558C128.908 3.29197 129.002 3.29197 129.048 3.27637C129.095 3.32317 129.157 3.36998 129.204 3.43239C129.142 3.46359 129.126 3.526 129.126 3.58841Z" fill="#5BCDE3"/>
<path d="M66.6793 31.1414C66.6326 31.2818 66.5392 31.391 66.4614 31.5158C66.4303 31.547 66.3992 31.547 66.368 31.5158C66.4147 31.3598 66.4925 31.2506 66.6015 31.1414H66.6793Z" fill="#FEC99A"/>
<path d="M132.331 7.7853C132.207 7.7073 132.254 7.58248 132.254 7.47327C132.331 7.56688 132.331 7.67609 132.331 7.7853Z" fill="#3BBED8"/>
<path d="M111.324 61.0658C111.386 61.0814 111.464 61.0814 111.495 61.1438C111.464 61.175 111.449 61.1906 111.417 61.2218C111.355 61.1906 111.184 61.2218 111.324 61.0658Z" fill="#D0C0C5"/>
<path d="M133.748 15.1183C133.748 15.0559 133.748 14.9935 133.81 14.9623C133.81 15.0247 133.81 15.0871 133.748 15.1183Z" fill="#ADF2FF"/>
<path d="M132.254 10.2036C132.254 10.1412 132.254 10.0788 132.3 10.032C132.3 10.0944 132.3 10.1568 132.254 10.2036Z" fill="#3BBED8"/>
<path d="M135.537 30.3926C135.49 30.377 135.475 30.3458 135.475 30.299C135.49 30.3302 135.522 30.3614 135.537 30.3926Z" fill="#FEE863"/>
<path d="M64.2362 36.5553C64.1428 37.1326 64.0183 37.7098 63.8627 38.2715C63.8005 38.2091 63.816 38.1623 63.8627 38.0999C63.8627 37.9595 63.8783 37.819 63.8938 37.6786C64.0494 37.2886 64.065 36.8517 64.2362 36.4617C64.2673 36.4929 64.2829 36.5241 64.2362 36.5709V36.5553Z" fill="#F7C680"/>
<path d="M47.3991 39.036C47.0879 38.6928 46.8545 38.3027 46.6366 37.8971C46.6677 37.8659 46.6833 37.8659 46.7144 37.8971C46.9478 38.2403 47.1812 38.5991 47.3991 38.9424C47.4302 38.9892 47.4302 39.0204 47.3991 39.0516V39.036Z" fill="#B9BCCB"/>
<path d="M52.721 45.8073C52.4254 45.6668 51.9585 45.1988 51.8185 44.9023C52.1453 45.1676 52.4565 45.464 52.721 45.8073Z" fill="#B5BECC"/>
<path d="M63.3337 40.877C63.3026 41.1735 63.287 41.4699 63.2559 41.7508C63.287 41.86 63.3181 41.9692 63.2403 42.0784C63.1158 41.6103 63.1936 41.1579 63.3181 40.6898C63.3804 40.7366 63.3648 40.799 63.3337 40.8614V40.877Z" fill="#E4B980"/>
<path d="M63.3337 42.4371C63.4427 42.7804 63.4738 43.1392 63.5516 43.4981C63.5205 43.5293 63.5049 43.5293 63.4738 43.4981C63.3648 43.186 63.3182 42.8584 63.2715 42.5307C63.2715 42.4995 63.287 42.4683 63.3337 42.4527V42.4371Z" fill="#EAC367"/>
<path d="M49.3442 41.7195C49.1263 41.4543 48.9552 41.1891 48.7996 40.877C48.8307 40.8458 48.8618 40.8458 48.8929 40.877C49.0485 41.1267 49.2042 41.3763 49.3598 41.6103C49.3909 41.6571 49.3909 41.6883 49.3598 41.7195H49.3442Z" fill="#BBBECC"/>
<path d="M48.5195 40.4401C48.3483 40.2529 48.1927 40.0813 48.0838 39.8629C48.0838 39.8317 48.0838 39.8161 48.0682 39.7849C48.0682 39.7849 48.0838 39.7693 48.0994 39.7537C48.3017 39.9565 48.4728 40.1749 48.6129 40.4245C48.5818 40.4714 48.5662 40.4714 48.5195 40.4245V40.4401Z" fill="#B9B4C3"/>
<path d="M35.7594 15.7267C36.1017 15.7267 36.4285 15.7267 36.7397 15.8827C36.3974 15.8827 36.0706 15.8515 35.7594 15.7267Z" fill="#D72950"/>
<path d="M34.7947 15.5083C35.0592 15.5551 35.3393 15.6019 35.6039 15.6487C35.6661 15.6487 35.7283 15.6643 35.7595 15.7267C35.4327 15.7267 35.1059 15.6643 34.7947 15.5707C34.7636 15.5707 34.7635 15.5395 34.7635 15.5239C34.7635 15.5239 34.7791 15.4927 34.7947 15.4927V15.5083Z" fill="#D72950"/>
<path d="M34.7946 15.5083C34.7946 15.5239 34.7946 15.5551 34.7946 15.5707C34.4522 15.5707 34.1254 15.5239 33.8142 15.4302C33.8453 15.3834 33.8765 15.3834 33.9076 15.4302C34.2032 15.399 34.4989 15.5083 34.7946 15.5239V15.5083Z" fill="#D82F55"/>
<path d="M63.3337 40.877C63.3337 40.8146 63.3337 40.7678 63.3181 40.7054C63.3181 40.5026 63.3804 40.2997 63.4582 40.1125C63.4737 40.0813 63.5048 40.0813 63.536 40.1125C63.4737 40.3621 63.3959 40.6274 63.3337 40.877Z" fill="#F3D564"/>
<path d="M33.9077 15.4147C33.8766 15.4147 33.8454 15.4147 33.8143 15.4147C33.5653 15.3835 33.3008 15.4771 33.0674 15.3367C33.3475 15.3211 33.6276 15.2899 33.9077 15.3991V15.4147Z" fill="#DC274E"/>
<path d="M49.3442 41.7194C49.3442 41.6882 49.3442 41.6414 49.3442 41.6102C49.4843 41.7662 49.6088 41.9535 49.7177 42.1407C49.7488 42.1875 49.7488 42.2187 49.7177 42.2499C49.5621 42.0939 49.4376 41.9223 49.3442 41.7194Z" fill="#BDB9C7"/>
<path d="M51.6628 44.7774C51.5072 44.6526 51.3672 44.5278 51.2894 44.3406C51.2894 44.3094 51.2894 44.2938 51.2738 44.2626C51.2738 44.2626 51.2894 44.2626 51.3049 44.2469C51.4605 44.4186 51.6317 44.5746 51.7406 44.7774C51.7095 44.793 51.694 44.8086 51.6628 44.7774Z" fill="#B9B1C1"/>
<path d="M63.5359 40.1125C63.5048 40.1125 63.4893 40.1125 63.4581 40.1125C63.5048 39.8941 63.5515 39.66 63.5982 39.4416C63.6293 39.4104 63.6449 39.4104 63.676 39.4416C63.6604 39.6756 63.6137 39.8941 63.5359 40.1125Z" fill="#E5BC83"/>
<path d="M63.816 38.5523C63.7538 38.7395 63.8004 38.958 63.6915 39.1452C63.676 39.1764 63.6448 39.1764 63.6293 39.1452C63.6293 38.9424 63.6604 38.7395 63.7382 38.5367C63.7693 38.5055 63.7849 38.5055 63.816 38.5367V38.5523Z" fill="#E3B87D"/>
<path d="M51.2116 44.247C51.0871 44.1534 50.9782 44.0442 50.9159 43.8882C50.8848 43.857 50.9004 43.8102 50.9159 43.7946C51.056 43.935 51.1805 44.091 51.2894 44.247L51.2738 44.2626C51.2583 44.2626 51.2271 44.2626 51.2116 44.2626V44.247Z" fill="#B8B3C3"/>
<path d="M63.3336 42.4372C63.3181 42.4684 63.3025 42.4996 63.2714 42.5152C63.2247 42.3748 63.2403 42.2344 63.2403 42.094C63.2403 41.9848 63.2403 41.8756 63.2558 41.7664C63.3803 41.9848 63.3025 42.2188 63.3336 42.4372Z" fill="#EBC980"/>
<path d="M63.7071 44.091C63.7849 44.2626 63.8783 44.4342 63.9094 44.6214C63.8783 44.6526 63.8627 44.6526 63.8316 44.6214C63.7382 44.4654 63.676 44.2782 63.6293 44.1066C63.6448 44.0754 63.6604 44.0598 63.6915 44.1066L63.7071 44.091Z" fill="#F0CE6E"/>
<path d="M64.3607 45.6667C64.5475 45.7916 64.6253 45.9788 64.6564 46.1972C64.4852 46.0568 64.3918 45.8852 64.3607 45.6667Z" fill="#EDC973"/>
<path d="M32.3204 15.2743C32.5539 15.3055 32.8028 15.1963 33.0051 15.3523C32.7717 15.3523 32.5383 15.3991 32.3204 15.2743Z" fill="#DC274E"/>
<path d="M47.3991 39.036C47.3991 39.0048 47.3991 38.9736 47.3991 38.9268C47.5392 39.0672 47.6636 39.2076 47.757 39.3792C47.7259 39.426 47.6948 39.426 47.6636 39.3792C47.5547 39.27 47.4302 39.1764 47.3835 39.0204L47.3991 39.036Z" fill="#BBAEBE"/>
<path d="M47.6948 39.3792C47.7259 39.3792 47.7571 39.3792 47.7882 39.3792C47.8971 39.4884 48.0216 39.6132 48.0994 39.7536L48.0839 39.7692H48.0527H48.0216C47.8816 39.6756 47.7882 39.5508 47.7104 39.3948L47.6948 39.3792Z" fill="#B8B9C8"/>
<path d="M64.812 46.4156C64.9832 46.5249 65.061 46.6965 65.1388 46.8525C65.1077 46.8837 65.0921 46.8837 65.061 46.8525C64.9676 46.7121 64.8276 46.5873 64.812 46.4156Z" fill="#EECD75"/>
<path d="M53.2501 46.2596C53.0633 46.2596 52.97 46.1036 52.861 45.9788C52.8455 45.9476 52.8455 45.932 52.861 45.9008C53.0011 46.01 53.1723 46.088 53.2345 46.2596H53.2501Z" fill="#B7B2C1"/>
<path d="M66.0257 47.9759C66.1502 48.0851 66.3058 48.1631 66.3214 48.3503C66.1658 48.2567 66.0569 48.1163 65.9635 47.9759C65.9791 47.9603 66.0102 47.9447 66.0257 47.9759Z" fill="#E7BD6B"/>
<path d="M53.9658 46.8681C53.8414 46.8213 53.748 46.7589 53.6857 46.6497C53.6702 46.6185 53.6702 46.6029 53.6857 46.5717C53.8258 46.6341 53.9503 46.7433 54.0592 46.8525C54.0281 46.8837 53.997 46.8837 53.9658 46.8525V46.8681Z" fill="#B3AABB"/>
<path d="M63.8472 44.6215C63.8783 44.6215 63.8939 44.6215 63.925 44.6215C63.9872 44.7619 64.0961 44.9023 64.065 45.0739C63.925 44.9491 63.8939 44.7931 63.8472 44.6215Z" fill="#EAC372"/>
<path d="M46.3565 37.429C46.2475 37.3198 46.1542 37.2106 46.1542 37.0389C46.3098 37.1169 46.3409 37.2886 46.4343 37.4134C46.4187 37.4446 46.3876 37.4602 46.3565 37.4134V37.429Z" fill="#AAA1B4"/>
<path d="M50.449 43.2797C50.3557 43.2017 50.2779 43.1081 50.2467 42.9989C50.2156 42.9521 50.2156 42.9209 50.2467 42.8896C50.3557 42.9989 50.449 43.1393 50.5268 43.2797C50.4957 43.3265 50.4646 43.3265 50.4335 43.2797H50.449Z" fill="#BBB0C0"/>
<path d="M55.0863 47.695C54.9618 47.6482 54.8528 47.6014 54.8062 47.4609C54.9773 47.4609 55.0707 47.6014 55.1796 47.695C55.1485 47.7262 55.1174 47.7262 55.0863 47.695Z" fill="#B7AEBE"/>
<path d="M65.5745 47.461C65.6834 47.5391 65.7923 47.6171 65.7923 47.7731C65.6523 47.7107 65.5745 47.5859 65.5122 47.461C65.5278 47.4454 65.5589 47.4454 65.5745 47.461Z" fill="#E2B56E"/>
<path d="M45.5473 36.1028C45.4384 35.9936 45.345 35.8688 45.3295 35.7128C45.454 35.7752 45.4851 35.9 45.5473 36.0092C45.5784 36.0404 45.5784 36.0716 45.5473 36.1028Z" fill="#A5AFC1"/>
<path d="M67.0528 49.1147C67.2084 49.1147 67.2862 49.224 67.364 49.3332C67.364 49.3332 67.3796 49.3644 67.364 49.38C67.364 49.38 67.364 49.3956 67.3485 49.3956C67.224 49.3332 67.115 49.2552 67.0372 49.1147H67.0528Z" fill="#E4B869"/>
<path d="M45.9364 36.6801C45.7964 36.6021 45.7186 36.4617 45.703 36.3057C45.8431 36.3993 45.9209 36.5241 45.9364 36.6801Z" fill="#ABA7B9"/>
<path d="M46.1543 37.0545C45.9986 36.9765 45.9364 36.8361 45.9364 36.6801C46.0765 36.7737 46.1387 36.8985 46.1543 37.0545Z" fill="#A6ADBF"/>
<path d="M68.251 50.0042C68.4066 50.0198 68.5466 50.0822 68.6244 50.2382C68.4688 50.2226 68.3443 50.129 68.251 50.0042Z" fill="#ECC76B"/>
<path d="M68.6244 50.2382C68.78 50.2538 68.92 50.3162 68.9979 50.4566C68.8422 50.4254 68.7178 50.363 68.6244 50.2382Z" fill="#EAC46C"/>
<path d="M54.5883 47.3362C54.4638 47.2894 54.3704 47.2114 54.2926 47.1178C54.2771 47.1022 54.2615 47.071 54.2771 47.0554C54.2771 47.0398 54.2926 47.0242 54.3082 47.0242C54.4171 47.071 54.5105 47.1646 54.6039 47.2426C54.6194 47.2582 54.635 47.2738 54.6194 47.305C54.6194 47.3206 54.6039 47.3362 54.5883 47.3362Z" fill="#B4AFBF"/>
<path d="M63.4738 43.498C63.5049 43.498 63.5204 43.498 63.5516 43.498C63.5671 43.6229 63.6449 43.7321 63.6294 43.8569C63.6605 43.9037 63.6605 43.9349 63.6138 43.9661C63.5204 43.8257 63.4893 43.6697 63.4738 43.498Z" fill="#E2B470"/>
<path d="M50.4491 43.2797C50.4802 43.2797 50.5113 43.2797 50.5425 43.2797C50.6203 43.3733 50.7136 43.4669 50.7603 43.5761C50.7292 43.6073 50.7136 43.6073 50.667 43.5761C50.5736 43.4981 50.4958 43.4045 50.4491 43.2797Z" fill="#BDB4C3"/>
<path d="M53.6236 46.5561C53.4679 46.5561 53.3901 46.4469 53.3123 46.3533C53.2968 46.3221 53.2968 46.3065 53.3123 46.2753C53.4368 46.3533 53.5613 46.4157 53.6236 46.5561Z" fill="#B8AEBE"/>
<path d="M50.0912 42.7805C49.9978 42.6869 49.9045 42.5933 49.8578 42.4528C49.8889 42.4216 49.92 42.4216 49.9512 42.4528L50.1068 42.6713C50.1379 42.7181 50.1379 42.7493 50.1068 42.7805H50.0912Z" fill="#BBC1CF"/>
<path d="M49.9511 42.4528C49.9199 42.4528 49.8888 42.4528 49.8577 42.4528C49.7955 42.406 49.7332 42.3436 49.7177 42.25C49.7177 42.2188 49.7177 42.172 49.7177 42.1407C49.811 42.2188 49.8888 42.328 49.9355 42.4372L49.9511 42.4528Z" fill="#BDA8B9"/>
<path d="M63.8161 38.5523C63.785 38.5523 63.7694 38.5523 63.7383 38.5523C63.7383 38.3963 63.7383 38.2402 63.8316 38.0842C63.8316 38.1466 63.8316 38.209 63.8316 38.2558C63.8316 38.3495 63.8161 38.4431 63.8005 38.5523H63.8161Z" fill="#E5BD8B"/>
<path d="M54.2927 47.0242C54.2927 47.0554 54.2927 47.0866 54.2927 47.1022C54.1682 47.0554 54.0593 46.9618 53.9814 46.8682C54.0126 46.8682 54.0437 46.8682 54.0748 46.8682C54.1526 46.9306 54.2304 46.9774 54.2927 47.0398V47.0242Z" fill="#B4BCCB"/>
<path d="M69.7449 50.831C69.9005 50.8154 70.025 50.8622 70.1183 50.987C69.9627 50.987 69.8538 50.9246 69.7449 50.831Z" fill="#EECB62"/>
<path d="M48.8929 40.877C48.8618 40.877 48.8307 40.877 48.7996 40.877C48.7373 40.8146 48.6906 40.7522 48.6751 40.6742C48.644 40.6274 48.644 40.5961 48.6751 40.5649C48.7684 40.643 48.8307 40.7522 48.8774 40.877H48.8929Z" fill="#BEA9B9"/>
<path d="M50.6825 43.5762C50.7136 43.5762 50.7447 43.5762 50.7759 43.5762C50.8381 43.6386 50.9003 43.701 50.947 43.7946C50.947 43.8258 50.947 43.857 50.947 43.8882C50.8381 43.7946 50.7603 43.701 50.6981 43.5762H50.6825Z" fill="#BCC1CE"/>
<path d="M45.5473 36.1028C45.5473 36.0716 45.5473 36.0404 45.5473 36.0092C45.6251 36.0872 45.7185 36.1808 45.7029 36.3056C45.594 36.2744 45.5629 36.1964 45.5317 36.1028H45.5473Z" fill="#AD9AAD"/>
<path d="M46.3566 37.429C46.3877 37.429 46.4033 37.429 46.4344 37.429C46.4811 37.507 46.5277 37.585 46.5744 37.6474C46.5433 37.6786 46.5277 37.6942 46.4966 37.6474C46.4188 37.585 46.3721 37.507 46.3566 37.429Z" fill="#B0A2B5"/>
<path d="M46.4966 37.663C46.5277 37.663 46.5433 37.663 46.5744 37.663C46.6211 37.741 46.6678 37.819 46.7144 37.897C46.6833 37.897 46.6522 37.897 46.6366 37.897C46.5588 37.8346 46.5121 37.7566 46.4966 37.6786V37.663Z" fill="#B8A6B6"/>
<path d="M50.0912 42.7805C50.0912 42.7493 50.0912 42.7181 50.0912 42.6713C50.169 42.7337 50.2157 42.7961 50.2468 42.8897C50.2468 42.9209 50.2468 42.9677 50.2468 42.9989C50.169 42.9365 50.1223 42.8741 50.0912 42.7805Z" fill="#BBB3C2"/>
<path d="M54.5884 47.3362C54.5884 47.305 54.5884 47.2894 54.5884 47.2582C54.6817 47.305 54.7907 47.3518 54.8218 47.461C54.7129 47.4766 54.6506 47.4142 54.5884 47.3362Z" fill="#B8ACBC"/>
<path d="M65.0609 46.8525C65.092 46.8525 65.1076 46.8525 65.1387 46.8525C65.2165 46.9149 65.2788 46.9774 65.2632 47.0866C65.1543 47.0554 65.1076 46.9462 65.0609 46.8525Z" fill="#E0B071"/>
<path d="M45.1738 35.51C45.1738 35.4788 45.1738 35.432 45.1738 35.4008C45.2516 35.4788 45.3294 35.5724 45.3294 35.7128C45.2205 35.6816 45.1894 35.6036 45.1738 35.5256V35.51Z" fill="#B8A3B4"/>
<path d="M65.3411 47.1645C65.4344 47.2113 65.4967 47.2893 65.4811 47.3986C65.3722 47.3674 65.3255 47.2581 65.2788 47.1645C65.2944 47.1489 65.3255 47.1489 65.3411 47.1645Z" fill="#E3B770"/>
<path d="M64.6719 46.1973C64.7808 46.2285 64.8275 46.3065 64.8275 46.4313C64.7186 46.3845 64.6719 46.3221 64.6719 46.1973Z" fill="#EBC677"/>
<path d="M55.0863 47.6951C55.1174 47.6951 55.1485 47.6951 55.1797 47.6951C55.2419 47.7263 55.3353 47.7419 55.3353 47.8355C55.2108 47.8511 55.1485 47.7731 55.0863 47.6951Z" fill="#B9BDCB"/>
<path d="M55.5686 47.9758C55.4441 47.9758 55.3819 47.929 55.3352 47.8198C55.4441 47.8198 55.5219 47.8666 55.5686 47.9758Z" fill="#C4C6D2"/>
<path d="M63.6449 39.1451C63.6605 39.1451 63.6916 39.1451 63.7072 39.1451C63.7072 39.2388 63.6916 39.348 63.6761 39.4416C63.6449 39.4416 63.6294 39.4416 63.5983 39.4416C63.5983 39.348 63.6138 39.2388 63.6294 39.1451H63.6449Z" fill="#E7C18D"/>
<path d="M48.6907 40.565C48.6907 40.5962 48.6907 40.643 48.6907 40.6742C48.6129 40.6118 48.5507 40.5338 48.5195 40.4402C48.5507 40.4402 48.5818 40.4402 48.5973 40.4402C48.6285 40.487 48.6596 40.5338 48.6907 40.5806V40.565Z" fill="#BEC6D3"/>
<path d="M67.504 49.4893C67.613 49.4893 67.6908 49.5361 67.7219 49.6453C67.613 49.6453 67.5352 49.5829 67.504 49.4893Z" fill="#E3B770"/>
<path d="M68.0331 49.8636C68.142 49.8636 68.2198 49.9105 68.2665 50.0197C68.1576 50.0197 68.0798 49.9573 68.0331 49.8636Z" fill="#EFD182"/>
<path d="M70.7875 51.2054C70.8964 51.2054 71.0053 51.1742 71.0831 51.2834C70.9742 51.2834 70.8653 51.3146 70.7875 51.2054Z" fill="#E9C26A"/>
<path d="M63.6138 43.9505C63.6138 43.9193 63.6138 43.8881 63.6293 43.8413C63.7071 43.9037 63.6916 43.9973 63.7071 44.0753C63.6916 44.0753 63.6605 44.0753 63.6449 44.0753C63.6449 44.0285 63.6138 43.9817 63.6138 43.9349V43.9505Z" fill="#EFCF7B"/>
<path d="M70.1183 50.9871C70.2117 50.9871 70.305 50.9715 70.3517 51.0963C70.2739 51.0651 70.165 51.0963 70.1183 50.9871Z" fill="#EECB62"/>
<path d="M70.5229 51.1274C70.6163 51.1274 70.7252 51.0962 70.7875 51.2054C70.6941 51.221 70.6008 51.2054 70.5229 51.1274Z" fill="#E9C26A"/>
<path d="M67.7997 49.7076C67.862 49.7076 67.9242 49.7076 67.9554 49.77C67.9709 49.77 67.9709 49.8013 67.9554 49.8169C67.9554 49.8169 67.9554 49.8325 67.9398 49.8325C67.8775 49.8013 67.8153 49.7857 67.7842 49.7076H67.7997Z" fill="#E3B567"/>
<path d="M68.9979 50.4565C69.0602 50.4565 69.1224 50.4565 69.1535 50.5346C69.0913 50.5346 69.029 50.5346 68.9979 50.4565Z" fill="#E6BE74"/>
<path d="M69.1379 50.5345C69.2002 50.5345 69.2624 50.5345 69.2936 50.6126C69.2313 50.6126 69.1691 50.6126 69.1379 50.5345Z" fill="#EAC573"/>
<path d="M69.2936 50.6125C69.3558 50.6125 69.4181 50.6125 69.4492 50.6906C69.3869 50.6906 69.3247 50.6906 69.2936 50.6125Z" fill="#ECC873"/>
<path d="M69.4492 50.6906C69.5115 50.6906 69.5737 50.6906 69.6048 50.7686C69.5426 50.7686 69.4803 50.7686 69.4492 50.6906Z" fill="#EBC775"/>
<path d="M69.5892 50.7529C69.6515 50.7529 69.7137 50.7529 69.7448 50.8309C69.6826 50.8309 69.6204 50.8309 69.5892 50.7529Z" fill="#E7BE79"/>
<path d="M64.065 45.0583C64.1584 45.0896 64.1584 45.1676 64.1428 45.2456C64.065 45.1988 64.0494 45.1364 64.065 45.0583Z" fill="#EAC372"/>
<path d="M64.2517 45.5107C64.3451 45.5107 64.3606 45.5888 64.3606 45.6668C64.2828 45.6512 64.2673 45.5731 64.2517 45.5107Z" fill="#ECCA81"/>
<path d="M65.341 47.1646H65.3099H65.2787C65.2787 47.1334 65.2787 47.1178 65.2632 47.0865C65.3099 47.0865 65.341 47.1178 65.341 47.1646Z" fill="#F1D586"/>
<path d="M65.7924 47.7574C65.839 47.7574 65.8702 47.7887 65.8702 47.8355C65.8235 47.8355 65.7924 47.8043 65.7924 47.7574Z" fill="#EAC88B"/>
<path d="M65.8546 47.8354C65.9013 47.8354 65.9324 47.8667 65.9324 47.9135C65.8702 47.9135 65.8546 47.8823 65.8546 47.8354Z" fill="#F1D588"/>
<path d="M66.0257 47.9758C66.0101 47.9758 65.979 47.9758 65.9634 47.9758C65.9634 47.9446 65.9634 47.929 65.9479 47.8978C65.9946 47.8978 66.0257 47.929 66.0412 47.9602L66.0257 47.9758Z" fill="#F5DC7D"/>
<path d="M66.3058 48.3658C66.3525 48.3658 66.3836 48.397 66.3836 48.4439C66.3369 48.4439 66.3058 48.4127 66.3058 48.3658Z" fill="#E7BD6B"/>
<path d="M66.3837 48.4283C66.4304 48.4283 66.4615 48.4595 66.4615 48.5064C66.4148 48.5064 66.3837 48.4752 66.3837 48.4283Z" fill="#EAC88E"/>
<path d="M66.4614 48.5063C66.5081 48.5063 66.5392 48.5376 66.5392 48.5844C66.4925 48.5844 66.4614 48.5532 66.4614 48.5063Z" fill="#EDCC8B"/>
<path d="M66.5237 48.5844C66.5704 48.5844 66.6015 48.6156 66.6015 48.6624C66.5548 48.6624 66.5237 48.6312 66.5237 48.5844Z" fill="#EFD28C"/>
<path d="M66.6014 48.6624C66.6481 48.6624 66.6792 48.6936 66.6792 48.7404C66.6326 48.7404 66.6014 48.7092 66.6014 48.6624Z" fill="#EFD28C"/>
<path d="M66.6793 48.7404C66.726 48.7404 66.7571 48.7716 66.7571 48.8184C66.7104 48.8184 66.6793 48.7872 66.6793 48.7404Z" fill="#EFD089"/>
<path d="M66.7571 48.8027C66.8038 48.8027 66.8349 48.8339 66.8349 48.8807C66.7882 48.8807 66.7571 48.8495 66.7571 48.8027Z" fill="#EECF89"/>
<path d="M66.835 48.8807C66.8816 48.8807 66.9128 48.9119 66.9128 48.9587C66.8661 48.9587 66.835 48.9275 66.835 48.8807Z" fill="#EBC98A"/>
<path d="M66.8972 48.9587C66.9439 48.9587 66.975 48.9899 66.975 49.0367C66.9283 49.0367 66.8972 49.0055 66.8972 48.9587Z" fill="#E9C48D"/>
<path d="M66.975 49.0367C67.0217 49.0367 67.0528 49.0679 67.0528 49.1148C67.0061 49.1148 66.975 49.0835 66.975 49.0367Z" fill="#E4B869"/>
<path d="M67.364 49.3957C67.364 49.3801 67.364 49.3489 67.364 49.3333C67.4106 49.3333 67.4262 49.3801 67.4262 49.4113C67.3951 49.4113 67.3795 49.3957 67.3484 49.3801L67.364 49.3957Z" fill="#F2D686"/>
<path d="M65.5745 47.4609H65.5434H65.5123C65.5123 47.4297 65.5123 47.4141 65.4967 47.3829C65.5434 47.3829 65.5745 47.4141 65.5901 47.4609H65.5745Z" fill="#F0D38A"/>
<path d="M67.7219 49.6296C67.7686 49.6296 67.7997 49.6608 67.7997 49.7076C67.753 49.7076 67.7219 49.692 67.7219 49.6296Z" fill="#E3B567"/>
<path d="M67.9553 49.8324C67.9553 49.8168 67.9553 49.7856 67.9553 49.77C68.002 49.77 68.0176 49.8012 68.0331 49.848C68.002 49.848 67.9864 49.848 67.9553 49.8324Z" fill="#EFCF83"/>
<path d="M53.3124 46.2752C53.3124 46.3065 53.3124 46.3221 53.3124 46.3533C53.2657 46.3377 53.2346 46.3064 53.2501 46.2596H53.3279L53.3124 46.2752Z" fill="#CFD2DB"/>
<path d="M51.6628 44.7775C51.694 44.7775 51.7095 44.7775 51.7406 44.7775C51.7406 44.7775 51.7562 44.8087 51.7562 44.8243C51.7562 44.8243 51.7562 44.8399 51.7562 44.8555C51.7095 44.8555 51.6784 44.8243 51.6628 44.7931V44.7775Z" fill="#CED6DF"/>
<path d="M51.834 44.9179C51.7718 44.9179 51.7562 44.8866 51.7562 44.8398C51.8185 44.8398 51.834 44.871 51.834 44.9179Z" fill="#D4D2DB"/>
<path d="M53.6858 46.5716C53.6858 46.6028 53.6858 46.6184 53.6858 46.6496C53.6391 46.634 53.608 46.6028 53.6236 46.556C53.6547 46.556 53.6702 46.556 53.7014 46.5716H53.6858Z" fill="#CDCFD9"/>
<path d="M52.7988 45.8853C52.7521 45.8853 52.7209 45.8541 52.7209 45.8073C52.7832 45.8073 52.8143 45.8229 52.7988 45.8853Z" fill="#D0D0DA"/>
<path d="M52.8611 45.9009C52.8611 45.9321 52.8611 45.9477 52.8611 45.9789C52.8144 45.9633 52.7988 45.9321 52.7988 45.8853C52.83 45.8853 52.8455 45.8853 52.8766 45.9009H52.8611Z" fill="#CCD5DF"/>
<path d="M67.4263 49.4113C67.473 49.4113 67.5041 49.4425 67.5041 49.4893C67.4574 49.4893 67.4263 49.4581 67.4263 49.4113Z" fill="#E8C48E"/>
<path d="M48.006 39.7536C48.0216 39.7536 48.0527 39.7536 48.0683 39.7536C48.0683 39.7848 48.0683 39.8004 48.0683 39.8316C48.0372 39.8004 48.0216 39.7692 47.9905 39.738L48.006 39.7536Z" fill="#CDD5DF"/>
<path d="M51.2116 44.247C51.2272 44.247 51.2583 44.247 51.2739 44.247C51.2739 44.2783 51.2739 44.2939 51.2739 44.3251C51.2427 44.2939 51.2272 44.2626 51.196 44.2314L51.2116 44.247Z" fill="#D0D7E0"/>
<path d="M79.097 41.1734C78.3345 41.2202 77.5565 41.267 76.794 41.2982C76.7629 41.2982 76.7162 41.2982 76.685 41.2826C76.5139 40.8925 76.405 40.4869 76.2805 40.0812C76.2182 39.8628 76.2027 39.6132 76.2805 39.3792C76.3271 39.4104 76.3894 39.426 76.4361 39.4572C76.5294 39.4884 76.6228 39.5508 76.7006 39.6132C76.8095 39.7068 76.9807 39.738 77.0741 39.8628C77.1363 39.894 77.1986 39.9408 77.2608 39.972C77.4009 40.05 77.572 40.0968 77.6654 40.2373C77.7276 40.2685 77.7899 40.3153 77.8521 40.3465C77.9922 40.4245 78.1634 40.4713 78.2567 40.6117C78.319 40.6429 78.3812 40.6897 78.4435 40.7209C78.6613 40.8457 78.8947 40.9549 79.0815 41.1266C79.0815 41.1266 79.0815 41.1578 79.0815 41.1734H79.097Z" fill="#FB0435"/>
<path d="M86.473 29.0352C86.473 29.0664 86.473 29.0976 86.473 29.1288C86.4263 29.1756 86.3796 29.2068 86.3174 29.1912C86.3174 29.1132 86.3796 29.0664 86.4574 29.0352H86.473Z" fill="#D5E8E2"/>
<path d="M85.8818 29.6437C85.8818 29.6905 85.8506 29.7217 85.804 29.7217C85.804 29.6749 85.8351 29.6437 85.8818 29.6437Z" fill="#CCDDD5"/>
<path d="M86.5508 28.9572C86.5508 29.004 86.5197 29.0352 86.473 29.0352C86.473 28.9884 86.5041 28.9572 86.5508 28.9572Z" fill="#D5E8E2"/>
<path d="M76.9963 37.5382C76.9963 37.6006 76.9651 37.6474 76.9185 37.6786C76.9185 37.6162 76.9496 37.5694 76.9963 37.5382Z" fill="#D6DCCD"/>
<path d="M80.9021 34.2773C80.871 34.3241 80.8243 34.371 80.7621 34.371C80.7932 34.3242 80.8399 34.2773 80.9021 34.2773Z" fill="#DADCCB"/>
<path d="M81.6335 33.5753C81.6335 33.6533 81.5868 33.6845 81.509 33.6845C81.5557 33.6533 81.5868 33.6065 81.6335 33.5753Z" fill="#D3DED2"/>
<path d="M86.3329 29.1912C86.3329 29.238 86.3018 29.2692 86.2551 29.2692C86.2551 29.2224 86.2862 29.1912 86.3329 29.1912Z" fill="#D6E0D6"/>
<path d="M82.5206 32.7795C82.5206 32.8419 82.4739 32.8732 82.4116 32.8576C82.4427 32.8107 82.4739 32.7795 82.5206 32.7795Z" fill="#D1DDD1"/>
<path d="M82.5983 32.7172C82.5983 32.764 82.5672 32.7952 82.5205 32.7952C82.5205 32.7484 82.5516 32.7172 82.5983 32.7172Z" fill="#D9DAC8"/>
<path d="M82.7072 32.6392C82.6761 32.686 82.6449 32.7172 82.5983 32.7172C82.5983 32.6548 82.645 32.6236 82.7072 32.6392Z" fill="#DCD8C3"/>
<path d="M83.3452 32.0308C83.3452 32.0932 83.2986 32.1244 83.2363 32.1088C83.2675 32.062 83.2986 32.0308 83.3452 32.0308Z" fill="#CFDBCF"/>
<path d="M83.4075 31.9683C83.4075 32.0151 83.3764 32.0463 83.3297 32.0463C83.3297 31.9995 83.3608 31.9683 83.4075 31.9683Z" fill="#D5D9C8"/>
<path d="M83.5164 31.8903C83.4853 31.9371 83.4542 31.9683 83.4075 31.9683C83.4075 31.9059 83.4542 31.8747 83.5164 31.8903Z" fill="#DCD7C1"/>
<path d="M84.0922 31.3599C84.0922 31.4223 84.0455 31.4379 83.9833 31.4379C84.0144 31.3911 84.0455 31.3599 84.0922 31.3599Z" fill="#CADDD4"/>
<path d="M84.1545 31.2819C84.1545 31.3287 84.1233 31.3599 84.0767 31.3599C84.0767 31.3131 84.1078 31.2819 84.1545 31.2819Z" fill="#D3DCCF"/>
<path d="M84.2322 31.2194C84.2322 31.2662 84.2011 31.2974 84.1544 31.2974C84.1544 31.2506 84.1855 31.2194 84.2322 31.2194Z" fill="#DBDCCC"/>
<path d="M84.3411 31.1414C84.31 31.1882 84.2789 31.2194 84.2322 31.2194C84.2322 31.157 84.2789 31.1258 84.3411 31.1414Z" fill="#DDD9C4"/>
<path d="M85.9439 29.5656C85.9439 29.6124 85.9128 29.6436 85.8661 29.6436C85.8661 29.5968 85.8972 29.5656 85.9439 29.5656Z" fill="#CCDDD5"/>
<path d="M86.0218 29.4875C86.0218 29.5344 85.9907 29.5656 85.944 29.5656C85.944 29.5188 85.9751 29.4875 86.0218 29.4875Z" fill="#CBDDD4"/>
<path d="M86.0995 29.4095C86.0995 29.4564 86.0684 29.4876 86.0217 29.4876C86.0217 29.4407 86.0529 29.4095 86.0995 29.4095Z" fill="#CBDDD4"/>
<path d="M86.1774 29.3472C86.1774 29.394 86.1463 29.4252 86.0996 29.4252C86.0996 29.3784 86.1307 29.3472 86.1774 29.3472Z" fill="#CBDDD4"/>
<path d="M85.586 29.9401C85.586 30.0025 85.5393 30.0337 85.4771 30.0181C85.4926 29.9713 85.5237 29.9401 85.586 29.9401Z" fill="#C9DFD9"/>
<path d="M85.6482 29.8621C85.6482 29.9089 85.6171 29.9401 85.5704 29.9401C85.5704 29.8933 85.6016 29.8621 85.6482 29.8621Z" fill="#D0DED5"/>
<path d="M86.2552 29.2692C86.2552 29.316 86.2241 29.3472 86.1774 29.3472C86.1774 29.3004 86.2085 29.2692 86.2552 29.2692Z" fill="#CBDDD4"/>
<path d="M85.7261 29.7841C85.7261 29.8309 85.695 29.8621 85.6483 29.8621C85.6483 29.8153 85.6794 29.7841 85.7261 29.7841Z" fill="#CDDFD6"/>
<path d="M85.8039 29.7217C85.8039 29.7685 85.7728 29.7997 85.7261 29.7997C85.7261 29.7529 85.7572 29.7217 85.8039 29.7217Z" fill="#CCDDD5"/>
<path d="M79.0815 41.1266C78.8481 41.0174 78.6302 40.8926 78.4435 40.7209C78.708 40.7678 78.9259 40.8926 79.0815 41.1266Z" fill="#B5CAD9"/>
<path d="M77.6655 40.2373C77.5098 40.1749 77.3698 40.0969 77.2609 39.972C77.4476 39.972 77.6032 40.0501 77.6655 40.2373Z" fill="#B9C6D6"/>
<path d="M78.2568 40.6118C78.1012 40.5494 77.9611 40.4714 77.8522 40.3466C78.0389 40.3466 78.1945 40.4246 78.2568 40.6118Z" fill="#BBC5D6"/>
<path d="M77.0741 39.8629C76.9341 39.8005 76.7785 39.7381 76.7007 39.5977C76.8719 39.6133 77.0119 39.6757 77.0741 39.8629Z" fill="#B8C5D5"/>
<path d="M79.5328 41.4699C79.5016 41.4231 79.4861 41.3606 79.455 41.3138C79.5483 41.3294 79.6261 41.3763 79.6884 41.4543C79.6884 41.4543 79.6884 41.4855 79.6728 41.5011C79.6261 41.5167 79.5794 41.5167 79.5328 41.4699Z" fill="#A9C3D1"/>
<path d="M76.6851 39.5977C76.5606 39.5977 76.4828 39.5353 76.4205 39.4417C76.545 39.4417 76.6384 39.4729 76.6851 39.5977Z" fill="#C7BDCE"/>
<path d="M79.6883 41.4543C79.7817 41.4855 79.8595 41.5323 79.9218 41.5947C79.9218 41.6259 79.8751 41.6571 79.844 41.6571C79.735 41.6571 79.6728 41.5947 79.6572 41.4855C79.6572 41.4855 79.6728 41.4543 79.6883 41.4387V41.4543Z" fill="#C6C2D2"/>
<path d="M80.1707 41.6258C80.0929 41.7194 79.9684 41.7194 79.8595 41.7662C79.8595 41.7194 79.8595 41.6882 79.8906 41.6414C79.8906 41.6414 79.9062 41.6258 79.9217 41.6102C79.9995 41.6102 80.0929 41.6102 80.1707 41.6258Z" fill="#E7E5C8"/>
<path d="M66.3681 31.5159C66.3993 31.5159 66.4304 31.5159 66.4615 31.5159C66.2281 31.9683 66.0102 32.4208 65.7768 32.8732C65.7301 32.9824 65.699 33.1229 65.559 33.1541C65.7613 32.5768 66.0569 32.0307 66.3681 31.5159Z" fill="#FDC779"/>
<path d="M65.4188 33.4817C65.2944 33.8093 65.1232 34.1214 64.9676 34.4334C64.9365 34.4646 64.9209 34.4646 64.8898 34.4334C65.0143 34.0589 65.201 33.7157 65.4188 33.3881C65.4344 33.4037 65.45 33.4349 65.45 33.4505C65.45 33.4661 65.45 33.4817 65.4344 33.4817H65.4188Z" fill="#FDB27F"/>
<path d="M64.8898 34.4333C64.9209 34.4333 64.9365 34.4333 64.9676 34.4333C64.8431 34.761 64.7187 35.0886 64.5942 35.4007C64.563 35.4319 64.5475 35.4319 64.5164 35.4007C64.5942 35.0574 64.7187 34.7298 64.8898 34.4333Z" fill="#FDB87B"/>
<path d="M64.5163 35.4163C64.5474 35.4163 64.563 35.4163 64.5941 35.4163C64.5163 35.7283 64.4541 36.0403 64.2985 36.3212C64.2673 36.3524 64.2518 36.3524 64.2362 36.3212C64.314 36.0091 64.4074 35.7127 64.5163 35.4163Z" fill="#FEC47A"/>
<path d="M64.2363 36.3056C64.2518 36.3056 64.2829 36.3056 64.2985 36.3056C64.2985 36.3836 64.2985 36.4773 64.2207 36.5397C64.2207 36.5085 64.2207 36.4773 64.2207 36.4305C64.2207 36.3836 64.2363 36.3368 64.2518 36.29L64.2363 36.3056Z" fill="#FECE8C"/>
<path d="M65.4188 33.4817C65.4188 33.4505 65.4188 33.4193 65.4188 33.3881C65.4188 33.3413 65.4499 33.3101 65.4966 33.3101C65.4966 33.3725 65.4966 33.4349 65.4344 33.4817H65.4188Z" fill="#FECA89"/>
<path d="M65.5589 33.1541C65.5589 33.2165 65.5589 33.2789 65.4811 33.3101C65.4811 33.2477 65.4811 33.1853 65.5589 33.1541Z" fill="#FEC48B"/>
<path d="M83.7187 56.4321C83.7187 56.0577 83.8432 55.7456 84.0143 55.4648C85.1036 53.6394 86.1929 51.814 87.2822 49.9729C87.4067 49.7545 87.5156 49.5361 87.7023 49.3645C88.2003 48.8808 89.0406 48.756 89.663 49.1304C91.5459 50.2538 93.4288 51.3771 95.2961 52.5004C97.8015 53.9982 100.322 55.496 102.828 56.9938C105.566 58.632 108.321 60.2702 111.06 61.9084C113.378 63.2814 115.697 64.6699 118.015 66.0429C120.038 67.2442 122.077 68.4768 124.1 69.6781C125.889 70.7547 127.694 71.8 129.484 72.8765C131.242 73.9219 133.001 74.9828 134.759 76.0437C136.206 76.9018 137.653 77.7443 139.101 78.6024C140.346 79.3357 141.575 80.0846 142.82 80.8335C143.115 81.0051 143.115 81.0363 142.96 81.3328C141.995 82.971 141.03 84.5936 140.081 86.2162C139.49 87.2303 138.883 88.2288 138.291 89.2429C137.996 89.7422 137.98 89.7422 137.498 89.4614C134.884 87.9012 132.269 86.341 129.639 84.7808C127.663 83.595 125.687 82.4093 123.711 81.2392C122.123 80.2874 120.521 79.3513 118.933 78.3996C117.377 77.4791 115.821 76.543 114.265 75.6069C112.709 74.6708 111.137 73.7502 109.581 72.8141C107.449 71.5348 105.302 70.271 103.17 68.9917C100.867 67.6187 98.5484 66.2457 96.2454 64.8572C94.1757 63.6246 92.1061 62.392 90.0209 61.1439C88.2314 60.083 86.4574 59.0064 84.6679 57.9611C84.0766 57.6179 83.7342 57.1186 83.7031 56.4477L83.7187 56.4321Z" fill="#CECECE"/>
<path d="M78.2101 41.9223C78.9881 41.8755 78.9726 41.8755 79.3927 42.4684C80.7932 44.4654 82.1937 46.4625 83.6098 48.4439C83.8276 48.7404 83.8276 48.9744 83.6409 49.2864C83.0184 50.3006 82.4116 51.3459 81.8047 52.3756C81.758 52.4536 81.7113 52.516 81.6646 52.594C81.5557 52.7969 81.4001 52.8281 81.1978 52.8125C79.7506 52.6408 78.2879 52.4692 76.8407 52.2976C75.6736 52.1572 74.5065 52.0168 73.3239 51.8763C73.1216 51.8607 73.0127 51.7671 72.9348 51.5955C72.3746 50.4254 71.7989 49.2708 71.2387 48.1007C70.8185 47.227 70.3828 46.3533 69.9627 45.4796C69.6359 44.7931 69.3091 44.1066 68.9668 43.4201C68.9201 43.3265 68.8267 43.2329 68.9045 43.1549C69.0134 43.0457 69.1224 43.1237 69.2469 43.1861C69.7915 43.5293 70.3517 43.857 70.9119 44.1846C72.0634 44.8711 73.2149 45.5576 74.382 46.2441C74.5688 46.3533 74.631 46.4781 74.6154 46.6965C74.5376 47.4766 74.8955 48.0539 75.6114 48.3503C76.1093 48.5531 76.5761 48.4439 76.9807 48.1475C77.6654 47.6326 77.7899 46.7745 77.3542 46.1192C76.8874 45.4172 76.0315 45.2143 75.3313 45.62C75.269 45.6512 75.2068 45.698 75.1445 45.7448C75.0045 45.8696 74.88 45.8384 74.7399 45.7448C73.5728 45.0427 72.4213 44.3562 71.2542 43.6541C70.7252 43.3421 70.2117 43.0301 69.6826 42.718C69.6359 42.6868 69.5736 42.6556 69.527 42.6244C69.4492 42.562 69.3247 42.5464 69.3558 42.406C69.3869 42.2656 69.527 42.2968 69.6359 42.2968C69.8849 42.2968 70.1338 42.2968 70.3828 42.2812C71.3165 42.2344 72.2346 42.1876 73.1683 42.1408C73.9774 42.1096 74.7866 42.0784 75.5802 42.0471C76.4517 42.0003 77.3075 41.9535 78.1789 41.9067L78.2101 41.9223Z" fill="#CECECE"/>
<path d="M147.659 92.4569C147.068 92.5037 146.477 92.1604 145.901 91.8016C144.983 91.2399 144.065 90.6782 143.115 90.1478C142.618 89.8669 142.618 89.8669 142.898 89.3833C143.411 88.5096 143.94 87.6359 144.454 86.7622C144.749 86.2785 145.029 85.7792 145.341 85.2956C145.512 85.0304 145.527 85.0304 145.808 85.1864C146.212 85.4204 146.617 85.67 147.021 85.9041C147.768 86.3565 148.515 86.7934 149.262 87.2458C150.709 88.1039 151.083 90.0386 150.025 91.3803C149.464 92.098 148.717 92.4725 147.659 92.4725V92.4569Z" fill="#8B8B8B"/>
<path d="M145.309 83.283C145.341 83.6106 145.185 83.9226 145.014 84.2035C144.065 85.8105 143.1 87.4019 142.151 89.0089C141.964 89.3209 141.793 89.6329 141.606 89.945C141.061 90.7719 140.081 90.9747 139.256 90.4598C139.132 90.3818 138.992 90.3038 138.867 90.2414C138.634 90.1166 138.618 90.0698 138.743 89.8358C139.101 89.2117 139.474 88.5876 139.832 87.9635C140.454 86.9026 141.077 85.8417 141.699 84.7808C142.182 83.9851 142.649 83.1894 143.131 82.3781C143.302 82.0972 143.473 81.8008 143.644 81.5199C143.707 81.4263 143.769 81.3483 143.878 81.4263C144.189 81.6292 144.547 81.754 144.796 82.0504C145.092 82.3781 145.278 82.8149 145.278 83.283H145.309Z" fill="#8B8B8B"/>
<path d="M82.1159 56.2916C81.6958 56.276 81.3534 56.1044 81.1511 55.7144C80.9644 55.3555 80.9799 55.0123 81.1822 54.6534C82.1159 53.0308 83.0962 51.4238 84.0455 49.8169C84.4501 49.1148 84.8547 48.4127 85.2748 47.7418C85.7416 46.9929 86.6442 47.0397 87.111 47.6638C87.4067 48.0538 87.3911 48.5219 87.1266 48.9587C86.7998 49.5048 86.473 50.0353 86.1462 50.5813C85.6794 51.3614 85.2281 52.1415 84.7768 52.9216C84.2166 53.8734 83.6409 54.8095 83.0807 55.7612C82.8628 56.1356 82.5205 56.276 82.1159 56.2916Z" fill="#8B8B8B"/>
<path d="M75.3312 46.9306C75.3001 46.4469 75.7669 46.1349 76.0937 46.1349C76.5294 46.1349 76.9029 46.4937 76.9029 46.9306C76.9029 47.3518 76.545 47.7575 76.1404 47.7575C75.6736 47.7575 75.3157 47.3986 75.3157 46.9306H75.3312Z" fill="#FD8615"/>
<path d="M79.8906 41.6415C79.8906 41.6727 79.8751 41.7195 79.8595 41.7663C79.8284 41.7663 79.7973 41.7819 79.7817 41.7975C79.6728 41.7195 79.6105 41.5947 79.5327 41.4855C79.5794 41.4855 79.6105 41.4855 79.6572 41.5011C79.7194 41.5635 79.7973 41.6103 79.8906 41.6415Z" fill="#D93858"/>
<path d="M80.4509 42.7648C80.482 42.7648 80.4976 42.796 80.4976 42.8116C80.4665 42.8116 80.4509 42.8116 80.4509 42.7648Z" fill="#FE8615"/>
<path d="M121.299 71.4723C121.812 71.4723 122.279 71.6439 122.699 71.8935C124.193 72.7828 125.687 73.6878 127.181 74.5771C129.126 75.7316 131.071 76.8862 133.016 78.0407C134.495 78.9144 135.957 79.8037 137.436 80.6774C138.245 81.1611 138.649 81.8632 138.681 82.7993C138.696 83.7822 137.996 84.7339 137.078 85.0459C136.362 85.28 135.693 85.202 135.039 84.8275C133.016 83.6262 131.009 82.4248 128.986 81.2235C127.041 80.0689 125.096 78.9144 123.151 77.7599C122.092 77.1358 121.034 76.5117 119.992 75.8564C119.12 75.2948 118.809 74.2962 118.996 73.4069C119.229 72.3304 120.054 71.6907 120.972 71.5035C121.081 71.4879 121.19 71.5035 121.314 71.4879L121.299 71.4723Z" fill="#606060"/>
<path d="M136.222 84.5156C135.911 84.5468 135.646 84.4531 135.382 84.2971C134.23 83.595 133.079 82.9086 131.927 82.2377C131.398 81.9256 130.869 81.6292 130.355 81.3172C129.313 80.6931 128.27 80.069 127.228 79.4449C126.434 78.9613 125.625 78.5088 124.816 78.0252C123.773 77.4011 122.73 76.7614 121.688 76.1373C121.205 75.8409 120.676 75.5913 120.225 75.2324C119.712 74.8112 119.509 74.2807 119.603 73.6098C119.696 72.9857 120.023 72.5489 120.567 72.2837C121.19 71.9716 121.797 72.0652 122.373 72.4241C124.006 73.407 125.656 74.3899 127.29 75.3728C128.519 76.1061 129.764 76.855 130.993 77.6039C132.643 78.5868 134.277 79.5542 135.926 80.5371C136.393 80.8179 136.875 81.0831 137.327 81.3952C138.369 82.1129 138.229 83.8291 137.047 84.3907C136.782 84.5156 136.502 84.5468 136.206 84.5312L136.222 84.5156Z" fill="#8B8B8B"/>
</g>
<defs>
<filter id="filter0_d_183_969" x="0" y="0" width="164" height="105" filterUnits="userSpaceOnUse" color-interpolation-filters="sRGB">
<feFlood flood-opacity="0" result="BackgroundImageFix"/>
<feColorMatrix in="SourceAlpha" type="matrix" values="0 0 0 0 0 0 0 0 0 0 0 0 0 0 0 0 0 0 127 0" result="hardAlpha"/>
<feOffset dx="4" dy="6"/>
<feGaussianBlur stdDeviation="2"/>
<feComposite in2="hardAlpha" operator="out"/>
<feColorMatrix type="matrix" values="0 0 0 0 0 0 0 0 0 0 0 0 0 0 0 0 0 0 0.25 0"/>
<feBlend mode="normal" in2="BackgroundImageFix" result="effect1_dropShadow_183_969"/>
<feBlend mode="normal" in="SourceGraphic" in2="effect1_dropShadow_183_969" result="shape"/>
</filter>
</defs>
</svg>
