<svg width="262" height="220" viewBox="0 0 262 220" fill="none" xmlns="http://www.w3.org/2000/svg">
<path d="M174.2 113.6C175.5 112.8 176.4 112.1 177.7 112.1C186.9 110.7 194.7 99.1999 199.7 91.5999C206.5 80.5999 211.7 68.4999 216.1 56.2999C216.4 55.3999 217.4 54.9999 218.2 55.2999C219 55.5999 219.5 56.4999 219.3 57.2999C215.9 70.1999 211.5 82.8999 205.3 94.7999C199.6 105.2 191.9 118.3 179.1 121.1C174.5 122.3 168.5 117 174.2 113.7V113.6Z" fill="white"/>
<path d="M178.8 114.6C183.1 121.4 184.2 129.4 186.3 137C189.3 148.4 195.3 171.4 198.4 182.8C202.7 198.5 212.4 225.5 231.3 206.5C239.4 198.3 245 187.9 249.9 177.4C253.1 170.3 255.9 162.9 258.4 155.5C259.1 153.5 262.2 154.4 261.6 156.5C256.3 174.6 240.4 219.7 217.5 218.9C196.6 216.9 190.3 178.3 184.6 162.1C182.4 154.6 176.7 135.1 174.6 127.9C173.5 124 173.1 120 173.3 115.9C173.4 114.3 174.8 113 176.5 113.1C177.5 113.1 178.4 113.7 178.9 114.5L178.8 114.6Z" fill="white"/>
<path d="M123.8 55.0999L166.1 5.69995C165.9 8.39995 139.3 127 139.3 127C139.3 127 135.5 142.3 121.9 188.3C108.7 233.2 88.8 220.4 74.3 191.1" stroke="white" stroke-width="3" stroke-miterlimit="10" stroke-linecap="round"/>
<path d="M183.6 116.3C178.5 134.3 168 150.9 153.6 162.9C109.3 201 39.5 188.1 12 136.9C-18.5 81.3999 17 10.5999 79.4 1.09993C145.1 -9.00008 199.4 52.0999 183.6 116.3ZM166.8 111.8C179.8 69.8999 154.6 24.2999 112.5 12.0999C69.3 -1.30007 20.5 24.9999 9.7 69.4999C-5.7 131 51.1 186.5 112 168.6C138.5 160.8 160.1 138.5 166.8 111.9V111.8Z" fill="white"/>
<path d="M175.2 114C173.9 115 172.5 115.7 170.9 116C163.3 117.5 155.4 109.8 153.2 98.7999C151.1 87.7999 155.5 77.6999 163.1 76.1999C168.7 75.0999 174.4 78.9999 177.9 85.3999C178.6 95.1999 177.6 104.8 175.1 114H175.2Z" stroke="white" stroke-width="9" stroke-miterlimit="10"/>
</svg>
