<svg width="249" height="210" viewBox="0 0 249 210" fill="none" xmlns="http://www.w3.org/2000/svg">
<path d="M165.231 108.479C166.47 107.716 167.328 107.049 168.567 107.049C177.338 105.714 184.774 94.7507 189.541 87.5053C196.023 77.0187 200.981 65.4833 205.175 53.8526C205.461 52.9946 206.415 52.6133 207.177 52.8993C207.94 53.1853 208.417 54.0433 208.226 54.806C204.985 67.104 200.79 79.2113 194.879 90.556C189.445 100.471 182.105 112.959 169.902 115.629C165.517 116.773 159.797 111.72 165.231 108.574V108.479Z" fill="white"/>
<path d="M169.616 109.432C173.715 115.915 174.764 123.542 176.766 130.787C179.626 141.655 185.346 163.582 188.301 174.45C192.401 189.417 201.648 215.157 219.666 197.044C227.388 189.226 232.727 179.312 237.398 169.302C240.449 162.533 243.118 155.478 245.501 148.424C246.169 146.517 249.124 147.375 248.552 149.377C243.499 166.632 228.341 209.628 206.51 208.865C186.585 206.958 180.579 170.16 175.145 154.716C173.048 147.566 167.614 128.976 165.612 122.112C164.563 118.394 164.182 114.58 164.373 110.672C164.468 109.146 165.803 107.907 167.423 108.002C168.377 108.002 169.235 108.574 169.711 109.337L169.616 109.432Z" fill="white"/>
<path d="M117.183 52.7087L157.509 5.61401C157.318 8.18801 131.959 121.253 131.959 121.253C131.959 121.253 128.337 135.839 115.371 179.693C102.787 222.497 83.8159 210.295 69.9926 182.362" stroke="white" stroke-width="3" stroke-miterlimit="10" stroke-linecap="round"/>
<path d="M174.192 111.053C169.33 128.213 159.32 144.038 145.592 155.478C103.359 191.8 36.8166 179.502 10.6 130.691C-18.4767 77.7814 15.3666 10.2854 74.8546 1.22876C137.489 -8.39991 189.255 49.8488 174.192 111.053ZM158.176 106.763C170.569 66.8181 146.545 23.3461 106.41 11.7154C65.226 -1.05924 18.7033 24.0134 8.40731 66.4368C-6.27402 125.067 47.8753 177.977 105.933 160.912C131.197 153.476 151.789 132.217 158.176 106.858V106.763Z" fill="white"/>
<path d="M166.184 108.86C164.945 109.813 163.61 110.481 162.085 110.767C154.839 112.197 147.308 104.856 145.211 94.3694C143.209 83.8827 147.403 74.254 154.649 72.824C159.987 71.7754 165.421 75.4934 168.758 81.5947C169.425 90.9374 168.472 100.089 166.089 108.86H166.184Z" stroke="white" stroke-width="9" stroke-miterlimit="10"/>
</svg>
