<svg width="298" height="293" viewBox="0 0 298 293" fill="none" xmlns="http://www.w3.org/2000/svg">
<path d="M145.287 273.727L144.871 273.489C121.19 258.852 96.1995 235.052 74.601 206.492C72.578 203.815 70.7335 201.316 69.008 198.936C51.4555 174.362 37.354 148.063 28.2505 122.895C20.9915 102.724 17.1241 83.684 17.1241 67.857V67.619L17.243 67.4405C27.5365 49.769 50.087 35.1915 80.7295 26.2665C100.305 20.5545 122.618 17.52 145.228 17.52C167.838 17.52 190.031 20.5545 209.607 26.207H209.726C240.368 35.132 262.919 49.769 273.212 67.381L273.331 67.5595V67.7975C273.331 83.565 269.523 102.605 262.205 122.895C253.101 148.123 239 174.362 221.447 198.936C219.781 201.256 217.996 203.755 215.854 206.492C194.256 235.052 169.266 258.852 145.585 273.489L145.168 273.727H145.287ZM18.79 67.976C18.79 83.565 22.598 102.308 29.7975 122.24C38.8415 147.29 52.824 173.469 70.317 197.924C72.0425 200.363 73.887 202.803 75.8505 205.48C97.211 233.743 121.844 257.245 145.228 271.823C168.611 257.245 193.244 233.743 214.605 205.48C216.687 202.743 218.472 200.244 220.138 197.924C237.631 173.529 251.614 147.349 260.658 122.3C267.857 102.308 271.665 83.565 271.665 67.976C261.669 51.0185 239 36.3815 209.309 27.754H209.19C189.734 22.042 167.6 19.067 145.168 19.067C122.737 19.067 100.603 22.042 81.146 27.754C51.396 36.3815 28.667 51.078 18.671 68.0355L18.79 67.976Z" fill="#000C35"/>
<path d="M286.064 61.4905C286.064 78.6265 281.959 98.9755 274.105 120.693C264.585 146.992 249.71 175.373 230.194 202.684C228.23 205.421 226.207 208.158 224.184 210.836C199.908 242.966 173.252 267.777 148.5 283.069C123.748 267.777 97.092 242.966 72.816 210.836C70.793 208.158 68.7701 205.421 66.8066 202.684C47.2906 175.433 32.356 146.992 22.8955 120.693C15.0415 98.9755 10.936 78.6265 10.936 61.4905C21.9435 42.5695 46.6955 26.802 79.0635 17.401C99.6505 11.3915 123.332 8 148.5 8C173.669 8 197.35 11.3915 217.937 17.401C250.305 26.802 275.057 42.5695 286.064 61.4905Z" fill="url(#paint0_linear_252_172)" stroke="#000C35" stroke-miterlimit="10"/>
<path d="M147.31 274.679C123.451 259.923 98.3415 236.004 76.6835 207.325C74.6605 204.647 72.816 202.148 71.0905 199.709C53.419 175.016 39.3175 148.598 30.1545 123.311C22.836 102.962 18.909 83.7435 18.9685 67.7975V67.2025L19.266 66.667C29.738 48.698 52.586 33.823 83.645 24.8385C103.34 19.067 125.831 16.0325 148.56 16.0325C171.289 16.0325 193.482 19.067 213.177 24.7195H213.474C244.533 33.823 267.381 48.698 277.853 66.667L278.151 67.2025V67.7975C278.151 83.7435 274.283 102.962 266.965 123.37C257.802 148.717 243.7 175.135 226.029 199.768C224.363 202.089 222.518 204.588 220.436 207.384C198.718 236.123 173.609 260.042 149.75 274.738L148.56 275.452L147.37 274.738L147.31 274.679Z" fill="#000C35"/>
<path d="M275.771 67.7379C275.771 83.6244 271.963 102.426 264.704 122.537C255.898 146.873 242.153 173.112 224.065 198.4C222.28 200.958 220.376 203.457 218.532 205.956C196.041 235.647 171.408 258.614 148.5 272.775C125.593 258.614 100.96 235.706 78.4685 205.956C76.5645 203.457 74.72 200.958 72.8755 198.4C54.847 173.172 41.043 146.873 32.237 122.537C24.978 102.426 21.17 83.6244 21.17 67.7974C31.3445 50.2449 54.252 35.6674 84.24 26.9804C103.28 21.3874 125.176 18.2935 148.5 18.2935C171.824 18.2935 193.72 21.4469 212.76 26.9804C242.689 35.6674 265.596 50.2449 275.771 67.7974V67.7379Z" fill="#000C35"/>
<path d="M213.772 139.614C194.375 134.795 172.062 125.87 148.381 125.87C124.7 125.87 77.576 141.34 82.9905 139.614C82.9905 139.614 124.7 132.058 148.381 132.058C172.062 132.058 194.375 134.795 213.772 139.614Z" fill="url(#paint1_linear_252_172)"/>
<path d="M149.571 34.3586L113.455 106.294L136.957 120.872C142.669 119.503 155.7 119.503 160.757 120.872L183.486 106.77L149.571 34.2991V34.3586ZM148.5 94.4536C146.656 93.9776 135.827 88.0276 135.827 88.0276L148.917 61.9666L161.174 88.2061L148.5 94.4536Z" fill="url(#paint2_linear_252_172)"/>
<path d="M55.918 76.4846C62.2845 119.741 81.2055 136.282 81.2055 136.282C81.2055 136.282 108.1 124.263 130.948 121.764L55.918 76.4846ZM76.6835 102.01L95.9615 113.672C90.071 114.327 83.169 117.421 83.169 117.421C83.169 117.421 78.29 113.196 76.6835 102.07V102.01Z" fill="url(#paint3_linear_252_172)"/>
<path d="M166.053 121.705C188.901 124.204 215.795 136.223 215.795 136.223C215.795 136.223 234.716 119.682 241.082 76.425L166.053 121.705ZM213.831 117.421C213.831 117.421 206.929 114.327 201.039 113.672L220.317 102.01C218.651 113.137 213.831 117.361 213.831 117.361V117.421Z" fill="url(#paint4_linear_252_172)"/>
<path d="M118.155 201.375H111.61V166.33H102.923V159.725H126.961V166.33H118.155V201.375Z" fill="#FFF5D9"/>
<path d="M137.612 160.082C138.326 160.737 138.683 161.57 138.683 162.581C138.683 163.593 138.326 164.426 137.612 165.08C136.898 165.794 136.065 166.151 135.113 166.151C134.161 166.151 133.268 165.794 132.614 165.08C131.9 164.366 131.543 163.533 131.543 162.581C131.543 161.629 131.9 160.737 132.614 160.082C133.328 159.428 134.161 159.13 135.113 159.13C136.065 159.13 136.957 159.428 137.612 160.082ZM131.721 171.566H138.326V201.375H131.721V171.566Z" fill="#FFF5D9"/>
<path d="M150.999 195.544C151.356 196.02 151.892 196.377 152.487 196.615C153.141 196.794 153.915 196.913 154.867 196.913L152.903 202.149C149.869 202.089 147.608 201.316 146.12 199.888C144.573 198.46 143.8 196.318 143.8 193.521V159.725H150.464V171.625H156.176L154.807 177.635H150.464V193.521C150.464 194.414 150.642 195.068 150.999 195.604V195.544Z" fill="#FFF5D9"/>
<path d="M160.936 159.725H167.54V201.375H160.936V159.725Z" fill="#FFF5D9"/>
<path d="M179.5 193.878C179.678 194.295 179.857 194.652 180.154 194.949C180.452 195.247 180.809 195.485 181.225 195.663C181.642 195.842 182.118 195.901 182.653 195.901C183.724 195.901 184.914 195.663 186.283 195.187C187.651 194.711 188.96 194.176 190.21 193.521L192.59 199.233C191.221 200.126 189.674 200.78 187.83 201.316C186.045 201.851 184.26 202.089 182.475 202.089C180.69 202.089 179.797 201.911 178.548 201.554C177.358 201.197 176.287 200.661 175.394 199.947C174.502 199.233 173.788 198.341 173.312 197.21C172.836 196.08 172.598 194.771 172.598 193.283V181.086C172.598 178.825 173.074 176.921 174.085 175.433C175.037 173.946 176.346 172.815 178.072 172.042C179.738 171.268 181.582 170.911 183.665 170.911C185.747 170.911 187.592 171.268 189.139 171.982C190.686 172.696 191.935 173.827 192.828 175.314C193.72 176.802 194.137 178.646 194.137 180.907V190.189L179.321 190.963V192.45C179.321 192.986 179.381 193.462 179.559 193.878H179.5ZM187.175 180.074C186.997 179.241 186.58 178.527 186.045 177.992C185.509 177.456 184.676 177.218 183.546 177.278C182.356 177.278 181.463 177.575 180.868 177.992C180.273 178.468 179.857 179.063 179.619 179.836C179.381 180.61 179.321 181.562 179.321 182.692V185.013L187.532 184.477V182.752C187.532 181.859 187.413 180.967 187.235 180.074H187.175Z" fill="#FFF5D9"/>
<defs>
<linearGradient id="paint0_linear_252_172" x1="10.936" y1="145.505" x2="286.124" y2="145.505" gradientUnits="userSpaceOnUse">
<stop stop-color="#C7950E"/>
<stop offset="0.5" stop-color="#FFF5D9"/>
<stop offset="1" stop-color="#C7950E"/>
</linearGradient>
<linearGradient id="paint1_linear_252_172" x1="148.203" y1="125.87" x2="148.203" y2="139.733" gradientUnits="userSpaceOnUse">
<stop stop-color="#FFF5D9"/>
<stop offset="1" stop-color="#C7950E"/>
</linearGradient>
<linearGradient id="paint2_linear_252_172" x1="113.455" y1="77.6746" x2="183.546" y2="77.6746" gradientUnits="userSpaceOnUse">
<stop stop-color="#D7B454"/>
<stop offset="0.5" stop-color="#FFF5D9"/>
<stop offset="1" stop-color="#FFD254"/>
</linearGradient>
<linearGradient id="paint3_linear_252_172" x1="66.39" y1="114.684" x2="111.729" y2="88.5036" gradientUnits="userSpaceOnUse">
<stop stop-color="#8F6A0A"/>
<stop offset="0.3" stop-color="#C7950E"/>
<stop offset="0.7" stop-color="#C7AC64"/>
<stop offset="1" stop-color="#FFF5D9"/>
</linearGradient>
<linearGradient id="paint4_linear_252_172" x1="174.978" y1="137.175" x2="250.84" y2="93.3826" gradientUnits="userSpaceOnUse">
<stop stop-color="#FFF5D9"/>
<stop offset="0.6" stop-color="#C79D2A"/>
<stop offset="1" stop-color="#916C0B"/>
</linearGradient>
</defs>
</svg>
