<svg width="378" height="334" viewBox="0 0 378 334" fill="none" xmlns="http://www.w3.org/2000/svg">
<rect width="378" height="334" rx="20" fill="#D5E2E7"/>
<g clip-path="url(#clip0_302_6558)">
<path d="M30 72.3583C30 56.6471 40.7312 46.6034 54.9616 46.6034C62.9203 46.6034 69.533 50.1097 73.3823 54.4949L70.0086 57.5259C66.5721 51.7956 61.1706 47.6795 54.6296 47.6795C44.3112 47.6795 37.5639 57.5259 37.5639 70.6724C37.5639 85.5766 45.7289 94.3379 56.5946 94.3379C62.4627 94.3379 68.878 91.8449 73.2566 85.1013L74.0642 85.5766C69.6138 92.7955 62.7318 97.3062 53.5529 97.3062C40.0582 97.3062 30.009 87.5315 30.009 72.3583H30Z" fill="#0967B2"/>
<path d="M76.8277 78.8329C76.8277 67.4351 84.7235 59.8844 95.2483 59.8844C105.773 59.8844 113.059 66.9688 113.059 78.4294C113.059 89.89 105.163 97.3062 94.6382 97.3062C84.1134 97.3062 76.8277 90.2935 76.8277 78.8329ZM106.177 78.8329C106.177 68.0449 101.52 60.826 94.8446 60.826C88.169 60.826 83.7096 67.7759 83.7096 78.4294C83.7096 89.0829 88.3664 96.3646 95.042 96.3646C101.718 96.3646 106.177 89.4147 106.177 78.8329Z" fill="#0967B2"/>
<path d="M173.381 72.6273V96.499H167.038V72.4928C167.038 69.7308 166.966 62.3146 159.142 62.3146C155.499 62.3146 152.466 63.866 148.823 67.713C149.164 69.1299 149.362 70.7441 149.362 72.6363V96.508H142.955V72.5017C142.955 69.7397 142.955 62.3235 135.131 62.3235C131.623 62.3235 128.725 63.7404 125.351 67.0405V96.508H118.945V61.7765L125.082 59.9561H125.351V65.7581C128.994 62.1173 132.574 59.8933 137.967 59.8933C143.359 59.8933 146.876 62.0545 148.491 66.5024C152.475 62.458 156.181 59.8933 161.986 59.8933C169.406 59.8933 173.39 63.9377 173.39 72.6363L173.381 72.6273Z" fill="#0967B2"/>
<path d="M214.673 78.0258C214.673 89.5582 206.714 97.3151 197.266 97.3151C193.354 97.3151 189.98 95.97 187.352 93.6026V111.879H180.945V61.7766L187.082 59.9561H187.352V65.5519C190.653 62.0456 194.637 59.8844 199.294 59.8844C208.069 59.8844 214.673 67.3723 214.673 78.0258ZM207.791 78.6267C207.791 67.6324 203.403 62.1084 197.329 62.1084C193.955 62.1084 190.312 63.7943 187.343 67.2289V89.3429C189.029 93.5218 192.466 96.2211 196.656 96.2211C203.269 96.2211 207.791 89.4775 207.791 78.6177V78.6267Z" fill="#0967B2"/>
<path d="M250.24 94.885V95.2885C249.163 95.9611 247.073 96.9744 244.641 96.9744C240.325 96.9744 239.446 93.8089 239.312 91.9884C235.803 95.2885 231.084 97.1807 226.831 97.1807C221.16 97.1807 217.383 93.8806 217.383 88.8857C217.383 82.6173 223.385 78.7074 232.627 77.6941C235.059 77.4251 237.212 77.2906 239.24 77.0843V73.2372C239.24 66.5653 237.284 62.1084 230.608 62.1084C226.965 62.1084 223.798 63.3908 220.487 66.1528L219.877 65.4085C223.52 62.0367 227.297 59.8755 233.103 59.8755C241.402 59.8755 245.655 63.9199 245.655 72.6184V89.8811C245.655 93.1184 245.655 95.0015 248.957 95.0015C249.433 95.0015 249.836 94.9298 250.24 94.867V94.885ZM239.24 90.6971V78.0887C230.061 79.0303 223.726 81.2542 223.726 87.8006C223.726 92.5175 226.696 94.7505 230.339 94.7505C233.237 94.7505 236.476 93.4053 239.249 90.7061L239.24 90.6971Z" fill="#0967B2"/>
<path d="M285.664 72.6273V96.499H279.257V72.4928C279.257 69.7308 279.257 62.3146 271.361 62.3146C267.853 62.3146 264.48 63.7314 261.043 67.1033V96.508H254.637V61.7765L260.774 59.9561H261.043V65.7581C264.82 62.1173 268.732 59.8933 274.134 59.8933C281.626 59.8933 285.673 63.9377 285.673 72.6363L285.664 72.6273Z" fill="#0967B2"/>
<path d="M320.818 60.6915C317.983 66.4936 315.829 71.9548 312.187 80.7162L303.277 102.158C300.038 109.915 294.843 112.273 288.768 112.273L289.172 108.426C290.249 108.767 291.397 108.901 292.474 108.901C295.776 108.901 299.894 107.081 301.985 102.095L304.21 96.6964L288.49 60.6915H295.372L307.521 88.6076L311.029 80.2499C314.672 71.4168 316.493 64.8077 316.897 60.6915H320.818Z" fill="#0967B2"/>
<path d="M174.243 116.793C172.628 122.191 171.542 128.791 171.542 138.234V166.688H170.465L137.132 125.554V144.431C137.132 153.874 138.209 160.483 139.833 165.872H133.086C134.701 160.474 135.786 153.874 135.786 144.431V123.868L130.187 116.99V116.784H146.446L170.196 146.323V138.234C170.196 128.791 169.119 122.182 167.495 116.793H174.243Z" fill="#B74A26"/>
<path d="M214.395 163.72V164.124C213.65 164.662 210.079 166.688 205.35 166.688C199.276 166.688 197.661 163.388 197.257 161.496C194.422 164.527 190.447 166.554 186.194 166.554C180.12 166.554 176.611 162.51 176.611 157.649C176.611 151.65 181.941 147.13 191.183 146.251C193.749 145.982 195.167 145.848 197.123 145.713V142.135C197.123 137.418 197.123 131.482 189.433 131.482C186.131 131.482 182.82 132.558 179.581 135.06L178.971 134.315C182.551 130.944 186.526 128.379 194.216 128.379C204.606 128.379 209.801 132.558 209.801 141.463V158.725C209.801 161.891 209.801 163.846 213.04 163.846C213.578 163.846 213.982 163.774 214.386 163.711L214.395 163.72ZM197.123 160.286V146.664C191.255 147.677 188.76 151.318 188.76 156.304C188.76 160.752 190.716 162.707 192.941 162.707C194.225 162.707 195.642 162.034 197.123 160.277V160.286Z" fill="#B74A26"/>
<path d="M277.615 141.4V165.881H264.928V139.92C264.928 137.562 264.856 132.029 259.939 132.029C257.983 132.029 256.027 132.97 253.596 135.876C254.071 137.427 254.341 139.31 254.341 141.409V165.89H241.653V139.929C241.653 137.571 241.582 132.038 236.665 132.038C234.906 132.038 233.156 132.782 231.066 135.069V165.881H218.379V130.746L230.797 127.984H231.066V133.652C233.766 130.684 237.006 128.388 242.335 128.388C247.665 128.388 251.38 130.415 253.201 134.728C256.099 131.222 259.41 128.388 265.619 128.388C273.111 128.388 277.624 132.504 277.624 141.4H277.615Z" fill="#B74A26"/>
<path d="M319.383 156.779C314.322 164.267 307.916 166.689 301.303 166.689C290.643 166.689 282.685 159.81 282.685 148.484C282.685 136.073 291.316 128.388 303.124 128.388C315.542 128.388 319.786 136.817 319.248 145.31H295.767C295.901 157.039 300.424 161.828 307.305 161.828C311.155 161.828 315.067 160.348 318.575 156.295L319.383 156.77V156.779ZM295.767 144.234H308.319C309.531 135.266 306.561 129.464 302.514 129.464C298.127 129.464 295.901 136.136 295.767 144.234Z" fill="#B74A26"/>
<path d="M332.312 258.517C324.156 287.374 294.69 307.713 264.794 305.883C244.372 305.103 225.171 294.755 215.561 276.344C207.226 260.803 207.001 241.093 215.651 225.641C224.57 210.172 242.838 201.259 260.514 204.038C270.527 205.366 280.011 210.594 285.798 218.969C298.073 235.9 292.608 262.516 271.191 268.498C255.659 272.856 239.123 263.386 239.132 246.383C239.132 235.829 247.414 226.834 258.208 227.336C263.223 227.489 268.239 229.928 270.895 234.286C275.04 240.599 273.156 250.571 265.7 253.387C258.1 256.535 249.361 250.544 251.936 242.124L252.277 242.231C249.334 253.988 265.197 257.745 270.697 248.231C275.614 238.895 268.481 228.43 258.172 228.412C241.671 228.197 235.606 247.576 245.108 259.449C254.161 270.919 273.093 269.843 282.523 259.404C289.073 252.607 291.128 242.294 289.378 233.192C286.929 220.359 276.368 209.894 263.6 207.356C245.96 203.285 227.396 211.562 218.513 227.265C210.644 241.774 211.048 260.14 218.845 274.587C232.394 301.005 266.552 308.87 292.985 298.476C311.02 291.652 325.583 276.649 331.962 258.4L332.303 258.508L332.312 258.517Z" fill="#B74A26"/>
<path d="M343.725 191.044C343.052 155.578 342.998 117.537 342.998 82.0612C343.061 67.8207 343.187 46.8186 343.393 32.5332L346.246 34.0039L333.299 43.2764L334.008 41.8954L332.473 304.458C331.46 305.238 330.921 41.8506 330.58 41.8954V41.0345L331.289 40.5144C333.245 39.1065 345.286 30.2375 347 29L346.982 32.5691C346.928 64.5565 346.309 99.6557 345.708 131.625C345.412 143.22 345.089 159.792 344.712 171.244L344.075 191.053H343.716L343.725 191.044Z" fill="#B74A26"/>
</g>
<defs>
<clipPath id="clip0_302_6558">
<rect width="317" height="277" fill="white" transform="translate(30 29)"/>
</clipPath>
</defs>
</svg>
