<svg width="408" height="196" viewBox="0 0 408 196" fill="none" xmlns="http://www.w3.org/2000/svg">
<g clip-path="url(#clip0_74_183)">
<g filter="url(#filter0_d_74_183)">
<path d="M187.182 90.1713C187.182 116.742 174.627 140.459 154.984 155.894C154.732 152.334 153.617 148.176 150.847 147.013C150.847 147.013 136.313 136.723 117.211 132.142C111.095 130.662 101.813 98.7698 101.597 96.5145C101.597 96.5145 102.101 59.9003 89.9055 59.7241C88.5744 59.7241 90.2293 52.8523 90.2293 52.8523C90.2293 52.8523 97.4243 52.8524 99.0791 50.8789C100.77 48.9055 102.749 36.5011 101.921 32.9066C101.094 29.3122 98.5755 19.1631 97.2444 19.3393C95.9133 19.5155 102.928 15.8858 98.3956 12.7847C98.3956 12.7847 98.2158 14.8991 93.8987 15.7096C89.5458 16.5201 75.1917 19.4803 73.7168 22.7576C72.2058 26.0349 74.4003 40.7299 73.7168 44.6767C73.0332 48.5883 74.7241 49.2579 70.551 53.1695C68.8242 54.7905 59.5426 66.913 58.5353 73.1152C57.528 79.3174 58.2115 91.0875 58.5353 95.3516C58.8591 99.6156 62.2048 107.615 62.8883 118.892C63.5358 130.168 60.1902 126.609 61.0536 142.291C61.881 157.656 65.0468 158.325 65.4065 160.439C65.4065 160.439 61.6651 161.779 58.7152 163.505C32.7053 149.022 15.1494 121.605 15.1494 90.1713C15.1494 43.6195 53.6787 5.87769 101.202 5.87769C148.725 5.87769 187.254 43.6195 187.254 90.1713H187.182Z" stroke="#B8D3D9" stroke-miterlimit="10"/>
</g>
<g filter="url(#filter1_d_74_183)">
<path d="M154.589 161.285C154.948 160.545 155.2 158.396 155.02 155.929C154.768 152.37 153.653 148.211 150.883 147.048C150.883 147.048 136.349 136.758 117.247 132.177C111.131 130.697 101.849 98.8051 101.633 96.5497C101.633 96.5497 102.137 59.9356 89.9415 59.7594C88.6104 59.7594 90.2653 52.8876 90.2653 52.8876C90.2653 52.8876 97.4603 52.8876 99.1151 50.9142C100.806 48.9408 102.785 36.5363 101.957 32.9419C101.13 29.3474 98.6115 19.1984 97.2804 19.3746C95.9493 19.5507 102.964 15.921 98.4316 12.8199C98.4316 12.8199 98.2517 14.9343 93.9347 15.7448C89.5817 16.5554 75.2277 19.5155 73.7527 22.7928C72.2418 26.0701 74.4363 40.7651 73.7527 44.712C73.0692 48.6236 74.76 49.2931 70.5869 53.2048C68.8601 54.8258 59.5786 66.9483 58.5713 73.1505C57.564 79.3527 58.2475 91.1228 58.5713 95.3868C58.8951 99.6508 62.2407 107.65 62.9243 118.927C63.5718 130.204 60.2261 126.645 61.0895 142.326C61.917 157.691 65.0828 158.36 65.4425 160.475C65.4425 160.475 61.7011 161.814 58.7512 163.541C56.2689 164.985 54.3622 166.677 55.7652 168.016C57.9597 170.095 59.2548 170.553 56.9164 170.624C56.9164 170.624 51.4123 173.408 52.9232 176.826C54.1104 179.504 62.0968 180.914 64.6151 180.421C67.1333 179.927 86.9915 178.764 87.4952 179.293C87.9988 179.786 108.864 179.927 117.283 183.063C120.34 184.191 148.077 184.156 152.25 175.205C156.603 165.866 154.049 162.448 154.625 161.321L154.589 161.285ZM101.13 130.345C100.446 130.979 95.4457 130.345 95.4457 130.345C95.4457 130.345 92.6036 114.663 94.7981 111.386C94.7981 111.386 101.813 129.71 101.13 130.345Z" fill="#B8D3D9"/>
<path d="M154.589 161.285C154.948 160.545 155.2 158.396 155.02 155.929C154.768 152.37 153.653 148.211 150.883 147.048C150.883 147.048 136.349 136.758 117.247 132.177C111.131 130.697 101.849 98.8051 101.633 96.5497C101.633 96.5497 102.137 59.9356 89.9415 59.7594C88.6104 59.7594 90.2653 52.8876 90.2653 52.8876C90.2653 52.8876 97.4603 52.8876 99.1151 50.9142C100.806 48.9408 102.785 36.5363 101.957 32.9419C101.13 29.3474 98.6115 19.1984 97.2804 19.3746C95.9493 19.5507 102.964 15.921 98.4316 12.8199C98.4316 12.8199 98.2517 14.9343 93.9347 15.7448C89.5817 16.5554 75.2277 19.5155 73.7527 22.7928C72.2418 26.0701 74.4363 40.7651 73.7527 44.712C73.0692 48.6236 74.76 49.2931 70.5869 53.2048C68.8601 54.8258 59.5786 66.9483 58.5713 73.1505C57.564 79.3527 58.2475 91.1228 58.5713 95.3868C58.8951 99.6508 62.2407 107.65 62.9243 118.927C63.5718 130.204 60.2261 126.645 61.0895 142.326C61.917 157.691 65.0828 158.36 65.4425 160.475C65.4425 160.475 61.7011 161.814 58.7512 163.541C56.2689 164.985 54.3622 166.677 55.7652 168.016C57.9597 170.095 59.2548 170.553 56.9164 170.624C56.9164 170.624 51.4123 173.408 52.9232 176.826C54.1104 179.504 62.0968 180.914 64.6151 180.421C67.1333 179.927 86.9915 178.764 87.4952 179.293C87.9988 179.786 108.864 179.927 117.283 183.063C120.34 184.191 148.077 184.156 152.25 175.205C156.603 165.866 154.049 162.448 154.625 161.321L154.589 161.285ZM101.13 130.345C100.446 130.979 95.4457 130.345 95.4457 130.345C95.4457 130.345 92.6036 114.663 94.7981 111.386C94.7981 111.386 101.813 129.71 101.13 130.345Z" stroke="#B8D3D9" stroke-miterlimit="10"/>
</g>
</g>
<path d="M395.153 91.3351C395.153 117.553 382.753 140.955 363.356 156.186C363.107 152.674 362.006 148.57 359.27 147.423C359.27 147.423 344.917 137.269 326.052 132.749C320.012 131.289 310.846 99.8195 310.633 97.5941C310.633 97.5941 311.13 61.4656 299.087 61.2917C297.772 61.2917 299.406 54.5111 299.406 54.5111C299.406 54.5111 306.512 54.5111 308.146 52.5639C309.816 50.6166 311.77 38.3767 310.953 34.83C310.136 31.2832 307.649 21.2687 306.334 21.4426C305.02 21.6165 311.948 18.0349 307.471 14.9749C307.471 14.9749 307.294 17.0613 303.03 17.861C298.731 18.6608 284.556 21.5817 283.099 24.8155C281.607 28.0494 283.774 42.5494 283.099 46.4439C282.424 50.3037 284.094 50.9644 279.973 54.8241C278.268 56.4236 269.102 68.3853 268.107 74.5052C267.112 80.6252 267.787 92.2392 268.107 96.4466C268.427 100.654 271.731 108.547 272.406 119.675C273.045 130.802 269.741 127.29 270.594 142.763C271.411 157.924 274.537 158.585 274.893 160.671C274.893 160.671 271.198 161.993 268.285 163.696C242.598 149.405 225.261 122.352 225.261 91.3351C225.261 45.4008 263.311 8.15955 310.242 8.15955C357.174 8.15955 395.224 45.4008 395.224 91.3351H395.153Z" fill="#BF5841" stroke="#BF5841" stroke-miterlimit="10"/>
<g filter="url(#filter2_d_74_183)">
<path d="M362.965 161.506C363.32 160.776 363.569 158.654 363.391 156.22C363.142 152.708 362.041 148.605 359.306 147.458C359.306 147.458 344.953 137.304 326.088 132.784C320.048 131.323 310.882 99.8544 310.669 97.6289C310.669 97.6289 311.166 61.5004 299.122 61.3266C297.808 61.3266 299.442 54.546 299.442 54.546C299.442 54.546 306.548 54.546 308.182 52.5987C309.852 50.6515 311.806 38.4116 310.988 34.8648C310.171 31.318 307.684 21.3036 306.37 21.4774C305.055 21.6513 311.983 18.0697 307.507 15.0098C307.507 15.0098 307.329 17.0961 303.066 17.8959C298.767 18.6956 284.592 21.6165 283.135 24.8503C281.643 28.0842 283.81 42.5843 283.135 46.4788C282.46 50.3385 284.13 50.9992 280.009 54.8589C278.303 56.4584 269.137 68.4201 268.143 74.5401C267.148 80.66 267.823 92.274 268.143 96.4815C268.462 100.689 271.766 108.582 272.441 119.709C273.081 130.837 269.777 127.325 270.629 142.798C271.447 157.959 274.573 158.62 274.928 160.706C274.928 160.706 271.233 162.027 268.32 163.731C265.869 165.157 263.986 166.826 265.371 168.147C267.539 170.199 268.818 170.651 266.508 170.721C266.508 170.721 261.073 173.468 262.565 176.84C263.737 179.483 271.624 180.874 274.111 180.387C276.598 179.9 296.209 178.753 296.706 179.275C297.204 179.761 317.81 179.9 326.123 182.995C329.143 184.108 356.534 184.073 360.656 175.241C364.954 166.026 362.432 162.653 363 161.541L362.965 161.506ZM310.171 130.976C309.496 131.602 304.558 130.976 304.558 130.976C304.558 130.976 301.751 115.502 303.919 112.268C303.919 112.268 310.846 130.35 310.171 130.976Z" fill="#0D4551"/>
<path d="M362.965 161.506C363.32 160.776 363.569 158.654 363.391 156.22C363.142 152.708 362.041 148.605 359.306 147.458C359.306 147.458 344.953 137.304 326.088 132.784C320.048 131.323 310.882 99.8544 310.669 97.6289C310.669 97.6289 311.166 61.5004 299.122 61.3266C297.808 61.3266 299.442 54.546 299.442 54.546C299.442 54.546 306.548 54.546 308.182 52.5987C309.852 50.6515 311.806 38.4116 310.988 34.8648C310.171 31.318 307.684 21.3036 306.37 21.4774C305.055 21.6513 311.983 18.0697 307.507 15.0098C307.507 15.0098 307.329 17.0961 303.066 17.8959C298.767 18.6956 284.592 21.6165 283.135 24.8503C281.643 28.0842 283.81 42.5843 283.135 46.4788C282.46 50.3385 284.13 50.9992 280.009 54.8589C278.303 56.4584 269.137 68.4201 268.143 74.5401C267.148 80.66 267.823 92.274 268.143 96.4815C268.462 100.689 271.766 108.582 272.441 119.709C273.081 130.837 269.777 127.325 270.629 142.798C271.447 157.959 274.573 158.62 274.928 160.706C274.928 160.706 271.233 162.027 268.32 163.731C265.869 165.157 263.986 166.826 265.371 168.147C267.539 170.199 268.818 170.651 266.508 170.721C266.508 170.721 261.073 173.468 262.565 176.84C263.737 179.483 271.624 180.874 274.111 180.387C276.598 179.9 296.209 178.753 296.706 179.275C297.204 179.761 317.81 179.9 326.123 182.995C329.143 184.108 356.534 184.073 360.656 175.241C364.954 166.026 362.432 162.653 363 161.541L362.965 161.506ZM310.171 130.976C309.496 131.602 304.558 130.976 304.558 130.976C304.558 130.976 301.751 115.502 303.919 112.268C303.919 112.268 310.846 130.35 310.171 130.976Z" stroke="#0D4551" stroke-miterlimit="10"/>
</g>
<g filter="url(#filter3_d_74_183)">
<path d="M310.171 130.976C309.496 131.602 304.558 130.976 304.558 130.976C304.558 130.976 301.751 115.502 303.918 112.268C303.918 112.268 310.846 130.35 310.171 130.976Z" fill="#BF5841"/>
<path d="M310.171 130.976C309.496 131.602 304.558 130.976 304.558 130.976C304.558 130.976 301.751 115.502 303.918 112.268C303.918 112.268 310.846 130.35 310.171 130.976Z" stroke="#0D4551" stroke-miterlimit="10"/>
</g>
<defs>
<filter id="filter0_d_74_183" x="4.64944" y="-4.62231" width="193.104" height="178.703" filterUnits="userSpaceOnUse" color-interpolation-filters="sRGB">
<feFlood flood-opacity="0" result="BackgroundImageFix"/>
<feColorMatrix in="SourceAlpha" type="matrix" values="0 0 0 0 0 0 0 0 0 0 0 0 0 0 0 0 0 0 127 0" result="hardAlpha"/>
<feOffset/>
<feGaussianBlur stdDeviation="5"/>
<feColorMatrix type="matrix" values="0 0 0 0 0.0509804 0 0 0 0 0.270588 0 0 0 0 0.317647 0 0 0 0.8 0"/>
<feBlend mode="normal" in2="BackgroundImageFix" result="effect1_dropShadow_74_183"/>
<feBlend mode="normal" in="SourceGraphic" in2="effect1_dropShadow_74_183" result="shape"/>
</filter>
<filter id="filter1_d_74_183" x="42.1584" y="1.92297" width="123.421" height="192.148" filterUnits="userSpaceOnUse" color-interpolation-filters="sRGB">
<feFlood flood-opacity="0" result="BackgroundImageFix"/>
<feColorMatrix in="SourceAlpha" type="matrix" values="0 0 0 0 0 0 0 0 0 0 0 0 0 0 0 0 0 0 127 0" result="hardAlpha"/>
<feOffset/>
<feGaussianBlur stdDeviation="5"/>
<feColorMatrix type="matrix" values="0 0 0 0 0.0509804 0 0 0 0 0.270588 0 0 0 0 0.317647 0 0 0 0.8 0"/>
<feBlend mode="normal" in2="BackgroundImageFix" result="effect1_dropShadow_74_183"/>
<feBlend mode="normal" in="SourceGraphic" in2="effect1_dropShadow_74_183" result="shape"/>
</filter>
<filter id="filter2_d_74_183" x="251.803" y="4.11328" width="122.147" height="189.883" filterUnits="userSpaceOnUse" color-interpolation-filters="sRGB">
<feFlood flood-opacity="0" result="BackgroundImageFix"/>
<feColorMatrix in="SourceAlpha" type="matrix" values="0 0 0 0 0 0 0 0 0 0 0 0 0 0 0 0 0 0 127 0" result="hardAlpha"/>
<feOffset/>
<feGaussianBlur stdDeviation="5"/>
<feColorMatrix type="matrix" values="0 0 0 0 0.0509804 0 0 0 0 0.270588 0 0 0 0 0.317647 0 0 0 0.4 0"/>
<feBlend mode="normal" in2="BackgroundImageFix" result="effect1_dropShadow_74_183"/>
<feBlend mode="normal" in="SourceGraphic" in2="effect1_dropShadow_74_183" result="shape"/>
</filter>
<filter id="filter3_d_74_183" x="292.597" y="101.188" width="28.1205" height="40.5656" filterUnits="userSpaceOnUse" color-interpolation-filters="sRGB">
<feFlood flood-opacity="0" result="BackgroundImageFix"/>
<feColorMatrix in="SourceAlpha" type="matrix" values="0 0 0 0 0 0 0 0 0 0 0 0 0 0 0 0 0 0 127 0" result="hardAlpha"/>
<feOffset/>
<feGaussianBlur stdDeviation="5"/>
<feColorMatrix type="matrix" values="0 0 0 0 0.0509804 0 0 0 0 0.270588 0 0 0 0 0.317647 0 0 0 0.8 0"/>
<feBlend mode="normal" in2="BackgroundImageFix" result="effect1_dropShadow_74_183"/>
<feBlend mode="normal" in="SourceGraphic" in2="effect1_dropShadow_74_183" result="shape"/>
</filter>
<clipPath id="clip0_74_183">
<rect width="197.021" height="196" fill="white" transform="translate(0.6875)"/>
</clipPath>
</defs>
</svg>
