<svg width="130" height="99" viewBox="0 0 130 99" fill="none" xmlns="http://www.w3.org/2000/svg">
<g filter="url(#filter0_d_206_198)">
<path d="M55.8915 13.3272C56.3627 12.9357 56.8642 12.5862 57.3506 12.2227C58.1106 11.6914 58.8554 11.1601 59.6306 10.6568C60.5122 10.0836 61.5002 9.65022 62.5185 9.31468C63.8713 8.85332 65.2393 8.40593 66.5921 7.97253C67.6257 7.63699 68.7048 7.46922 69.784 7.30145C71.7904 6.9799 73.8271 6.95193 75.8487 7.0498C77.0039 7.10572 78.1439 7.24553 79.2687 7.49718C79.4055 7.52515 79.5575 7.56709 79.6791 7.62301C81.1534 8.2102 82.4454 9.00711 83.327 10.2794C83.859 11.0343 84.2694 11.8312 84.5126 12.712C84.6494 13.2293 84.8318 13.7326 84.9078 14.2779C84.9686 14.7672 84.923 15.2565 84.8622 15.7458C84.7102 16.9202 84.4062 18.0806 83.9806 19.1991C83.6766 19.982 83.251 20.709 82.7342 21.3941C81.731 22.6803 80.6822 23.9386 79.4815 25.085C78.7975 25.7281 78.0983 26.3712 77.5207 27.1122C77.3839 27.294 77.1711 27.4338 77.0039 27.5875C76.4111 28.1188 75.8031 28.6361 75.2407 29.1953C75.1191 29.475 74.8455 29.6427 74.6175 29.8384C74.3743 30.0342 74.1311 30.2439 73.9031 30.4536C73.0216 31.2925 72.0488 32.0195 71.1976 32.8863C71.1672 32.9142 71.1368 32.9562 71.0912 32.9841C71.076 32.9981 71.0456 33.0121 71.0152 33.04C71.0152 33.04 70.9848 33.054 70.9848 33.068C70.9696 33.082 70.9392 33.1099 70.924 33.1239C70.924 33.1239 70.9088 33.1379 70.8936 33.1519C70.8784 33.1659 70.848 33.1938 70.8328 33.2078C70.8328 33.2078 70.8176 33.2218 70.8024 33.2358C70.7872 33.2637 70.7568 33.2777 70.7416 33.2917C70.544 33.4595 70.3768 33.6552 70.1488 33.809C70.1184 33.823 70.1032 33.8509 70.0728 33.8649C70.0728 33.8649 70.0424 33.8789 70.0424 33.8929C70.012 33.9208 69.9968 33.9348 69.9664 33.9488C69.7536 34.1166 69.5864 34.3263 69.3584 34.4801C69.328 34.494 69.3128 34.522 69.2824 34.536C69.2824 34.536 69.252 34.55 69.252 34.5639C69.2216 34.5779 69.2064 34.6059 69.176 34.6199C68.9784 34.7876 68.796 34.9834 68.568 35.1232C68.5376 35.1372 68.5224 35.1651 68.492 35.1791C68.492 35.1791 68.4616 35.1931 68.4616 35.2071C68.4464 35.221 68.416 35.249 68.4008 35.263C68.4008 35.263 68.3856 35.277 68.3704 35.2909C68.3552 35.3189 68.3248 35.3329 68.3096 35.3609C68.1425 35.5007 67.9905 35.6684 67.8081 35.7943C67.7625 35.8222 67.7321 35.8362 67.6865 35.8642C67.6561 35.8921 67.6257 35.9201 67.5801 35.948C67.5497 35.976 67.5193 36.004 67.4889 36.0459C67.3217 36.1997 67.1545 36.3675 66.9569 36.4793C66.9265 36.5073 66.8809 36.5352 66.8505 36.5772C65.9841 37.2902 65.0569 37.9473 64.1297 38.6044C64.0081 38.6883 63.8713 38.7722 63.7649 38.87C63.7497 38.898 63.7193 38.912 63.7041 38.9399C63.7041 38.9399 63.6889 38.9679 63.6737 38.9679C63.6585 38.9959 63.6281 39.0238 63.6129 39.0378C63.4153 39.2475 63.2329 39.4712 63.0809 39.7089C62.8985 40.0304 62.7465 40.352 62.7769 40.7155C62.8073 41.7221 63.2481 42.5749 64.0081 43.2879C64.1449 43.4138 64.3273 43.4837 64.5097 43.5536C64.5401 43.5676 64.5705 43.5815 64.6009 43.6095C65.1481 43.7773 65.7257 43.8052 66.2881 43.7633C67.9145 43.6654 69.4496 43.218 70.9392 42.5889C73.28 41.5963 75.4383 40.338 77.6727 39.1776C81.2142 37.3321 84.8774 35.7523 88.7077 34.4801C91.9604 33.4035 95.2892 32.5787 98.7091 32.0754C100.047 31.8796 101.399 31.7678 102.767 31.6839C104.075 31.6 105.382 31.5161 106.689 31.4462C107.616 31.4043 108.559 31.4043 109.486 31.4742C110.474 31.5301 111.447 31.5721 112.419 31.7119C114.122 31.9356 115.778 32.313 117.314 33.082C117.8 33.3197 118.256 33.5993 118.712 33.8649C119.259 34.1865 119.594 34.7038 119.822 35.249C120.095 35.8921 120.247 36.5772 120.262 37.2762C120.262 37.6956 120.338 38.1151 120.323 38.5485C120.323 38.6883 120.323 38.8141 120.232 38.9399C120.141 39.0937 120.019 39.2195 119.882 39.3314C119.396 39.7788 118.894 40.2401 118.408 40.6875C118.195 40.9112 117.937 41.079 117.694 41.2607C114.942 43.274 111.902 44.728 108.483 45.4969C108.376 45.5249 108.224 45.6227 108.148 45.5249C108.042 45.399 108.209 45.3012 108.285 45.2173C108.695 44.7839 109.151 44.3784 109.638 44.001C109.79 43.8891 109.942 43.7773 110.063 43.6375C110.687 42.9244 111.401 42.3093 112.115 41.6802C113.27 40.6456 114.243 39.5131 114.942 38.171C115.079 37.9054 115.201 37.6397 115.216 37.3461C115.246 36.8149 115.003 36.5492 114.426 36.5073C114.091 36.4793 113.742 36.4793 113.407 36.5073C112.465 36.6471 111.522 36.8149 110.626 37.1644C104.196 39.6669 97.7819 42.1835 91.3372 44.6581C88.7989 45.6367 86.2605 46.6293 83.7678 47.7059C83.631 47.7618 83.4942 47.8037 83.3878 47.9016C83.3878 47.9016 83.3726 47.9156 83.3574 47.9296C83.327 47.9575 83.2966 47.9715 83.251 47.9995C83.2206 47.9995 83.2054 48.0274 83.175 48.0274C83.0686 48.0554 82.9926 48.1253 82.9166 48.1952C81.8526 48.6985 80.7582 49.1459 79.6639 49.5933C79.0255 49.8449 78.3719 50.0966 77.7183 50.3343C74.9063 51.0053 72.0944 51.7603 69.2064 52.1238C67.3977 52.3615 65.5889 52.4873 63.7649 52.4174C61.9562 52.3475 60.1626 52.1098 58.4146 51.6484C58.1562 51.5785 57.8826 51.6205 57.6546 51.4667C57.6242 51.3129 57.8066 51.3549 57.8826 51.271C57.1378 50.8795 56.3779 50.502 55.6787 50.0546C54.2195 49.1039 53.0795 47.9156 52.3955 46.3777C52.0003 45.4969 51.6355 44.6161 51.4987 43.6654C51.3315 42.505 51.4379 41.3726 51.7267 40.2401C52.2131 38.2968 53.1859 36.5632 54.4779 34.9974C55.6331 33.5993 56.8794 32.2711 58.217 31.0128C59.0226 30.2439 59.9498 29.6148 60.8922 28.9856C62.0626 28.2027 63.2481 27.4477 64.4793 26.7347C66.0297 25.84 67.6409 25.057 69.2064 24.2182C71.3344 23.0718 73.5384 22.0372 75.5599 20.737C77.3991 19.5486 79.1319 18.2764 80.4694 16.5847C80.9254 16.0115 81.275 15.3963 81.4878 14.7113C81.9286 13.2712 81.2446 12.0409 80.0894 11.286C78.9343 10.531 77.6271 10.1955 76.2591 9.98576C74.5415 9.73411 72.8088 9.70615 71.0608 9.83197C67.6257 10.0976 64.2969 10.7687 61.0138 11.7054C59.4178 12.1668 57.8218 12.6421 56.3171 13.3411C56.1955 13.3971 56.0739 13.467 55.9371 13.3691L55.8915 13.3272Z" fill="#FE8615"/>
<path d="M57.609 51.3828C58.9922 51.6485 60.345 52.026 61.7586 52.1518C63.2633 52.2916 64.7529 52.3475 66.2577 52.2636C67.4585 52.1937 68.644 52.0679 69.8296 51.9001C70.7872 51.7603 71.7296 51.5786 72.672 51.3689C74.2679 51.0193 75.8791 50.6419 77.4599 50.2364C77.5359 50.2224 77.6271 50.2085 77.7183 50.1945C77.9159 50.1386 78.0983 50.1945 78.2959 50.2364C80.1046 50.6139 81.8678 51.1032 83.5854 51.7184C85.3485 52.3475 87.1573 52.8229 88.9813 53.2702C91.6868 53.9413 94.4076 54.5145 97.1739 54.92C98.9523 55.1856 100.731 55.3813 102.524 55.5072C104.166 55.633 105.807 55.6749 107.434 55.619C109.82 55.5212 112.176 55.2695 114.441 54.4866C116.006 53.9413 117.39 53.1724 118.469 51.9421C119.016 51.3129 119.594 50.7118 120.05 50.0267C120.566 49.2578 120.886 48.4189 121.114 47.5381C121.174 47.3284 121.19 47.0907 121.311 46.895C121.433 46.7692 121.418 46.5595 121.585 46.4476C121.691 46.5455 121.646 46.6573 121.63 46.7552C121.509 47.5521 121.357 48.335 121.129 49.118C120.901 49.8729 120.658 50.6139 120.338 51.3409C120.065 51.97 119.685 52.5572 119.366 53.1584C119.32 53.2423 119.274 53.3122 119.244 53.3961C119.107 53.8155 118.864 54.193 118.53 54.5145C118.484 54.5565 118.438 54.6264 118.408 54.6823C118.028 55.3534 117.511 55.9266 116.949 56.4579C116.25 56.9332 115.657 57.5064 115.125 58.1356C113.939 59.1142 112.738 60.0649 111.203 60.5822C110.185 60.9317 109.136 61.1694 108.072 61.3372C106.795 61.5469 105.488 61.6168 104.196 61.5608C102.57 61.4909 100.974 61.2113 99.3931 60.8618C98.7851 60.722 98.2075 60.5542 97.6147 60.3585C96.7635 60.0649 95.8668 59.8692 95.0004 59.6455C91.8844 58.8486 88.7837 57.9678 85.7589 56.9052C82.9622 55.9266 80.0742 55.1716 77.1407 54.6124C75.5143 54.3048 73.8727 54.0672 72.216 53.8994C70.3768 53.7176 68.5376 53.6198 66.6833 53.6617C66.0449 53.6617 65.3913 53.7176 64.7529 53.7596C64.0993 53.8015 63.4457 53.7037 62.7921 53.7037C60.6946 53.7037 58.673 53.2982 56.621 52.9487C55.3443 52.739 54.0675 52.5293 52.8059 52.2357C50.9363 51.8023 49.0668 51.3689 47.2732 50.6978C45.9812 50.2085 44.7349 49.6352 43.5037 49.0201C43.3669 49.0341 43.2605 48.9362 43.1541 48.8943C42.8805 48.7545 42.6373 48.5867 42.3789 48.4329C42.3485 48.4189 42.3333 48.4049 42.3029 48.377C42.2269 48.3211 42.1661 48.2651 42.0901 48.2092C42.0293 48.1812 41.9837 48.1393 41.9381 48.1113C41.8165 48.0414 41.7101 47.9576 41.5885 47.8737C41.5125 47.8317 41.4365 47.7758 41.3453 47.7339C41.3149 47.7199 41.2997 47.7059 41.2693 47.6779C41.1933 47.622 41.1325 47.5661 41.0565 47.5242C41.0261 47.5102 41.0109 47.4962 40.9805 47.4822C40.9197 47.4263 40.8437 47.3704 40.7677 47.3284C40.7373 47.3144 40.7221 47.3005 40.6917 47.2725C40.6157 47.2166 40.5549 47.1607 40.4789 47.1047C40.3117 47.0069 40.1901 46.881 40.0381 46.7692C39.8405 46.6434 39.6733 46.4896 39.5061 46.3218C39.4605 46.2799 39.3997 46.2239 39.3389 46.196C39.3389 46.196 39.3085 46.196 39.3085 46.182C39.3085 46.182 39.2781 46.168 39.2781 46.154C39.2629 46.1401 39.2325 46.1261 39.2173 46.1121C39.2173 46.1121 39.2021 46.0981 39.1869 46.0841C39.1717 46.0702 39.1565 46.0422 39.1261 46.0282C39.1261 46.0282 39.1109 46.0142 39.0957 46.0002C39.0805 45.9723 39.0653 45.9583 39.0501 45.9303C39.0197 45.9024 38.9893 45.8744 38.959 45.8325C38.8222 45.7067 38.6702 45.5808 38.5334 45.441C38.5334 45.441 38.5182 45.4131 38.503 45.3991C38.4878 45.3711 38.4726 45.3432 38.4422 45.3292C38.351 45.1894 38.199 45.0915 38.1078 44.9517C38.0014 44.8119 37.8646 44.6861 37.7582 44.5462C37.6822 44.4624 37.6062 44.3645 37.5454 44.2806C37.4846 44.2107 37.4238 44.1548 37.3782 44.0849C37.3174 43.987 37.2414 43.9031 37.1654 43.8053C37.0894 43.7214 37.0134 43.6235 36.9374 43.5396C36.831 43.4138 36.7398 43.288 36.6334 43.1482C36.5726 43.0503 36.4966 42.9524 36.4206 42.8686C36.3446 42.7567 36.2686 42.6588 36.1926 42.547C36.1166 42.4491 36.0558 42.3513 35.9798 42.2534C35.7974 42.0017 35.615 41.7361 35.4174 41.4845C35.3566 41.4146 35.2958 41.3447 35.2502 41.2747C35.1438 41.1349 35.007 41.0091 34.9006 40.8693C34.779 40.7435 34.6422 40.6316 34.551 40.4778C34.4902 40.4079 34.4294 40.338 34.3838 40.2681C34.323 40.1703 34.247 40.0724 34.1862 39.9885C34.1406 39.9466 34.1102 39.8907 34.0798 39.8487C33.867 39.5551 33.6542 39.2615 33.4262 38.9679C33.411 38.94 33.3958 38.912 33.3654 38.884C33.3198 38.7862 33.259 38.7023 33.1982 38.6184C33.183 38.5904 33.1678 38.5625 33.1526 38.5485C33.107 38.4506 33.0462 38.3667 32.9855 38.2829C32.9703 38.2549 32.9551 38.2409 32.9399 38.213C32.8943 38.1431 32.8639 38.0592 32.8031 37.9893C32.7423 37.9054 32.6815 37.8215 32.6207 37.7516C32.6055 37.7236 32.5903 37.7097 32.5751 37.6817C32.5447 37.6397 32.5143 37.5838 32.4687 37.5419C32.4535 37.5139 32.4383 37.486 32.4231 37.472C32.3319 37.2762 32.2103 37.1085 32.0887 36.9267C31.9975 36.7869 31.8911 36.6611 31.8455 36.4933C29.9455 33.7251 27.6199 31.3065 24.8384 29.2792C23.4704 28.2866 22.0264 27.4058 20.4001 26.8047C18.7889 26.1895 17.1169 25.8679 15.3538 25.9518C14.229 26.0077 13.1498 26.2314 12.1162 26.6369C11.0522 27.0563 10.125 27.6435 9.22826 28.3006C8.83307 28.5802 8.49867 28.9157 8.20988 29.3072C7.98188 29.6148 7.73869 29.9084 7.48029 30.188C6.9483 30.7752 6.55311 31.4323 6.27951 32.1593C5.96032 32.9981 5.71712 33.851 5.50432 34.7038C5.07873 36.3675 4.86593 38.0452 4.77474 39.7508C4.77474 39.8347 4.77474 39.9046 4.75954 39.9885C4.68354 40.3101 4.75954 40.6596 4.66834 41.0091C4.19715 40.4918 4.02995 39.8068 3.63476 39.2615C3.02677 37.7796 2.60117 36.2557 2.58597 34.6618C2.55557 32.7605 2.93557 30.915 3.81715 29.1674C4.27315 28.2587 4.68354 27.3499 5.18513 26.4691C5.53472 25.854 5.97552 25.2947 6.49231 24.7914C6.9939 24.2881 7.51069 23.7988 8.02748 23.3095C10.2314 21.2822 12.8914 20.0799 15.9313 19.5766C16.7521 19.4368 17.5729 19.2411 18.4089 19.1572C18.8801 19.1152 19.3513 19.0174 19.8225 19.0733C20.0353 19.1432 20.2481 19.1012 20.4609 19.1292C20.5065 19.1292 20.5369 19.1292 20.5825 19.1432C20.7953 19.2131 21.0081 19.1572 21.2209 19.2131C21.844 19.283 22.4672 19.4088 23.1056 19.4647C23.1512 19.4647 23.1816 19.4647 23.212 19.4927C23.592 19.5626 23.9872 19.6325 24.3824 19.6605C25.1576 19.8282 25.8872 20.0939 26.6016 20.4015C29.1247 21.45 31.3895 22.8341 33.487 24.4978C35.083 25.7701 36.6334 27.0843 38.199 28.3845C38.6702 28.7759 39.1109 29.1814 39.5669 29.5868C40.9805 30.8311 42.4245 32.0474 43.8381 33.2777C45.1148 34.3962 46.4068 35.5287 47.6988 36.6331C48.5348 37.3462 49.3556 38.0732 50.2068 38.7722C50.374 38.898 50.5411 39.0378 50.6475 39.2196C50.6779 39.2895 50.6779 39.3594 50.6628 39.4293C50.602 39.7369 50.5107 40.0444 50.4651 40.352C50.4651 40.4359 50.4652 40.5338 50.4348 40.6177C50.3588 41.0091 50.2828 41.3866 50.146 41.7641C50.0852 41.9878 50.0092 42.2115 50.0244 42.4491C50.0244 42.7707 49.994 43.0783 50.0548 43.3998C50.1004 43.5816 50.0852 43.7493 50.146 43.9311C50.1612 44.0989 50.222 44.2527 50.2676 44.4204C50.298 44.5742 50.3436 44.728 50.4044 44.8678C50.4196 44.9097 50.4348 44.9517 50.45 44.9936C50.45 45.0216 50.4652 45.0496 50.4804 45.0775C50.4804 45.1055 50.4956 45.1334 50.5108 45.1614C50.5412 45.2732 50.5868 45.3711 50.6323 45.483C50.6323 45.5109 50.6628 45.5389 50.6628 45.5668C50.6931 45.6367 50.7235 45.6927 50.7691 45.7626C50.7691 45.7905 50.7995 45.8185 50.7995 45.8465C50.8299 45.9303 50.8603 46.0142 50.9059 46.0841C50.9363 46.1121 50.9515 46.154 50.9819 46.182C51.0123 46.2239 51.0275 46.2799 51.0579 46.3218C51.0883 46.3637 51.1035 46.4197 51.1339 46.4616C51.1491 46.4896 51.1643 46.5036 51.1795 46.5315C51.2251 46.6014 51.2555 46.6853 51.3011 46.7552C51.3315 46.7972 51.3619 46.8531 51.3923 46.895C51.4075 46.909 51.4227 46.937 51.4379 46.9649C51.4683 47.0069 51.4987 47.0488 51.5291 47.0907C51.5443 47.1047 51.5595 47.1327 51.5747 47.1607C51.6051 47.2026 51.6355 47.2445 51.6659 47.2865C51.6811 47.3005 51.6963 47.3284 51.7115 47.3564C51.7419 47.4123 51.7875 47.4682 51.8331 47.5102C51.8331 47.5102 51.8483 47.5381 51.8635 47.5381C51.8787 47.5661 51.8939 47.5801 51.9091 47.608C51.9547 47.664 52.0003 47.7059 52.0459 47.7618C52.0459 47.7618 52.0611 47.7758 52.0763 47.7898C52.0915 47.8177 52.1067 47.8317 52.1219 47.8597C52.1523 47.9156 52.1979 47.9715 52.2435 48.0135C52.2587 48.0275 52.2891 48.0554 52.3043 48.0694C52.3195 48.0834 52.3499 48.1113 52.3651 48.1253C52.3651 48.1253 52.3803 48.1533 52.3955 48.1533C52.4107 48.1812 52.4259 48.1952 52.4411 48.2232C52.4867 48.2791 52.5323 48.335 52.5931 48.377C52.6083 48.391 52.6387 48.4189 52.6539 48.4329C52.6691 48.4469 52.6995 48.4748 52.7147 48.4888C52.7147 48.4888 52.7299 48.5028 52.7451 48.5168C52.7603 48.5308 52.7907 48.5587 52.8059 48.5727C52.8059 48.5727 52.8211 48.5867 52.8363 48.6007C52.8515 48.6147 52.8819 48.6426 52.8971 48.6566C52.8971 48.6566 52.9123 48.6846 52.9275 48.6846C52.9427 48.7125 52.9579 48.7265 52.9883 48.7545C53.2315 48.9921 53.4747 49.2298 53.7483 49.4395C53.7483 49.4395 53.7787 49.4535 53.7939 49.4675C53.7939 49.4675 53.8243 49.4815 53.8395 49.4954C53.8699 49.5094 53.8851 49.5374 53.9155 49.5514C53.9155 49.5514 53.9307 49.5653 53.9459 49.5793C53.9763 49.5933 53.9915 49.6213 54.0067 49.6352C54.0067 49.6352 54.0219 49.6492 54.0371 49.6632C54.0979 49.7191 54.1435 49.7611 54.2195 49.789C54.2499 49.789 54.2651 49.817 54.2955 49.831C54.3563 49.8729 54.4171 49.9149 54.4779 49.9428C54.5083 49.9568 54.5235 49.9708 54.5539 49.9848C54.5539 49.9848 54.5691 49.9987 54.5843 50.0127C54.6299 50.0547 54.6907 50.0966 54.7515 50.1246C54.7819 50.1246 54.7971 50.1525 54.8275 50.1665C54.8883 50.2085 54.9339 50.2364 54.9947 50.2644C55.0403 50.2923 55.0859 50.3063 55.1467 50.3343C55.2075 50.3622 55.2683 50.4042 55.3291 50.4461C55.3595 50.4461 55.3747 50.4741 55.4051 50.4881C55.4507 50.5021 55.4811 50.53 55.5267 50.544C55.5571 50.544 55.5875 50.572 55.6027 50.5859C55.8459 50.7257 56.0891 50.8376 56.3627 50.9215C56.4235 50.9494 56.4842 50.9634 56.5299 50.9914C56.621 51.0333 56.7122 51.0753 56.8186 51.1032C56.849 51.1032 56.8794 51.1172 56.8946 51.1312C56.9402 51.1452 57.001 51.1731 57.0618 51.1871C57.0922 51.1871 57.1226 51.2011 57.1378 51.2151C57.1986 51.243 57.2746 51.257 57.3354 51.271C57.4114 51.299 57.4874 51.299 57.5482 51.3269C57.5786 51.3269 57.5938 51.3549 57.609 51.3828Z" fill="#8C0029"/>
<path d="M43.4429 49.076C42.7133 49.104 41.9837 49.118 41.2541 49.1599C39.8861 49.2298 38.5182 49.3696 37.1654 49.5374C35.235 49.789 33.3047 50.0966 31.4047 50.5021C27.1184 51.4248 22.9384 52.6411 19.0017 54.5145C17.4057 55.2835 15.9162 56.1922 14.4874 57.2128C13.317 58.0657 12.2074 58.9884 11.1738 59.981C10.2619 60.8478 9.45627 61.7706 8.92428 62.889C8.43789 63.8817 8.19469 64.9162 8.14909 66.0067C8.14909 66.3143 8.17949 66.6079 8.27069 66.9015C9.06108 69.6417 10.2315 72.2282 11.721 74.7028C13.2562 77.2473 14.9434 79.6939 16.8129 82.0427C16.9041 82.1545 16.9801 82.2664 17.0561 82.3782C17.0713 82.4481 17.0409 82.4761 16.9801 82.4901C16.6913 82.4481 16.5393 82.2244 16.3721 82.0427C15.1714 80.8263 13.9858 79.596 12.6634 78.4916C11.7818 77.7646 11.0978 76.8698 10.3075 76.0729C8.24029 74.0037 6.88751 71.5571 5.76273 68.9846C4.98755 67.1951 4.48595 65.3217 4.28836 63.3923C3.95396 60.1068 4.47075 56.9332 5.91473 53.8994C6.85711 51.9281 8.13389 50.1525 9.68426 48.5448C12.025 46.154 14.6242 44.0569 17.5273 42.2674C18.8953 41.4285 20.3545 40.6876 21.7985 39.9606C23.0904 39.3174 24.428 38.7582 25.8112 38.2829C26.2064 38.1431 26.6168 38.0592 27.0272 37.9613C27.8024 37.7656 28.5319 37.472 29.2919 37.2483C30.0823 37.0246 30.8575 36.7869 31.6479 36.5912C31.7087 36.5772 31.7695 36.5772 31.8303 36.5632C31.9671 36.6611 32.0279 36.8289 32.1495 36.9547C32.2559 37.1364 32.3623 37.3182 32.4991 37.486C32.5447 37.5559 32.5903 37.6258 32.6511 37.6817C32.7271 37.7796 32.7727 37.9194 32.8791 38.0033C32.9247 38.0732 32.9551 38.157 33.0159 38.213C33.1071 38.3108 33.1375 38.4506 33.2287 38.5485C33.3199 38.6464 33.3503 38.7862 33.4567 38.884C33.6542 39.1916 33.8822 39.4992 34.1102 39.7928C34.1558 39.8767 34.1862 39.9466 34.2622 40.0165C34.2926 40.1004 34.3534 40.1563 34.4142 40.2262C34.4446 40.338 34.5662 40.4079 34.6422 40.5058C34.6878 40.6456 34.8246 40.7155 34.9158 40.8134C34.9462 40.8413 34.9766 40.8693 35.007 40.9113C35.0526 41.0511 35.2046 41.121 35.2958 41.2468C35.3262 41.3726 35.4478 41.4285 35.5238 41.5264C35.7062 41.792 35.8886 42.0577 36.0862 42.3093C36.1166 42.3932 36.1774 42.4631 36.2534 42.519C36.3294 42.6588 36.4206 42.7987 36.5422 42.9105C36.5726 42.9944 36.6486 43.0503 36.6942 43.1202C36.7854 43.288 36.907 43.4418 37.0438 43.5816C37.0894 43.6934 37.1806 43.7633 37.2718 43.8472C37.3022 43.9311 37.363 43.987 37.4238 44.0569C37.4542 44.1688 37.5606 44.2387 37.6366 44.3226C37.667 44.4344 37.7734 44.5043 37.8494 44.5882C37.895 44.728 38.047 44.8119 38.1382 44.9237C38.199 45.0775 38.3662 45.1614 38.4726 45.2872C38.503 45.3152 38.5182 45.3571 38.5638 45.3991C38.6702 45.5668 38.8374 45.6787 38.9742 45.8185C39.0046 45.8465 39.035 45.8744 39.0654 45.9024C39.0958 45.9303 39.111 45.9723 39.1414 46.0002C39.1566 46.0282 39.187 46.0422 39.2174 46.0702C39.2326 46.0981 39.263 46.1121 39.2934 46.1401C39.3237 46.168 39.3541 46.182 39.3845 46.196C39.4149 46.2239 39.4454 46.2519 39.4757 46.2799C39.5061 46.3078 39.5365 46.3358 39.5669 46.3637C39.7189 46.4756 39.8101 46.6434 39.9925 46.7133C40.0381 46.7273 40.0685 46.7692 40.0989 46.7972C40.2053 46.895 40.2965 47.0208 40.4485 47.0628C40.5397 47.1327 40.6309 47.2166 40.7373 47.2725C40.8285 47.3424 40.9197 47.4123 41.0261 47.4682C41.1173 47.5381 41.2085 47.608 41.3149 47.664C41.4061 47.7199 41.4973 47.8178 41.6189 47.8457C41.7101 47.9156 41.7861 48.0135 41.9077 48.0414C41.9685 48.0974 42.0445 48.1533 42.1357 48.1812C42.2117 48.2372 42.2725 48.2931 42.3485 48.335C42.6221 48.5168 42.8957 48.7125 43.2149 48.8523C43.2757 48.9362 43.4277 48.9222 43.4277 49.062L43.4429 49.076Z" fill="#1FB5D3"/>
<path d="M63.0049 39.597C63.1417 39.3733 63.2937 39.1636 63.5065 38.9958C63.5217 38.9539 63.5521 38.9259 63.5825 38.898C63.6129 38.87 63.6433 38.842 63.6585 38.8001C63.9321 38.5624 64.2513 38.3807 64.5401 38.157C65.3001 37.6117 66.0449 37.0665 66.7593 36.4793C66.8201 36.4653 66.8505 36.4234 66.8809 36.3814C67.0785 36.2556 67.2457 36.1018 67.4281 35.948C67.4889 35.934 67.5193 35.8921 67.5497 35.8501C67.5649 35.8501 67.5801 35.8362 67.5801 35.8222C67.6257 35.7942 67.6713 35.7663 67.7168 35.7383C67.884 35.5845 68.0664 35.4307 68.2336 35.2769C68.2792 35.263 68.3096 35.235 68.34 35.207C68.3704 35.1931 68.3856 35.1651 68.416 35.1371C68.4464 35.1092 68.4768 35.0812 68.5072 35.0393C68.7352 34.8855 68.9176 34.7037 69.1152 34.536C69.1608 34.522 69.1912 34.494 69.2216 34.4661C69.252 34.4381 69.2824 34.4101 69.328 34.3961C69.5256 34.2144 69.7232 34.0466 69.9208 33.8649C69.9664 33.8509 69.9968 33.8229 70.0272 33.795C70.0576 33.767 70.088 33.7391 70.1336 33.7251C70.3312 33.5433 70.5288 33.3756 70.7264 33.1938C70.772 33.1798 70.8024 33.1519 70.8328 33.1239C70.8632 33.1099 70.8784 33.082 70.9088 33.054C70.9392 33.04 70.9544 33.0121 70.9848 32.9841C71.0152 32.9561 71.0456 32.9282 71.0912 32.9142V32.8862H71.1216C71.5472 32.4948 71.988 32.1033 72.4136 31.6979C72.596 31.5301 72.7936 31.4322 73.0368 31.3623C76.7151 30.3837 80.3478 29.2652 83.8438 27.8392C85.7133 27.0702 87.6133 26.3572 89.4525 25.5184C90.2125 25.1688 91.0332 24.9451 91.7932 24.5816C93.9972 23.5051 96.1708 22.3587 98.2835 21.1144C100.29 19.9261 102.175 18.5839 104.014 17.1858C104.196 17.046 104.409 16.9342 104.607 16.7944C106.431 15.5501 107.555 13.9143 107.814 11.8172C107.814 11.7054 107.783 11.5656 107.966 11.5376C108.179 11.957 108.239 12.4184 108.315 12.8658C108.452 13.7186 108.528 14.5714 108.483 15.4382C108.483 15.62 108.452 15.7877 108.391 15.9695C108.103 16.8643 107.799 17.759 107.358 18.6119C107.327 18.6678 107.312 18.7237 107.297 18.7656C107.191 19.241 106.902 19.6185 106.643 20.0239C106.704 20.1078 106.78 20.0659 106.841 20.0379C108.376 19.3528 109.835 18.542 111.021 17.4095C112.313 16.1652 113.468 14.8371 114.198 13.2293C114.699 12.1108 114.958 10.9644 114.745 9.76203C114.669 9.35659 114.471 9.00707 114.258 8.64357C114.198 8.55037 114.193 8.4525 114.243 8.34998C114.258 8.34998 114.289 8.36396 114.304 8.37794C114.334 8.37794 114.365 8.4059 114.38 8.43386C114.41 8.46182 114.426 8.4758 114.456 8.48978C114.958 8.8393 115.444 9.2028 115.87 9.62223C115.961 9.70611 116.037 9.80398 116.128 9.90184C116.28 10.1395 116.371 10.4191 116.66 10.5729C117.055 11.0622 117.314 11.5935 117.45 12.1947C117.542 12.9357 117.511 13.6906 117.45 14.4316C117.42 14.6693 117.344 14.879 117.222 15.0887C117.177 15.1167 117.177 15.1866 117.146 15.2285C116.842 15.5641 116.69 15.9835 116.478 16.361C116.447 16.3889 116.417 16.4029 116.417 16.4448C116.371 16.5427 116.295 16.6126 116.219 16.6825C115.657 17.2278 115.064 17.773 114.471 18.2903C114.137 18.5839 113.757 18.8216 113.362 19.0453C113.164 19.1571 112.982 19.2829 112.83 19.4367C112.769 19.4926 112.754 19.5765 112.693 19.6325C112.404 20.0099 112.48 20.2196 112.982 20.3175C113.894 20.4993 114.79 20.5412 115.702 20.2756C116.599 20.0099 117.39 19.6045 118.15 19.1152C118.256 19.0453 118.362 18.9614 118.484 18.9194C118.514 18.9055 118.545 18.8915 118.575 18.8775C118.575 18.8775 118.606 18.8635 118.621 18.8495C118.651 18.8356 118.682 18.8216 118.712 18.8076C118.727 18.8076 118.742 18.8076 118.758 18.8076C118.834 18.8495 118.834 18.9055 118.803 18.9754C118.742 19.0033 118.758 19.0592 118.727 19.1152C118.666 19.1431 118.682 19.213 118.651 19.255C117.998 20.2756 117.268 21.2263 116.204 21.9253C115.353 22.4706 114.41 22.848 113.422 23.1416C111.264 23.7987 109.06 24.3719 106.887 25.0151C105.823 25.3366 104.804 25.756 103.771 26.1335C102.555 26.5809 101.339 27.0423 100.138 27.5316C98.8915 28.0349 97.7515 28.678 96.5812 29.3071C96.3532 29.433 96.1252 29.5588 95.8668 29.6427C95.6084 29.8664 95.2436 29.8524 94.9396 29.8804C94.134 29.9642 93.374 30.174 92.5836 30.3277C91.17 30.5934 89.7717 30.9569 88.4341 31.4742C87.2941 31.9216 86.1997 32.4388 85.0901 32.9561C83.7222 33.5992 82.3846 34.2703 81.0166 34.8995C79.4966 35.5985 77.9919 36.3395 76.5783 37.2203C74.6479 38.4366 72.6112 39.5271 70.5744 40.5896C69.4344 41.1908 68.34 41.8619 67.2001 42.4631C66.9721 42.5749 66.7593 42.7007 66.5161 42.7706C66.3945 42.7986 66.2729 42.7706 66.1513 42.7287C66.1209 42.7287 66.0905 42.7007 66.0601 42.6867C65.9689 42.6308 65.8777 42.5749 65.7713 42.533C65.7409 42.533 65.7105 42.505 65.6953 42.491C65.6193 42.4351 65.5433 42.4071 65.4521 42.3931C65.2393 42.3232 65.0569 42.1974 64.8897 42.0576C64.8289 41.9877 64.7529 41.9458 64.6617 41.9178C64.4489 41.8339 64.2513 41.75 64.0841 41.5962C64.0081 41.5124 63.9017 41.4425 63.7953 41.4005C63.7649 41.4005 63.7345 41.3726 63.7193 41.3586C63.6433 41.3026 63.5673 41.2747 63.4761 41.2467C63.2785 41.1628 63.0809 41.079 62.9289 40.9391C62.8681 40.8692 62.7921 40.8133 62.7161 40.7574C62.6857 40.7294 62.6705 40.7015 62.6553 40.6735C62.5793 40.4079 62.7465 40.1982 62.8225 39.9605C62.8529 39.8486 62.9137 39.7368 62.9593 39.625L63.0049 39.597Z" fill="#1FB5D3"/>
<path d="M20.5369 19.1711H20.5065H20.4761C20.2633 19.0733 20.0201 19.1851 19.8073 19.1012C19.1233 19.1292 18.4241 19.1711 17.7553 19.2969C16.7977 19.4787 15.8249 19.6185 14.8826 19.8282C12.9522 20.2756 11.1738 21.0166 9.59305 22.1211C8.57467 22.8341 7.67788 23.6589 6.8419 24.5537C6.6139 24.8054 6.34031 25.0151 6.12751 25.2667C5.79312 25.6442 5.51952 26.0497 5.27633 26.4691C4.54674 27.7273 3.96915 29.0555 3.37636 30.3837C3.11796 30.9569 3.02676 31.5721 2.92037 32.1732C2.76837 32.9841 2.64677 33.809 2.67717 34.6338C2.70757 35.3748 2.78357 36.1018 2.99636 36.8148C3.08756 37.1084 3.14836 37.402 3.19396 37.6956C3.23956 37.9892 3.34596 38.2828 3.48276 38.5624C3.58915 38.7722 3.66515 38.9958 3.71075 39.2335C4.09075 39.8627 4.37954 40.5477 4.74433 41.1908C4.74433 41.2048 4.77473 41.2328 4.77473 41.2467C4.88113 42.3093 4.97233 43.3578 4.74433 44.4204C4.74433 44.4623 4.74433 44.5043 4.71393 44.5462C4.66833 44.672 4.56194 44.686 4.45554 44.6021C4.40994 44.5602 4.37954 44.5182 4.33394 44.4763C3.80195 43.7912 3.19396 43.1342 2.70757 42.4072C1.49159 40.5617 0.686004 38.5764 0.33641 36.4374C0.0172151 34.508 0.123613 32.6066 0.534006 30.7052C1.066 28.2027 2.16038 25.9238 3.58915 23.7568C3.84755 23.3653 4.19714 23.0298 4.53154 22.6943C5.68672 21.5618 6.7963 20.3874 8.04268 19.3389C10.7026 17.1299 13.7882 15.7179 17.2993 15.0608C18.6825 14.8091 20.0505 14.879 21.4336 15.0328C21.92 15.0887 22.4216 15.1307 22.908 15.2006C23.7136 15.3124 24.504 15.4802 25.2944 15.6759C27.2703 16.1792 29.2007 16.8084 31.0855 17.5493C33.4262 18.4721 35.6302 19.6325 37.7126 20.9746C39.8101 22.3168 41.7405 23.8547 43.5949 25.4764C44.6588 26.4132 45.7532 27.3079 46.9236 28.1468C48.1396 29.0276 49.234 30.0621 50.4043 30.9988C51.3619 31.7538 52.2891 32.5088 53.2315 33.2637C53.2923 33.4035 53.2011 33.5154 53.1251 33.6272C52.8059 34.1166 52.5627 34.6478 52.2739 35.1511C52.2739 35.1791 52.2435 35.2071 52.2283 35.235C52.1979 35.277 52.1675 35.3049 52.1371 35.3469C51.9699 35.6405 51.7875 35.9341 51.6659 36.2416C51.6051 36.3954 51.4987 36.5492 51.4531 36.703C51.4531 36.731 51.4379 36.7589 51.4227 36.7869C51.2859 37.1364 51.1643 37.4859 51.0427 37.8354C51.0427 37.8774 51.0275 37.9333 51.0123 37.9753C50.9059 38.2688 50.8299 38.5764 50.7539 38.87C50.7539 38.912 50.7235 38.9679 50.7083 39.0098C50.6779 39.0658 50.6475 39.1217 50.5715 39.1496C50.222 38.856 49.8724 38.5624 49.5228 38.2688C48.626 37.4719 47.6836 36.703 46.7868 35.9061C45.9356 35.1511 45.0692 34.4241 44.2181 33.6692C43.3821 32.9282 42.5309 32.1872 41.6797 31.4742C40.9197 30.8311 40.1749 30.188 39.4149 29.5309C38.2598 28.5103 37.0894 27.5037 35.9038 26.511C35.3718 26.0636 34.8398 25.5883 34.247 25.2108C33.9278 25.0151 33.6694 24.7355 33.3806 24.4978C32.2255 23.5611 30.9791 22.7222 29.6871 21.9673C28.8207 21.464 27.8935 21.0166 26.9664 20.6111C26.1304 20.2476 25.2792 19.9401 24.3976 19.6884C23.9872 19.5905 23.5616 19.5486 23.1512 19.4927C22.5584 19.4228 21.9808 19.269 21.3728 19.255C21.0993 19.1292 20.7953 19.227 20.5217 19.1571L20.5369 19.1711Z" fill="#FC0334"/>
<path d="M121.418 46.9369C121.311 47.1326 121.296 47.3563 121.235 47.58C120.931 48.7544 120.414 49.8309 119.624 50.8096C119.335 51.1731 119.046 51.5226 118.697 51.8302C118.56 51.956 118.438 52.0958 118.317 52.2356C117.481 53.1863 116.386 53.8155 115.186 54.3048C113.909 54.8221 112.571 55.1436 111.219 55.3533C110.535 55.4652 109.851 55.5211 109.167 55.591C107.571 55.7448 105.959 55.7448 104.363 55.7029C103.497 55.6749 102.631 55.619 101.749 55.5351C101.141 55.4792 100.548 55.4232 99.9403 55.3673C99.2259 55.2974 98.4964 55.1996 97.782 55.0877C96.7484 54.9339 95.6996 54.7661 94.6812 54.5704C93.526 54.3607 92.3861 54.123 91.2461 53.8714C88.7381 53.3121 86.2606 52.6551 83.8134 51.8721C82.9622 51.6065 82.1414 51.2849 81.2903 51.0193C80.4391 50.7537 79.5423 50.6278 78.6911 50.4041C78.3719 50.3203 78.0527 50.2504 77.7335 50.1805C78.1895 49.9428 78.6911 49.803 79.1623 49.6212C79.9831 49.2997 80.8039 48.9501 81.6095 48.6146C82.035 48.4329 82.4606 48.2371 82.8862 48.0554C82.9774 47.9995 83.099 47.9715 83.1902 47.9296C83.2358 47.8876 83.2966 47.9016 83.3422 47.8596C84.011 47.9995 84.695 48.1393 85.3638 48.2931C87.2486 48.6985 89.1637 49.0061 91.0789 49.2857C92.7813 49.5234 94.4836 49.7331 96.2012 49.9148C97.3108 50.0406 98.4204 50.1245 99.5299 50.2084C100.807 50.3063 102.099 50.3482 103.375 50.4321C104.546 50.502 105.716 50.5719 106.887 50.6418C107.175 50.6558 107.464 50.6139 107.753 50.5999C108.969 50.53 110.17 50.3622 111.34 50.1106C111.751 50.0127 112.161 49.9428 112.571 49.8449C113.271 49.6771 113.878 49.3136 114.517 49.0201C116.918 47.9016 119.001 46.4056 120.734 44.4903C120.992 44.2107 121.19 43.8891 121.478 43.6235C121.782 43.6235 121.752 43.8332 121.767 43.987C121.843 44.5043 121.782 45.0216 121.737 45.5388C121.691 46.0142 121.554 46.4616 121.387 46.909L121.418 46.9369Z" fill="#FC0334"/>
<path d="M27.0424 37.9473C26.6928 38.1291 26.2976 38.199 25.9176 38.3388C24.6104 38.7862 23.3488 39.3034 22.1329 39.8906C20.4913 40.6875 18.8649 41.5264 17.3297 42.4771C16.0834 43.246 14.9282 44.0988 13.7882 44.9936C12.6634 45.8884 11.569 46.7971 10.5354 47.7898C8.77228 49.4675 7.31311 51.3269 6.21872 53.438C5.41314 55.0038 4.85075 56.6536 4.54675 58.3732C4.30356 59.7154 4.22756 61.0575 4.28836 62.4137C4.33396 63.3364 4.47075 64.2591 4.66835 65.1679C5.18514 67.6425 6.15793 69.9772 7.4651 72.1862C8.04269 73.1509 8.66588 74.1016 9.38027 74.9963C9.44107 75.0802 9.51707 75.1641 9.59307 75.22C10.1707 75.7094 10.6114 76.2966 11.113 76.8418C11.8578 77.6527 12.6482 78.4216 13.5146 79.1207C14.1834 79.6659 14.761 80.2811 15.3538 80.8822C15.8706 81.4135 16.3873 81.9588 16.9497 82.4341C17.1929 82.49 17.2537 82.7557 17.4665 82.8256C17.5729 83.0073 17.7097 83.1751 17.8921 83.3149C17.9377 83.3429 17.9833 83.3848 18.0137 83.4407C18.3937 83.972 18.8649 84.4473 19.3057 84.9367C19.5033 85.1464 19.7009 85.3561 19.9137 85.5658C20.7193 86.4326 21.6161 87.2295 22.4976 88.0124C22.7256 88.2082 22.984 88.3759 23.2272 88.5717C23.288 88.6276 23.3488 88.6695 23.4096 88.7255C23.4704 88.7814 23.5464 88.8373 23.4856 88.9212C23.4248 89.0051 23.3184 89.0191 23.2272 88.9771C22.984 88.8932 22.7408 88.7954 22.4976 88.6835C21.7529 88.348 21.0385 87.9705 20.3241 87.593C19.3665 87.0757 18.4089 86.5445 17.5273 85.9013C16.9041 85.44 16.2658 84.9926 15.673 84.5033C15.1106 84.0419 14.4874 83.6085 13.9098 83.1611C13.4842 82.8395 13.0738 82.518 12.6634 82.1824C11.9338 81.5953 11.2346 80.9801 10.5202 80.3649C9.86666 79.7917 9.19787 79.2465 8.51388 78.7152C7.8907 78.2259 7.3587 77.6667 6.72031 77.1913C6.56832 77.0795 6.43152 76.9536 6.26432 76.8558C5.82353 76.5762 5.47394 76.1847 5.20034 75.7653C4.98755 75.4297 4.69875 75.1361 4.42515 74.8426C3.68037 74.0596 3.04198 73.2068 2.47959 72.312C1.44601 70.6623 0.777217 68.9007 0.382024 67.0273C0.245226 66.3982 0.154028 65.7551 0.0780291 65.1119C-0.028369 64.1193 -0.0131693 63.1267 0.0476296 62.134C0.138828 60.6101 0.473222 59.1142 0.944414 57.6462C1.32441 56.4858 1.7956 55.3534 2.25159 54.2069C2.55559 53.438 3.02678 52.739 3.48277 52.0539C4.10596 51.1172 4.66835 50.1525 5.32194 49.2438C5.64113 48.8104 6.00593 48.4329 6.35552 48.0414C6.73551 47.622 7.14591 47.2585 7.5563 46.881C8.28589 46.196 9.09147 45.5808 9.89706 44.9796C10.7786 44.3365 11.6602 43.6934 12.6178 43.1342C13.089 42.8546 13.5602 42.5889 14.0618 42.3512C15.217 41.778 16.3721 41.2048 17.5425 40.6736C19.4121 39.8347 21.3425 39.1636 23.3488 38.6603C24.1392 38.4646 24.9296 38.2549 25.7504 38.1151C26.1608 38.0452 26.5712 37.9193 26.9968 37.9333L27.0424 37.9473Z" fill="#ADF2FF"/>
<path d="M66.5313 42.7007C67.3977 42.2953 68.2033 41.8059 69.0393 41.3446C70.24 40.6735 71.456 40.0024 72.6872 39.3873C73.9336 38.7581 75.0888 37.9892 76.2895 37.2902C78.0223 36.2696 79.8007 35.3328 81.655 34.522C81.9134 34.4101 82.1566 34.2563 82.415 34.1445C84.0718 33.3616 85.7286 32.5507 87.4157 31.7957C88.9357 31.1246 90.5317 30.6633 92.1581 30.3137C92.7356 30.1879 93.3132 30.0621 93.8908 29.9363C94.5444 29.8104 95.198 29.7266 95.8668 29.6287C96.5204 29.5867 97.174 29.4889 97.8124 29.391C98.7243 29.2652 99.6363 29.1533 100.564 29.0834C102.6 28.9157 104.637 28.9157 106.674 28.9017C107.115 28.9017 107.54 28.8458 107.981 28.8458C109.288 28.8038 110.58 28.9576 111.857 29.1394C112.571 29.2372 113.301 29.3071 114.015 29.4469C114.851 29.6147 115.687 29.7545 116.478 30.0202C117.344 30.2998 118.18 30.6633 118.925 31.1806C119.411 31.6419 119.837 32.1592 120.399 32.5647C120.43 32.5926 120.475 32.6206 120.49 32.6625C120.658 33.2497 121.114 33.7111 121.326 34.2843C121.57 34.6897 121.661 35.1371 121.737 35.5845C121.828 36.1158 121.798 36.6191 121.554 37.1084C121.235 37.4439 121.098 37.8913 120.825 38.2548C120.627 38.4925 120.475 38.7721 120.186 38.9399C120.186 38.87 120.171 38.8001 120.171 38.7442C120.171 37.9472 120.171 37.1364 120.004 36.3395C119.852 35.5146 119.548 34.7177 118.849 34.1165C118.788 34.0606 118.727 34.0047 118.651 33.9627C118.18 33.6971 117.709 33.4175 117.222 33.1658C115.961 32.5227 114.608 32.1592 113.21 31.9355C112.389 31.7957 111.553 31.7118 110.732 31.6559C109.425 31.558 108.118 31.5021 106.811 31.558C106.218 31.586 105.625 31.558 105.032 31.6559C104.652 31.7118 104.257 31.6978 103.877 31.7258C103.345 31.7538 102.813 31.7957 102.281 31.8237C101.612 31.8656 100.928 31.9076 100.26 31.9914C99.5603 32.0753 98.8459 32.1592 98.1468 32.2711C97.3716 32.3969 96.5964 32.5227 95.8364 32.6765C93.6476 33.1239 91.4893 33.6831 89.3765 34.3542C87.9781 34.8016 86.6102 35.3049 85.2422 35.8222C83.935 36.3255 82.6582 36.8567 81.4118 37.4439C80.3631 37.9333 79.3143 38.4226 78.2807 38.9539C77.3991 39.4152 76.5023 39.8766 75.6359 40.3519C75.0584 40.6735 74.496 40.9811 73.9336 41.3166C73.6904 41.4564 73.432 41.5263 73.1736 41.6522C72.4136 42.0017 71.6536 42.3652 70.8936 42.7007C69.86 43.1621 68.7809 43.5535 67.6409 43.7213C66.9113 43.8192 66.1817 43.945 65.4369 43.8751C65.1177 43.8471 64.7833 43.8332 64.4945 43.6933C64.5249 43.6514 64.5553 43.5955 64.6009 43.5675C64.6161 43.5535 64.6465 43.5396 64.6769 43.5256C64.7073 43.5116 64.7529 43.4976 64.7833 43.4697C64.7985 43.4697 64.8289 43.4557 64.8441 43.4417C64.8745 43.4417 64.9049 43.4137 64.9353 43.3997C64.9505 43.3997 64.9809 43.3718 64.9961 43.3718C65.0265 43.3578 65.0569 43.3438 65.0873 43.3298C65.1025 43.3298 65.1329 43.3019 65.1481 43.3019C65.1633 43.3019 65.1937 43.2739 65.2089 43.2739C65.2241 43.2739 65.2545 43.246 65.2849 43.246C65.3153 43.246 65.3305 43.218 65.3609 43.218C65.3913 43.218 65.4065 43.19 65.4369 43.19C65.4673 43.19 65.4825 43.1621 65.5129 43.1621C65.5433 43.1621 65.5585 43.1341 65.5889 43.1341C65.6193 43.1341 65.6345 43.1062 65.6649 43.1062C65.6801 43.1062 65.7105 43.0782 65.7409 43.0782C65.7561 43.0782 65.7865 43.0502 65.8169 43.0502C65.8321 43.0502 65.8625 43.0362 65.8929 43.0223C65.9233 43.0083 65.9689 42.9943 65.9993 42.9803C66.0145 42.9803 66.0449 42.9524 66.0753 42.9524C66.1057 42.9384 66.1513 42.9104 66.1817 42.8964C66.2121 42.8825 66.2273 42.8685 66.2577 42.8545C66.3641 42.8126 66.4857 42.8545 66.5769 42.7986L66.5313 42.7007Z" fill="#FDDA00"/>
<path d="M54.4323 49.9568C54.3563 49.9568 54.3107 49.9009 54.2499 49.8589C54.2347 49.817 54.1891 49.803 54.1587 49.775C54.0979 49.7191 54.0219 49.6632 53.9459 49.6213C53.9155 49.5933 53.9003 49.5793 53.8699 49.5514C53.8547 49.5234 53.8243 49.5094 53.7939 49.4814C53.7635 49.4535 53.7179 49.4395 53.6723 49.3976C53.4291 49.1739 53.1707 48.9362 52.9275 48.7125C52.8971 48.6845 52.8819 48.6286 52.8363 48.6007C52.8211 48.5727 52.7907 48.5587 52.7603 48.5308C52.7451 48.5028 52.7147 48.4888 52.6843 48.4608C52.6691 48.4329 52.6387 48.4189 52.6083 48.3909C52.5475 48.3071 52.4715 48.2372 52.3955 48.1533C52.3651 48.1253 52.3499 48.0834 52.3043 48.0554C52.2891 48.0274 52.2587 48.0135 52.2283 47.9855C52.1827 47.9296 52.1523 47.8737 52.0915 47.8177C52.0611 47.7898 52.0459 47.7478 52.0155 47.7199C51.9851 47.6639 51.9395 47.608 51.8787 47.5521C51.8483 47.5241 51.8331 47.4822 51.8027 47.4542C51.7571 47.3843 51.7115 47.3144 51.6507 47.2585C51.6051 47.1886 51.5595 47.1187 51.4987 47.0628C51.4531 46.9929 51.4075 46.923 51.3468 46.867C51.3164 46.8251 51.286 46.7692 51.2556 46.7272C51.21 46.6154 51.1492 46.4896 51.058 46.3917C51.0124 46.3498 51.0276 46.2799 50.9516 46.2519C50.9516 46.2239 50.9212 46.182 50.9212 46.154C50.906 46.0981 50.8908 46.0422 50.83 46.0002C50.7692 45.9164 50.754 45.8045 50.6932 45.7206C50.6476 45.6647 50.6628 45.5808 50.602 45.5249C50.5868 45.469 50.5564 45.413 50.526 45.3711C50.526 45.2593 50.4652 45.1474 50.4044 45.0495C50.3892 45.0216 50.374 44.9936 50.374 44.9657C50.374 44.9237 50.374 44.8678 50.3588 44.8259C50.2372 44.6581 50.2676 44.4484 50.1612 44.2806C50.1916 44.1408 50.07 44.029 50.0852 43.8891C49.994 43.6934 50.0548 43.4557 49.9484 43.26C49.9484 42.9664 49.9484 42.6868 49.9484 42.4072C49.9028 42.2115 50.0244 42.0437 50.0244 41.8619C50.1764 41.4565 50.2828 41.0371 50.3588 40.6176C50.4044 40.5198 50.3588 40.4079 50.3892 40.2961C50.4652 39.9885 50.5108 39.6809 50.602 39.3734C50.602 39.3034 50.602 39.2335 50.602 39.1636C50.6476 39.0658 50.678 38.9679 50.678 38.87C50.7844 38.5625 50.83 38.2549 50.9668 37.9473C50.9668 37.8914 50.9668 37.8495 50.982 37.7935C51.1188 37.472 51.2252 37.1504 51.3315 36.8289C51.3467 36.7729 51.4075 36.731 51.4075 36.6471C51.4531 36.4793 51.5899 36.3395 51.6203 36.1718C51.7419 35.8782 51.9243 35.6125 52.0611 35.3329C52.0915 35.277 52.1371 35.235 52.1675 35.1791C52.4867 34.6898 52.7299 34.1725 53.0187 33.6552C53.1403 33.5434 53.1859 33.3896 53.3227 33.2917C53.8547 32.5647 54.4475 31.8657 55.0251 31.1527C55.0707 31.0967 55.1315 31.0268 55.1923 30.9709C56.1803 30.0761 57.1227 29.1394 58.1866 28.3146C59.889 26.9864 61.789 25.9239 63.6129 24.7495C65.8473 23.3095 68.2185 22.0931 70.5136 20.737C71.1672 20.3455 71.8056 19.9541 72.4592 19.5486C72.596 19.4647 72.7328 19.3809 72.824 19.283C73.4624 18.6259 74.2528 18.1366 74.9823 17.5773C75.7575 16.9762 76.5023 16.347 77.1255 15.62C77.5511 15.1447 77.9159 14.6274 78.0983 14.0262C78.3415 13.2293 78.0831 12.5582 77.3231 12.1109C76.7303 11.7613 76.0615 11.5936 75.3775 11.4817C74.3744 11.314 73.3712 11.314 72.368 11.3559C70.2704 11.4258 68.1881 11.7194 66.1361 12.1109C64.0689 12.5023 62.0322 12.9916 59.9954 13.5089C59.5546 13.6208 59.0834 13.6487 58.6274 13.7186C58.1866 13.7886 57.7458 13.8724 57.2898 13.9004C56.5147 13.9563 55.7699 14.1521 55.0099 14.2639C54.6755 14.3058 54.3411 14.3478 53.9763 14.3338C53.9915 14.208 54.0827 14.194 54.1587 14.166C54.5387 13.9843 54.9035 13.7886 55.2987 13.6348C55.5115 13.5509 55.6787 13.3971 55.8763 13.2852C55.9827 13.2852 56.0587 13.2573 56.1499 13.2153C57.1531 12.726 58.217 12.3765 59.281 12.041C60.9682 11.4957 62.6706 11.0204 64.4033 10.6569C65.6345 10.4052 66.8657 10.1675 68.1121 9.98578C68.6136 9.91588 69.1152 9.83199 69.6168 9.74811C69.86 9.70617 70.1184 9.69219 70.3768 9.67821C71.684 9.56636 72.9912 9.5384 74.3136 9.6083C75.6815 9.67821 77.0343 9.84597 78.3415 10.2794C79.2839 10.587 80.1654 11.0204 80.8342 11.7334C81.4726 12.4184 81.7766 13.2153 81.6398 14.1381C81.4726 15.1726 80.9406 16.0255 80.2719 16.8364C79.6335 17.6053 78.8735 18.2904 78.0831 18.9335C76.5327 20.1917 74.8303 21.2543 73.0368 22.205C71.6536 22.946 70.2704 23.7009 68.872 24.4139C67.5801 25.071 66.2881 25.7561 65.0113 26.4411C64.5553 26.6928 64.1145 26.9584 63.6737 27.2381C63.1569 27.5736 62.6098 27.8672 62.1082 28.2027C61.4242 28.6501 60.7402 29.0835 60.0714 29.5449C59.1746 30.188 58.293 30.8591 57.533 31.656C57.153 32.0614 56.7883 32.4669 56.4235 32.8863C56.3171 33.0121 56.1955 33.1379 56.0587 33.2638C55.0859 34.1865 54.2499 35.2211 53.5203 36.3116C52.8971 37.2483 52.3955 38.2409 52.0459 39.2895C51.8027 39.9885 51.6507 40.7015 51.5443 41.4425C51.4683 42.0017 51.4683 42.561 51.4987 43.1062C51.5139 43.5676 51.6203 44.0289 51.7571 44.4903C51.9851 45.2593 52.3195 46.0142 52.6843 46.7412C53.0035 47.3564 53.4291 47.9156 53.9155 48.4329C54.8275 49.3976 55.9371 50.1106 57.1379 50.7397C57.4266 50.8935 57.7002 51.0473 58.0042 51.1452C58.0498 51.1591 58.0954 51.2011 58.0802 51.243C58.0802 51.2989 58.0194 51.3129 57.9738 51.3129C57.8522 51.3129 57.7306 51.3129 57.609 51.3269C57.5482 51.257 57.4418 51.3129 57.381 51.271C57.305 51.1871 57.1834 51.257 57.0922 51.1871C57.0314 51.1172 56.9251 51.1871 56.8643 51.1172C56.7427 51.0473 56.5907 51.0193 56.4539 50.9774C56.4235 50.9774 56.3779 50.9494 56.3475 50.9354C56.0739 50.7537 55.7547 50.6698 55.4659 50.502C55.4355 50.4601 55.3595 50.4741 55.3139 50.4321C55.2379 50.3762 55.1619 50.3203 55.0555 50.2923C55.0251 50.2784 54.9947 50.2644 54.9491 50.2504C54.8883 50.1805 54.7971 50.1385 54.7211 50.0966C54.6603 50.0407 54.5691 50.0127 54.4931 49.9568C54.4627 49.9288 54.4323 49.9009 54.3867 49.8869L54.4323 49.9568Z" fill="#FDDA00"/>
<path d="M107.935 11.5237C107.814 11.7474 107.859 11.999 107.814 12.2367C107.647 13.1175 107.343 13.9563 106.811 14.6973C106.172 15.5781 105.443 16.403 104.424 16.9622C103.983 17.2139 103.603 17.5494 103.193 17.857C101.232 19.3389 99.1651 20.6811 96.9916 21.9114C95.1372 22.9739 93.222 23.9526 91.2765 24.8613C91.0333 24.9732 90.8053 25.085 90.5469 25.1689C89.5893 25.4485 88.7381 25.9239 87.8261 26.3014C85.3942 27.28 83.0078 28.3006 80.5302 29.1674C78.4631 29.8944 76.3655 30.5375 74.2528 31.1107C73.7968 31.2366 73.3408 31.3624 72.8848 31.4742C72.672 31.5302 72.5048 31.628 72.368 31.7678C72.0488 32.0614 71.7296 32.355 71.4104 32.6486C71.3192 32.7325 71.228 32.8304 71.1064 32.8723C71.1064 32.8024 71.1824 32.7605 71.228 32.7185C72.52 31.5302 73.8424 30.3837 75.1647 29.2233C75.1951 29.1954 75.2255 29.1814 75.2559 29.1674C76.3655 28.8459 77.4903 28.5802 78.5847 28.2447C80.5606 27.6295 82.5062 26.9445 84.4366 26.2175C85.911 25.6582 87.3701 25.0571 88.8141 24.414C89.5285 24.1064 90.2429 23.7848 90.9421 23.4493C92.7964 22.5545 94.6508 21.6458 96.4292 20.6112C97.2652 20.1219 98.0859 19.6046 98.9219 19.1013C99.1043 18.9894 99.2867 18.8916 99.4843 18.7937C99.7883 18.6259 100.077 18.4582 100.336 18.2205C101.08 17.5214 101.931 16.9203 102.661 16.2072C103.497 15.3824 104.272 14.5156 104.804 13.481C105.199 12.6981 105.519 11.8732 105.64 11.0064C105.731 10.3213 105.747 9.65027 105.473 8.99317C105.397 8.81142 105.291 8.62967 105.199 8.43394C105.306 8.392 105.397 8.43394 105.473 8.4619C106.218 8.83938 106.795 9.39862 107.327 9.98581C107.555 10.2375 107.647 10.559 107.768 10.8666C107.859 11.0763 107.996 11.286 107.966 11.5237H107.935Z" fill="#ADF2FF"/>
<path d="M114.213 8.34997C114.152 8.4059 114.213 8.44784 114.228 8.48978C114.897 9.38455 114.973 10.3772 114.821 11.4118C114.562 13.0056 113.772 14.3757 112.754 15.634C112.222 16.291 111.644 16.9342 111.006 17.5074C110.23 18.1924 109.394 18.8355 108.437 19.3109C107.935 19.5625 107.434 19.8142 106.932 20.0659C106.78 20.1358 106.628 20.2057 106.431 20.1358C106.583 19.8981 106.735 19.6744 106.871 19.4507C107.023 19.227 107.115 18.9614 107.282 18.7377C107.419 18.9614 107.631 19.0313 107.905 18.8915C108.163 18.7656 108.422 18.6258 108.635 18.4581C109.44 17.8709 110.139 17.1998 110.747 16.4448C111.963 14.907 112.921 13.2572 113.544 11.4397C113.711 10.9784 113.772 10.489 113.863 10.0137C113.97 9.45445 113.818 8.9092 113.848 8.34997C113.848 8.28007 113.848 8.21017 113.848 8.12628C114.015 8.12628 114.091 8.26609 114.213 8.32201V8.34997Z" fill="#ADF2FF"/>
<path d="M118.575 18.9614C118.134 19.213 117.724 19.5206 117.268 19.7443C116.508 20.1358 115.702 20.4573 114.821 20.5412C114.137 20.6111 113.468 20.5412 112.814 20.3734C112.693 20.3455 112.587 20.2896 112.495 20.2057C112.313 20.0519 112.298 19.9261 112.45 19.7443C112.556 19.6185 112.632 19.4787 112.814 19.4228C112.799 19.5905 112.921 19.6744 113.073 19.6744C113.225 19.6744 113.392 19.7024 113.544 19.6744C114.547 19.4507 115.52 19.1571 116.386 18.6258C117.131 18.1645 117.861 17.6752 118.53 17.1299C118.849 16.8783 119.122 16.5707 119.381 16.2631C119.442 16.1932 119.472 16.0813 119.594 16.1233C119.715 16.1513 119.746 16.2631 119.73 16.3749C119.624 16.9761 119.563 17.5913 119.244 18.1365C119.153 18.2903 119.092 18.4581 119.016 18.6258C118.91 18.6818 118.849 18.7936 118.727 18.8216C118.697 18.8356 118.682 18.8635 118.651 18.8775C118.636 18.9055 118.606 18.9194 118.575 18.9474V18.9614Z" fill="#ADF2FF"/>
<path d="M121.418 46.937C121.418 46.7552 121.478 46.5874 121.524 46.4197C121.737 45.6507 121.752 44.8538 121.691 44.0709C121.691 43.9311 121.706 43.7214 121.494 43.6375C121.6 43.3998 121.767 43.2041 121.934 43.0084C122.026 43.0363 121.995 43.0783 121.995 43.1202C121.965 44.1268 121.904 45.1334 121.767 46.1261C121.767 46.182 121.737 46.2379 121.722 46.2799C121.722 46.2659 121.691 46.2519 121.661 46.2519C121.661 46.3078 121.661 46.3498 121.706 46.3917C121.722 46.5175 121.722 46.6434 121.646 46.7552C121.646 46.6853 121.63 46.6014 121.615 46.5036C121.509 46.6434 121.554 46.8251 121.402 46.923L121.418 46.937Z" fill="#9C0F35"/>
<path d="M121.357 34.2564C121.038 33.767 120.612 33.3197 120.475 32.7465C120.445 32.6346 120.354 32.5927 120.278 32.5228C119.761 32.1313 119.305 31.6979 118.955 31.1666C119.001 31.1946 119.062 31.2086 119.107 31.2505C119.578 31.6839 120.05 32.1033 120.521 32.5507C120.658 32.6905 120.749 32.8583 120.779 33.054C120.855 33.2218 120.931 33.3896 121.068 33.5294C121.205 33.7671 121.342 33.9907 121.357 34.2704V34.2564Z" fill="#FDE239"/>
<path d="M115.155 58.1355C115.262 57.8559 115.49 57.6462 115.687 57.4365C116.022 57.073 116.402 56.7514 116.842 56.4998C116.873 56.4718 116.934 56.4718 116.979 56.4578C116.979 56.5137 116.918 56.5557 116.888 56.5976C116.356 57.059 115.839 57.5343 115.338 58.0237C115.292 58.0656 115.246 58.1215 115.17 58.1355H115.155Z" fill="#B0506C"/>
<path d="M117.42 14.4176C117.42 14.2079 117.374 13.9982 117.329 13.8025C117.298 13.6207 117.42 13.467 117.45 13.2992C117.481 13.1594 117.283 13.0196 117.329 12.8378C117.39 12.6281 117.42 12.4044 117.405 12.1807C117.496 12.3066 117.496 12.4603 117.511 12.6001C117.572 13.2153 117.602 13.8165 117.42 14.4176Z" fill="#37BDD7"/>
<path d="M4.72914 41.1768C4.53154 40.9811 4.42514 40.7295 4.31874 40.4918C4.12115 40.0724 3.84755 39.6669 3.71075 39.2335C3.99955 39.5131 4.12115 39.8766 4.28834 40.2262C4.40994 40.4638 4.53154 40.7015 4.65314 40.9392C4.68354 40.9392 4.69874 40.9392 4.72914 40.9252C4.72914 40.7155 4.72914 40.5198 4.72914 40.31C4.72914 40.1982 4.69874 40.0863 4.78994 39.9885C4.78994 40.338 4.78994 40.6875 4.78994 41.051C4.78994 41.1069 4.77474 41.1629 4.72914 41.2048V41.1768Z" fill="#C12A4F"/>
<path d="M118.378 40.6596C118.378 40.5897 118.438 40.5338 118.484 40.4918C118.879 40.1283 119.274 39.7648 119.67 39.4013C119.715 39.3594 119.776 39.3035 119.852 39.3035C119.411 39.8068 118.925 40.2542 118.378 40.6596Z" fill="#FE9634"/>
<path d="M116.462 16.347C116.569 15.9136 116.721 15.4942 117.131 15.2145C116.949 15.62 116.766 16.0114 116.462 16.347Z" fill="#51C5DD"/>
<path d="M120.84 38.2269C120.962 37.9054 121.129 37.5978 121.311 37.3042C121.372 37.2063 121.463 37.1224 121.57 37.0805C121.357 37.4859 121.19 37.9054 120.84 38.2269Z" fill="#FDDE23"/>
<path d="M116.63 10.5729C116.402 10.5729 116.31 10.4052 116.219 10.2514C116.158 10.1395 116.143 10.0277 116.098 9.90186C116.31 10.0976 116.478 10.3353 116.63 10.5729Z" fill="#49C3DB"/>
<path d="M17.4817 82.8256C17.3905 82.8955 17.3601 82.8256 17.3145 82.7836C17.1929 82.6718 17.0561 82.5739 16.9649 82.4341C16.9953 82.4061 17.0257 82.3782 17.0561 82.3502C17.2385 82.49 17.3449 82.6718 17.4817 82.8395V82.8256Z" fill="#52C6DD"/>
<path d="M121.068 33.5154C120.87 33.4035 120.764 33.2498 120.779 33.04C120.946 33.1659 121.038 33.3197 121.068 33.5154Z" fill="#FEE966"/>
<path d="M32.1343 36.9687C32.0127 36.8429 31.9215 36.7031 31.8455 36.5493C31.8455 36.5213 31.8455 36.4934 31.8455 36.4654C31.9823 36.5772 32.0583 36.717 32.1343 36.8569C32.1647 36.8988 32.1647 36.9268 32.1343 36.9547V36.9687Z" fill="#C0C5D1"/>
<path d="M118.727 18.8356C118.788 18.7238 118.864 18.6399 119.016 18.6399C118.955 18.7517 118.879 18.8636 118.818 18.9754C118.803 18.9195 118.803 18.8636 118.742 18.8356H118.727Z" fill="#4BC4DD"/>
<path d="M53.3531 33.3057C53.2923 33.4455 53.2011 33.5713 53.0947 33.6832C53.0643 33.6552 53.0491 33.6272 53.0795 33.5853C53.1099 33.4595 53.2315 33.3756 53.2467 33.2498C53.2771 33.2637 53.3227 33.2917 53.3531 33.3057Z" fill="#FED2A2"/>
<path d="M43.4429 49.076L43.2301 48.9082C43.1997 48.8803 43.1997 48.8523 43.2301 48.8243C43.3365 48.8663 43.4429 48.9082 43.5189 49.0061C43.5189 49.048 43.4733 49.062 43.4277 49.076H43.4429Z" fill="#CDC1CD"/>
<path d="M121.722 46.4057C121.661 46.3777 121.646 46.3218 121.661 46.2659C121.661 46.2379 121.661 46.1959 121.706 46.2099C121.722 46.2099 121.737 46.2659 121.752 46.2938C121.752 46.3358 121.752 46.3777 121.752 46.4057H121.722Z" fill="#8C0029"/>
<path d="M117.131 15.2145C117.131 15.1586 117.131 15.1027 117.207 15.0747C117.207 15.1306 117.207 15.1866 117.131 15.2145Z" fill="#51C5DD"/>
<path d="M118.666 19.241C118.666 19.1851 118.666 19.1292 118.742 19.1012C118.742 19.1571 118.727 19.213 118.666 19.241Z" fill="#4BC4DD"/>
<path d="M118.742 19.1013C118.742 19.0454 118.742 18.9894 118.818 18.9615C118.818 19.0174 118.803 19.0733 118.742 19.1013Z" fill="#4BC4DD"/>
<path d="M114.35 8.43391C114.304 8.43391 114.289 8.40595 114.274 8.37799C114.319 8.37799 114.334 8.40595 114.35 8.43391Z" fill="#ADF2FF"/>
<path d="M114.426 8.48982C114.38 8.48982 114.365 8.47584 114.35 8.4339C114.395 8.4339 114.411 8.44788 114.426 8.48982Z" fill="#ADF2FF"/>
<path d="M116.402 16.4309C116.402 16.3889 116.417 16.361 116.462 16.347C116.462 16.3889 116.447 16.4169 116.402 16.4309Z" fill="#51C5DD"/>
<path d="M64.9809 42.0017L65.5281 42.3093C65.6193 42.3372 65.7105 42.3932 65.7865 42.4491C65.8929 42.533 66.0449 42.5609 66.1513 42.6448C66.2881 42.7147 66.2577 42.7706 66.1513 42.8405C66.1057 42.8825 66.0449 42.8685 65.9993 42.9105C65.9537 42.9524 65.8929 42.9384 65.8473 42.9804C65.8017 43.0223 65.7409 43.0083 65.6953 43.0503C65.6497 43.0922 65.5889 43.0782 65.5433 43.1202C65.4977 43.1621 65.4369 43.1481 65.3913 43.1901C65.3457 43.232 65.2849 43.218 65.2393 43.26C65.1937 43.3019 65.1329 43.2879 65.0873 43.3299C65.0417 43.3718 64.9809 43.3578 64.9353 43.3998C64.8897 43.4417 64.8289 43.4277 64.7833 43.4697C64.7377 43.5116 64.6769 43.4976 64.6313 43.5396C64.5553 43.5815 64.4945 43.6374 64.4033 43.6235C64.0993 43.5675 63.8713 43.4277 63.6889 43.204C63.5521 43.0223 63.3849 42.8545 63.2481 42.6728C62.8073 42.0856 62.6249 41.4285 62.5793 40.7295C62.6249 40.6735 62.6705 40.6875 62.7313 40.7295C62.8073 40.7854 62.8985 40.8133 62.9593 40.8832C63.1417 40.9811 63.3241 41.079 63.5065 41.1908C63.5977 41.2188 63.6889 41.2747 63.7649 41.3306C63.8713 41.4145 64.0385 41.4425 64.1297 41.5543C64.3121 41.6522 64.4945 41.75 64.6769 41.8619C64.7833 41.9038 64.8745 41.9458 64.9353 42.0297L64.9809 42.0017Z" fill="#FC0334"/>
<path d="M62.777 40.7015C62.7314 40.7015 62.6706 40.7015 62.625 40.7015C62.5794 40.2821 62.777 39.9326 62.9898 39.5831C62.9898 39.8487 62.8074 40.0444 62.7466 40.2961C62.701 40.4359 62.6858 40.5617 62.7618 40.7015H62.777Z" fill="#C5D8D5"/>
<path d="M83.2054 47.9435C83.1294 48.0554 83.023 48.0694 82.9014 48.0694C82.9774 47.9715 83.0686 47.9156 83.2054 47.9435Z" fill="#FEA28E"/>
<path d="M64.4489 43.5955C64.5249 43.5536 64.5857 43.4977 64.6769 43.5117C64.6465 43.6095 64.5553 43.6375 64.4793 43.6515C64.4793 43.6375 64.4793 43.6095 64.4641 43.5955H64.4489Z" fill="#FDB360"/>
<path d="M83.3574 47.8736C83.3422 47.9575 83.2662 47.9435 83.2054 47.9435C83.2206 47.8736 83.2966 47.8736 83.3574 47.8736Z" fill="#FEB1A4"/>
<path d="M68.3248 35.1931C68.3248 35.249 68.2792 35.277 68.2184 35.263C68.2488 35.2211 68.264 35.1931 68.3248 35.1931Z" fill="#C7D9CF"/>
<path d="M67.7017 35.7244C67.6713 35.7803 67.6256 35.8082 67.5648 35.8082C67.5952 35.7663 67.6409 35.7244 67.7017 35.7244Z" fill="#E0DAC5"/>
<path d="M67.5345 35.8362C67.5345 35.9061 67.4889 35.934 67.4129 35.934C67.4585 35.9061 67.4889 35.8641 67.5345 35.8362Z" fill="#CDDCD2"/>
<path d="M66.8809 36.3815C66.8809 36.4514 66.8353 36.4793 66.7593 36.4793C66.8049 36.4514 66.8353 36.4094 66.8809 36.3815Z" fill="#D4DACA"/>
<path d="M70.1184 33.7111C70.088 33.7531 70.0576 33.781 70.012 33.781C70.012 33.7251 70.0576 33.6972 70.1184 33.7111Z" fill="#D9D8C5"/>
<path d="M63.6585 38.7861C63.6585 38.8421 63.6433 38.87 63.5826 38.884C63.5826 38.8281 63.6129 38.8001 63.6585 38.7861Z" fill="#CCDFD7"/>
<path d="M63.5825 38.884C63.5825 38.94 63.5521 38.9679 63.5065 38.9819C63.5065 38.926 63.5217 38.884 63.5825 38.884Z" fill="#D7DBCC"/>
<path d="M71.0608 32.9142C71.0304 32.9561 71 32.9841 70.9544 32.9841C70.9544 32.9282 71 32.9002 71.0608 32.9142Z" fill="#DDDAC7"/>
<path d="M70.9544 32.9841C70.9544 33.0261 70.924 33.054 70.8784 33.054C70.8784 33.0121 70.9088 32.9841 70.9544 32.9841Z" fill="#D7DDCE"/>
<path d="M70.8784 33.0541C70.8784 33.096 70.848 33.124 70.8024 33.124C70.8024 33.082 70.8328 33.0541 70.8784 33.0541Z" fill="#CDDACD"/>
<path d="M70.8024 33.1099C70.8024 33.1658 70.7568 33.1798 70.696 33.1798C70.7264 33.1379 70.7568 33.1099 70.8024 33.1099Z" fill="#CCE0DA"/>
<path d="M70.012 33.781C70.012 33.8369 69.9664 33.8649 69.9056 33.8509C69.936 33.809 69.9664 33.781 70.012 33.781Z" fill="#D4DBCD"/>
<path d="M69.3128 34.3822C69.2824 34.4242 69.252 34.4521 69.2064 34.4521C69.2064 34.3962 69.252 34.3682 69.3128 34.3822Z" fill="#DAD9C6"/>
<path d="M69.2064 34.4521C69.2064 34.508 69.1608 34.522 69.1 34.522C69.1304 34.48 69.1608 34.4521 69.2064 34.4521Z" fill="#CCDBCF"/>
<path d="M68.4769 35.0393C68.4769 35.0952 68.4465 35.1232 68.3857 35.1372C68.3857 35.0813 68.4313 35.0673 68.4769 35.0393Z" fill="#D5DCCD"/>
<path d="M68.4009 35.1232C68.4009 35.1651 68.3705 35.1931 68.3249 35.1931C68.3249 35.1511 68.3553 35.1232 68.4009 35.1232Z" fill="#CFDCD2"/>
<path d="M21.3577 19.2271C21.8288 19.2271 22.2848 19.3249 22.7408 19.4088C22.8928 19.4368 23.06 19.3809 23.1816 19.5067C22.7104 19.5346 22.2544 19.3948 21.7984 19.3249C21.6009 19.297 21.3881 19.3529 21.2057 19.2411C21.2513 19.1991 21.3121 19.1991 21.3729 19.2411L21.3577 19.2271Z" fill="#D9274E"/>
<path d="M50.4348 40.6176C50.3892 41.037 50.2676 41.4424 50.1004 41.8339C50.0548 41.792 50.0548 41.736 50.1004 41.6801C50.1916 41.3026 50.2828 40.9112 50.3892 40.5337C50.4348 40.5337 50.4348 40.5756 50.45 40.6176H50.4348Z" fill="#EAC57C"/>
<path d="M52.9427 48.6705C53.2163 48.9082 53.4899 49.1459 53.7483 49.4115C53.7483 49.4115 53.7635 49.4395 53.7483 49.4534C53.7483 49.4534 53.7483 49.4674 53.7331 49.4674C53.3987 49.2437 53.1099 48.9781 52.8667 48.6705C52.8819 48.6565 52.9123 48.6565 52.9275 48.6705H52.9427Z" fill="#E2B36C"/>
<path d="M34.0951 39.8347C33.8671 39.5271 33.5935 39.2475 33.4719 38.884C33.7759 39.1636 33.9583 39.4992 34.1863 39.8207C34.1559 39.8627 34.1255 39.8627 34.0951 39.8207V39.8347Z" fill="#B4B0C0"/>
<path d="M50.6628 39.3594C50.6172 39.6809 50.5716 39.9885 50.4652 40.2961C50.4348 40.324 50.4196 40.324 50.4044 40.2961C50.45 39.9745 50.4804 39.6669 50.602 39.3594C50.6172 39.3314 50.6476 39.3314 50.6628 39.3594Z" fill="#E9C375"/>
<path d="M36.071 42.3373C35.8582 42.0856 35.6606 41.806 35.4934 41.5264C35.463 41.4984 35.463 41.4565 35.4934 41.4285C35.7366 41.6662 35.9038 41.9458 36.071 42.2254C36.1014 42.2674 36.1014 42.2953 36.0558 42.3233L36.071 42.3373Z" fill="#B9BAC8"/>
<path d="M43.2301 48.8243C43.2301 48.8523 43.2301 48.8803 43.2301 48.9082C42.9261 48.7544 42.5917 48.6146 42.3637 48.335C42.6981 48.4329 42.9413 48.6566 43.2301 48.8243Z" fill="#C7CCD7"/>
<path d="M23.1664 19.5067C23.592 19.5067 24.0176 19.5486 24.4128 19.7024C23.9872 19.6744 23.5768 19.6325 23.1664 19.5067Z" fill="#D9274E"/>
<path d="M55.4811 50.558C55.8003 50.6698 56.1195 50.7537 56.3627 50.9914C56.0435 50.8795 55.7243 50.7817 55.4811 50.558Z" fill="#F2D46B"/>
<path d="M50.0244 42.3792C50.0244 42.7008 50.0244 43.0084 50.0244 43.3299C50.0548 43.3579 50.0396 43.3859 50.0092 43.4138C49.9028 43.0783 49.918 42.7288 49.9484 42.3932C49.9636 42.3653 49.994 42.3653 50.0092 42.3932L50.0244 42.3792Z" fill="#ECCB8D"/>
<path d="M32.1343 36.9687C32.1343 36.9407 32.1343 36.8988 32.1343 36.8708C32.2863 37.0525 32.4383 37.2483 32.4991 37.472C32.3167 37.3461 32.2103 37.1504 32.1191 36.9687H32.1343Z" fill="#B5AFBF"/>
<path d="M40.0078 46.7412C39.795 46.6573 39.6582 46.4895 39.5062 46.3357C39.5062 46.3217 39.5062 46.2938 39.4758 46.2798L39.5062 46.2658C39.719 46.4056 39.9014 46.5734 40.099 46.7412L40.0838 46.7691C40.0686 46.7691 40.0382 46.7551 40.0078 46.7551V46.7412Z" fill="#B5AFBF"/>
<path d="M38.9894 45.8744C38.8222 45.7346 38.6246 45.6227 38.5638 45.399C38.7766 45.5109 38.9134 45.7066 39.0654 45.8744C39.035 45.9024 39.0198 45.9024 38.9894 45.8744Z" fill="#BBB5C4"/>
<path d="M21.3577 19.2271C21.2969 19.2271 21.2513 19.2271 21.1905 19.2271C20.9777 19.2131 20.7345 19.269 20.5369 19.1572C20.8105 19.1572 21.0841 19.1012 21.3577 19.2131V19.2271Z" fill="#E22B52"/>
<path d="M38.4726 45.3291C38.3206 45.2173 38.1838 45.0915 38.0926 44.9237C38.123 44.8957 38.1534 44.8957 38.1838 44.9237C38.3054 45.0495 38.4422 45.1753 38.5486 45.3291C38.5182 45.3431 38.503 45.3571 38.4726 45.3291Z" fill="#BBB4C4"/>
<path d="M50.0244 42.3791C50.0092 42.3791 49.9788 42.3791 49.9636 42.3791C49.9636 42.1415 49.994 41.9178 50.1004 41.6941C50.1004 41.75 50.1004 41.792 50.1004 41.8479C50.1308 42.0296 50.0092 42.1974 50.0244 42.3791Z" fill="#E5BA7D"/>
<path d="M37.0286 43.6095C36.8614 43.4697 36.755 43.302 36.6486 43.1202C36.679 43.0923 36.7094 43.0923 36.7398 43.1202C36.8462 43.246 36.9374 43.3858 37.0438 43.5117C37.0742 43.5536 37.0742 43.5816 37.0438 43.6095H37.0286Z" fill="#BABFCD"/>
<path d="M36.5118 42.9384C36.375 42.8266 36.2686 42.6728 36.2078 42.519C36.2382 42.4911 36.2686 42.4911 36.299 42.519C36.375 42.6309 36.451 42.7427 36.5422 42.8546C36.5726 42.8965 36.5726 42.9245 36.527 42.9524L36.5118 42.9384Z" fill="#BCB7C6"/>
<path d="M38.1838 44.9237C38.1534 44.9237 38.123 44.9237 38.0926 44.9237C37.9862 44.8258 37.8646 44.7419 37.819 44.6021C37.7886 44.5742 37.8038 44.5322 37.819 44.5043C37.9558 44.6301 38.0774 44.7559 38.1686 44.9097L38.1838 44.9237Z" fill="#BCAFBE"/>
<path d="M50.0092 43.3998C50.0092 43.3718 50.0092 43.3439 50.0244 43.3159C50.1308 43.4977 50.1156 43.7074 50.1612 43.9171C50.146 43.9451 50.1156 43.9451 50.1004 43.9171C50.0244 43.7493 50.0092 43.5816 50.0092 43.3998Z" fill="#F1D37D"/>
<path d="M50.2372 44.3085C50.3436 44.4763 50.3588 44.672 50.4196 44.8538C50.3892 44.8817 50.374 44.8817 50.3436 44.8538C50.2676 44.714 50.2068 44.5742 50.2068 44.4064C50.1764 44.3645 50.1916 44.3225 50.222 44.2946L50.2372 44.3085Z" fill="#ECC76A"/>
<path d="M40.4333 47.0768C40.2813 47.0209 40.1749 46.923 40.0838 46.8112C40.0838 46.7972 40.0686 46.7692 40.0838 46.7553L40.099 46.7413C40.2509 46.8391 40.4029 46.951 40.5397 47.0768C40.5093 47.1048 40.4789 47.1048 40.4485 47.0768H40.4333Z" fill="#B3AEBF"/>
<path d="M34.9006 40.8414C34.779 40.7575 34.6726 40.6596 34.6119 40.5198C34.5815 40.4918 34.5967 40.4639 34.6119 40.4359C34.7486 40.5617 34.8702 40.6876 34.9766 40.8414L34.9614 40.8693C34.9462 40.8693 34.9158 40.8693 34.9006 40.8414Z" fill="#B7B3C3"/>
<path d="M35.2654 41.2467C35.159 41.1489 35.0374 41.065 34.9918 40.9252C34.9918 40.8972 34.9918 40.8832 34.9918 40.8553H35.007C35.1438 40.9532 35.2654 41.093 35.3566 41.2467C35.3262 41.2887 35.2958 41.2887 35.2654 41.2467Z" fill="#B9B0C0"/>
<path d="M19.8073 19.1012C20.0353 19.1292 20.2633 19.0313 20.4761 19.1711C20.2481 19.1571 20.0201 19.227 19.8073 19.1012Z" fill="#E22B52"/>
<path d="M50.2372 44.3085C50.2372 44.3505 50.2372 44.3784 50.222 44.4204C50.1308 44.2666 50.1004 44.0988 50.0852 43.9171C50.1004 43.9171 50.1308 43.9171 50.146 43.9171C50.1764 44.0429 50.2372 44.1687 50.2372 44.3085Z" fill="#ECC97B"/>
<path d="M41.9077 48.0834C41.7861 48.0554 41.7101 47.9855 41.6189 47.9016C41.6037 47.8877 41.5885 47.8597 41.6037 47.8457C41.6037 47.8317 41.6189 47.8177 41.6341 47.8177C41.7709 47.8877 41.8925 47.9715 41.9989 48.0694C41.9685 48.0974 41.9381 48.1113 41.9077 48.0694V48.0834Z" fill="#B3A8B9"/>
<path d="M33.2439 38.5485C33.0919 38.4786 33.0311 38.3528 33.0311 38.213C33.1527 38.2968 33.2287 38.4087 33.2439 38.5485Z" fill="#ADA8BB"/>
<path d="M33.4567 38.884C33.3047 38.8141 33.2439 38.6883 33.2287 38.5485C33.3503 38.6323 33.4415 38.7442 33.4567 38.884Z" fill="#ACADBE"/>
<path d="M51.1035 46.4056C51.2555 46.4755 51.2859 46.6154 51.3467 46.7412C51.3315 46.7691 51.3011 46.7691 51.2707 46.7412C51.1947 46.6433 51.1035 46.5454 51.1035 46.4056Z" fill="#EAC476"/>
<path d="M50.4499 45.0635C50.5715 45.1474 50.6019 45.2592 50.6019 45.385C50.6171 45.413 50.6171 45.441 50.6019 45.4689C50.5107 45.3431 50.4347 45.2173 50.4499 45.0635Z" fill="#E3B66F"/>
<path d="M37.0286 43.6095C37.0286 43.5816 37.0286 43.5536 37.0286 43.5117C37.1198 43.5816 37.1958 43.6794 37.2414 43.7773C37.2718 43.8192 37.2718 43.8472 37.2414 43.8752C37.1502 43.7913 37.059 43.7214 37.0286 43.5955V43.6095Z" fill="#BEB5C4"/>
<path d="M52.4259 48.1393C52.5323 48.2092 52.6387 48.2791 52.6387 48.4189C52.5019 48.3629 52.4259 48.2511 52.3651 48.1393C52.3803 48.1253 52.4107 48.1113 52.4259 48.1393Z" fill="#E5BA6C"/>
<path d="M37.8342 44.5183C37.8342 44.5462 37.8342 44.5742 37.8342 44.6161C37.743 44.5462 37.6518 44.4623 37.6214 44.3505C37.591 44.3225 37.6062 44.2806 37.6214 44.2526C37.7126 44.3225 37.7886 44.4204 37.8342 44.5183Z" fill="#BCB4C3"/>
<path d="M32.8639 38.0312C32.7575 37.9333 32.6663 37.8214 32.6511 37.6816C32.7879 37.7376 32.8031 37.8494 32.8639 37.9473C32.8943 37.9752 32.8943 38.0032 32.8639 38.0312Z" fill="#A9A7BA"/>
<path d="M37.6214 44.2527C37.6214 44.2806 37.6214 44.3086 37.6214 44.3505C37.515 44.2666 37.439 44.1827 37.3934 44.0569C37.4238 44.029 37.4542 44.029 37.4846 44.0569C37.5302 44.1268 37.591 44.1967 37.6366 44.2527H37.6214Z" fill="#BEC0CD"/>
<path d="M36.2838 42.505C36.2534 42.505 36.223 42.505 36.1926 42.505C36.1318 42.4491 36.0862 42.3932 36.0558 42.3233C36.0558 42.2953 36.0558 42.2534 36.071 42.2254C36.1622 42.3093 36.223 42.4072 36.2686 42.505H36.2838Z" fill="#BFB2C1"/>
<path d="M40.4333 47.0767C40.4637 47.0767 40.4941 47.0767 40.5245 47.0767C40.6157 47.1326 40.7221 47.1606 40.7525 47.2725C40.6005 47.2725 40.5245 47.1606 40.4333 47.0767Z" fill="#B7B9C8"/>
<path d="M50.7388 45.7346C50.8604 45.7905 50.8756 45.8883 50.8908 45.9862C50.9212 46.0142 50.9212 46.0421 50.8908 46.0701C50.8148 45.9722 50.7236 45.8744 50.7388 45.7346Z" fill="#E1B16B"/>
<path d="M35.2654 41.2467C35.2958 41.2467 35.3262 41.2467 35.3566 41.2467C35.4174 41.3026 35.4782 41.3586 35.5086 41.4424C35.5086 41.4704 35.5086 41.4984 35.5086 41.5403C35.4022 41.4564 35.3262 41.3725 35.2806 41.2607L35.2654 41.2467Z" fill="#B6C3D1"/>
<path d="M34.627 40.4358C34.627 40.4638 34.627 40.4917 34.627 40.5197C34.5206 40.4358 34.4446 40.3519 34.399 40.2401C34.4294 40.2121 34.4598 40.2121 34.4902 40.2401C34.5358 40.31 34.5966 40.3659 34.6422 40.4358H34.627Z" fill="#BDC0CE"/>
<path d="M56.4691 51.0333C56.6211 51.0193 56.7731 51.0613 56.8794 51.1731C56.7275 51.1731 56.5907 51.1172 56.4691 51.0333Z" fill="#EAC467"/>
<path d="M37.4694 44.0568C37.439 44.0568 37.4086 44.0568 37.3782 44.0568C37.3174 44.0149 37.2566 43.959 37.2414 43.8751C37.2414 43.8471 37.2414 43.8052 37.2414 43.7772C37.3326 43.8611 37.4086 43.945 37.4542 44.0429L37.4694 44.0568Z" fill="#BEA6B6"/>
<path d="M34.4751 40.2261C34.4447 40.2261 34.4143 40.2261 34.3839 40.2261C34.3231 40.1842 34.2623 40.1283 34.2471 40.0444C34.2167 40.0025 34.2319 39.9745 34.2471 39.9465C34.3383 40.0304 34.3991 40.1143 34.4599 40.2261H34.4751Z" fill="#BFA8B9"/>
<path d="M36.5118 42.9384C36.5118 42.9105 36.5118 42.8685 36.527 42.8406C36.6182 42.9245 36.679 43.0083 36.7398 43.1202C36.7094 43.1202 36.679 43.1202 36.6486 43.1202C36.5878 43.0782 36.5422 43.0223 36.5118 42.9384Z" fill="#BFA7B8"/>
<path d="M41.6341 47.8317C41.6341 47.8597 41.6341 47.8876 41.6341 47.9016C41.5125 47.8457 41.3909 47.8037 41.3453 47.6779C41.4821 47.6779 41.5429 47.7758 41.6341 47.8317Z" fill="#B8B7C6"/>
<path d="M41.3453 47.6779C41.1933 47.6779 41.1021 47.594 41.0565 47.4682C41.1933 47.4822 41.2997 47.5521 41.3453 47.6779Z" fill="#BCB6C5"/>
<path d="M41.0565 47.4682C40.9045 47.4682 40.8133 47.3843 40.7677 47.2585C40.9045 47.2725 41.0109 47.3424 41.0565 47.4682Z" fill="#B9B7C6"/>
<path d="M53.9611 49.6212C54.0675 49.6212 54.1283 49.6771 54.1891 49.747C54.1891 49.747 54.2043 49.775 54.1891 49.789V49.803C54.0979 49.761 54.0067 49.7191 53.9611 49.6212Z" fill="#DEAC6D"/>
<path d="M50.4044 40.2961C50.4196 40.2961 50.45 40.2961 50.4652 40.2961C50.4652 40.4079 50.4348 40.5058 50.4348 40.6176C50.4196 40.5897 50.3892 40.5617 50.374 40.5338C50.374 40.4499 50.3892 40.366 50.4044 40.2821V40.2961Z" fill="#F0D288"/>
<path d="M50.6628 39.3593H50.6324H50.602C50.602 39.2894 50.602 39.2335 50.602 39.1636C50.6324 39.1217 50.6628 39.0657 50.678 39.0238C50.7236 39.0657 50.7236 39.1217 50.678 39.1776C50.678 39.2475 50.678 39.3034 50.6628 39.3733V39.3593Z" fill="#F1CF91"/>
<path d="M52.1372 47.8037C52.2284 47.8456 52.2892 47.9155 52.274 48.0134C52.1676 47.9715 52.122 47.9016 52.0764 47.8037C52.0916 47.7897 52.122 47.7897 52.1372 47.8037Z" fill="#E2B371"/>
<path d="M51.9244 47.5381C52.0004 47.594 52.0612 47.65 52.0612 47.7478C51.9548 47.7199 51.9092 47.622 51.8636 47.5381C51.8788 47.5241 51.9092 47.5102 51.9396 47.5381H51.9244Z" fill="#E3B56F"/>
<path d="M42.3637 48.349C42.2573 48.363 42.1965 48.307 42.1357 48.2371C42.1205 48.2232 42.1053 48.2092 42.1205 48.1812C42.1205 48.1672 42.1357 48.1533 42.1509 48.1533C42.2421 48.1952 42.3485 48.2232 42.3789 48.335L42.3637 48.349Z" fill="#BAA9BA"/>
<path d="M32.8639 38.0312C32.8639 38.0033 32.8639 37.9753 32.8639 37.9473C32.9399 38.0312 33.0159 38.1011 33.0159 38.213C32.9095 38.185 32.8791 38.1151 32.8639 38.0312Z" fill="#AF9AAD"/>
<path d="M51.6964 47.2725C51.8027 47.3004 51.8483 47.3703 51.8483 47.4822C51.7571 47.4402 51.6964 47.3703 51.6964 47.2725Z" fill="#EBC773"/>
<path d="M32.6663 37.6816C32.5599 37.6537 32.5143 37.5838 32.5143 37.4719C32.6207 37.4999 32.6663 37.5698 32.6663 37.6816Z" fill="#AEA8BA"/>
<path d="M54.5387 50.0267C54.6451 50.0267 54.7211 50.0687 54.7667 50.1665C54.6603 50.1665 54.5995 50.1106 54.5387 50.0267Z" fill="#F0D386"/>
<path d="M42.1357 48.1533C42.1357 48.1812 42.1357 48.1952 42.1357 48.2232C42.0445 48.1952 41.9685 48.1533 41.9077 48.0694C41.9381 48.0694 41.9685 48.0694 41.9989 48.0694C42.0445 48.0974 42.0901 48.1253 42.1357 48.1533Z" fill="#B4BECD"/>
<path d="M50.678 45.5249C50.7388 45.5808 50.754 45.6507 50.7388 45.7346C50.6476 45.6926 50.6324 45.6088 50.6172 45.5249C50.6324 45.4969 50.6628 45.4969 50.678 45.5249Z" fill="#E1B16B"/>
<path d="M54.7515 50.1525C54.8731 50.1525 54.9491 50.1945 54.9795 50.3063C54.8883 50.2644 54.7971 50.2364 54.7515 50.1525Z" fill="#EECE80"/>
<path d="M55.0859 50.3622C55.2075 50.3622 55.2987 50.3901 55.3443 50.502C55.2379 50.502 55.1467 50.4461 55.0859 50.3622Z" fill="#E8C06D"/>
<path d="M34.2622 39.9605C34.2622 39.9884 34.2622 40.0304 34.2622 40.0583C34.1862 40.0024 34.1254 39.9185 34.095 39.8347C34.1254 39.8347 34.1558 39.8347 34.1862 39.8347C34.2166 39.8766 34.247 39.9185 34.2774 39.9605H34.2622Z" fill="#C1C4D1"/>
<path d="M57.0923 51.229C57.1987 51.229 57.3051 51.215 57.3962 51.2849C57.3658 51.3269 57.3354 51.3269 57.3051 51.2849C57.2291 51.2849 57.1531 51.2849 57.0923 51.215V51.229Z" fill="#F1D166"/>
<path d="M57.3051 51.299C57.3355 51.299 57.3659 51.299 57.3963 51.299C57.4723 51.299 57.5634 51.299 57.609 51.3689C57.5027 51.3828 57.3963 51.3689 57.3051 51.299Z" fill="#EBC772"/>
<path d="M51.4076 46.8671C51.514 46.895 51.5596 46.9649 51.5596 47.0768C51.4532 47.0348 51.4228 46.9649 51.4076 46.8671Z" fill="#E3B770"/>
<path d="M51.5444 47.0767C51.6508 47.1047 51.6964 47.1746 51.6964 47.2864C51.59 47.2585 51.5596 47.1746 51.5444 47.0767Z" fill="#E6BE79"/>
<path d="M39.4302 46.2798C39.3846 46.2798 39.3694 46.2519 39.3542 46.2099C39.3542 46.2099 39.339 46.182 39.3542 46.168C39.3542 46.168 39.3542 46.154 39.3694 46.154C39.4302 46.182 39.4758 46.2239 39.5062 46.2658H39.4758C39.4758 46.2658 39.4454 46.2658 39.4302 46.2658V46.2798Z" fill="#CBD3DD"/>
<path d="M56.8643 51.1591C56.9555 51.1591 57.0315 51.1452 57.0923 51.229C57.0011 51.229 56.9251 51.229 56.8643 51.1591Z" fill="#EECD73"/>
<path d="M51.2859 46.7413C51.3163 46.7413 51.3315 46.7413 51.3619 46.7413C51.4075 46.7832 51.4379 46.8252 51.4075 46.8811C51.3163 46.8811 51.3163 46.7972 51.2859 46.7413Z" fill="#E3B770"/>
<path d="M50.9972 46.2658C51.0884 46.2658 51.1036 46.3357 51.1036 46.4056C51.0276 46.3916 51.0124 46.3217 50.9972 46.2658Z" fill="#EAC580"/>
<path d="M50.678 45.5249H50.6476H50.6172C50.602 45.5109 50.602 45.4829 50.602 45.469C50.602 45.441 50.602 45.413 50.602 45.3851C50.6476 45.427 50.6628 45.469 50.678 45.5249Z" fill="#F2D47F"/>
<path d="M38.9894 45.8744C39.0198 45.8744 39.035 45.8744 39.0654 45.8744C39.0806 45.9024 39.111 45.9163 39.1262 45.9443C39.111 45.9723 39.0958 45.9723 39.0654 45.9443L38.9894 45.8744Z" fill="#CDD5DF"/>
<path d="M55.3443 50.488C55.4051 50.488 55.4659 50.488 55.4963 50.5579C55.4203 50.5579 55.3747 50.5579 55.3443 50.488Z" fill="#E9C274"/>
<path d="M50.8907 46.0701C50.8907 46.0422 50.8907 46.0142 50.8907 45.9863C50.9515 46.0422 50.9667 46.0981 50.9515 46.168C50.9059 46.154 50.8907 46.1121 50.8755 46.0701H50.8907Z" fill="#EECC81"/>
<path d="M50.3588 44.8678C50.3892 44.8678 50.4044 44.8678 50.4348 44.8678C50.4348 44.9097 50.45 44.9517 50.4652 44.9936C50.45 45.0216 50.4196 45.0076 50.4044 44.9936C50.4044 44.9517 50.374 44.9097 50.374 44.8678H50.3588Z" fill="#F0D383"/>
<path d="M51.9243 47.5381C51.8939 47.5381 51.8787 47.5381 51.8483 47.5381C51.8483 47.5101 51.8483 47.4962 51.8331 47.4682C51.8787 47.4682 51.9091 47.4962 51.9243 47.5241V47.5381Z" fill="#EBC773"/>
<path d="M52.1371 47.8037H52.1067H52.0763C52.0763 47.7758 52.0763 47.7618 52.0611 47.7338C52.1067 47.7338 52.1371 47.7618 52.1371 47.8037Z" fill="#F3D88B"/>
<path d="M50.3892 44.9936C50.4044 44.9936 50.4348 44.9936 50.45 44.9936C50.45 45.0216 50.45 45.0355 50.45 45.0635C50.4044 45.0635 50.3892 45.0355 50.3892 44.9936Z" fill="#E3B66F"/>
<path d="M38.4726 45.3291C38.503 45.3291 38.5182 45.3291 38.5486 45.3291C38.5486 45.3571 38.5486 45.371 38.5638 45.399C38.5182 45.399 38.4878 45.371 38.4726 45.3431V45.3291Z" fill="#D5D4DD"/>
<path d="M52.2739 48.0134C52.3195 48.0134 52.3499 48.0414 52.3499 48.0833C52.2891 48.0833 52.2739 48.0554 52.2739 48.0134Z" fill="#EBCA8D"/>
<path d="M52.4259 48.1393C52.4107 48.1393 52.3803 48.1393 52.3651 48.1393C52.3651 48.1113 52.3651 48.0974 52.3499 48.0694C52.3955 48.0694 52.4259 48.0974 52.4411 48.1253L52.4259 48.1393Z" fill="#F4D884"/>
<path d="M39.0654 45.9304C39.0806 45.9304 39.111 45.9304 39.1262 45.9304C39.1262 45.9583 39.1414 45.9723 39.1566 46.0003C39.111 46.0003 39.0806 45.9723 39.0654 45.9443V45.9304Z" fill="#D1D5DE"/>
<path d="M52.6387 48.4189C52.6843 48.4189 52.7147 48.4468 52.7147 48.4888C52.6691 48.4888 52.6387 48.4608 52.6387 48.4189Z" fill="#E5BA6C"/>
<path d="M39.2326 46.0701C39.187 46.0701 39.1566 46.0422 39.1566 46.0002C39.2174 46.0002 39.2326 46.0142 39.2326 46.0701Z" fill="#D1D5DE"/>
<path d="M52.7907 48.5447C52.8363 48.5447 52.8667 48.5726 52.8667 48.6146C52.8059 48.6146 52.7907 48.5866 52.7907 48.5447Z" fill="#F0D38C"/>
<path d="M52.9427 48.6706H52.9123H52.8819C52.8819 48.6426 52.8819 48.6286 52.8667 48.6006C52.9123 48.6006 52.9427 48.6286 52.9579 48.6566L52.9427 48.6706Z" fill="#F3D883"/>
<path d="M39.2933 46.1261C39.2477 46.1261 39.2173 46.0981 39.2173 46.0562C39.2781 46.0562 39.2933 46.0701 39.2933 46.1261Z" fill="#D1D5DE"/>
<path d="M53.7483 49.4674C53.7483 49.4534 53.7483 49.4255 53.7483 49.4115C53.7939 49.4255 53.8091 49.4534 53.8091 49.4954C53.7787 49.4954 53.7635 49.4954 53.7331 49.4814L53.7483 49.4674Z" fill="#F4D980"/>
<path d="M53.8091 49.4814C53.8547 49.4814 53.8851 49.5093 53.8851 49.5513C53.8395 49.5513 53.8091 49.5233 53.8091 49.4814Z" fill="#EFD08A"/>
<path d="M53.8851 49.5513C53.9307 49.5513 53.9611 49.5793 53.9611 49.6212C53.9155 49.6212 53.8851 49.5933 53.8851 49.5513Z" fill="#E6BD87"/>
<path d="M39.3693 46.1541C39.3693 46.168 39.3693 46.196 39.3693 46.21C39.3237 46.21 39.2934 46.168 39.3085 46.1261C39.3389 46.1261 39.3541 46.1401 39.3845 46.1541H39.3693Z" fill="#D1D5DE"/>
<path d="M54.1739 49.803C54.1739 49.789 54.1739 49.7611 54.1739 49.7471C54.2195 49.7611 54.2499 49.803 54.2499 49.8449C54.2195 49.831 54.2043 49.817 54.1739 49.803Z" fill="#F0D384"/>
<path d="M54.4323 49.9568C54.4931 49.9568 54.5235 49.9708 54.5387 50.0267C54.4779 50.0267 54.4475 49.9987 54.4323 49.9568Z" fill="#ECCB85"/>
<path d="M52.7147 48.4749C52.7603 48.4749 52.7907 48.5028 52.7907 48.5448C52.7451 48.5448 52.7147 48.5168 52.7147 48.4749Z" fill="#ECCA8B"/>
<path d="M34.9614 40.8553C34.9614 40.8833 34.9614 40.8972 34.9614 40.9252C34.931 40.8972 34.9158 40.8693 34.8854 40.8413C34.9006 40.8413 34.931 40.8413 34.9462 40.8413L34.9614 40.8553Z" fill="#CFD8E1"/>
<path d="M39.4301 46.2798C39.4301 46.2798 39.4605 46.2798 39.4757 46.2798C39.4757 46.3078 39.4909 46.3358 39.5061 46.3498C39.4757 46.3218 39.4605 46.3078 39.4301 46.2798Z" fill="#C8D6E0"/>
<path d="M40.0685 46.7553C40.0685 46.7692 40.0685 46.7972 40.0685 46.8112C40.0381 46.7832 40.0077 46.7692 39.9773 46.7413C40.0077 46.7413 40.0229 46.7413 40.0533 46.7413L40.0685 46.7553Z" fill="#CBD4DE"/>
<path d="M66.1361 42.8545C66.2425 42.7846 66.1817 42.7147 66.1361 42.6588C66.2729 42.6868 66.3945 42.7287 66.5465 42.7147C66.4249 42.7986 66.2881 42.8266 66.1361 42.8545Z" fill="#E8EAB5"/>
<path d="M66.1361 42.6448C65.9841 42.6448 65.8625 42.5609 65.7713 42.4351C65.9385 42.4351 66.0601 42.505 66.1361 42.6448Z" fill="#BCC6D5"/>
<path d="M64.1753 41.5404C64.0385 41.4845 63.8865 41.4286 63.8105 41.3027C63.9777 41.3167 64.1297 41.3726 64.1753 41.5404Z" fill="#BFC4D3"/>
<path d="M65.7713 42.4491C65.6497 42.4491 65.5737 42.3932 65.5129 42.3093C65.6345 42.2953 65.7257 42.3373 65.7713 42.4491Z" fill="#C8C0D1"/>
<path d="M63.0049 40.8693C62.9137 40.8413 62.8073 40.8134 62.7769 40.7015C62.8985 40.7015 62.9897 40.7435 63.0049 40.8693Z" fill="#C4C0D0"/>
<path d="M63.8105 41.3027C63.6889 41.3027 63.6129 41.2468 63.5521 41.1629C63.6737 41.1629 63.7649 41.1909 63.8105 41.3027Z" fill="#CBBBCC"/>
<path d="M64.9809 42.0017C64.8745 41.9737 64.7833 41.9318 64.7225 41.8339C64.8593 41.8339 64.9505 41.8619 64.9809 42.0017Z" fill="#CCBFCF"/>
<path d="M118.651 18.8915C118.651 18.8496 118.697 18.8356 118.727 18.8356C118.697 18.8496 118.682 18.8775 118.651 18.8915Z" fill="#4BC4DD"/>
<path d="M118.575 18.9614C118.606 18.9335 118.621 18.9195 118.651 18.8915C118.651 18.9335 118.621 18.9475 118.575 18.9614Z" fill="#4BC4DD"/>
<path d="M53.0643 33.5853C53.0643 33.6133 53.0643 33.6412 53.0795 33.6832C52.8363 34.1446 52.5931 34.6059 52.3347 35.0673C52.3043 35.1232 52.2739 35.1931 52.1827 35.2071C52.2283 34.9554 52.4107 34.7457 52.5171 34.5081C52.6843 34.2005 52.8363 33.8789 53.0491 33.5993L53.0643 33.5853Z" fill="#FDC779"/>
<path d="M51.4076 36.8148C51.3316 37.1644 51.21 37.4859 51.058 37.8075C51.0276 37.8354 51.0124 37.8354 50.9972 37.8075C51.1036 37.43 51.21 37.0665 51.3924 36.717C51.438 36.7449 51.438 36.7729 51.4076 36.8148Z" fill="#FDC37C"/>
<path d="M52.1372 35.3469C52.0156 35.6405 51.8484 35.9201 51.6964 36.1997C51.666 36.2277 51.6508 36.2277 51.6204 36.1997C51.742 35.8642 51.9244 35.5566 52.1372 35.263C52.1524 35.277 52.1676 35.291 52.1676 35.3189C52.1676 35.3329 52.1676 35.3469 52.1524 35.3469H52.1372Z" fill="#FDB27E"/>
<path d="M51.0275 37.9473C50.9363 38.2549 50.8451 38.5764 50.7539 38.884C50.7387 38.912 50.7083 38.912 50.6931 38.884C50.7539 38.5625 50.8299 38.2409 50.9667 37.9473C50.9971 37.9193 51.0123 37.9193 51.0427 37.9473H51.0275Z" fill="#FEC17F"/>
<path d="M51.6204 36.1997C51.6508 36.1997 51.666 36.1997 51.6964 36.1997C51.666 36.3675 51.5596 36.5213 51.4836 36.6751C51.4532 36.703 51.438 36.703 51.4076 36.6751C51.438 36.5073 51.5292 36.3535 51.6204 36.1997Z" fill="#FEC17D"/>
<path d="M50.6932 38.884C50.7084 38.884 50.7388 38.884 50.754 38.884C50.754 38.9819 50.754 39.0798 50.678 39.1636C50.678 39.1077 50.678 39.0658 50.678 39.0099C50.678 38.9679 50.678 38.926 50.6932 38.884Z" fill="#FED48E"/>
<path d="M51.0276 37.9473C50.9972 37.9473 50.982 37.9473 50.9516 37.9473C50.9516 37.9054 50.9668 37.8634 50.982 37.8075C50.9972 37.8075 51.0276 37.8075 51.0428 37.8075C51.0428 37.8494 51.0428 37.8914 51.0276 37.9333V37.9473Z" fill="#FEC68E"/>
<path d="M51.4076 36.675C51.438 36.675 51.4532 36.675 51.4836 36.675C51.4836 36.7309 51.4684 36.7868 51.4228 36.8288C51.4228 36.8008 51.4228 36.7589 51.4076 36.7309C51.4076 36.7169 51.4076 36.7029 51.4076 36.689V36.675Z" fill="#FED17D"/>
<path d="M52.1371 35.3469C52.1371 35.3189 52.1371 35.291 52.1371 35.263C52.1371 35.2211 52.1523 35.1931 52.2131 35.1931C52.2131 35.249 52.2131 35.305 52.1523 35.3469H52.1371Z" fill="#FDC78A"/>
<path d="M65.4065 43.1761C65.4369 43.1062 65.4825 43.1062 65.5585 43.1062C65.5281 43.1761 65.4673 43.1761 65.4065 43.1761Z" fill="#FDBA7C"/>
<path d="M65.2545 43.246C65.2849 43.1761 65.3305 43.1622 65.4065 43.1761C65.3761 43.246 65.3305 43.246 65.2545 43.246Z" fill="#FDB87C"/>
<path d="M65.1177 43.3159C65.1481 43.246 65.1937 43.232 65.2697 43.246C65.2393 43.3159 65.1937 43.3159 65.1177 43.3159Z" fill="#FDB47E"/>
<path d="M65.9841 42.9105C66.0145 42.8406 66.0753 42.8406 66.1361 42.8406C66.1057 42.9105 66.0449 42.9105 65.9841 42.9105Z" fill="#FDB181"/>
<path d="M64.8289 43.4417C64.8593 43.3718 64.9049 43.3718 64.9809 43.3718C64.9505 43.4417 64.8897 43.4417 64.8289 43.4417Z" fill="#FDAE7C"/>
<path d="M64.6769 43.5117C64.7073 43.4418 64.7529 43.4418 64.8289 43.4418C64.7985 43.5117 64.7529 43.5117 64.6769 43.5117Z" fill="#FDAD7C"/>
<path d="M65.6953 43.0503C65.7257 42.9803 65.7865 42.9803 65.8473 42.9803C65.8169 43.0503 65.7561 43.0503 65.6953 43.0503Z" fill="#FDB87D"/>
<path d="M65.5433 43.1062C65.5737 43.0363 65.6193 43.0363 65.6953 43.0363C65.6649 43.1062 65.6041 43.1062 65.5433 43.1062Z" fill="#FEBA7C"/>
<path d="M64.9657 43.3858C64.9961 43.3159 65.0417 43.3159 65.1177 43.3159C65.0873 43.3858 65.0417 43.3858 64.9657 43.3858Z" fill="#FDB07D"/>
<path d="M65.8473 42.9804C65.8777 42.9105 65.9385 42.9105 65.9993 42.9105C65.9689 42.9804 65.9081 42.9804 65.8473 42.9804Z" fill="#FDB680"/>
</g>
<defs>
<filter id="filter0_d_206_198" x="0" y="0" width="138" height="99" filterUnits="userSpaceOnUse" color-interpolation-filters="sRGB">
<feFlood flood-opacity="0" result="BackgroundImageFix"/>
<feColorMatrix in="SourceAlpha" type="matrix" values="0 0 0 0 0 0 0 0 0 0 0 0 0 0 0 0 0 0 127 0" result="hardAlpha"/>
<feOffset dx="4" dy="6"/>
<feGaussianBlur stdDeviation="2"/>
<feComposite in2="hardAlpha" operator="out"/>
<feColorMatrix type="matrix" values="0 0 0 0 0 0 0 0 0 0 0 0 0 0 0 0 0 0 0.25 0"/>
<feBlend mode="normal" in2="BackgroundImageFix" result="effect1_dropShadow_206_198"/>
<feBlend mode="normal" in="SourceGraphic" in2="effect1_dropShadow_206_198" result="shape"/>
</filter>
</defs>
</svg>
