<svg width="378" height="334" viewBox="0 0 378 334" fill="none" xmlns="http://www.w3.org/2000/svg">
<rect width="378" height="334" rx="20" fill="#D5E2E7"/>
<g clip-path="url(#clip0_291_5793)">
<path d="M123.425 190.525C122.978 188.756 123.106 186.919 123.234 185.081C123.936 174.465 126.49 164.462 131.023 155.002C131.215 154.594 131.534 154.186 131.534 153.641C134.343 152.348 137.28 152.485 139.962 153.846C142.261 155.002 144.304 156.704 146.155 158.677C146.347 159.222 146.091 159.63 145.836 160.038C143.474 164.394 141.877 169.089 141.303 174.057C139.962 186.238 142.324 197.467 149.795 207.13C153.051 211.349 157.137 214.548 161.734 217.134C162.628 217.61 163.586 217.95 164.288 218.767C164.799 219.788 164.735 220.808 164.416 221.829C163.905 222.306 163.905 221.625 163.65 221.421C163.586 225.368 163.65 229.247 163.65 233.194C163.65 235.848 163.65 238.434 163.65 241.088C163.65 243.129 163.394 243.334 161.479 242.653C156.371 240.816 151.838 237.753 147.688 234.215C141.686 229.111 136.45 223.258 132.556 216.113C129.299 210.056 126.49 203.795 125.596 196.854C125.277 194.54 125.149 192.227 124.447 190.049C124.383 189.777 124.319 189.437 124.064 189.164C123.681 189.573 123.936 190.253 123.489 190.593L123.425 190.525Z" fill="#AE4A2A"/>
<path d="M123.425 190.525C123.617 189.912 123.297 189.3 123.617 188.687C123.68 188.483 123.744 188.211 124 188.211C124.255 188.211 124.383 188.415 124.447 188.619C124.894 190.457 125.596 192.294 125.724 194.131C125.915 198.419 127.001 202.366 128.469 206.313C132.045 215.84 137.344 224.006 144.559 230.811C148.326 234.35 152.348 237.48 156.69 240.066C158.478 241.087 160.457 241.768 162.309 242.584C163.203 242.993 163.33 242.584 163.33 241.768C163.33 235.439 163.33 229.042 163.33 222.713C163.33 221.897 163.33 221.08 163.777 220.127C164.224 220.808 163.905 221.556 164.288 222.101C164.863 222.645 164.735 223.394 164.735 224.074C164.735 225.095 164.735 226.116 164.735 227.137C164.735 231.832 164.735 236.596 164.735 241.291C164.735 241.836 164.543 242.857 165.246 242.857C165.948 242.857 165.629 241.836 165.693 241.291C166.203 235.099 165.884 228.906 166.012 222.781C166.012 222.305 166.012 221.897 166.012 221.42C166.012 221.012 166.203 220.536 166.65 220.536C167.161 220.536 167.225 221.08 167.161 221.42C167.161 223.326 167.48 225.163 167.48 227C167.48 232.036 167.48 237.072 167.48 242.108C167.48 242.856 167.417 243.605 168.31 243.945C170.226 244.694 170.673 244.422 170.673 242.244C170.673 236.324 170.673 230.403 170.673 224.483C170.673 223.802 170.481 222.917 171.311 222.441C172.205 222.577 172.205 223.394 172.205 224.074C172.205 225.98 172.269 227.817 172.205 229.723C172.333 234.146 172.588 238.569 172.524 243.061C172.524 243.673 172.269 244.694 173.163 244.626C173.929 244.626 173.674 243.673 173.674 243.061C173.674 238.773 173.227 234.554 173.482 230.267C173.418 228.634 173.482 227 173.482 225.435C173.482 224.823 173.418 224.21 174.057 223.802C174.951 223.87 175.015 224.619 175.015 225.231C175.015 227.409 175.334 229.586 175.334 231.764C175.334 235.711 175.717 239.658 175.589 243.605C175.589 244.149 175.589 244.83 176.228 245.034C177.058 245.306 177.888 245.442 178.654 245.17C179.037 245.034 178.973 244.558 178.909 244.218C178.59 238.161 178.845 232.104 178.782 226.116C178.782 225.367 178.526 224.414 179.675 224.21C180.186 224.346 180.314 224.823 180.314 225.231C180.314 227.273 180.697 229.246 180.569 231.288C180.633 235.847 180.569 240.407 180.825 245.034C180.952 240.475 181.144 235.915 181.336 231.288C181.272 230.063 181.336 228.838 181.336 227.613C181.336 227.069 181.336 226.456 181.91 226.184C182.613 226.388 182.549 227 182.613 227.545C183.123 230.879 182.74 234.282 182.868 237.685C182.868 239.93 182.868 242.244 182.868 244.49C182.868 245.306 183.123 245.851 184.017 245.851C185.039 245.851 185.358 245.647 185.23 244.558C184.847 240.066 185.166 235.507 185.039 230.947C185.039 229.45 185.358 227.953 185.358 226.456C185.358 226.048 185.422 225.571 185.933 225.367C186.635 225.503 186.571 226.116 186.635 226.592C186.954 228.361 186.89 230.131 186.827 231.832C186.89 235.847 186.827 239.93 186.827 243.945C186.827 244.49 186.571 245.511 187.273 245.511C188.04 245.511 187.72 244.558 187.72 243.945C187.72 239.93 187.72 235.847 187.72 231.832C187.72 229.927 187.593 227.953 188.295 226.116C189.061 225.912 189.189 226.524 189.38 227.069C189.508 227.681 189.508 228.293 189.508 228.906C189.508 233.942 189.508 239.046 189.508 244.081C189.508 245.034 189.636 245.715 190.785 245.715C191.934 245.715 192.19 245.511 192.19 244.286C192.19 241.427 192.254 238.569 192.19 235.779C192.126 232.785 192.445 229.723 192.509 226.728C192.509 226.116 192.445 225.299 193.339 225.299C193.978 225.708 193.978 226.388 193.978 227C193.978 228.566 193.978 230.131 193.978 231.764C193.978 236.256 194.424 240.747 194.424 245.238C194.808 240.747 194.616 236.255 194.68 231.832C194.808 229.586 194.68 227.341 195.254 225.095C196.34 224.891 196.34 225.844 196.404 226.524C196.531 227.953 196.404 229.382 196.404 230.811C196.404 235.235 196.404 239.726 196.404 244.149C196.404 244.83 196.212 245.647 197.298 245.647C198.255 245.647 198.575 245.102 198.575 244.149C198.575 243.061 198.575 241.904 198.575 240.815C198.383 235.983 198.958 231.22 198.83 226.456C198.83 225.776 198.766 224.755 199.596 224.755C200.426 224.755 200.299 225.776 200.299 226.456C200.299 228.974 200.426 231.492 200.554 234.01C200.745 237.14 200.171 240.203 200.362 243.333C200.362 243.945 200.043 245.102 200.873 245.102C201.959 245.102 201.512 243.945 201.512 243.333C201.512 239.318 201.895 235.371 201.831 231.356C201.703 229.45 201.895 227.477 202.086 225.571C202.086 225.231 202.15 224.891 202.406 224.619C203.172 224.346 203.363 224.891 203.491 225.503C203.619 226.048 203.555 226.66 203.555 227.205C203.682 232.377 203.427 237.48 203.299 242.652C203.299 243.129 203.299 243.537 203.299 244.013C203.299 244.762 203.682 245.034 204.321 244.966C206.109 244.966 206.428 244.626 206.428 242.72C206.428 237.072 206.428 231.424 206.428 225.776C206.428 225.095 206.428 224.415 206.556 223.802C206.875 222.849 207.258 222.781 208.024 223.53C208.407 225.707 208.152 227.953 208.216 230.199C208.216 234.35 208.216 238.433 208.216 242.584C208.216 243.129 207.96 244.081 208.727 244.081C209.557 244.081 209.365 243.197 209.365 242.584C209.365 238.297 209.365 234.01 209.365 229.654C209.365 227.273 209.046 224.891 209.557 222.509C210.195 221.829 210.514 222.305 210.706 222.917C210.897 223.462 210.833 224.074 210.833 224.619C210.833 230.335 210.833 236.119 210.833 241.836C210.833 242.448 210.387 243.537 211.6 243.537C212.685 243.537 213.196 242.993 213.26 241.7C213.643 235.643 213.515 229.518 213.515 223.394C213.515 222.781 213.515 222.101 213.643 221.556C213.834 220.944 214.154 220.468 214.792 221.08C215.367 222.849 214.92 224.687 215.047 226.456C215.047 226.932 215.047 227.409 215.047 227.885C215.111 232.172 215.047 236.528 215.047 240.815C215.047 241.359 214.792 242.244 215.494 242.244C216.324 242.244 216.261 241.359 216.261 240.679C216.133 236.187 216.644 231.696 216.58 227.273C216.58 226.524 216.58 225.708 216.644 224.959C216.963 223.938 216.835 222.917 216.835 221.897C216.835 221.488 216.835 221.08 216.899 220.672C216.963 220.331 217.091 219.923 217.538 219.923C217.921 219.923 218.048 220.331 218.176 220.672C218.24 220.944 218.24 221.216 218.176 221.488C217.857 223.666 218.048 225.844 218.048 228.021C218.048 232.104 217.665 236.187 217.793 240.271C217.793 241.564 217.793 241.564 219.006 241.087C225.646 238.297 231.648 234.486 236.564 228.838C241.353 223.326 244.992 217.133 247.419 210.124C249.462 204.271 250.739 198.147 251.313 191.954C251.505 189.572 251.186 187.19 251.25 184.74C251.25 184.196 251.25 183.583 251.25 183.039C251.377 182.427 251.569 181.814 252.271 181.746C252.973 181.746 253.165 182.222 253.356 182.835C253.356 182.971 253.357 183.175 253.484 183.311C255.463 192.43 253.931 201.209 250.803 209.715C246.525 221.352 239.757 230.947 230.052 238.093C227.115 240.271 224.05 242.04 220.602 243.129C219.708 243.401 219.9 243.945 220.411 244.354C221.432 245.238 222.326 246.123 222.709 247.552C222.837 248.096 223.412 248.233 223.922 248.437C226.604 249.389 229.158 250.614 231.712 251.907C233.053 252.588 234.585 253.268 234.585 255.174C234.585 257.147 233.053 258.032 231.648 258.713C228.328 260.346 224.816 261.162 221.241 261.775C208.982 263.953 196.595 264.361 184.209 264.021C179.101 263.884 174.057 263.612 168.949 263.136C162.692 262.523 156.435 261.843 150.433 259.665C149.156 259.189 148.007 258.576 146.985 257.556C145.772 256.331 145.58 255.106 146.283 253.473C146.857 252.112 147.815 251.023 149.156 250.41C151.135 249.458 152.859 248.096 154.902 247.28C155.477 247.076 155.732 246.599 155.668 245.919C155.668 245.715 155.605 245.442 155.668 245.238C156.435 243.333 155.158 242.72 153.945 241.904C143.793 235.371 135.492 226.864 129.81 215.704C126.809 209.783 124.957 203.387 123.744 196.786C123.361 194.608 123.042 192.43 123.106 190.184L123.425 190.525Z" fill="#420600"/>
<path d="M253.931 183.584C253.804 183.38 253.74 183.244 253.612 183.04C253.421 182.563 253.165 182.087 252.59 182.291C252.08 182.427 251.952 182.971 251.952 183.448C251.952 185.625 251.824 187.803 252.016 189.981C252.271 192.499 251.76 194.812 251.377 197.194C250.292 204.476 248.313 211.485 244.929 217.882C239.502 228.158 232.095 236.188 221.624 240.543C220.347 241.088 219.198 241.904 217.793 242.176C217.921 234.827 218.112 227.545 218.24 220.264C218.112 220.264 217.985 220.264 217.793 220.264C217.282 221.761 217.921 223.394 217.346 224.891C217.027 224.619 216.963 224.211 216.963 223.871C216.963 222.101 216.835 220.264 217.027 218.494C217.346 217.542 218.176 217.27 218.879 216.861C223.795 213.799 228.073 209.852 231.01 204.612C234.138 199.1 236.565 193.247 237.331 186.782C237.714 183.448 237.331 180.113 237.139 176.779C236.948 172.492 236.054 168.34 235.479 164.121C235.288 162.76 235.032 161.399 234.649 160.106C234.458 159.358 234.138 158.677 234.202 157.928C235.926 156.295 237.714 154.866 239.821 153.845C241.225 153.165 242.63 152.757 244.162 152.688C244.929 152.688 245.312 152.961 245.567 153.641C245.823 154.458 246.142 155.342 246.333 156.227C246.525 155.887 246.397 155.411 246.78 155.138C248.249 158.201 248.887 161.535 249.845 164.802C251.377 169.906 252.654 175.077 253.357 180.385C253.484 181.406 253.612 182.495 253.676 183.516L253.931 183.584Z" fill="#AE4A2A"/>
<path d="M152.987 89.8763C156.563 92.8706 158.542 96.7495 159.308 101.513C159.5 102.806 159.5 104.031 159.563 105.324C160.01 105.868 159.947 106.549 159.947 107.229C159.947 108.795 159.947 110.292 159.947 111.857C159.5 113.899 159.436 116.008 159.244 118.05C158.031 128.598 155.605 138.805 151.838 148.673C151.008 150.851 149.986 152.96 148.901 155.002C148.518 155.818 147.943 156.431 147.113 156.771C146.602 156.771 146.283 156.431 145.9 156.159C142.963 153.368 139.579 151.735 135.62 151.531C135.11 151.531 134.599 151.531 134.152 151.667C133.641 151.735 133.13 151.871 132.747 151.395C135.493 145.951 138.302 140.507 140.92 134.995C143.282 130.095 145.708 125.195 147.368 119.955C147.752 118.798 148.007 117.573 148.071 116.348C147.943 115.804 148.326 115.532 148.582 115.192C150.88 111.993 151.774 108.386 150.88 104.439C150.689 103.555 150.369 102.67 149.731 101.853C149.284 102.398 149.475 102.806 149.667 103.282C150.433 105.392 150.242 107.502 149.731 109.611C149.22 111.925 147.879 113.558 145.836 114.647C141.814 116.757 138.11 116.416 134.663 113.354C132.939 111.789 131.47 110.02 130.321 107.91C129.044 103.01 128.916 98.1786 131.151 93.483C133.513 88.5153 138.877 86.0654 143.984 87.2903C151.072 88.9236 154.839 93.8233 156.754 100.901C157.584 103.895 157.52 106.957 157.329 110.02C157.201 111.925 157.01 113.762 157.584 115.464C158.031 112.606 158.861 109.679 158.733 106.617C158.478 100.969 156.754 95.9329 153.498 91.5095C153.179 91.1012 152.732 90.7609 152.987 90.1485V89.8763Z" fill="#AE4A2A"/>
<path d="M250.164 86.2015C252.527 87.6987 254.314 89.7402 255.272 92.5303C257.124 97.9745 257.634 103.351 255.017 108.727C253.42 112.061 250.93 114.375 247.929 116.212C246.972 116.825 245.759 116.689 244.673 116.825C244.673 116.076 245.376 116.008 245.823 115.736C247.93 114.375 249.845 112.878 250.867 110.36C251.122 109.815 251.633 109.135 251.058 108.659C250.483 108.25 250.037 108.999 249.59 109.339C248.44 110.428 247.483 111.789 246.397 112.946C242.63 117.029 237.65 115.464 234.777 111.313C234.458 110.768 234.266 110.156 234.33 109.543C234.585 106.209 235.032 103.01 237.203 100.356C237.969 99.4036 238.863 98.723 239.948 98.3147C242.63 97.294 244.992 99.0633 244.865 102.058C244.737 104.916 243.396 106.889 241.034 108.114C239.885 108.727 239.118 108.114 239.246 106.753C239.31 105.868 239.565 104.984 239.821 104.167C240.012 103.555 240.332 103.146 241.034 103.419C241.225 103.487 241.545 103.623 241.672 103.283C241.736 103.01 241.672 102.738 241.417 102.602C240.715 101.99 240.012 102.126 239.374 102.602C237.841 103.759 237.203 107.298 238.225 108.931C238.671 109.679 239.438 109.884 240.204 109.884C244.226 110.02 248.313 104.848 247.483 100.697C246.972 97.9745 243.843 95.7968 240.906 96.069C238.927 96.2732 237.458 97.2259 236.245 98.7911C233.947 101.853 232.989 105.528 232.734 109.339C232.606 111.04 232.478 112.81 232.478 114.511C232.478 120.5 233.627 126.148 236.118 131.524C237.139 133.702 237.714 136.083 238.608 138.329C239.821 141.46 241.609 144.182 243.013 147.176C243.907 149.081 243.396 150.306 241.481 150.851C238.799 151.599 236.501 153.164 234.777 155.478C234.521 155.818 234.33 156.431 233.755 156.159C233.053 154.73 232.861 153.232 232.989 151.667C233.627 151.259 233.627 150.646 233.436 149.966C232.606 146.836 231.84 143.705 230.882 140.643C228.967 134.11 227.753 127.373 227.115 120.568C226.476 113.286 228.2 106.617 231.457 100.356C233.308 96.8176 236.054 94.2316 239.31 92.3942C241.225 91.3054 243.332 90.8971 245.503 91.0332C246.269 91.0332 246.844 91.3735 247.419 91.8498C250.292 94.1636 251.25 97.2259 250.803 100.901C250.675 102.058 250.42 103.146 250.228 104.303C250.228 104.644 250.1 105.12 250.42 105.256C250.803 105.392 250.994 105.052 251.186 104.712C252.335 102.874 252.718 100.765 252.527 98.587C252.527 97.9745 252.271 97.362 252.335 96.7496C253.293 95.5246 253.229 94.1636 252.91 92.7345C252.399 90.761 251.824 88.8556 250.42 87.2904C250.1 86.9501 249.717 86.6098 249.909 86.0654L250.164 86.2015Z" fill="#AE4A2A"/>
<path d="M174.057 223.871C173.546 225.028 173.929 226.321 173.801 227.477C173.737 228.43 173.801 229.315 173.801 230.268C173.035 230.676 172.397 230.404 171.886 229.723C171.886 227.818 171.886 225.912 171.886 224.075C171.886 223.53 171.886 222.918 171.439 222.51C171.056 222.169 170.992 221.693 170.992 221.149C171.183 213.255 170.737 205.429 170.673 197.535C170.673 194.404 170.609 191.206 170.481 188.076C170.098 175.962 170.034 163.781 169.907 151.668C169.907 144.727 169.651 137.717 169.396 130.776C169.204 125.944 169.268 121.113 169.204 116.213C169.204 115.873 169.204 115.532 169.204 115.124C169.076 113.831 169.076 112.47 167.289 112.47C167.097 112.47 166.906 112.266 166.842 112.062C167.033 111.585 167.48 111.517 167.927 111.517C168.821 111.517 169.013 110.973 169.013 110.156C169.013 108.999 169.013 107.843 169.013 106.754C169.013 106.209 169.013 105.665 169.396 105.257C169.651 102.262 169.587 99.2 169.651 96.2058C169.651 95.6613 169.523 94.9128 170.29 94.8447C171.12 94.8447 171.12 95.5933 171.12 96.2058C171.183 98.3154 171.12 100.357 171.183 102.467C171.183 103.487 171.311 104.508 171.439 105.529C172.077 107.23 171.886 109.068 172.077 110.837C172.077 111.313 172.077 111.79 172.077 112.266C172.46 118.118 172.524 123.971 172.652 129.823C172.844 136.901 172.971 143.978 173.163 150.987C173.29 155.683 173.418 160.378 173.674 165.074C173.929 169.634 173.674 174.261 173.929 178.82C174.248 184.469 173.929 190.117 174.184 195.765C174.44 200.801 174.184 205.837 174.44 210.805C174.631 214.616 174.695 218.427 174.631 222.237C174.631 222.782 174.631 223.326 174.248 223.667L174.057 223.871Z" fill="#F58F00"/>
<path d="M233.947 156.363C235.926 153.165 238.736 151.26 242.247 150.443C243.971 150.035 243.971 150.035 243.141 148.265C242.439 146.7 241.545 145.135 240.715 143.57C238.863 140.167 237.586 136.56 236.309 132.886C235.415 130.368 234.202 127.986 233.564 125.332C232.67 121.725 231.968 118.118 232.159 114.307C232.351 110.224 232.351 106.141 233.947 102.33C234.713 100.425 235.799 98.7236 237.203 97.2945C240.459 94.0961 246.717 96.0015 247.866 100.493C248.568 103.487 246.653 107.57 243.652 109.272C243.205 109.544 242.758 109.748 242.247 109.884C240.843 110.428 239.374 110.769 238.225 109.544C237.139 108.387 237.267 106.754 237.586 105.257C237.906 103.896 238.416 102.603 239.693 101.922C240.715 101.378 241.864 101.786 242.183 102.807C242.311 103.215 242.375 103.623 242.056 103.964C241.736 104.304 241.417 103.964 241.162 103.827C240.459 103.283 240.268 103.487 240.14 104.304C240.012 105.189 239.693 106.005 239.566 106.89C239.438 107.638 239.693 108.183 240.523 107.979C242.758 107.434 244.993 103.827 244.61 101.514C244.354 100.153 243.843 98.8597 242.566 98.3834C241.098 97.907 239.693 98.5195 238.48 99.5402C236.309 101.446 235.415 104.1 234.968 106.958C234.394 110.701 235.16 112.266 238.352 113.967C241.417 115.532 243.78 115.056 246.27 112.538C247.61 111.177 248.568 109.34 250.228 108.319C250.611 108.115 250.867 107.502 251.378 107.979C251.824 108.387 251.824 108.931 251.633 109.476C251.122 110.769 250.484 112.062 249.526 113.083C248.121 114.648 246.461 115.737 244.673 116.757C240.523 118.322 237.203 117.03 234.585 113.287C234.585 115.396 234.968 117.438 235.352 119.411C236.948 128.939 240.396 137.785 244.354 146.36C245.631 149.15 246.589 152.076 247.036 155.138C246.908 155.819 247.164 156.568 246.78 157.384C246.014 156.431 246.014 155.343 245.695 154.322C245.376 153.369 245.184 152.825 243.907 153.029C240.715 153.641 237.842 154.866 235.671 157.452C235.288 157.929 234.841 157.792 234.458 157.929C233.5 157.656 233.5 157.044 234.011 156.295L233.947 156.363Z" fill="#420600"/>
<path d="M193.658 231.9C193.658 230.199 193.658 228.566 193.658 226.865C193.658 226.388 193.658 225.912 193.403 225.435C193.084 225.095 193.084 224.619 193.02 224.21C192.956 223.666 193.02 223.054 193.02 222.509C193.02 186.374 193.02 150.238 193.02 114.103C193.02 113.627 193.02 113.15 193.02 112.606C193.02 110.224 192.765 107.842 193.211 105.528C193.531 103.963 193.339 102.33 193.403 100.765C193.467 97.8385 193.403 94.9123 193.403 91.9861C193.403 91.0334 193.85 90.4209 194.552 90.4209C195.446 90.4209 195.446 91.2375 195.446 91.9861C195.446 96.0011 195.446 100.084 195.446 104.099C195.446 104.576 195.382 105.052 195.574 105.528C195.957 107.91 195.702 110.224 195.765 112.606C195.893 116.349 195.765 120.091 195.765 123.834C196.085 146.7 196.085 169.565 195.957 192.43C195.957 201.549 195.765 210.668 195.765 219.787C195.765 221.216 195.765 222.645 195.765 224.074C195.765 224.551 195.574 224.891 195.382 225.231C195.255 227.409 195.191 229.655 195.063 231.832C194.552 232.241 194.105 232.241 193.595 231.832L193.658 231.9Z" fill="#F59000"/>
<path d="M180.122 231.356C180.059 229.383 179.931 227.341 179.867 225.368C179.867 225.027 179.995 224.687 179.612 224.415C179.356 224.143 179.292 223.803 179.228 223.462C179.228 219.719 178.909 215.977 178.909 212.302C179.037 196.99 178.718 181.747 178.59 166.435C178.462 155.479 178.718 144.454 178.398 133.498C178.207 126.489 178.398 119.479 178.143 112.47C178.271 110.769 178.143 109.135 178.207 107.434C178.207 106.822 178.207 106.209 178.526 105.665C178.526 101.854 178.526 98.043 178.526 94.1641C178.526 93.5516 178.526 92.9391 178.59 92.3267C178.654 91.7822 179.037 91.3739 179.484 91.442C179.931 91.442 180.059 91.9864 180.059 92.4628C180.059 93.2113 180.059 93.9599 180.059 94.7085C180.122 98.3833 180.186 101.99 180.314 105.665C180.697 106.209 180.697 106.822 180.697 107.434C180.697 109.203 180.697 110.973 180.761 112.674C180.569 114.648 181.016 116.553 180.952 118.527C180.761 129.891 181.144 141.188 181.272 152.552C181.272 158.745 181.208 165.006 181.463 171.199C181.846 180.317 181.463 189.436 181.719 198.555C181.974 205.837 181.782 213.118 181.91 220.4C181.91 221.557 182.166 222.714 182.102 223.871C182.102 224.687 182.357 225.64 181.719 226.388C181.208 228.09 181.591 229.791 181.463 231.492C180.952 232.241 180.505 231.833 180.059 231.492L180.122 231.356Z" fill="#F58F00"/>
<path d="M188.359 226.32C188.231 228.158 188.167 230.063 188.04 231.901C187.465 232.377 186.89 232.377 186.316 231.901C186.252 229.995 186.316 228.158 186.06 226.252C186.06 225.98 186.06 225.64 185.805 225.436C185.422 225.095 185.422 224.687 185.422 224.211C185.358 223.666 185.422 223.122 185.422 222.646C185.422 216.657 185.422 210.736 185.422 204.748C185.741 174.397 185.677 144.114 185.677 113.763C185.677 113.355 185.677 112.946 185.677 112.538C185.613 110.632 185.677 108.659 185.677 106.754C185.677 106.277 185.741 105.869 185.997 105.529C186.38 101.377 186.124 97.1582 186.252 93.0071C186.252 92.6668 186.252 92.2585 186.252 91.9182C186.252 91.3738 186.571 90.8975 187.082 90.8975C187.784 90.8975 187.465 91.578 187.465 91.9182C187.529 96.4777 187.465 100.969 187.784 105.529C188.104 105.937 188.104 106.413 188.104 106.89C188.104 108.795 188.167 110.632 188.104 112.538C188.231 114.103 188.104 115.736 188.104 117.37C188.104 122.678 188.104 127.918 188.104 133.226C188.423 157.792 188.231 182.291 188.423 206.858C188.423 212.166 188.551 217.406 188.614 222.714C188.614 223.258 188.614 223.802 188.614 224.279C188.614 224.959 188.742 225.708 188.231 226.32H188.359Z" fill="#F58F00"/>
<path d="M202.661 224.755C202.533 226.933 202.406 229.178 202.342 231.356C200.873 232.173 200.299 231.832 200.235 230.131C200.235 228.022 200.426 225.98 199.979 223.939C200.426 208.082 199.852 192.158 200.235 176.302C200.554 162.76 200.107 149.15 200.49 135.607C200.682 127.986 200.49 120.296 200.746 112.674C200.682 110.769 200.746 108.795 200.746 106.89C200.746 106.413 200.81 106.005 201.065 105.665C201.065 101.65 201.32 97.6346 201.065 93.5515C201.065 93.0751 201.001 92.5988 201.512 92.3266C201.959 92.1224 202.278 92.2585 202.661 92.4627C203.044 92.6668 203.044 92.939 203.044 93.3473C202.661 97.3624 202.917 101.377 202.917 105.461C203.363 106.209 203.172 107.026 203.236 107.774C203.236 109.408 203.236 111.041 203.236 112.674C203.3 113.423 203.236 114.171 203.236 114.92C203.236 138.738 203.427 162.624 203.172 186.442C203.044 198.419 203.108 210.464 202.98 222.441C202.98 222.714 202.98 222.986 202.98 223.258C202.98 223.802 202.98 224.347 202.661 224.755Z" fill="#F58F00"/>
<path d="M217.474 218.222C217.474 220.468 217.474 222.714 217.474 225.027C217.474 225.844 217.474 226.593 217.41 227.409C216.772 228.022 216.133 228.566 215.239 228.226C215.239 225.912 215.239 223.598 215.175 221.353C214.856 220.74 214.729 220.128 214.729 219.447C214.729 218.358 214.729 217.201 214.729 216.113C214.92 203.591 214.856 191.002 215.048 178.48C215.239 169.293 214.92 160.174 215.303 150.987C215.559 143.502 215.239 135.948 215.559 128.462C215.814 123.154 215.559 117.778 215.814 112.47C215.814 110.36 216.133 108.251 216.069 106.141C216.069 105.801 216.133 105.461 216.389 105.12C216.389 103.555 216.389 101.922 216.452 100.357C216.452 99.8123 216.58 99.1999 217.155 99.1318C217.793 99.1318 217.985 99.6762 217.985 100.357C217.985 101.99 217.985 103.555 217.985 105.188C218.496 107.23 218.304 109.272 218.496 111.313C218.496 111.721 218.432 112.198 218.496 112.606C218.496 118.595 218.751 124.515 218.368 130.436C218.368 130.912 218.368 131.32 218.368 131.797C218.559 154.05 217.985 176.37 218.112 198.623C218.112 204.612 217.666 210.6 217.857 216.589C217.857 217.201 217.857 217.746 217.474 218.29V218.222Z" fill="#F58F00"/>
<path d="M210.195 222.577C210.195 224.959 210.131 227.341 210.067 229.723C209.557 230.335 208.918 230.539 208.152 230.267C208.152 228.089 208.088 225.844 208.024 223.666C208.024 223.054 207.577 222.577 207.641 221.965C207.705 213.118 207.513 204.271 207.641 195.425C208.152 170.722 207.641 145.951 207.897 121.248C207.897 118.39 208.088 115.464 208.152 112.606C208.088 110.496 208.152 108.318 208.152 106.209C208.152 105.801 208.216 105.392 208.471 105.052C208.471 101.922 208.727 98.7913 208.471 95.6609C208.407 94.9804 208.343 94.1638 209.365 94.0957C210.323 94.0957 210.45 94.7082 210.387 95.5248C210.131 98.7232 210.387 101.854 210.387 105.052C210.706 105.46 210.77 105.937 210.77 106.413C210.77 108.455 210.77 110.496 210.77 112.538C210.77 113.014 210.77 113.49 210.77 114.035C210.77 123.154 210.897 132.273 210.77 141.392C210.45 167.523 210.578 193.723 210.514 219.855C210.514 220.332 210.514 220.808 210.514 221.352C210.514 221.829 210.323 222.237 210.195 222.577Z" fill="#F58F00"/>
<path d="M164.352 227.069C164.352 225.368 164.352 223.735 164.288 222.034C164.288 220.945 164.48 219.856 164.097 218.835C163.841 217.202 163.65 215.501 163.65 213.799C163.777 200.121 163.458 186.511 163.33 172.832C163.203 163.237 163.394 153.71 163.139 144.114C162.82 134.043 163.075 123.903 162.947 113.831C162.947 113.219 162.947 112.675 162.947 112.13C163.075 110.293 162.947 108.455 163.075 106.618C163.075 106.074 163.075 105.529 163.394 105.121C163.394 103.76 163.394 102.399 163.458 101.038C163.458 100.629 163.458 100.153 163.905 100.085C164.48 100.085 164.416 100.629 164.416 101.038C164.416 102.058 164.416 103.079 164.416 104.1C164.416 104.508 164.416 104.985 164.799 105.257C164.799 107.571 165.182 109.884 164.99 112.198C164.99 116.213 165.246 120.16 165.246 124.175C165.246 133.362 165.501 142.549 165.629 151.736C165.629 157.18 165.565 162.556 165.82 168.001C166.14 174.602 165.82 181.135 166.076 187.736C166.395 194.2 166.076 200.597 166.331 207.062C166.523 211.281 166.459 215.501 166.587 219.72C166.012 221.421 166.331 223.19 166.267 224.96C166.267 225.504 166.267 226.049 166.267 226.525C166.267 227.001 166.587 227.75 165.948 227.954C165.31 228.158 164.735 227.818 164.416 227.069H164.352Z" fill="#F58F00"/>
<path d="M152.987 89.8768C154.136 91.51 155.286 93.2113 156.243 95.0487C159.18 101.037 159.883 107.298 158.223 113.831C158.031 114.648 158.031 115.532 157.648 116.281C157.648 116.417 157.52 116.485 157.456 116.485C155.988 112.674 157.456 108.727 157.01 104.848C156.243 97.8388 153.881 91.6461 147.368 88.5838C142.133 86.1339 137.153 86.3381 133.003 90.9656C130.704 93.5516 129.938 96.75 129.682 100.221C129.491 102.807 130.066 105.256 130.449 107.706C130.704 108.591 131.215 109.544 130.129 110.224C123.042 101.854 125.532 87.2908 138.174 84.1604C141.111 83.4119 143.984 84.0243 146.666 85.2493C149.028 86.3381 151.135 87.7672 152.923 89.7407L152.987 89.8768Z" fill="#F58F00"/>
<path d="M250.164 86.2014C251.569 87.9707 252.846 89.7401 253.293 92.1219C253.421 93.0065 253.612 93.8232 253.74 94.7078C253.868 95.6606 253.548 96.3411 252.782 96.8174C252.144 96.6133 252.144 95.9328 251.952 95.4564C251.314 93.9593 250.675 92.5302 249.462 91.3733C247.291 89.1956 244.673 89.672 242.12 89.8762C239.949 90.0803 238.033 91.1011 236.309 92.4621C232.095 95.8647 228.775 100.016 227.562 105.664C227.051 107.978 226.221 110.224 226.03 112.673C226.03 113.014 226.03 113.558 225.391 113.354C225.008 112.81 225.008 112.061 224.817 111.449C224.433 109.815 224.625 108.182 224.625 106.549C224.625 106.004 224.817 105.528 225.136 105.12C226.477 97.4979 229.988 91.3053 236.054 87.018C240.587 83.8196 245.312 82.9349 250.164 86.3375V86.2014Z" fill="#F58F00"/>
<path d="M130.193 110.292C130.832 109.544 130.321 108.591 130.512 107.774C131.598 108.931 132.236 110.428 133.386 111.585C135.748 113.831 138.238 116.077 141.622 115.464C145.836 114.716 148.518 113.15 149.348 109.476C149.858 107.298 150.114 105.12 149.156 102.943C149.028 102.67 149.028 102.262 148.965 101.922C148.965 101.514 149.092 101.241 149.475 101.105C149.922 101.037 150.05 101.309 150.178 101.65C152.476 106.277 151.646 112.13 148.198 115.872C148.135 115.94 148.071 116.077 147.943 116.145C146.219 116.757 144.687 117.778 142.835 118.118C140.792 118.526 139.004 117.914 137.089 117.37C133.513 116.349 131.853 113.218 130.065 110.224L130.193 110.292Z" fill="#420600"/>
<path d="M225.135 105.052C224.88 107.229 224.816 109.339 225.135 111.517C224.944 111.925 224.689 112.197 224.305 112.265C222.454 112.537 220.538 112.946 218.687 112.674C218.495 112.674 218.304 112.469 218.112 112.401C218.112 110.02 217.857 107.57 217.984 105.188C220.347 105.188 222.709 105.188 225.135 105.188V105.052Z" fill="#420600"/>
<path d="M178.463 105.597C178.463 107.842 178.654 110.088 178.399 112.334C177.952 112.742 177.377 112.674 176.866 112.742C175.526 112.742 174.249 112.742 172.908 112.742C172.461 112.742 172.014 112.742 171.631 112.266C171.503 110.02 171.439 107.774 171.312 105.597C173.674 105.597 176.036 105.597 178.463 105.597Z" fill="#420600"/>
<path d="M132.747 151.26C134.471 151.056 136.195 151.056 137.983 151.328C141.622 151.94 144.368 154.118 147.049 156.568C147.943 156.908 147.624 157.589 147.305 158.133C147.049 158.541 146.666 158.814 146.155 158.745C144.687 157.657 143.282 156.5 141.814 155.343C139.132 153.165 136.131 152.825 132.939 153.437C132.492 153.505 132.045 153.574 131.598 153.574C130.704 152.689 130.832 151.94 131.917 151.464C132.236 151.328 132.556 151.26 132.811 151.124L132.747 151.26Z" fill="#420600"/>
<path d="M210.387 112.537C210.387 110.02 210.387 107.57 210.387 105.052C212.366 105.052 214.345 105.052 216.261 105.052C216.388 107.502 216.261 109.883 216.069 112.333C214.154 112.742 212.302 113.354 210.387 112.537Z" fill="#420600"/>
<path d="M208.535 105.052C208.535 107.57 208.535 110.02 208.535 112.537C206.684 113.218 204.832 113.218 202.98 112.537C202.98 110.156 202.98 107.706 202.98 105.324C204.832 105.256 206.684 105.188 208.535 105.052Z" fill="#420800"/>
<path d="M201.065 105.528C201.065 107.842 201.065 110.156 201.065 112.538C199.213 113.218 197.362 113.218 195.51 112.538C195.51 110.224 195.319 107.91 195.638 105.528C197.489 105.528 199.341 105.528 201.129 105.528H201.065Z" fill="#430700"/>
<path d="M186.06 105.597C186.06 107.91 186.06 110.224 186.06 112.538C184.209 113.218 182.357 113.287 180.569 112.538C180.25 110.224 180.569 107.91 180.378 105.665C182.293 105.665 184.209 105.665 186.124 105.665L186.06 105.597Z" fill="#420600"/>
<path d="M187.848 112.538C187.848 110.224 187.848 107.91 187.848 105.597C189.636 105.597 191.36 105.597 193.148 105.597C193.467 107.91 193.275 110.224 193.275 112.606C191.488 113.287 189.7 113.287 187.912 112.606L187.848 112.538Z" fill="#420600"/>
<path d="M164.607 112.062C164.543 110.157 164.416 108.251 164.352 106.414C164.352 106.005 164.16 105.529 164.735 105.257C166.267 105.257 167.8 105.257 169.332 105.325C169.332 107.162 169.332 109 169.396 110.837C169.396 111.79 169.204 112.198 168.247 112.062C167.864 111.994 167.417 112.062 167.034 112.062C166.204 112.538 165.437 112.606 164.607 112.062Z" fill="#420600"/>
<path d="M163.203 105.052C163.203 107.366 163.394 109.679 163.139 111.993C161.99 112.605 160.904 112.605 159.755 111.993C159.244 110.7 159.691 109.407 159.563 108.046C159.5 107.093 159.563 106.209 159.563 105.256C160.777 105.188 161.99 105.12 163.267 105.052H163.203Z" fill="#430700"/>
<path d="M139.196 189.301C140.026 190.458 139.962 191.683 140.217 192.771C141.686 199.236 144.304 205.157 148.262 210.329C151.008 213.936 154.264 216.998 158.286 218.971C158.542 219.107 158.797 219.244 159.053 219.38C159.5 219.584 159.755 219.992 159.5 220.468C159.308 220.945 158.797 220.809 158.478 220.673C157.648 220.264 156.818 219.856 155.988 219.38C150.689 216.113 146.794 211.418 143.729 205.837C141.367 201.482 139.77 196.786 139.004 191.751C138.877 191.07 138.877 190.322 139.132 189.369L139.196 189.301Z" fill="#F48F00"/>
<path d="M124.894 182.971C125.213 176.166 127.001 169.224 129.491 162.487C130.321 160.174 131.342 157.928 132.683 155.886C133.002 155.478 133.258 155.002 133.641 154.661C134.024 154.321 134.407 153.641 134.982 154.117C135.429 154.525 135.109 155.342 134.854 155.682C130.257 161.807 128.597 169.156 126.873 176.506C126.107 179.772 125.787 183.107 125.915 186.51C125.915 186.85 126.107 187.462 125.724 187.598C125.149 187.734 125.213 187.054 125.085 186.646C124.766 185.557 125.085 184.468 124.894 182.835V182.971Z" fill="#F58F00"/>
<path d="M162.053 222.578C162.245 223.871 161.734 225.232 161.798 226.661C161.798 227.069 161.67 227.477 161.223 227.545C160.649 227.545 160.521 227.137 160.585 226.593C160.712 224.483 160.904 222.373 161.096 220.264C161.096 219.924 161.287 219.651 161.67 219.719C161.926 219.719 162.053 220.06 162.053 220.332C162.053 221.012 162.053 221.761 162.053 222.646V222.578Z" fill="#ECB639"/>
<path d="M188.486 255.65C184.017 255.855 179.548 255.582 175.078 255.31C171.694 255.174 168.246 254.97 164.926 254.085C164.416 253.949 163.969 253.813 163.522 253.473C163.075 253.133 162.564 252.996 162.245 253.541C161.798 254.221 162.245 254.698 162.756 254.902C163.905 255.514 165.182 255.855 166.459 256.127C169.97 256.875 173.546 257.012 177.121 257.148C182.612 257.284 188.103 257.692 193.594 257.488C199.851 257.216 206.045 256.943 212.302 256.263C216.58 255.787 220.794 255.378 225.008 254.357C225.71 254.153 226.476 254.017 226.859 253.405C227.498 252.316 228.072 252.656 228.839 253.133C229.669 253.677 230.499 254.153 231.329 254.698C232.159 255.242 232.159 255.923 231.329 256.603C230.754 257.148 230.052 257.488 229.349 257.76C225.71 259.325 221.815 260.006 218.048 260.686C212.749 261.707 207.386 261.843 202.086 262.115C196.276 262.388 190.402 262.456 184.592 262.251C178.207 261.979 171.822 261.707 165.437 261.095C161.032 260.618 156.69 259.802 152.476 258.645C151.39 258.373 150.433 257.896 149.475 257.284C148.07 256.399 147.815 255.106 148.773 253.677C149.539 252.588 150.497 251.772 151.646 251.227C152.731 250.751 153.881 250.41 154.838 249.798C156.115 248.981 157.328 249.049 158.605 249.39C163.649 250.683 168.757 251.771 173.865 252.656C175.397 252.928 176.93 253.133 178.462 253.133C184.081 253.133 189.636 253.201 195.254 253.065C198.511 252.996 201.703 252.588 204.959 252.18C207.449 251.84 209.939 251.772 212.43 251.567C215.622 251.227 218.878 250.819 222.071 250.547C223.411 250.41 224.625 250.955 225.71 251.703C226.412 252.18 225.902 252.588 225.391 252.792C223.731 253.405 221.943 253.745 220.155 254.017C212.876 255.038 205.534 255.514 198.128 255.718C194.871 255.787 191.615 255.787 188.359 255.855L188.486 255.65Z" fill="#AE4A2A"/>
<path d="M164.352 227.069C164.544 227.205 164.735 227.273 164.863 227.409C165.821 228.022 166.076 227.681 166.076 226.524C166.076 224.279 165.821 222.033 166.268 219.855C166.587 219.583 166.906 219.651 167.225 219.855C168.502 220.536 170.035 220.468 171.12 221.625C171.312 221.897 171.375 222.237 171.375 222.577C170.928 223.054 171.12 223.666 171.12 224.211C171.12 230.676 171.12 237.208 171.12 243.673C171.12 244.762 170.801 244.898 169.907 244.762C167.098 244.354 167.098 244.354 167.098 241.36C167.098 236.324 167.098 231.288 167.098 226.252C167.098 224.415 166.906 222.509 166.778 220.468C166.204 221.012 166.395 221.557 166.395 221.965C166.395 227.069 166.395 232.105 166.331 237.208C166.331 239.046 166.204 240.951 166.14 242.789C166.14 243.197 166.204 243.673 165.629 243.673C165.182 243.673 164.607 243.673 164.416 242.993C164.416 242.857 164.416 242.653 164.416 242.448C164.416 237.345 164.416 232.241 164.416 227.137L164.352 227.069Z" fill="#AE4A2A"/>
<path d="M200.362 223.87C200.362 225.708 200.362 227.545 200.362 229.383C200.362 231.56 199.979 231.356 202.278 231.356C202.533 235.916 201.958 240.407 202.086 244.966C202.086 246.259 201.192 245.783 200.682 245.919C199.851 246.123 200.107 245.375 200.107 244.966C200.171 242.312 200.107 239.658 200.235 237.004C200.362 233.262 200.171 229.451 200.107 225.708C200.107 225.368 200.107 224.959 199.724 224.959C199.405 224.959 199.341 225.368 199.341 225.64C199.341 226.184 199.341 226.797 199.341 227.341C199.277 233.194 198.958 239.046 199.085 244.966C199.085 247.008 197.617 246.055 196.851 246.259C195.829 246.6 196.084 245.511 196.084 244.966C196.084 238.978 196.084 233.057 196.084 227.069C196.084 226.388 196.276 225.64 195.382 225.3C195.382 224.959 195.318 224.687 195.574 224.415C197.106 223.598 198.702 223.462 200.362 223.87Z" fill="#AE4A2A"/>
<path d="M179.484 223.53C179.484 223.802 179.484 224.075 179.548 224.347C178.973 224.415 179.037 224.959 179.037 225.368C179.037 231.22 179.037 237.072 179.037 242.925C179.037 243.061 179.037 243.197 179.037 243.333C179.037 244.15 179.675 245.579 178.973 245.715C177.824 245.987 176.483 245.715 175.334 245.375C175.014 245.239 175.078 244.83 175.078 244.558C175.078 243.605 175.078 242.721 175.078 241.768C175.014 237.617 174.951 233.466 174.759 229.246C174.759 227.749 174.504 226.252 174.567 224.755C174.567 224.279 174.44 224.006 174.057 223.802C174.057 223.394 174.057 222.918 174.057 222.509C174.184 222.373 174.376 222.169 174.567 222.237C176.227 222.509 177.951 222.577 179.484 223.53Z" fill="#AE4A2A"/>
<path d="M207.897 222.237C208.216 222.646 208.088 223.19 208.088 223.666C207.833 223.326 207.513 222.85 207.258 223.666C207.13 224.075 207.13 224.551 207.13 224.959C207.13 231.152 207.13 237.345 207.13 243.537C207.13 244.694 207.003 245.307 205.662 245.375C203.044 245.511 202.98 245.647 203.108 242.857C203.236 237.277 203.363 231.765 203.3 226.184C203.3 225.64 203.619 224.823 202.597 224.823C202.597 224.347 202.597 223.871 202.597 223.394C204.257 222.646 205.981 222.033 207.833 222.305L207.897 222.237Z" fill="#AE4A2A"/>
<path d="M210.195 222.577C210.195 222.169 210.195 221.829 210.195 221.42C211.599 220.332 213.196 219.651 214.92 219.583C215.239 220.127 215.047 220.672 215.111 221.216C214.153 220.876 214.409 221.693 214.409 222.101C214.409 224.619 214.409 227.137 214.409 229.723C214.473 233.874 214.217 237.957 214.217 242.108C214.217 243.265 213.834 243.673 212.813 243.946C210.897 244.354 210.897 244.422 210.897 242.38C210.897 236.188 210.897 229.927 210.897 223.734C210.897 223.326 211.344 222.305 210.195 222.645V222.577Z" fill="#AE4A2A"/>
<path d="M188.359 226.321C188.359 225.708 188.359 225.096 188.359 224.483C188.55 224.211 188.806 224.211 189.125 224.211C190.21 224.415 191.296 224.415 192.317 224.211C192.701 224.211 193.02 224.211 193.275 224.415C193.275 224.755 193.275 225.096 193.275 225.504C192.509 225.572 192.828 226.184 192.764 226.661C192.445 232.717 192.509 238.842 192.573 244.899C192.573 246.056 192.381 246.464 191.232 246.396C188.614 246.26 189.061 246.736 189.061 244.082C189.061 238.774 189.061 233.398 189.061 228.09C189.061 227.409 189.253 226.593 188.359 226.389V226.321Z" fill="#AE4A2A"/>
<path d="M185.805 224.347C185.805 224.687 185.805 225.027 185.805 225.435C185.231 226.933 185.358 228.566 185.358 230.131C185.358 235.031 185.103 239.862 185.486 244.762C185.486 245.511 185.805 246.395 184.528 246.395C182.357 246.395 182.293 246.395 182.293 244.83C182.293 239.93 182.293 235.099 182.293 230.199C182.293 228.906 182.294 227.545 181.783 226.32C181.783 225.572 181.783 224.755 181.783 224.006C183.187 223.598 184.528 223.802 185.805 224.483V224.347Z" fill="#AE4A2A"/>
<path d="M215.175 228.157C215.877 227.885 216.644 227.613 217.346 227.341C217.537 232.241 216.963 237.072 217.091 241.972C217.091 242.584 215.877 243.469 215.367 243.333C214.984 243.197 215.111 242.857 215.111 242.516C215.111 237.753 215.111 232.921 215.111 228.157H215.175Z" fill="#AE4A2A"/>
<path d="M208.152 230.267C208.79 230.063 209.429 229.927 210.067 229.723C210.067 234.35 210.067 238.978 210.131 243.605C210.131 244.898 209.301 244.762 208.599 244.83C207.833 244.83 208.152 244.15 208.152 243.741C208.152 239.25 208.152 234.758 208.152 230.267Z" fill="#AE4928"/>
<path d="M171.886 229.723C172.525 229.927 173.163 230.063 173.802 230.267C173.929 234.895 173.993 239.522 174.121 244.082C174.121 244.762 174.121 245.306 173.227 245.238C172.461 245.238 172.014 245.034 172.078 244.082C172.078 243.333 172.078 242.584 172.078 241.836C172.205 237.821 171.822 233.738 171.886 229.723Z" fill="#AE4A2A"/>
<path d="M186.38 231.901C186.954 231.901 187.529 231.901 188.104 231.901C188.104 236.393 188.104 240.884 188.104 245.376C188.104 245.988 188.04 246.396 187.274 246.396C186.571 246.396 186.316 246.124 186.316 245.376C186.316 240.884 186.316 236.393 186.316 231.901H186.38Z" fill="#AE492A"/>
<path d="M193.658 231.901C194.169 231.901 194.616 231.901 195.127 231.901C195.127 236.393 195.127 240.884 195.127 245.376C195.127 245.784 195.191 246.328 194.552 246.328C193.85 246.328 193.85 245.852 193.914 245.376C194.041 240.884 193.594 236.393 193.658 231.901Z" fill="#AE4928"/>
<path d="M180.122 231.356C180.633 231.288 181.08 231.697 181.527 231.356C181.463 235.916 181.399 240.475 181.336 245.103C181.336 245.511 181.463 246.056 180.761 246.056C180.059 246.056 180.059 245.647 180.059 245.103C180.059 240.543 180.059 235.916 180.059 231.356H180.122Z" fill="#AE4928"/>
<path d="M243.524 184.264C243.205 192.975 241.609 200.665 237.459 207.47C235.415 210.872 232.798 213.594 229.414 215.5C228.839 215.84 228.264 215.976 227.626 215.908C227.243 215.908 226.86 215.908 226.732 215.364C226.604 214.955 226.732 214.547 227.051 214.275C227.945 213.458 228.839 212.71 229.797 211.961C232.925 209.375 234.905 205.905 236.501 202.162C238.608 197.126 239.693 191.886 240.076 186.374C240.396 182.563 240.268 178.82 239.693 175.145C239.566 174.329 239.693 173.58 240.332 173.376C241.098 173.104 241.545 173.784 241.8 174.465C242.566 176.438 243.013 178.548 243.205 180.657C243.333 182.087 243.652 183.584 243.588 184.332L243.524 184.264Z" fill="#F58F00"/>
<path d="M219.389 222.918C219.389 222.033 219.389 221.149 219.389 220.264C219.389 219.924 219.389 219.447 219.836 219.447C220.219 219.447 220.219 219.924 220.219 220.128C220.475 222.033 220.347 223.939 220.347 225.844C220.347 226.184 220.155 226.457 219.836 226.457C219.453 226.457 219.389 226.116 219.389 225.776C219.389 224.823 219.389 223.803 219.389 222.85V222.918Z" fill="#EDB53A"/>
<path d="M154.839 111.789C154.839 119.955 152.348 127.305 148.007 134.042C146.091 137.036 144.75 140.167 144.304 143.774C144.24 144.454 144.112 145.135 143.346 145.067C142.58 144.998 142.707 144.25 142.771 143.706C142.963 140.779 143.92 138.057 145.197 135.539C147.432 130.98 149.986 126.625 151.391 121.657C152.859 116.485 153.115 111.245 152.604 105.869C152.285 102.534 151.582 99.3358 149.986 96.4096C148.581 93.8917 146.474 92.4626 143.857 91.9182C141.558 91.4418 138.621 93.9597 138.046 96.8179C137.408 100.22 137.344 103.691 137.791 107.162C137.983 108.523 138.621 109.748 139.898 110.224C141.494 110.768 144.048 109.884 144.814 108.659C145.772 107.026 146.283 105.256 145.772 103.351C145.58 102.534 145.197 101.718 144.304 101.513C143.601 101.309 143.027 101.718 142.707 102.262C142.197 103.079 141.877 104.031 142.133 105.052C142.133 105.188 142.388 105.392 142.58 105.46C142.899 105.529 142.963 105.256 143.09 104.984C143.346 104.372 143.346 103.283 144.304 103.759C145.134 104.167 144.687 105.12 144.431 105.801C144.112 106.685 143.474 107.162 142.58 107.094C141.686 107.026 140.856 106.685 140.6 105.597C140.217 103.759 140.153 101.854 141.494 100.357C143.346 98.1109 144.048 98.315 145.836 100.425C147.943 103.011 148.134 106.277 147.049 109.476C146.283 111.653 144.431 112.198 142.58 112.674C139.451 113.559 137.919 111.585 136.769 109.612C136.131 108.523 135.684 107.23 135.62 106.005C135.429 102.194 135.109 98.315 136.642 94.7083C137.663 92.1904 139.26 90.2169 142.005 89.6044C142.963 89.4003 143.92 89.6044 144.814 89.8766C148.518 90.9655 150.944 93.7556 152.795 97.2262C153.881 99.3358 154.136 101.582 154.328 103.827C154.583 106.549 154.902 109.203 154.839 111.925V111.789Z" fill="#420600"/>
<path d="M145.07 132.137C144.942 132.477 144.814 132.818 144.623 133.09C142.069 138.194 139.579 143.298 137.025 148.402C136.77 148.946 136.514 150.035 135.876 149.695C135.237 149.354 135.876 148.538 136.131 147.993C138.557 142.821 140.984 137.649 143.41 132.477C143.538 132.137 143.729 131.797 143.984 131.661C144.495 131.321 144.814 131.593 145.006 132.137H145.07Z" fill="#F48F00"/>
<path d="M233.117 151.872C231.137 148.197 230.18 144.182 229.222 140.167C227.434 133.089 226.413 125.808 225.519 118.526C225.327 116.757 225.327 114.988 225.519 113.218C226.476 108.319 227.115 103.283 229.86 98.9955C232.734 94.5041 236.309 90.8293 241.545 89.6044C247.355 88.2434 250.547 90.2169 252.463 96.2054C252.527 96.4096 252.654 96.6137 252.718 96.8179C253.484 99.608 253.165 102.33 251.824 104.848C251.505 105.46 251.186 106.345 250.42 106.005C249.653 105.665 249.973 104.78 250.1 104.099C250.483 101.718 251.058 99.4038 250.483 97.022C249.973 94.7763 248.759 93.1431 246.972 91.8501C246.525 91.5098 246.014 91.4418 245.439 91.3737C241.928 91.3737 238.991 92.7348 236.309 95.1166C231.967 98.9955 229.86 104.167 228.392 109.884C227.306 114.171 227.434 118.39 227.817 122.746C228.264 127.849 229.222 132.817 230.563 137.717C231.712 142.004 232.734 146.359 234.074 150.579C234.394 151.668 234.202 152.076 233.117 151.804V151.872Z" fill="#420600"/>
<path d="M221.688 106.141C222.326 106.141 222.965 106.141 223.539 106.141C223.795 106.141 224.05 106.141 224.114 106.549C224.114 106.889 223.922 107.161 223.603 107.161C222.198 107.161 220.858 107.161 219.453 107.161C219.198 107.161 218.942 106.957 219.006 106.617C219.006 106.345 219.261 106.141 219.517 106.141C220.219 106.141 220.921 106.141 221.624 106.141H221.688Z" fill="#AC4829"/>
<path d="M175.845 107.502C175.014 107.434 174.057 107.298 173.099 107.23C172.844 107.23 172.524 107.162 172.524 106.821C172.524 106.481 172.78 106.413 173.035 106.413C174.312 106.413 175.589 106.413 176.866 106.413C177.185 106.413 177.568 106.413 177.568 106.957C177.568 107.434 177.249 107.502 176.93 107.502C176.611 107.502 176.355 107.502 175.845 107.502Z" fill="#AD4929"/>
<path d="M213.323 106.073C213.834 106.073 214.217 106.073 214.664 106.073C214.983 106.073 215.367 106.073 215.367 106.618C215.367 107.094 215.111 107.298 214.792 107.298C213.707 107.298 212.621 107.23 211.6 107.162C211.472 107.162 211.28 106.958 211.28 106.822C211.28 106.55 211.472 106.277 211.727 106.277C212.302 106.209 212.876 106.141 213.387 106.141L213.323 106.073Z" fill="#AE492A"/>
<path d="M205.023 107.434C204.768 107.434 204.513 107.434 204.193 107.366C203.938 107.298 203.619 107.162 203.619 106.754C203.619 106.414 203.938 106.413 204.193 106.345C205.151 106.073 206.109 106.073 207.003 106.073C207.386 106.073 207.705 106.209 207.705 106.618C207.705 107.026 207.386 107.094 207.13 107.162C206.428 107.23 205.726 107.298 204.959 107.366L205.023 107.434Z" fill="#AB4728"/>
<path d="M198.383 107.57C197.744 107.23 196.531 107.978 196.531 106.957C196.531 106.005 197.681 106.413 198.255 106.413C198.957 106.413 200.171 105.8 200.171 106.957C200.171 107.978 198.894 107.093 198.319 107.502L198.383 107.57Z" fill="#AD4929"/>
<path d="M183.443 106.413C183.953 106.413 184.464 106.413 184.911 106.413C185.294 106.413 185.55 106.617 185.55 107.094C185.55 107.434 185.294 107.706 184.975 107.706C183.89 107.638 182.868 107.502 181.783 107.366C181.591 107.366 181.399 107.162 181.399 106.889C181.399 106.617 181.591 106.481 181.783 106.481C182.293 106.481 182.868 106.481 183.379 106.481L183.443 106.413Z" fill="#AC4829"/>
<path d="M191.487 107.91C190.721 107.502 189.827 107.91 189.061 107.57C188.806 107.434 188.423 107.366 188.487 106.957C188.487 106.685 188.87 106.617 189.125 106.617C189.955 106.617 190.785 106.617 191.615 106.617C191.998 106.617 192.381 106.685 192.381 107.23C192.381 107.774 191.998 107.978 191.487 107.91Z" fill="#AD4929"/>
<path d="M167.161 107.23C166.331 107.23 165.182 107.299 165.182 106.55C165.182 105.665 166.331 106.346 166.97 106.142C166.97 106.142 167.034 106.142 167.098 106.142C167.608 106.278 168.502 105.801 168.502 106.686C168.502 107.639 167.545 106.958 167.161 107.23Z" fill="#AD4929"/>
<path d="M161.223 105.869C161.67 106.005 162.5 105.597 162.437 106.482C162.437 107.094 161.734 106.958 161.351 106.958C160.84 106.958 160.074 107.162 160.138 106.346C160.138 105.665 160.84 106.073 161.223 105.869Z" fill="#AD4929"/>
<path d="M169.588 231.628C169.588 232.445 169.588 233.193 169.588 234.01C169.588 234.486 169.46 234.963 168.949 234.895C168.502 234.895 168.375 234.486 168.375 234.078C168.375 230.675 168.375 227.341 168.375 223.938C168.375 223.53 168.375 223.054 168.949 223.122C169.46 223.122 169.396 223.598 169.396 223.938C169.396 226.524 169.396 229.042 169.396 231.628C169.46 231.628 169.588 231.628 169.651 231.628H169.588Z" fill="#EDB73B"/>
<path d="M197.872 231.288C197.936 232.377 197.745 233.67 198 234.895C198.128 235.371 197.936 235.847 197.362 235.847C196.851 235.847 196.723 235.371 196.723 234.895C196.851 232.581 196.979 230.335 197.106 228.021C197.106 227.681 197.106 227.205 197.489 227.137C197.936 227.137 197.809 227.613 197.872 227.953C197.872 228.974 197.872 229.995 197.872 231.22V231.288Z" fill="#ECB639"/>
<path d="M177.568 227.749C177.249 229.927 177.377 232.513 177.313 235.031C177.313 235.507 177.313 236.187 176.738 236.119C176.1 236.119 176.1 235.439 176.164 234.894C176.483 232.172 176.164 229.382 176.611 226.66C176.675 226.184 176.355 225.367 177.121 225.367C177.824 225.367 177.568 226.184 177.632 226.66C177.632 226.932 177.632 227.205 177.632 227.749H177.568Z" fill="#ECB639"/>
<path d="M205.662 229.791C205.662 230.948 205.662 232.105 205.662 233.262C205.662 233.67 205.534 234.01 205.087 234.01C204.704 234.01 204.704 233.67 204.577 233.33C204.13 231.833 204.577 230.336 204.577 228.838C204.577 228.022 204.577 227.205 204.577 226.457C204.577 226.116 204.64 225.708 205.087 225.708C205.534 225.708 205.598 226.116 205.598 226.525C205.598 227.613 205.598 228.77 205.598 229.859L205.662 229.791Z" fill="#EDB73B"/>
<path d="M213.132 228.022C213.132 229.247 213.132 230.404 213.132 231.629C213.132 232.105 213.132 232.718 212.494 232.65C211.983 232.65 211.919 232.037 211.919 231.629C212.238 229.247 211.983 226.865 212.11 224.483C212.11 224.075 212.11 223.463 212.685 223.531C213.196 223.531 213.132 224.075 213.132 224.483C213.132 225.708 213.132 226.865 213.132 228.09V228.022Z" fill="#EDB73B"/>
<path d="M191.36 232.309C191.36 233.806 191.36 235.235 191.36 236.733C191.36 237.141 191.36 237.617 190.849 237.617C190.338 237.617 190.402 237.073 190.402 236.733C190.274 233.874 190.657 230.948 190.657 228.09C190.657 227.75 190.657 227.409 191.104 227.478C191.424 227.478 191.424 227.886 191.424 228.09C191.424 229.519 191.424 230.948 191.424 232.377L191.36 232.309Z" fill="#ECB639"/>
<path d="M189.189 224.551C190.211 224.551 191.232 224.551 192.19 224.551C191.168 224.755 190.147 224.755 189.189 224.551Z" fill="#F58F00"/>
<path d="M184.272 231.765C184.272 233.058 184.272 234.419 184.272 235.712C184.272 236.12 184.272 236.732 183.634 236.664C183.059 236.664 183.059 236.052 183.123 235.644C183.442 233.058 183.251 230.54 183.315 227.954C183.315 227.545 183.379 227.001 183.825 227.001C184.4 227.001 184.336 227.545 184.336 228.022C184.336 229.247 184.336 230.472 184.336 231.765H184.272Z" fill="#ECB43A"/>
<path d="M104.718 312.201C105.42 308.186 106.825 304.783 108.102 301.313C110.273 295.596 112.316 289.744 115.125 284.3C117.232 280.217 119.148 275.998 120.999 271.778C121.382 270.894 121.765 269.873 122.021 268.92C122.34 267.695 123.042 267.151 124 266.742C125.085 266.266 125.915 265.518 126.49 264.497C126.745 264.02 126.873 263.544 127.001 262.932C127.256 261.026 128.214 259.393 129.363 257.964C129.491 257.828 129.81 257.692 130.002 257.76C131.151 258.236 131.47 257.283 132.045 256.535C133.513 254.561 134.407 252.247 135.173 249.866C135.301 249.525 135.429 249.185 135.62 248.845C148.518 226.592 161.479 204.407 174.376 182.154C192.892 150.238 211.408 118.254 229.924 86.3375C236.118 75.6534 242.311 65.0373 248.824 54.5574C253.229 47.48 258.209 40.879 263.062 34.1419C264.594 31.9642 265.743 29.7185 266.51 27.1325C266.956 25.4993 267.787 24.8188 269.447 24.7507C271.234 24.7507 272.831 24.2063 274.299 23.1175C274.618 22.8453 275.001 22.7092 275.384 22.9814C275.768 23.3216 275.895 23.6619 275.831 24.2744C275.321 26.7923 274.171 28.9699 272.384 30.6712C271.681 31.3517 271.298 32.1003 271.107 33.053C270.851 34.7543 269.957 36.2515 269.127 37.7486C265.871 43.3969 262.743 49.0452 259.486 54.6935C236.629 94.6398 213.579 134.382 190.53 174.192C179.484 193.315 168.438 212.437 157.329 231.56C152.732 239.522 148.135 247.484 143.538 255.446C143.091 256.263 142.708 257.079 141.622 257.079C141.175 257.079 140.792 257.624 140.537 258.1C139.451 260.482 138.302 262.864 138.302 265.654C138.302 267.015 137.664 268.376 136.77 269.465C135.557 270.962 134.854 272.731 134.599 274.637C134.407 275.998 133.96 277.154 133.258 278.243C128.789 285.321 124.447 292.534 119.531 299.407C115.955 304.443 112.252 309.275 108.102 313.766C107.272 314.651 106.569 315.604 105.548 316.284C105.229 316.556 104.909 316.624 104.526 316.42C104.079 316.148 104.399 315.876 104.399 315.536C104.399 314.311 104.526 313.154 104.718 312.269V312.201Z" fill="#420600"/>
<path d="M127.703 264.088C130.193 265.177 132.173 266.946 134.152 268.716C134.791 269.26 135.046 269.805 134.28 270.485C133.705 271.03 133.577 271.846 133.45 272.595C133.322 274.092 132.875 275.385 132.045 276.542C126.49 284.436 121.574 292.806 116.211 300.836C113.401 304.987 110.209 308.866 106.953 312.677C106.761 312.881 106.57 313.085 106.314 313.222C106.123 313.426 105.867 313.562 105.612 313.358C105.356 313.153 105.548 312.881 105.548 312.677C105.74 310.363 106.633 308.186 107.4 306.008C108.677 302.537 109.954 298.999 111.167 295.46C112.316 292.126 113.976 289.131 115.381 286.001C117.743 280.761 120.233 275.657 122.532 270.417C123.106 269.124 123.936 268.171 125.086 267.559C126.554 266.81 127.384 265.585 127.767 263.952L127.703 264.088Z" fill="#F58F00"/>
<path d="M237.905 79.1918C237.586 79.7362 237.331 80.2806 237.075 80.7569C229.605 92.5979 222.773 104.915 215.686 117.028C201.129 141.867 186.635 166.774 172.142 191.613C171.759 192.226 171.439 192.838 171.056 193.519C170.801 193.927 170.609 194.063 170.162 193.791C169.524 193.451 169.971 193.11 170.162 192.838C175.462 183.855 180.761 174.872 185.997 165.89C201.257 139.826 216.58 113.694 231.84 87.6302C233.372 84.9762 234.713 82.2541 236.501 79.7362C236.756 79.3959 237.012 79.1237 237.267 78.8515C237.395 78.7154 237.65 78.6473 237.778 78.8515C237.842 78.9876 237.842 79.1237 237.905 79.2598V79.1918Z" fill="#FF7C00"/>
<path d="M265.488 33.4612C266.446 33.8015 267.212 34.0737 267.85 34.6181C268.425 35.1625 268.744 35.775 268.234 36.5916C265.743 40.6747 263.445 44.962 261.083 49.1812C259.806 51.4269 258.529 53.7407 257.315 55.9864C256.869 56.803 256.485 57.0071 255.592 56.3947C254.634 55.7142 253.485 55.3739 252.399 54.8975C251.25 54.3531 251.058 53.8767 251.761 52.7199C255.783 46.3911 259.933 40.1984 264.339 34.2098C264.658 33.7335 265.041 33.3251 265.488 33.3932V33.4612Z" fill="#AE4A2A"/>
<path d="M165.501 202.979C164.799 204.272 164.097 205.633 163.331 206.858C155.286 220.672 147.241 234.555 139.196 248.369C138.877 248.845 138.557 249.458 137.919 249.05C137.28 248.641 137.6 248.097 137.919 247.552C146.538 232.853 155.094 218.154 163.969 203.659C164.224 203.251 164.48 202.843 164.799 202.434C164.991 202.162 165.182 201.958 165.438 202.162C165.757 202.366 165.501 202.706 165.501 202.979Z" fill="#FF7C00"/>
<path d="M243.269 80.0761C242.055 78.1026 240.523 76.8777 238.48 76.6055C237.841 76.5374 237.905 76.1972 238.161 75.6527C239.246 73.8153 240.268 72.046 241.225 70.1406C241.545 69.5281 241.864 69.46 242.438 69.5281C244.418 69.9364 245.822 71.1613 246.844 72.9987C246.972 73.2709 247.036 73.4751 246.844 73.8153C245.631 75.8569 244.482 77.8985 243.205 80.0761H243.269Z" fill="#0C0000"/>
<path d="M136.642 262.591C136.067 262.319 135.812 261.775 135.429 261.367C134.599 260.482 133.769 259.665 132.62 259.257C131.854 258.985 131.853 258.508 132.364 257.964C133.641 256.603 134.918 255.174 135.301 253.2C135.365 252.86 135.557 252.86 135.812 252.996C135.94 252.996 136.004 253.132 136.131 253.2C137.153 253.813 138.43 254.221 138.941 255.242C139.515 256.399 138.238 257.42 137.919 258.576C137.536 259.869 137.089 261.162 136.642 262.523V262.591Z" fill="#EDB739"/>
<path d="M274.299 24.4785C273.724 26.7923 272.703 28.2214 271.554 29.6504C270.724 30.6712 270.021 31.692 269.638 32.985C269.511 33.4613 269.255 33.5294 268.872 33.3252C268.042 32.8489 267.212 32.3045 266.318 31.9642C265.935 31.8281 265.999 31.6239 266.19 31.3517C267.02 29.8546 267.595 28.2894 268.234 26.6562C268.425 26.2479 268.617 26.0437 269 26.0437C270.787 26.0437 272.575 25.7035 274.363 24.5466L274.299 24.4785Z" fill="#EEB83E"/>
<path d="M170.098 195.765C171.822 196.173 172.972 197.33 173.929 198.895C174.057 199.167 174.249 199.508 174.057 199.712C173.355 200.596 172.652 201.481 172.014 202.502C171.822 202.774 171.631 202.502 171.503 202.298C170.418 200.937 169.077 199.848 167.481 199.371C166.97 199.235 166.842 198.963 167.161 198.487C167.608 197.67 168.055 196.854 168.502 196.037C168.949 195.288 169.524 195.833 170.098 195.833V195.765Z" fill="#0C0000"/>
<path d="M135.173 267.899C134.088 266.947 133.13 265.994 132.172 265.109C131.151 264.157 130.002 263.272 128.661 262.795C128.214 262.591 128.15 262.455 128.342 262.047C128.788 261.162 129.235 260.278 129.682 259.461C131.726 260.89 134.024 261.979 135.62 264.02C136.003 264.565 136.195 264.973 135.812 265.518C135.365 266.198 135.429 267.015 135.173 267.967V267.899Z" fill="#EDB739"/>
<path d="M244.673 67.6912C244.29 67.3509 244.418 67.0107 244.673 66.6704C245.248 65.6496 245.887 64.6289 246.525 63.5401C247.802 61.4305 249.015 59.3208 250.292 57.2112C250.484 56.871 250.739 56.2585 251.25 56.5307C251.888 56.939 251.377 57.4154 251.122 57.7557C249.27 60.7499 247.419 63.8123 245.567 66.8065C245.376 67.1468 245.184 67.4871 244.737 67.6232L244.673 67.6912Z" fill="#FF7B00"/>
<path d="M122.148 275.113C122.851 275.385 122.404 275.929 122.404 276.338C122.404 276.814 122.212 277.427 122.659 277.699C123.234 277.971 123.681 277.427 124 277.018C124.511 276.338 124.894 275.589 125.277 274.841C126.49 272.595 127.703 270.281 128.916 268.035C129.108 267.627 129.299 266.947 129.874 267.219C130.576 267.559 130.129 268.103 129.874 268.58C128.342 271.71 126.873 274.977 125.213 278.039C124.511 279.332 123.808 280.693 123.681 282.258C123.681 282.803 123.681 283.279 124.191 283.483C124.766 283.687 124.702 283.007 124.894 282.735C125.085 282.326 125.277 281.85 125.852 282.19C126.299 282.462 126.235 282.939 125.979 283.415C125.405 284.64 124.383 285.457 123.17 285.797C122.531 286.001 122.212 286.273 121.957 286.818C120.871 289.063 119.531 291.037 117.679 292.602C116.338 293.759 115.572 293.759 114.423 293.01C114.103 291.853 114.167 290.833 115.189 290.084C115.572 290.084 115.764 290.288 115.955 290.56C116.594 291.445 116.785 291.513 117.487 290.629C118.509 289.472 119.403 288.247 119.914 286.75C120.616 284.844 121.318 282.939 122.085 281.033C122.276 280.421 122.276 280.081 121.765 279.672C121.063 279.128 120.808 278.379 120.871 277.495C120.871 277.018 120.999 276.542 121.127 276.065C121.254 275.657 121.446 275.249 122.021 275.317L122.148 275.113Z" fill="#420600"/>
<path d="M115.508 289.948C114.423 290.629 114.87 291.854 114.551 292.807C113.338 295.188 112.635 297.774 111.614 300.224C110.528 302.946 109.507 305.804 108.421 308.526C108.293 308.867 108.166 309.411 107.655 309.207C107.144 309.003 107.272 308.526 107.336 308.118C107.463 307.37 107.91 306.689 108.166 305.941C110.592 299.408 113.274 292.943 115.891 286.478C118.126 280.897 120.935 275.589 123.298 270.077C123.426 269.737 123.617 269.533 123.872 269.329C125.277 268.308 126.682 267.423 127.64 265.858C127.767 265.586 128.023 265.382 128.342 265.654C128.661 265.926 128.725 266.266 128.533 266.743C127.831 268.172 126.618 269.057 125.341 269.737C124.319 270.213 123.936 271.03 123.489 271.983C123.042 273.004 122.596 274.092 122.212 275.113C121.255 275.589 121.702 276.746 121.255 277.495C121.127 279.128 120.361 280.489 119.722 281.986C118.701 284.3 117.679 286.614 116.53 288.86C116.275 289.336 116.147 289.88 115.508 289.948Z" fill="#EDB739"/>
<path d="M252.846 53.1963C253.102 51.7672 253.995 50.8145 254.698 49.7256C257.826 44.894 261.019 40.0623 264.211 35.2987C264.53 34.8223 264.786 33.9376 265.424 34.3459C265.935 34.6862 265.36 35.4348 265.041 35.8431C261.274 41.4914 257.571 47.1397 253.612 52.6519C253.485 52.856 253.357 53.1282 252.846 53.1963Z" fill="#F48E00"/>
<path d="M115.508 289.949C117.615 286.138 119.339 282.123 120.935 278.04C120.999 277.835 121.127 277.699 121.191 277.495C121.191 278.448 121.638 279.06 122.34 279.401C122.851 279.673 122.787 279.809 122.595 280.285C121.765 282.463 121.063 284.641 120.169 286.75C119.531 288.383 118.445 289.744 117.36 291.037C116.977 291.514 116.53 291.446 116.083 291.31C115.572 291.174 115.764 290.765 115.764 290.425C115.764 290.153 115.636 289.949 115.444 289.812L115.508 289.949Z" fill="#F48F00"/>
</g>
<defs>
<clipPath id="clip0_291_5793">
<rect width="182" height="299.193" fill="white" transform="translate(98 17)"/>
</clipPath>
</defs>
</svg>
