<svg width="321" height="704" viewBox="0 0 321 704" fill="none" xmlns="http://www.w3.org/2000/svg">
<g clip-path="url(#clip0_255_4)">
<path d="M207.421 545.723C207.421 546.176 207.261 546.703 207.181 547.156C204.781 559.143 189.736 564.723 176.931 562.385C164.207 560.124 158.525 550.85 161.006 538.862C161.966 534.263 163.007 528.76 166.128 525.593C168.689 526.422 171.009 526.724 172.05 525.819C173.41 524.537 172.05 527.553 167.008 528.609C166.128 528.76 173.49 531.021 176.691 525.819C177.331 524.764 175.331 534.565 176.691 532.605C178.212 530.494 178.212 526.573 179.412 526.573C179.492 526.573 179.572 526.724 179.652 526.724C180.533 527.327 181.493 527.93 182.373 528.609C184.054 529.74 185.734 530.871 187.495 532.077C194.617 536.827 201.58 541.501 207.341 545.799L207.421 545.723Z" stroke="#231F20" stroke-miterlimit="10"/>
<path d="M223.987 559.596C223.827 561.556 220.306 556.656 214.464 551.378C212.463 549.568 210.142 547.684 207.501 545.723C201.819 541.426 194.857 536.827 187.655 532.002C185.894 530.871 184.214 529.664 182.533 528.533C181.573 527.93 180.692 527.327 179.812 526.649C179.812 526.573 179.652 526.498 179.572 526.498C177.731 525.292 175.971 524.085 174.29 522.879C173.41 522.276 172.61 521.673 171.809 521.145C169.409 519.486 167.248 517.903 165.167 516.395C156.844 510.213 151.803 505.614 153.323 503.653C155.004 501.392 162.606 505.764 173.57 512.927C177.171 515.339 181.173 517.978 185.414 520.843C187.415 522.2 189.495 523.557 191.576 524.99C196.218 528.081 201.019 530.946 205.501 533.736C210.142 536.601 214.384 539.39 217.665 542.255C219.745 544.065 221.426 545.95 222.546 547.834C225.507 552.886 224.147 557.862 223.987 559.445V559.596Z" stroke="#231F20" stroke-miterlimit="10"/>
<path d="M179.812 526.724C179.732 526.724 179.652 526.649 179.572 526.573C179.652 526.573 179.732 526.573 179.812 526.724Z" stroke="#231F20" stroke-miterlimit="10"/>
<path d="M220.465 525.593L217.665 542.33C214.383 539.465 210.142 536.676 205.5 533.811C201.019 531.021 196.137 528.156 191.576 525.065C189.495 523.633 187.414 522.276 185.414 520.918C181.172 518.053 177.171 515.339 173.57 513.002L188.455 501.768L220.465 525.593Z" stroke="#231F20" stroke-miterlimit="10"/>
<path d="M171.809 521.22C169.089 521.899 166.528 521.899 164.287 521.597C158.845 520.843 155.724 518.129 157.965 518.129C160.206 518.129 163.167 517.224 165.167 516.546C167.168 518.054 169.409 519.637 171.809 521.295V521.22Z" stroke="#231F20" stroke-miterlimit="10"/>
<path d="M179.572 526.573C178.292 526.573 178.372 530.494 176.851 532.605C175.491 534.565 177.491 524.764 176.851 525.819C173.65 530.946 166.288 528.76 167.168 528.609C172.21 527.629 173.57 524.538 172.21 525.819C171.169 526.724 168.849 526.422 166.288 525.593C161.406 524.01 155.804 520.692 157.245 521.069C160.766 521.974 162.927 521.974 164.287 521.597C166.448 521.899 169.089 521.899 171.81 521.22C172.61 521.823 173.49 522.351 174.29 522.954C175.971 524.085 177.732 525.291 179.572 526.573Z" stroke="#231F20" stroke-miterlimit="10"/>
<path d="M182.533 528.609C181.973 529.136 181.172 529.74 180.292 530.418C179.172 531.248 180.132 527.553 179.732 526.724C180.612 527.327 181.572 527.93 182.453 528.609H182.533Z" stroke="#231F20" stroke-miterlimit="10"/>
<path d="M197.658 543.084L195.578 537.354L199.819 540.295C199.819 540.295 197.178 541.35 197.578 543.084H197.658Z" stroke="#231F20" stroke-miterlimit="10"/>
<path d="M202.139 543.461C202.139 543.461 200.699 543.763 200.219 546.854" stroke="#231F20" stroke-miterlimit="10"/>
<path d="M203.18 550.398C203.18 550.398 199.899 548.437 203.82 545.799" stroke="#231F20" stroke-miterlimit="10"/>
<path d="M198.458 551.529C198.458 551.529 200.939 557.334 207.502 545.723" stroke="#231F20" stroke-miterlimit="10"/>
<path d="M184.454 540.219C184.454 540.219 183.093 533.359 177.972 538.711" stroke="#231F20" stroke-miterlimit="10"/>
<path d="M169.329 536.374C169.329 536.374 166.928 528.835 161.646 535.847" stroke="#231F20" stroke-miterlimit="10"/>
<path d="M166.368 539.39C166.368 539.39 163.887 540.446 163.647 541.954C163.407 543.461 165.487 543.914 166.368 544.215" stroke="#231F20" stroke-miterlimit="10"/>
<path d="M181.492 541.049C181.492 541.049 180.372 542.632 180.132 544.14C179.892 545.648 181.973 546.1 182.853 546.402" stroke="#231F20" stroke-miterlimit="10"/>
<path d="M164.527 543.16C164.704 543.16 164.847 542.653 164.847 542.029C164.847 541.404 164.704 540.898 164.527 540.898C164.35 540.898 164.207 541.404 164.207 542.029C164.207 542.653 164.35 543.16 164.527 543.16Z" stroke="#231F20" stroke-miterlimit="10"/>
<path d="M181.012 545.346C181.189 545.346 181.333 544.84 181.333 544.215C181.333 543.591 181.189 543.084 181.012 543.084C180.836 543.084 180.692 543.591 180.692 544.215C180.692 544.84 180.836 545.346 181.012 545.346Z" stroke="#231F20" stroke-miterlimit="10"/>
<path d="M171.329 544.064C171.329 544.064 172.21 544.743 170.689 545.799C169.168 546.854 165.647 548.89 166.688 550.925C167.728 552.961 173.49 554.017 174.29 551.529C175.09 549.04 174.53 548.136 174.13 548.06" stroke="#231F20" stroke-miterlimit="10"/>
<path d="M175.25 559.37C175.25 559.37 184.614 557.259 186.454 553.564C188.295 549.87 186.854 555.525 186.854 555.525C186.854 555.525 185.814 558.691 181.973 557.108" stroke="#231F20" stroke-miterlimit="10"/>
<path d="M189.335 571.282C188.775 577.012 178.372 581.611 182.693 580.932C182.933 580.932 183.253 580.932 183.493 580.932" stroke="#231F20" stroke-miterlimit="10"/>
<path d="M193.817 562.989C193.817 562.989 201.98 564.873 200.779 569.397C199.579 573.921 190.376 582.968 191.656 585.456C192.296 586.738 191.096 585.456 189.095 583.797" stroke="#231F20" stroke-miterlimit="10"/>
<path d="M187.014 563.667C187.014 563.667 183.253 577.464 180.532 564.27" stroke="#231F20" stroke-miterlimit="10"/>
<path d="M171.729 562.989C171.729 562.989 169.809 562.159 167.328 563.667C164.847 565.175 164.847 570.754 160.205 572.865C155.564 574.976 165.247 576.032 163.566 579.274C161.886 582.516 171.569 573.167 172.209 570.679C172.85 568.191 170.769 581.309 170.769 581.309" stroke="#231F20" stroke-miterlimit="10"/>
<path d="M189.175 583.797C186.775 586.662 177.251 593.071 174.61 591.638C172.05 590.206 157.405 583.722 153.163 581.837C152.443 581.535 152.043 581.309 152.043 581.309C152.043 581.309 150.282 581.686 148.682 581.309C148.602 581.309 148.522 581.309 148.362 581.234C147.001 580.857 145.881 580.329 145.881 580.329C144.12 579.047 148.202 579.877 147.882 579.651L147.321 579.5C145.561 578.897 143.8 577.917 144.04 577.163C144.28 576.484 146.121 576.333 146.841 576.333L146.521 576.182C137.718 573.393 145.721 573.242 145.721 573.242C145.721 573.242 141.319 572.262 142.6 570.83C143 570.377 143.8 570.603 144.28 570.528C144.44 570.528 144.6 570.528 144.761 570.528C145.561 570.453 146.361 570.377 147.001 570.302C147.962 570.302 148.762 570.302 149.482 570.302C150.362 570.377 151.083 570.528 151.723 570.754C152.603 571.056 153.243 571.433 153.804 571.734C154.844 572.262 155.804 573.695 156.684 575.278C157.725 577.087 158.685 578.972 159.405 579.5C160.766 580.48 179.172 585.984 179.172 585.984L183.413 580.932C185.334 581.083 187.495 582.516 189.095 583.797H189.175Z" stroke="#231F20" stroke-miterlimit="10"/>
<path d="M159.246 574.524L156.845 575.278" stroke="#231F20" stroke-miterlimit="10"/>
<path d="M144.12 559.219L147.241 570.302C148.201 570.302 149.002 570.302 149.722 570.302C150.602 570.377 151.323 570.528 151.963 570.754C150.922 568.266 148.842 562.687 150.602 562.235C152.363 561.782 149.242 557.636 144.6 555.826" stroke="#231F20" stroke-miterlimit="10"/>
<path d="M139.399 555.298C139.479 555.072 137.078 554.469 136.358 557.409C135.717 560.199 138.678 559.219 140.439 558.239C140.679 558.088 140.839 558.013 141.079 557.862" stroke="#231F20" stroke-miterlimit="10"/>
<path d="M137.078 559.294C137.078 559.294 137.078 561.782 141.719 560.124C146.361 558.465 142.679 558.616 140.519 558.012" stroke="#231F20" stroke-miterlimit="10"/>
<path d="M138.278 560.727C138.278 560.727 138.358 563.742 143.08 562.084C147.802 560.425 144.28 560.727 142.12 560.048" stroke="#231F20" stroke-miterlimit="10"/>
<path d="M139.318 562.31C139.318 562.31 139.318 565.1 144.04 563.516C148.762 561.933 144.36 562.461 143.56 561.933" stroke="#231F20" stroke-miterlimit="10"/>
<path d="M90.662 460C90.662 460 93.2229 634.236 45.687 679.548" stroke="#231F20" stroke-miterlimit="10"/>
<path d="M142.6 563.893C143.4 566.155 144.2 568.342 144.92 570.453C145.721 570.377 146.521 570.302 147.161 570.226" stroke="#231F20" stroke-miterlimit="10"/>
<path d="M145.321 559.671C144.28 559.37 142.04 558.465 141.159 557.862C139.959 557.032 139.159 556.203 139.559 555.6" stroke="#231F20" stroke-miterlimit="10"/>
<path d="M144.52 555.902C143.24 555.374 141.799 554.695 140.439 555.072C139.959 555.148 139.639 555.374 139.479 555.6C139.479 555.525 139.479 555.449 139.399 555.298C138.278 552.433 136.918 548.815 135.797 546.1L139.959 544.442C141.559 548.136 143.08 551.981 144.6 555.902" stroke="#231F20" stroke-miterlimit="10"/>
<path d="M155.884 591.864L151.882 593.297C151.882 593.297 150.682 588.773 148.361 581.234C148.441 581.234 148.521 581.234 148.681 581.309C150.282 581.686 152.043 581.309 152.043 581.309C152.043 581.309 152.443 581.46 153.163 581.837C154.123 585.154 155.004 588.472 155.884 591.864Z" stroke="#231F20" stroke-miterlimit="10"/>
<path d="M139.959 544.442L135.797 546.1C132.196 537.128 127.875 527.553 122.993 517.903C113.47 499.13 101.626 480.206 87.3013 465.278C93.3833 468.143 109.789 486.388 126.034 516.018C130.756 524.613 135.397 534.113 139.799 544.517L139.959 544.442Z" stroke="#231F20" stroke-miterlimit="10"/>
<path d="M126.114 515.943L122.993 517.903" stroke="#231F20" stroke-miterlimit="10"/>
<path d="M196.778 573.167C196.778 573.167 195.017 590.206 195.657 593.297C196.298 596.388 195.417 595.634 192.937 597.444" stroke="#231F20" stroke-miterlimit="10"/>
<path d="M195.337 595.483C194.697 598.801 197.338 600.309 193.577 602.797" stroke="#231F20" stroke-miterlimit="10"/>
<path d="M172.369 606.265C172.369 606.265 151.322 610.035 149.001 613.654C147.001 616.745 148.761 634.01 148.601 643.133C148.601 644.414 148.521 645.545 148.361 646.45C148.201 647.355 148.041 648.259 147.881 649.013C146.681 654.366 144.52 656.779 142.439 658.438C139.958 660.247 142.439 667.108 149.562 662.358C156.684 657.608 154.683 653.236 159.325 653.839C163.966 654.442 162.286 648.787 162.286 648.787L160.205 642.454C160.205 642.454 161.246 636.121 161.486 630.014" stroke="#231F20" stroke-miterlimit="10"/>
<path d="M175.251 619.459C186.695 619.082 199.419 617.574 196.138 605.209C195.898 604.38 169.809 601.213 167.648 598.952C167.488 598.801 167.488 598.65 167.568 598.499C169.249 595.634 169.649 591.94 169.649 589.15" stroke="#231F20" stroke-miterlimit="10"/>
<path d="M160.366 644.565C160.045 645.621 155.884 645.394 148.602 643.133" stroke="#231F20" stroke-miterlimit="10"/>
<path d="M167.568 598.952C151.883 601.59 140.759 607.848 137.718 609.808C134.597 611.844 138.198 634.764 138.358 641.399C138.358 641.399 138.358 641.474 138.358 641.549C138.518 648.033 136.038 649.918 133.477 651.351C122.753 657.533 134.357 657.081 134.357 657.081C134.357 657.081 144.04 654.216 147.962 649.089" stroke="#231F20" stroke-miterlimit="10"/>
<path d="M138.358 641.399C141.959 642.002 147.241 642.002 148.121 642.002" stroke="#231F20" stroke-miterlimit="10"/>
<path d="M196.137 605.209C195.977 603.551 195.737 601.515 195.657 600.686" stroke="#231F20" stroke-miterlimit="10"/>
<path d="M86.021 460L90.6625 467.464L95.3841 460" stroke="#231F20" stroke-miterlimit="10"/>
<path d="M139.639 556.504V555.449" stroke="#231F20" stroke-miterlimit="10"/>
<path d="M216.705 605.963C223.587 605.586 231.429 604.606 238.152 603.701" stroke="#231F20" stroke-miterlimit="10"/>
<path d="M168.288 593.297L126.194 596.916V603.023C126.194 603.023 131.476 609.356 127.315 615.765C123.153 622.173 136.438 621.419 136.438 621.419" stroke="#231F20" stroke-miterlimit="10"/>
<path d="M244.634 657.081L238.152 654.97L216.705 647.958" stroke="#231F20" stroke-miterlimit="10"/>
<path d="M126.114 596.916L147.161 605.209" stroke="#231F20" stroke-miterlimit="10"/>
<path d="M216.704 639.061L199.819 633.03V626.621L175.25 619.534C169.088 619.685 163.326 619.534 160.525 620.59C161.486 622.701 161.646 626.32 161.566 630.014L216.784 648.033" stroke="#231F20" stroke-miterlimit="10"/>
<path d="M199.819 626.621C199.819 626.621 259.839 605.134 267.842 605.209" stroke="#231F20" stroke-miterlimit="10"/>
<path d="M196.137 630.919L168.288 621.344" stroke="#231F20" stroke-miterlimit="10"/>
<path d="M137.078 605.209L126.114 601.063" stroke="#231F20" stroke-miterlimit="10"/>
<path d="M233.67 635.216V645.168L216.704 639.061L199.819 633.03V626.621C199.899 628.054 208.382 630.391 216.704 632.276C224.627 634.085 232.39 635.593 232.39 635.593L233.59 635.292L233.67 635.216Z" stroke="#231F20" stroke-miterlimit="10"/>
<path d="M233.67 645.093L233.911 645.168L241.033 647.732" stroke="#231F20" stroke-miterlimit="10"/>
<path d="M315.858 613.201L233.67 635.216" stroke="#231F20" stroke-miterlimit="10"/>
<path d="M216.705 590.809H196.138" stroke="#231F20" stroke-miterlimit="10"/>
<path d="M238.151 593.146C268.882 596.539 321.619 602.42 321.219 602.947C314.097 610.487 248.315 613.201 248.315 613.201" stroke="#231F20" stroke-miterlimit="10"/>
<path d="M256.158 649.164L235.351 638.76C235.351 638.76 318.818 613.201 321.219 614.106" stroke="#231F20" stroke-miterlimit="10"/>
<path d="M216.705 605.963C223.587 605.586 231.429 604.606 238.152 603.701" stroke="#231F20" stroke-miterlimit="10"/>
<path d="M216.705 590.809C216.705 590.809 225.588 591.789 238.152 593.146" stroke="#231F20" stroke-miterlimit="10"/>
<path d="M202.14 605.209C205.181 606.19 210.542 606.34 216.705 605.963" stroke="#231F20" stroke-miterlimit="10"/>
<path d="M254.477 601.063C254.477 601.063 247.354 602.42 238.231 603.702" stroke="#231F20" stroke-miterlimit="10"/>
<path d="M212.863 600.686L196.618 603.626" stroke="#231F20" stroke-miterlimit="10"/>
<path d="M119.312 649.164L118.192 618.026C118.192 618.026 110.829 582.063 118.192 579.274C125.554 576.484 140.919 579.274 140.919 579.274L140.359 595.634" stroke="#231F20" stroke-miterlimit="10"/>
<path d="M236.471 654.442C236.951 658.362 237.351 664.017 237.351 664.017L220.466 658.815V649.24" stroke="#231F20" stroke-miterlimit="10"/>
<path d="M218.385 590.96L216.785 581.008L238.232 578.067C238.232 578.067 238.072 587.039 237.592 593.071" stroke="#231F20" stroke-miterlimit="10"/>
<path d="M55.0502 667.636C70.8154 668.917 82.4993 673.592 82.4993 679.246C82.4993 684.901 66.494 691.234 46.7274 691.234C26.9608 691.234 44.8868 691.234 43.9265 691.234" stroke="#231F20" stroke-miterlimit="10"/>
<path d="M39.6853 691.46C23.84 690.179 11.9961 685.127 11.9961 679.096C11.9961 673.064 28.0014 666.429 47.8481 666.429C67.6947 666.429 50.0088 666.429 51.0491 666.429" stroke="#231F20" stroke-miterlimit="10"/>
<path d="M50.409 670.727C50.3289 670.727 50.1689 670.727 50.0889 670.727C49.5287 670.727 48.8885 670.727 48.3283 670.727C35.8441 670.727 25.7607 675.025 25.7607 680.302C25.7607 685.58 32.0829 688.068 40.9658 689.349C41.0458 689.349 41.2059 689.349 41.2859 689.349" stroke="#231F20" stroke-miterlimit="10"/>
<path d="M43.9268 687.691C44.0068 687.691 44.1668 687.691 44.2469 687.691C44.727 687.691 45.2072 687.691 45.6873 687.691C58.1715 687.691 68.2549 683.619 68.2549 678.643C68.2549 673.667 62.0128 671.405 53.2899 670.124C53.1298 670.124 53.0498 670.124 52.8897 670.124" stroke="#231F20" stroke-miterlimit="10"/>
<path d="M46.4074 673.441C46.3274 673.441 46.1673 673.441 46.0873 673.441C46.0073 673.441 46.0073 673.441 45.9272 673.441C40.8856 673.441 36.8042 675.778 36.8042 678.643C36.8042 681.508 38.8849 682.488 42.0059 683.393C42.166 683.393 42.326 683.469 42.4861 683.544" stroke="#231F20" stroke-miterlimit="10"/>
<path d="M42.3262 685.881H42.4862C42.6463 685.881 42.8864 685.881 43.0464 685.881C50.4089 685.73 56.2508 683.016 56.2508 679.624C56.2508 676.231 53.2098 675.1 48.7283 674.044C48.4882 674.044 48.2482 673.969 48.0081 673.894" stroke="#231F20" stroke-miterlimit="10"/>
<path d="M46.4076 677.512C45.0471 677.512 43.9268 678.568 43.9268 679.548C43.9268 680.528 44.4869 681.056 45.2072 681.433" stroke="#231F20" stroke-miterlimit="10"/>
<path d="M47.208 681.885C48.9686 681.433 49.2087 680.83 49.2887 679.85C49.3687 678.869 49.2087 678.719 48.0083 678.191" stroke="#231F20" stroke-miterlimit="10"/>
</g>
<g clip-path="url(#clip1_255_4)">
<path d="M70.833 249.97C70.1474 247.421 70.3433 244.774 70.5392 242.127C71.6165 226.835 75.5339 212.424 82.4874 198.798C82.7812 198.209 83.2709 197.621 83.2709 196.837C87.5801 194.974 92.0851 195.17 96.1985 197.131C99.7242 198.798 102.858 201.248 105.698 204.091C105.992 204.876 105.6 205.464 105.209 206.052C101.585 212.326 99.1365 219.09 98.2551 226.246C96.1984 243.794 99.8221 259.969 111.281 273.89C116.275 279.968 122.543 284.575 129.595 288.3C130.966 288.986 132.435 289.477 133.512 290.653C134.296 292.123 134.198 293.594 133.708 295.064C132.925 295.751 132.924 294.77 132.533 294.476C132.435 300.162 132.533 305.75 132.533 311.436C132.533 315.259 132.533 318.984 132.533 322.807C132.533 325.748 132.141 326.042 129.203 325.062C121.368 322.415 114.415 318.004 108.049 312.906C98.8427 305.554 90.812 297.123 84.8379 286.83C79.8431 278.105 75.5339 269.086 74.1628 259.087C73.6731 255.754 73.4772 252.421 72.3999 249.284C72.302 248.892 72.2041 248.401 71.8123 248.009C71.2247 248.598 71.6165 249.578 70.9309 250.068L70.833 249.97Z" fill="#AE4A2A"/>
<path d="M70.8328 249.97C71.1266 249.087 70.6369 248.205 71.1266 247.323C71.2246 247.029 71.3225 246.637 71.7142 246.637C72.106 246.637 72.3018 246.931 72.3998 247.225C73.0853 249.872 74.1626 252.519 74.3585 255.165C74.6523 261.341 76.3172 267.027 78.5698 272.713C84.0542 286.437 92.1829 298.201 103.25 308.004C109.028 313.102 115.198 317.611 121.858 321.337C124.6 322.807 127.636 323.787 130.476 324.964C131.847 325.552 132.043 324.964 132.043 323.787C132.043 314.67 132.043 305.456 132.043 296.339C132.043 295.162 132.043 293.986 132.728 292.613C133.414 293.594 132.924 294.672 133.512 295.456C134.393 296.241 134.197 297.319 134.197 298.299C134.197 299.77 134.197 301.24 134.197 302.711C134.197 309.475 134.197 316.337 134.197 323.101C134.197 323.885 133.904 325.356 134.981 325.356C136.058 325.356 135.569 323.885 135.667 323.101C136.45 314.18 135.96 305.259 136.156 296.437C136.156 295.75 136.156 295.162 136.156 294.476C136.156 293.888 136.45 293.202 137.136 293.202C137.919 293.202 138.017 293.986 137.919 294.476C137.919 297.221 138.409 299.868 138.409 302.515C138.409 309.769 138.409 317.023 138.409 324.278C138.409 325.356 138.311 326.434 139.682 326.924C142.62 328.003 143.306 327.611 143.306 324.474C143.306 315.945 143.306 307.416 143.306 298.887C143.306 297.907 143.012 296.633 144.285 295.947C145.656 296.143 145.656 297.319 145.656 298.299C145.656 301.044 145.754 303.691 145.656 306.436C145.852 312.808 146.244 319.18 146.146 325.65C146.146 326.532 145.754 328.003 147.125 327.905C148.3 327.905 147.909 326.532 147.909 325.65C147.909 319.474 147.223 313.396 147.615 307.22C147.517 304.867 147.615 302.515 147.615 300.26C147.615 299.378 147.517 298.495 148.496 297.907C149.867 298.005 149.965 299.083 149.965 299.966C149.965 303.103 150.455 306.24 150.455 309.377C150.455 315.063 151.043 320.748 150.847 326.434C150.847 327.218 150.847 328.199 151.826 328.493C153.099 328.885 154.372 329.081 155.548 328.689C156.135 328.493 156.037 327.807 155.939 327.317C155.45 318.592 155.841 309.867 155.743 301.24C155.743 300.162 155.352 298.789 157.115 298.495C157.898 298.691 158.094 299.378 158.094 299.966C158.094 302.907 158.682 305.75 158.486 308.691C158.584 315.259 158.486 321.827 158.877 328.493C159.073 321.925 159.367 315.357 159.661 308.691C159.563 306.926 159.661 305.161 159.661 303.397C159.661 302.613 159.661 301.73 160.542 301.338C161.62 301.632 161.522 302.515 161.62 303.299C162.403 308.102 161.815 313.004 162.011 317.906C162.011 321.141 162.011 324.474 162.011 327.709C162.011 328.885 162.403 329.669 163.774 329.669C165.341 329.669 165.831 329.375 165.635 327.807C165.047 321.337 165.537 314.769 165.341 308.2C165.341 306.044 165.831 303.887 165.831 301.73C165.831 301.142 165.929 300.456 166.712 300.162C167.79 300.358 167.692 301.24 167.79 301.926C168.279 304.475 168.181 307.024 168.083 309.475C168.181 315.259 168.083 321.141 168.083 326.924C168.083 327.709 167.692 329.179 168.769 329.179C169.944 329.179 169.454 327.807 169.454 326.924C169.454 321.141 169.454 315.259 169.454 309.475C169.454 306.73 169.259 303.887 170.336 301.24C171.511 300.946 171.707 301.828 172.001 302.613C172.197 303.495 172.197 304.377 172.197 305.259C172.197 312.514 172.197 319.866 172.197 327.12C172.197 328.493 172.393 329.473 174.155 329.473C175.918 329.473 176.31 329.179 176.31 327.415C176.31 323.297 176.408 319.18 176.31 315.161C176.212 310.847 176.702 306.436 176.8 302.122C176.8 301.24 176.702 300.064 178.073 300.064C179.052 300.652 179.052 301.632 179.052 302.515C179.052 304.769 179.052 307.024 179.052 309.377C179.052 315.847 179.738 322.317 179.738 328.787C180.325 322.317 180.032 315.847 180.13 309.475C180.325 306.24 180.13 303.005 181.011 299.77C182.676 299.476 182.676 300.848 182.774 301.828C182.97 303.887 182.774 305.946 182.774 308.004C182.774 314.376 182.774 320.846 182.774 327.218C182.774 328.199 182.48 329.375 184.145 329.375C185.614 329.375 186.104 328.591 186.104 327.218C186.104 325.65 186.104 323.983 186.104 322.415C185.81 315.455 186.691 308.593 186.495 301.73C186.495 300.75 186.397 299.28 187.671 299.28C188.944 299.28 188.748 300.75 188.748 301.73C188.748 305.357 188.944 308.985 189.14 312.612C189.433 317.121 188.552 321.533 188.846 326.042C188.846 326.924 188.356 328.591 189.629 328.591C191.294 328.591 190.609 326.924 190.609 326.042C190.609 320.258 191.196 314.572 191.098 308.789C190.902 306.044 191.196 303.201 191.49 300.456C191.49 299.966 191.588 299.476 191.98 299.084C193.155 298.691 193.449 299.476 193.645 300.358C193.841 301.142 193.743 302.024 193.743 302.809C193.939 310.259 193.547 317.611 193.351 325.062C193.351 325.748 193.351 326.336 193.351 327.022C193.351 328.101 193.939 328.493 194.918 328.395C197.66 328.395 198.15 327.905 198.15 325.16C198.15 317.023 198.15 308.887 198.15 300.75C198.15 299.77 198.15 298.789 198.346 297.907C198.835 296.535 199.423 296.437 200.598 297.515C201.186 300.652 200.794 303.887 200.892 307.122C200.892 313.102 200.892 318.984 200.892 324.964C200.892 325.748 200.5 327.12 201.676 327.12C202.949 327.12 202.655 325.846 202.655 324.964C202.655 318.788 202.655 312.612 202.655 306.338C202.655 302.907 202.165 299.476 202.949 296.045C203.928 295.064 204.418 295.75 204.712 296.633C205.005 297.417 204.907 298.299 204.907 299.084C204.907 307.318 204.907 315.651 204.907 323.885C204.907 324.768 204.222 326.336 206.083 326.336C207.748 326.336 208.531 325.552 208.629 323.689C209.217 314.965 209.021 306.142 209.021 297.319C209.021 296.437 209.021 295.456 209.217 294.672C209.51 293.79 210 293.104 210.979 293.986C211.861 296.535 211.175 299.182 211.371 301.73C211.371 302.417 211.371 303.103 211.371 303.789C211.469 309.965 211.371 316.239 211.371 322.415C211.371 323.199 210.979 324.474 212.057 324.474C213.33 324.474 213.232 323.199 213.232 322.219C213.036 315.749 213.82 309.279 213.722 302.907C213.722 301.828 213.722 300.652 213.82 299.574C214.309 298.103 214.113 296.633 214.113 295.162C214.113 294.574 214.113 293.986 214.211 293.398C214.309 292.908 214.505 292.319 215.191 292.319C215.778 292.319 215.974 292.908 216.17 293.398C216.268 293.79 216.268 294.182 216.17 294.574C215.68 297.711 215.974 300.848 215.974 303.985C215.974 309.867 215.387 315.749 215.582 321.631C215.582 323.493 215.582 323.493 217.443 322.807C227.629 318.788 236.835 313.298 244.376 305.161C251.721 297.221 257.303 288.3 261.025 278.203C264.159 269.772 266.117 260.949 266.999 252.028C267.293 248.597 266.803 245.166 266.901 241.637C266.901 240.853 266.901 239.971 266.901 239.186C267.097 238.304 267.391 237.422 268.468 237.324C269.545 237.324 269.839 238.01 270.133 238.892C270.133 239.088 270.133 239.382 270.329 239.578C273.365 252.715 271.014 265.361 266.215 277.615C259.654 294.378 249.272 308.2 234.386 318.494C229.881 321.631 225.18 324.18 219.892 325.748C218.521 326.14 218.814 326.924 219.598 327.513C221.165 328.787 222.536 330.061 223.123 332.12C223.319 332.904 224.201 333.1 224.984 333.395C229.098 334.767 233.015 336.531 236.933 338.394C238.989 339.374 241.34 340.355 241.34 343.1C241.34 345.942 238.989 347.217 236.835 348.197C231.742 350.55 226.355 351.726 220.871 352.609C202.067 355.746 183.068 356.334 164.068 355.844C156.233 355.648 148.496 355.255 140.661 354.569C131.064 353.687 121.466 352.707 112.26 349.57C110.301 348.883 108.538 348.001 106.971 346.531C105.11 344.766 104.817 343.002 105.894 340.649C106.775 338.688 108.244 337.12 110.301 336.237C113.337 334.865 115.981 332.904 119.115 331.728C119.997 331.434 120.388 330.748 120.291 329.767C120.291 329.473 120.193 329.081 120.291 328.787C121.466 326.042 119.507 325.16 117.646 323.983C102.074 314.572 89.3427 302.319 80.6264 286.241C76.0234 277.713 73.1833 268.498 71.3225 258.989C70.7349 255.852 70.2452 252.715 70.3431 249.48L70.8328 249.97Z" fill="#420600"/>
<path d="M271.014 239.971C270.818 239.676 270.72 239.48 270.524 239.186C270.231 238.5 269.839 237.814 268.957 238.108C268.174 238.304 267.978 239.088 267.978 239.775C267.978 242.912 267.782 246.049 268.076 249.186C268.468 252.813 267.684 256.146 267.097 259.577C265.432 270.066 262.396 280.163 257.205 289.378C248.881 304.181 237.52 315.749 221.458 322.023C219.5 322.807 217.737 323.983 215.582 324.376C215.778 313.788 216.072 303.299 216.268 292.809C216.072 292.809 215.876 292.809 215.582 292.809C214.799 294.966 215.778 297.319 214.897 299.476C214.407 299.083 214.309 298.495 214.309 298.005C214.309 295.456 214.113 292.81 214.407 290.261C214.897 288.888 216.17 288.496 217.247 287.908C224.788 283.497 231.35 277.811 235.855 270.262C240.654 262.322 244.375 253.891 245.551 244.578C246.138 239.775 245.551 234.971 245.257 230.167C244.963 223.991 243.592 218.012 242.711 211.934C242.417 209.973 242.025 208.012 241.437 206.15C241.144 205.071 240.654 204.091 240.752 203.013C243.396 200.66 246.138 198.601 249.37 197.131C251.525 196.151 253.679 195.562 256.03 195.464C257.205 195.464 257.793 195.856 258.184 196.837C258.576 198.013 259.066 199.288 259.36 200.562C259.653 200.072 259.458 199.386 260.045 198.993C262.298 203.405 263.277 208.208 264.746 212.914C267.097 220.266 269.055 227.717 270.133 235.363C270.329 236.834 270.524 238.402 270.622 239.873L271.014 239.971Z" fill="#AE4A2A"/>
<path d="M116.177 104.981C121.662 109.295 124.698 114.883 125.873 121.745C126.167 123.607 126.167 125.372 126.265 127.235C126.95 128.019 126.853 128.999 126.853 129.979C126.853 132.234 126.853 134.391 126.853 136.646C126.167 139.587 126.069 142.626 125.775 145.566C123.914 160.761 120.193 175.466 114.415 189.681C113.141 192.818 111.574 195.857 109.91 198.798C109.322 199.974 108.441 200.856 107.167 201.346C106.384 201.346 105.894 200.856 105.307 200.464C100.801 196.445 95.6109 194.092 89.5388 193.798C88.7553 193.798 87.9719 193.798 87.2863 193.994C86.5028 194.092 85.7193 194.288 85.1317 193.602C89.343 185.759 93.6522 177.917 97.6675 169.976C101.291 162.918 105.013 155.86 107.559 148.311C108.147 146.645 108.538 144.88 108.636 143.116C108.441 142.331 109.028 141.939 109.42 141.449C112.946 136.842 114.317 131.646 112.946 125.96C112.652 124.686 112.162 123.411 111.183 122.235C110.497 123.019 110.791 123.607 111.085 124.294C112.26 127.333 111.966 130.372 111.183 133.411C110.399 136.744 108.343 139.096 105.209 140.665C99.0386 143.704 93.3583 143.214 88.0698 138.802C85.4255 136.548 83.173 133.999 81.4101 130.96C79.4514 123.902 79.2555 116.941 82.6833 110.177C86.3069 103.021 94.5336 99.4917 102.368 101.256C113.239 103.609 119.018 110.667 121.956 120.863C123.229 125.176 123.131 129.587 122.837 133.999C122.641 136.744 122.347 139.391 123.229 141.841C123.914 137.724 125.188 133.509 124.992 129.097C124.6 120.961 121.956 113.706 116.961 107.334C116.471 106.746 115.786 106.256 116.177 105.374V104.981Z" fill="#AE4A2A"/>
<path d="M265.236 99.6878C268.86 101.844 271.602 104.785 273.071 108.805C275.911 116.647 276.694 124.392 272.679 132.136C270.231 136.94 266.411 140.273 261.808 142.92C260.339 143.802 258.478 143.606 256.813 143.802C256.813 142.724 257.891 142.626 258.576 142.233C261.808 140.273 264.746 138.116 266.313 134.489C266.705 133.705 267.488 132.724 266.607 132.038C265.726 131.45 265.04 132.528 264.355 133.018C262.592 134.587 261.123 136.548 259.458 138.214C253.679 144.096 246.04 141.841 241.633 135.861C241.144 135.077 240.85 134.195 240.948 133.313C241.339 128.509 242.025 123.902 245.355 120.078C246.53 118.706 247.901 117.726 249.566 117.137C253.679 115.667 257.303 118.216 257.107 122.529C256.911 126.646 254.855 129.489 251.231 131.254C249.468 132.136 248.293 131.254 248.489 129.293C248.587 128.019 248.978 126.744 249.37 125.568C249.664 124.686 250.154 124.098 251.231 124.49C251.525 124.588 252.015 124.784 252.21 124.294C252.308 123.902 252.21 123.509 251.819 123.313C250.741 122.431 249.664 122.627 248.685 123.313C246.334 124.98 245.355 130.077 246.922 132.43C247.607 133.509 248.783 133.803 249.958 133.803C256.128 133.999 262.396 126.548 261.123 120.568C260.339 116.647 255.54 113.51 251.035 113.902C247.999 114.196 245.747 115.569 243.886 117.824C240.36 122.235 238.891 127.529 238.499 133.018C238.303 135.469 238.108 138.018 238.108 140.469C238.108 149.096 239.87 157.232 243.69 164.977C245.257 168.114 246.138 171.545 247.509 174.78C249.37 179.289 252.112 183.211 254.267 187.524C255.638 190.269 254.855 192.033 251.917 192.818C247.803 193.896 244.278 196.151 241.633 199.484C241.242 199.974 240.948 200.856 240.066 200.464C238.989 198.405 238.695 196.249 238.891 193.994C239.87 193.406 239.87 192.523 239.577 191.543C238.303 187.034 237.128 182.524 235.659 178.113C232.721 168.702 230.86 158.997 229.881 149.194C228.902 138.704 231.546 129.097 236.541 120.078C239.381 114.981 243.592 111.255 248.587 108.609C251.525 107.04 254.757 106.452 258.087 106.648C259.262 106.648 260.143 107.138 261.025 107.824C265.432 111.157 266.901 115.569 266.215 120.863C266.019 122.529 265.628 124.098 265.334 125.764C265.334 126.254 265.138 126.94 265.628 127.137C266.215 127.333 266.509 126.842 266.803 126.352C268.566 123.705 269.153 120.666 268.86 117.529C268.86 116.647 268.468 115.765 268.566 114.883C270.035 113.118 269.937 111.157 269.447 109.099C268.664 106.256 267.782 103.511 265.628 101.256C265.138 100.766 264.55 100.276 264.844 99.4917L265.236 99.6878Z" fill="#AE4A2A"/>
<path d="M148.496 298.005C147.713 299.672 148.3 301.534 148.104 303.201C148.006 304.573 148.104 305.848 148.104 307.22C146.929 307.808 145.95 307.416 145.166 306.436C145.166 303.691 145.166 300.946 145.166 298.299C145.166 297.515 145.166 296.633 144.481 296.045C143.893 295.554 143.795 294.868 143.795 294.084C144.089 282.712 143.403 271.439 143.305 260.067C143.305 255.558 143.207 250.95 143.012 246.441C142.424 228.991 142.326 211.443 142.13 193.994C142.13 183.995 141.738 173.897 141.347 163.898C141.053 156.938 141.151 149.978 141.053 142.92C141.053 142.429 141.053 141.939 141.053 141.351C140.857 139.488 140.857 137.528 138.115 137.528C137.821 137.528 137.527 137.234 137.429 136.94C137.723 136.253 138.409 136.155 139.094 136.155C140.465 136.155 140.759 135.371 140.759 134.195C140.759 132.528 140.759 130.862 140.759 129.293C140.759 128.509 140.759 127.725 141.347 127.136C141.738 122.823 141.64 118.412 141.738 114.098C141.738 113.314 141.543 112.236 142.718 112.138C143.991 112.138 143.991 113.216 143.991 114.098C144.089 117.137 143.991 120.078 144.089 123.117C144.089 124.588 144.285 126.058 144.481 127.529C145.46 129.979 145.166 132.626 145.46 135.175C145.46 135.861 145.46 136.547 145.46 137.234C146.048 145.664 146.146 154.095 146.341 162.526C146.635 172.721 146.831 182.916 147.125 193.014C147.321 199.778 147.517 206.542 147.908 213.306C148.3 219.874 147.908 226.54 148.3 233.108C148.79 241.245 148.3 249.382 148.692 257.518C149.084 264.773 148.692 272.027 149.084 279.183C149.377 284.673 149.475 290.163 149.377 295.652C149.377 296.437 149.377 297.221 148.79 297.711L148.496 298.005Z" fill="#F58F00"/>
<path d="M240.36 200.758C243.396 196.151 247.705 193.406 253.092 192.23C255.736 191.641 255.736 191.641 254.463 189.093C253.386 186.838 252.015 184.583 250.741 182.328C247.901 177.427 245.943 172.231 243.984 166.937C242.613 163.31 240.752 159.879 239.773 156.056C238.401 150.86 237.324 145.665 237.618 140.175C237.912 134.293 237.912 128.411 240.36 122.921C241.535 120.176 243.2 117.726 245.355 115.667C250.35 111.06 259.947 113.804 261.71 120.274C262.788 124.588 259.849 130.47 255.246 132.921C254.561 133.313 253.875 133.607 253.092 133.803C250.937 134.587 248.685 135.077 246.922 133.313C245.257 131.646 245.453 129.293 245.943 127.137C246.432 125.176 247.216 123.313 249.174 122.333C250.741 121.549 252.504 122.137 252.994 123.608C253.19 124.196 253.288 124.784 252.798 125.274C252.308 125.764 251.819 125.274 251.427 125.078C250.35 124.294 250.056 124.588 249.86 125.764C249.664 127.039 249.174 128.215 248.979 129.489C248.783 130.568 249.174 131.352 250.448 131.058C253.875 130.274 257.303 125.078 256.716 121.745C256.324 119.784 255.54 117.922 253.582 117.235C251.329 116.549 249.174 117.432 247.314 118.902C243.984 121.647 242.613 125.47 241.927 129.587C241.046 134.979 242.221 137.234 247.118 139.685C251.819 141.939 255.442 141.253 259.262 137.626C261.319 135.665 262.788 133.019 265.334 131.548C265.922 131.254 266.313 130.372 267.097 131.058C267.782 131.646 267.782 132.43 267.488 133.215C266.705 135.077 265.726 136.94 264.257 138.41C262.102 140.665 259.556 142.233 256.813 143.704C250.448 145.959 245.355 144.096 241.34 138.704C241.34 141.743 241.927 144.684 242.515 147.527C244.963 161.252 250.252 173.996 256.324 186.348C258.283 190.367 259.752 194.582 260.437 198.994C260.241 199.974 260.633 201.052 260.045 202.229C258.87 200.856 258.87 199.288 258.38 197.817C257.891 196.445 257.597 195.661 255.638 195.955C250.741 196.837 246.334 198.602 243.004 202.327C242.417 203.013 241.731 202.817 241.144 203.013C239.675 202.621 239.675 201.739 240.458 200.66L240.36 200.758Z" fill="#420600"/>
<path d="M178.562 309.573C178.562 307.122 178.562 304.77 178.562 302.319C178.562 301.633 178.563 300.946 178.171 300.26C177.681 299.77 177.681 299.084 177.583 298.496C177.485 297.711 177.583 296.829 177.583 296.045C177.583 243.99 177.583 191.935 177.583 139.881C177.583 139.195 177.583 138.508 177.583 137.724C177.583 134.293 177.191 130.862 177.877 127.529C178.367 125.274 178.073 122.921 178.171 120.667C178.269 116.451 178.171 112.236 178.171 108.021C178.171 106.648 178.856 105.766 179.934 105.766C181.305 105.766 181.305 106.942 181.305 108.021C181.305 113.804 181.305 119.686 181.305 125.47C181.305 126.156 181.207 126.843 181.501 127.529C182.088 130.96 181.696 134.293 181.794 137.724C181.99 143.116 181.794 148.508 181.794 153.899C182.284 186.838 182.284 219.776 182.088 252.715C182.088 265.851 181.794 278.987 181.794 292.123C181.794 294.182 181.794 296.241 181.794 298.299C181.794 298.986 181.501 299.476 181.207 299.966C181.011 303.103 180.913 306.338 180.717 309.475C179.934 310.063 179.248 310.063 178.465 309.475L178.562 309.573Z" fill="#F59000"/>
<path d="M157.8 308.789C157.702 305.946 157.506 303.005 157.408 300.162C157.408 299.672 157.604 299.182 157.017 298.79C156.625 298.397 156.527 297.907 156.429 297.417C156.429 292.025 155.939 286.634 155.939 281.34C156.135 259.283 155.646 237.324 155.45 215.267C155.254 199.484 155.646 183.603 155.156 167.82C154.862 157.722 155.156 147.625 154.764 137.528C154.96 135.077 154.764 132.724 154.862 130.274C154.862 129.391 154.862 128.509 155.352 127.725C155.352 122.235 155.352 116.745 155.352 111.158C155.352 110.275 155.352 109.393 155.45 108.511C155.548 107.726 156.135 107.138 156.821 107.236C157.506 107.236 157.702 108.021 157.702 108.707C157.702 109.785 157.702 110.863 157.702 111.942C157.8 117.235 157.898 122.431 158.094 127.725C158.682 128.509 158.682 129.391 158.682 130.274C158.682 132.822 158.682 135.371 158.78 137.822C158.486 140.665 159.171 143.41 159.073 146.253C158.78 162.624 159.367 178.897 159.563 195.268C159.563 204.189 159.465 213.208 159.857 222.129C160.444 235.265 159.857 248.401 160.249 261.538C160.64 272.027 160.347 282.516 160.542 293.006C160.542 294.672 160.934 296.339 160.836 298.005C160.836 299.182 161.228 300.554 160.249 301.632C159.465 304.083 160.053 306.534 159.857 308.985C159.073 310.063 158.388 309.475 157.702 308.985L157.8 308.789Z" fill="#F58F00"/>
<path d="M170.434 301.534C170.238 304.181 170.14 306.926 169.944 309.573C169.063 310.259 168.181 310.259 167.3 309.573C167.202 306.828 167.3 304.181 166.908 301.436C166.908 301.044 166.908 300.554 166.516 300.26C165.929 299.77 165.929 299.182 165.929 298.495C165.831 297.711 165.929 296.927 165.929 296.241C165.929 287.614 165.929 279.085 165.929 270.458C166.418 226.736 166.321 183.112 166.321 139.39C166.321 138.802 166.321 138.214 166.321 137.626C166.223 134.881 166.321 132.038 166.321 129.293C166.321 128.607 166.418 128.019 166.81 127.529C167.398 121.549 167.006 115.471 167.202 109.491C167.202 109.001 167.202 108.413 167.202 107.922C167.202 107.138 167.692 106.452 168.475 106.452C169.552 106.452 169.063 107.432 169.063 107.922C169.161 114.49 169.063 120.961 169.552 127.529C170.042 128.117 170.042 128.803 170.042 129.489C170.042 132.234 170.14 134.881 170.042 137.626C170.238 139.881 170.042 142.233 170.042 144.586C170.042 152.233 170.042 159.781 170.042 167.427C170.532 202.817 170.238 238.108 170.532 273.497C170.532 281.144 170.728 288.692 170.826 296.339C170.826 297.123 170.826 297.907 170.826 298.593C170.826 299.574 171.021 300.652 170.238 301.534H170.434Z" fill="#F58F00"/>
<path d="M192.372 299.28C192.176 302.417 191.98 305.652 191.882 308.789C189.629 309.965 188.748 309.475 188.65 307.024C188.65 303.985 188.944 301.044 188.258 298.103C188.944 275.262 188.062 252.323 188.65 229.481C189.14 209.973 188.454 190.367 189.042 170.859C189.336 159.879 189.042 148.802 189.434 137.822C189.336 135.077 189.434 132.234 189.434 129.489C189.434 128.803 189.531 128.215 189.923 127.725C189.923 121.941 190.315 116.157 189.923 110.275C189.923 109.589 189.825 108.903 190.609 108.511C191.294 108.217 191.784 108.413 192.372 108.707C192.959 109.001 192.959 109.393 192.959 109.981C192.372 115.765 192.763 121.549 192.763 127.431C193.449 128.509 193.155 129.685 193.253 130.764C193.253 133.117 193.253 135.469 193.253 137.822C193.351 138.9 193.253 139.979 193.253 141.057C193.253 175.368 193.547 209.777 193.155 244.088C192.959 261.342 193.057 278.693 192.861 295.947C192.861 296.339 192.861 296.731 192.861 297.123C192.861 297.907 192.861 298.692 192.372 299.28Z" fill="#F58F00"/>
<path d="M215.093 289.869C215.093 293.104 215.093 296.339 215.093 299.672C215.093 300.848 215.093 301.926 214.995 303.103C214.015 303.985 213.036 304.769 211.665 304.279C211.665 300.946 211.665 297.613 211.567 294.378C211.077 293.496 210.881 292.613 210.881 291.633C210.881 290.065 210.881 288.398 210.881 286.83C211.175 268.792 211.077 250.656 211.371 232.618C211.665 219.384 211.175 206.248 211.763 193.014C212.155 182.23 211.665 171.349 212.155 160.565C212.546 152.919 212.155 145.174 212.546 137.528C212.546 134.489 213.036 131.45 212.938 128.411C212.938 127.921 213.036 127.431 213.428 126.94C213.428 124.686 213.428 122.333 213.526 120.078C213.526 119.294 213.721 118.412 214.603 118.314C215.582 118.314 215.876 119.098 215.876 120.078C215.876 122.431 215.876 124.686 215.876 127.039C216.66 129.979 216.366 132.92 216.66 135.861C216.66 136.45 216.562 137.136 216.66 137.724C216.66 146.351 217.051 154.879 216.464 163.408C216.464 164.094 216.464 164.683 216.464 165.369C216.758 197.425 215.876 229.579 216.072 261.636C216.072 270.262 215.386 278.889 215.68 287.516C215.68 288.398 215.68 289.182 215.093 289.967V289.869Z" fill="#F58F00"/>
<path d="M203.928 296.143C203.928 299.574 203.83 303.005 203.732 306.436C202.948 307.318 201.969 307.612 200.794 307.22C200.794 304.083 200.696 300.848 200.598 297.711C200.598 296.829 199.912 296.143 200.01 295.261C200.108 282.516 199.815 269.772 200.01 257.028C200.794 221.443 200.01 185.759 200.402 150.174C200.402 146.057 200.696 141.841 200.794 137.724C200.696 134.685 200.794 131.548 200.794 128.509C200.794 127.921 200.892 127.333 201.284 126.843C201.284 122.333 201.675 117.824 201.284 113.314C201.186 112.334 201.088 111.158 202.655 111.06C204.124 111.06 204.32 111.942 204.222 113.118C203.83 117.726 204.222 122.235 204.222 126.843C204.711 127.431 204.809 128.117 204.809 128.803C204.809 131.744 204.809 134.685 204.809 137.626C204.809 138.312 204.809 138.998 204.809 139.783C204.809 152.919 205.005 166.055 204.809 179.191C204.32 216.835 204.515 254.578 204.418 292.222C204.418 292.908 204.418 293.594 204.418 294.378C204.418 295.064 204.124 295.653 203.928 296.143Z" fill="#F58F00"/>
<path d="M133.61 302.613C133.61 300.162 133.61 297.809 133.512 295.358C133.512 293.79 133.806 292.222 133.218 290.751C132.826 288.398 132.532 285.948 132.532 283.497C132.728 263.792 132.239 244.186 132.043 224.482C131.847 210.659 132.141 196.935 131.749 183.113C131.259 168.604 131.651 153.997 131.455 139.489C131.455 138.606 131.455 137.822 131.455 137.038C131.651 134.391 131.455 131.744 131.651 129.097C131.651 128.313 131.651 127.529 132.141 126.941C132.141 124.98 132.141 123.019 132.239 121.059C132.239 120.471 132.239 119.784 132.924 119.686C133.806 119.686 133.708 120.471 133.708 121.059C133.708 122.529 133.708 124 133.708 125.47C133.708 126.058 133.708 126.745 134.295 127.137C134.295 130.47 134.883 133.803 134.589 137.136C134.589 142.92 134.981 148.606 134.981 154.389C134.981 167.624 135.373 180.858 135.568 194.092C135.568 201.935 135.47 209.679 135.862 217.522C136.352 227.031 135.862 236.442 136.254 245.951C136.744 255.264 136.254 264.479 136.646 273.792C136.939 279.87 136.842 285.948 137.037 292.025C136.156 294.476 136.646 297.025 136.548 299.574C136.548 300.358 136.548 301.142 136.548 301.829C136.548 302.515 137.037 303.593 136.058 303.887C135.079 304.181 134.197 303.691 133.708 302.613H133.61Z" fill="#F58F00"/>
<path d="M116.177 104.981C117.94 107.334 119.703 109.785 121.172 112.432C125.677 121.059 126.754 130.078 124.208 139.489C123.914 140.665 123.914 141.939 123.326 143.018C123.326 143.214 123.131 143.312 123.033 143.312C120.78 137.822 123.033 132.136 122.347 126.548C121.172 116.451 117.548 107.53 107.559 103.119C99.5279 99.5898 91.8889 99.8839 85.523 106.55C81.9973 110.275 80.8221 114.883 80.4304 119.882C80.1366 123.607 81.018 127.137 81.6056 130.666C81.9973 131.94 82.7808 133.313 81.1159 134.293C70.245 122.235 74.0645 101.256 93.4559 96.7469C97.9609 95.6685 102.368 96.5508 106.481 98.3154C110.105 99.8839 113.337 101.943 116.079 104.785L116.177 104.981Z" fill="#F58F00"/>
<path d="M265.236 99.6877C267.391 102.237 269.35 104.785 270.035 108.216C270.231 109.491 270.525 110.667 270.721 111.942C270.917 113.314 270.427 114.294 269.252 114.981C268.272 114.687 268.272 113.706 267.978 113.02C266.999 110.863 266.02 108.805 264.159 107.138C260.829 104.001 256.814 104.687 252.896 104.981C249.566 105.276 246.628 106.746 243.984 108.707C237.52 113.608 232.428 119.588 230.567 127.725C229.783 131.058 228.51 134.293 228.216 137.822C228.216 138.312 228.216 139.096 227.237 138.802C226.649 138.018 226.649 136.94 226.356 136.057C225.768 133.705 226.062 131.352 226.062 128.999C226.062 128.215 226.356 127.529 226.845 126.94C228.902 115.961 234.288 107.04 243.592 100.864C250.546 96.2567 257.793 94.9823 265.236 99.8838V99.6877Z" fill="#F58F00"/>
<path d="M81.2139 134.391C82.1933 133.313 81.4098 131.94 81.7036 130.764C83.3685 132.43 84.3479 134.587 86.1107 136.254C89.7344 139.489 93.5539 142.724 98.7445 141.841C105.208 140.763 109.322 138.508 110.595 133.215C111.378 130.078 111.77 126.941 110.301 123.804C110.105 123.411 110.105 122.823 110.007 122.333C110.007 121.745 110.203 121.353 110.791 121.157C111.476 121.059 111.672 121.451 111.868 121.941C115.394 128.607 114.12 137.038 108.832 142.43C108.734 142.528 108.636 142.724 108.44 142.822C105.796 143.704 103.445 145.174 100.605 145.665C97.4713 146.253 94.7291 145.37 91.791 144.586C86.3066 143.116 83.7603 138.606 81.0181 134.293L81.2139 134.391Z" fill="#420600"/>
<path d="M226.845 126.843C226.453 129.98 226.355 133.019 226.845 136.156C226.551 136.744 226.159 137.136 225.572 137.234C222.732 137.626 219.794 138.214 216.953 137.822C216.66 137.822 216.366 137.528 216.072 137.43C216.072 133.999 215.68 130.47 215.876 127.039C219.5 127.039 223.123 127.039 226.845 127.039V126.843Z" fill="#420600"/>
<path d="M155.254 127.627C155.254 130.862 155.548 134.097 155.156 137.332C154.471 137.92 153.589 137.822 152.806 137.92C150.749 137.92 148.79 137.92 146.734 137.92C146.048 137.92 145.362 137.92 144.775 137.234C144.579 133.999 144.481 130.764 144.285 127.627C147.909 127.627 151.532 127.627 155.254 127.627Z" fill="#420600"/>
<path d="M85.1315 193.406C87.7757 193.112 90.42 193.112 93.1622 193.504C98.7446 194.386 102.956 197.523 107.069 201.052C108.44 201.543 107.951 202.523 107.461 203.307C107.069 203.895 106.482 204.287 105.698 204.189C103.446 202.621 101.291 200.954 99.0384 199.288C94.9251 196.151 90.3221 195.661 85.4253 196.543C84.7397 196.641 84.0542 196.739 83.3686 196.739C81.9975 195.465 82.1934 194.386 83.8583 193.7C84.348 193.504 84.8376 193.406 85.2294 193.21L85.1315 193.406Z" fill="#420600"/>
<path d="M204.222 137.626C204.222 133.999 204.222 130.47 204.222 126.843C207.258 126.843 210.294 126.843 213.232 126.843C213.428 130.372 213.232 133.803 212.938 137.332C210 137.92 207.16 138.802 204.222 137.626Z" fill="#420600"/>
<path d="M201.382 126.843C201.382 130.47 201.382 133.999 201.382 137.626C198.542 138.606 195.701 138.606 192.861 137.626C192.861 134.195 192.861 130.666 192.861 127.235C195.701 127.137 198.542 127.039 201.382 126.843Z" fill="#420800"/>
<path d="M189.923 127.529C189.923 130.862 189.923 134.195 189.923 137.626C187.083 138.606 184.243 138.606 181.403 137.626C181.403 134.293 181.109 130.96 181.599 127.529C184.439 127.529 187.279 127.529 190.021 127.529H189.923Z" fill="#430700"/>
<path d="M166.908 127.627C166.908 130.96 166.908 134.293 166.908 137.626C164.068 138.606 161.228 138.704 158.486 137.626C157.996 134.293 158.486 130.96 158.192 127.725C161.13 127.725 164.068 127.725 167.006 127.725L166.908 127.627Z" fill="#420600"/>
<path d="M169.65 137.626C169.65 134.293 169.65 130.96 169.65 127.627C172.393 127.627 175.037 127.627 177.779 127.627C178.269 130.96 177.975 134.293 177.975 137.724C175.233 138.704 172.491 138.704 169.748 137.724L169.65 137.626Z" fill="#420600"/>
<path d="M134.002 136.94C133.904 134.195 133.708 131.45 133.61 128.803C133.61 128.215 133.316 127.529 134.198 127.137C136.548 127.137 138.899 127.137 141.249 127.235C141.249 129.882 141.249 132.528 141.347 135.175C141.347 136.548 141.053 137.136 139.584 136.94C138.996 136.842 138.311 136.94 137.723 136.94C136.45 137.626 135.275 137.724 134.002 136.94Z" fill="#420600"/>
<path d="M131.847 126.843C131.847 130.176 132.141 133.509 131.749 136.842C129.986 137.724 128.322 137.724 126.559 136.842C125.775 134.979 126.461 133.117 126.265 131.156C126.167 129.783 126.265 128.509 126.265 127.137C128.126 127.039 129.986 126.941 131.945 126.843H131.847Z" fill="#430700"/>
<path d="M95.023 248.205C96.2962 249.872 96.1983 251.636 96.59 253.205C98.8426 262.518 102.858 271.047 108.93 278.497C113.141 283.693 118.136 288.104 124.306 290.947C124.698 291.143 125.089 291.339 125.481 291.535C126.167 291.829 126.558 292.417 126.167 293.104C125.873 293.79 125.089 293.594 124.6 293.398C123.327 292.81 122.053 292.221 120.78 291.535C112.652 286.83 106.677 280.066 101.977 272.027C98.3529 265.753 95.9045 258.989 94.7293 251.734C94.5334 250.754 94.5334 249.676 94.9251 248.303L95.023 248.205Z" fill="#F48F00"/>
<path d="M73.0854 239.088C73.5751 229.285 76.3173 219.286 80.1368 209.581C81.41 206.248 82.977 203.013 85.0336 200.072C85.5233 199.484 85.9151 198.798 86.5027 198.307C87.0903 197.817 87.6779 196.837 88.5593 197.523C89.2449 198.111 88.7552 199.288 88.3635 199.778C81.3121 208.601 78.7658 219.188 76.1215 229.775C74.9462 234.481 74.4566 239.284 74.6524 244.186C74.6524 244.676 74.9462 245.558 74.3586 245.755C73.4772 245.951 73.5751 244.97 73.3792 244.382C72.8896 242.814 73.3793 241.245 73.0854 238.892V239.088Z" fill="#F58F00"/>
<path d="M130.084 296.143C130.378 298.005 129.594 299.966 129.692 302.025C129.692 302.613 129.496 303.201 128.811 303.299C127.929 303.299 127.734 302.711 127.832 301.927C128.027 298.888 128.321 295.849 128.615 292.81C128.615 292.319 128.909 291.927 129.496 292.025C129.888 292.025 130.084 292.515 130.084 292.908C130.084 293.888 130.084 294.966 130.084 296.241V296.143Z" fill="#ECB639"/>
<path d="M170.63 343.786C163.774 344.08 156.919 343.688 150.063 343.296C144.872 343.1 139.584 342.806 134.491 341.531C133.708 341.335 133.022 341.139 132.337 340.649C131.651 340.159 130.868 339.963 130.378 340.747C129.692 341.727 130.378 342.414 131.161 342.708C132.924 343.59 134.883 344.08 136.842 344.472C142.228 345.551 147.713 345.747 153.197 345.943C161.62 346.139 170.042 346.727 178.465 346.433C188.062 346.041 197.562 345.649 207.16 344.668C213.722 343.982 220.185 343.394 226.649 341.923C227.726 341.629 228.902 341.433 229.489 340.551C230.469 338.982 231.35 339.473 232.525 340.159C233.798 340.943 235.072 341.629 236.345 342.414C237.618 343.198 237.618 344.178 236.345 345.158C235.463 345.943 234.386 346.433 233.309 346.825C227.726 349.08 221.752 350.06 215.974 351.04C207.845 352.511 199.619 352.707 191.49 353.099C182.578 353.491 173.568 353.589 164.656 353.295C154.862 352.903 145.068 352.511 135.275 351.629C128.517 350.942 121.857 349.766 115.394 348.099C113.729 347.707 112.26 347.021 110.791 346.139C108.636 344.864 108.244 343.002 109.713 340.943C110.889 339.375 112.358 338.198 114.12 337.414C115.785 336.728 117.548 336.238 119.017 335.355C120.976 334.179 122.837 334.277 124.796 334.767C132.532 336.63 140.367 338.198 148.202 339.473C150.553 339.865 152.903 340.159 155.254 340.159C163.872 340.159 172.392 340.257 181.011 340.061C186.006 339.963 190.902 339.375 195.897 338.786C199.717 338.296 203.536 338.198 207.356 337.904C212.253 337.414 217.247 336.826 222.144 336.434C224.201 336.238 226.062 337.022 227.726 338.1C228.804 338.786 228.02 339.375 227.237 339.669C224.69 340.551 221.948 341.041 219.206 341.433C208.041 342.904 196.779 343.59 185.418 343.884C180.423 343.982 175.429 343.982 170.434 344.08L170.63 343.786Z" fill="#AE4A2A"/>
<path d="M133.61 302.613C133.904 302.809 134.197 302.907 134.393 303.103C135.862 303.985 136.254 303.495 136.254 301.829C136.254 298.594 135.862 295.359 136.548 292.222C137.038 291.829 137.527 291.927 138.017 292.222C139.976 293.202 142.326 293.104 143.991 294.77C144.285 295.162 144.383 295.653 144.383 296.143C143.697 296.829 143.991 297.711 143.991 298.495C143.991 307.808 143.991 317.22 143.991 326.533C143.991 328.101 143.501 328.297 142.13 328.101C137.821 327.513 137.821 327.513 137.821 323.199C137.821 315.945 137.821 308.691 137.821 301.436C137.821 298.79 137.527 296.045 137.331 293.104C136.45 293.888 136.744 294.672 136.744 295.26C136.744 302.613 136.744 309.867 136.646 317.22C136.646 319.866 136.45 322.611 136.352 325.258C136.352 325.846 136.45 326.533 135.569 326.533C134.883 326.533 134.002 326.533 133.708 325.552C133.708 325.356 133.708 325.062 133.708 324.768C133.708 317.416 133.708 310.063 133.708 302.711L133.61 302.613Z" fill="#AE4A2A"/>
<path d="M188.846 298.005C188.846 300.652 188.846 303.299 188.846 305.946C188.846 309.083 188.258 308.789 191.784 308.789C192.176 315.357 191.294 321.827 191.49 328.395C191.49 330.258 190.119 329.571 189.335 329.767C188.062 330.062 188.454 328.983 188.454 328.395C188.552 324.572 188.454 320.749 188.65 316.925C188.846 311.534 188.552 306.044 188.454 300.652C188.454 300.162 188.454 299.574 187.866 299.574C187.377 299.574 187.279 300.162 187.279 300.554C187.279 301.338 187.279 302.221 187.279 303.005C187.181 311.436 186.691 319.866 186.887 328.395C186.887 331.336 184.634 329.964 183.459 330.258C181.892 330.748 182.284 329.179 182.284 328.395C182.284 319.768 182.284 311.24 182.284 302.613C182.284 301.632 182.578 300.554 181.207 300.064C181.207 299.574 181.109 299.182 181.5 298.79C183.851 297.613 186.299 297.417 188.846 298.005Z" fill="#AE4A2A"/>
<path d="M156.821 297.515C156.821 297.907 156.821 298.299 156.919 298.691C156.037 298.79 156.135 299.574 156.135 300.162C156.135 308.593 156.135 317.023 156.135 325.454C156.135 325.65 156.135 325.846 156.135 326.042C156.135 327.219 157.114 329.277 156.037 329.473C154.274 329.865 152.218 329.473 150.455 328.983C149.965 328.787 150.063 328.199 150.063 327.807C150.063 326.434 150.063 325.16 150.063 323.787C149.965 317.808 149.867 311.828 149.573 305.75C149.573 303.593 149.182 301.436 149.28 299.28C149.28 298.593 149.084 298.201 148.496 297.907C148.496 297.319 148.496 296.633 148.496 296.045C148.692 295.849 148.986 295.554 149.28 295.653C151.826 296.045 154.47 296.143 156.821 297.515Z" fill="#AE4A2A"/>
<path d="M200.402 295.653C200.892 296.241 200.696 297.025 200.696 297.711C200.304 297.221 199.815 296.535 199.423 297.711C199.227 298.299 199.227 298.986 199.227 299.574C199.227 308.495 199.227 317.416 199.227 326.336C199.227 328.003 199.031 328.885 196.974 328.983C192.959 329.179 192.861 329.375 193.057 325.356C193.253 317.318 193.449 309.377 193.351 301.338C193.351 300.554 193.84 299.378 192.273 299.378C192.273 298.692 192.273 298.005 192.273 297.319C194.82 296.241 197.464 295.358 200.304 295.751L200.402 295.653Z" fill="#AE4A2A"/>
<path d="M203.928 296.143C203.928 295.555 203.928 295.064 203.928 294.476C206.083 292.908 208.531 291.927 211.175 291.829C211.665 292.614 211.371 293.398 211.469 294.182C210 293.692 210.392 294.868 210.392 295.457C210.392 299.084 210.392 302.711 210.392 306.436C210.49 312.416 210.098 318.298 210.098 324.278C210.098 325.944 209.511 326.532 207.944 326.925C205.005 327.513 205.005 327.611 205.005 324.67C205.005 315.749 205.005 306.73 205.005 297.809C205.005 297.221 205.691 295.751 203.928 296.241V296.143Z" fill="#AE4A2A"/>
<path d="M170.434 301.534C170.434 300.652 170.434 299.77 170.434 298.888C170.728 298.495 171.12 298.495 171.609 298.495C173.274 298.789 174.939 298.789 176.506 298.495C177.094 298.495 177.583 298.495 177.975 298.789C177.975 299.28 177.975 299.77 177.975 300.358C176.8 300.456 177.29 301.338 177.192 302.025C176.702 310.749 176.8 319.572 176.898 328.297C176.898 329.963 176.604 330.552 174.841 330.454C170.826 330.258 171.511 330.944 171.511 327.121C171.511 319.474 171.511 311.73 171.511 304.083C171.511 303.103 171.805 301.926 170.434 301.632V301.534Z" fill="#AE4A2A"/>
<path d="M166.517 298.691C166.517 299.182 166.517 299.672 166.517 300.26C165.635 302.417 165.831 304.769 165.831 307.024C165.831 314.082 165.439 321.043 166.027 328.101C166.027 329.179 166.517 330.454 164.558 330.454C161.228 330.454 161.13 330.454 161.13 328.199C161.13 321.141 161.13 314.18 161.13 307.122C161.13 305.259 161.13 303.299 160.347 301.534C160.347 300.456 160.347 299.28 160.347 298.201C162.501 297.613 164.558 297.907 166.517 298.887V298.691Z" fill="#AE4A2A"/>
<path d="M211.567 304.181C212.645 303.789 213.82 303.397 214.897 303.005C215.191 310.063 214.309 317.023 214.505 324.082C214.505 324.964 212.645 326.238 211.861 326.042C211.273 325.846 211.469 325.356 211.469 324.866C211.469 318.004 211.469 311.043 211.469 304.181H211.567Z" fill="#AE4A2A"/>
<path d="M200.794 307.22C201.773 306.926 202.753 306.73 203.732 306.436C203.732 313.102 203.732 319.768 203.83 326.434C203.83 328.297 202.557 328.101 201.48 328.199C200.304 328.199 200.794 327.219 200.794 326.63C200.794 320.16 200.794 313.69 200.794 307.22Z" fill="#AE4928"/>
<path d="M145.166 306.436C146.146 306.73 147.125 306.926 148.104 307.22C148.3 313.886 148.398 320.553 148.594 327.121C148.594 328.101 148.594 328.885 147.223 328.787C146.048 328.787 145.362 328.493 145.46 327.121C145.46 326.042 145.46 324.964 145.46 323.886C145.656 318.102 145.068 312.22 145.166 306.436Z" fill="#AE4A2A"/>
<path d="M167.398 309.573C168.279 309.573 169.161 309.573 170.042 309.573C170.042 316.043 170.042 322.513 170.042 328.983C170.042 329.866 169.944 330.454 168.769 330.454C167.692 330.454 167.3 330.062 167.3 328.983C167.3 322.513 167.3 316.043 167.3 309.573H167.398Z" fill="#AE492A"/>
<path d="M178.562 309.573C179.346 309.573 180.031 309.573 180.815 309.573C180.815 316.043 180.815 322.513 180.815 328.983C180.815 329.571 180.913 330.356 179.933 330.356C178.856 330.356 178.856 329.669 178.954 328.983C179.15 322.513 178.464 316.043 178.562 309.573Z" fill="#AE4928"/>
<path d="M157.8 308.789C158.584 308.691 159.269 309.279 159.955 308.789C159.857 315.357 159.759 321.925 159.661 328.591C159.661 329.179 159.857 329.963 158.779 329.963C157.702 329.963 157.702 329.375 157.702 328.591C157.702 322.023 157.702 315.357 157.702 308.789H157.8Z" fill="#AE4928"/>
<path d="M255.051 240.951C254.561 253.499 252.112 264.577 245.747 274.38C242.613 279.281 238.597 283.203 233.407 285.947C232.525 286.438 231.644 286.634 230.664 286.536C230.077 286.536 229.489 286.536 229.293 285.751C229.097 285.163 229.293 284.575 229.783 284.183C231.154 283.007 232.525 281.928 233.994 280.85C238.793 277.125 241.829 272.125 244.278 266.733C247.509 259.479 249.174 251.931 249.762 243.99C250.252 238.5 250.056 233.109 249.174 227.815C248.979 226.638 249.174 225.56 250.154 225.266C251.329 224.874 252.015 225.854 252.406 226.835C253.582 229.677 254.267 232.716 254.561 235.755C254.757 237.814 255.246 239.971 255.148 241.049L255.051 240.951Z" fill="#F58F00"/>
<path d="M218.031 296.633C218.031 295.359 218.031 294.084 218.031 292.81C218.031 292.32 218.031 291.633 218.716 291.633C219.304 291.633 219.304 292.32 219.304 292.614C219.696 295.358 219.5 298.103 219.5 300.848C219.5 301.338 219.206 301.731 218.716 301.731C218.129 301.731 218.031 301.24 218.031 300.75C218.031 299.378 218.031 297.907 218.031 296.535V296.633Z" fill="#EDB53A"/>
<path d="M119.018 136.548C119.018 148.311 115.198 158.899 108.538 168.604C105.6 172.917 103.544 177.427 102.858 182.622C102.76 183.603 102.564 184.583 101.389 184.485C100.214 184.387 100.41 183.309 100.508 182.524C100.802 178.309 102.271 174.388 104.229 170.761C107.657 164.193 111.575 157.919 113.729 150.762C115.982 143.312 116.373 135.763 115.59 128.019C115.1 123.215 114.023 118.608 111.574 114.393C109.42 110.765 106.188 108.707 102.173 107.923C98.6469 107.236 94.1419 110.863 93.2604 114.981C92.2811 119.882 92.1831 124.882 92.8687 129.882C93.1625 131.842 94.1419 133.607 96.1006 134.293C98.549 135.077 102.466 133.803 103.642 132.038C105.111 129.685 105.894 127.137 105.111 124.392C104.817 123.215 104.229 122.039 102.858 121.745C101.781 121.451 100.899 122.039 100.41 122.823C99.6263 124 99.1366 125.372 99.5284 126.843C99.5284 127.039 99.9201 127.333 100.214 127.431C100.704 127.529 100.802 127.137 100.997 126.745C101.389 125.862 101.389 124.294 102.858 124.98C104.131 125.568 103.446 126.941 103.054 127.921C102.564 129.195 101.585 129.882 100.214 129.784C98.8428 129.685 97.5696 129.195 97.1779 127.627C96.5903 124.98 96.4923 122.235 98.549 120.078C101.389 116.843 102.466 117.137 105.209 120.176C108.441 123.902 108.734 128.607 107.069 133.215C105.894 136.352 103.054 137.136 100.214 137.822C95.415 139.096 93.0646 136.254 91.3017 133.411C90.3224 131.842 89.6368 129.98 89.5389 128.215C89.245 122.725 88.7554 117.137 91.1058 111.942C92.6728 108.315 95.1212 105.472 99.3325 104.589C100.802 104.295 102.271 104.589 103.642 104.982C109.322 106.55 113.044 110.569 115.884 115.569C117.549 118.608 117.94 121.843 118.234 125.078C118.626 128.999 119.116 132.822 119.018 136.744V136.548Z" fill="#420600"/>
<path d="M104.033 165.859C103.837 166.349 103.641 166.839 103.348 167.231C99.4301 174.584 95.6106 181.936 91.6932 189.288C91.3014 190.073 90.9097 191.641 89.9303 191.151C88.951 190.661 89.9303 189.485 90.3221 188.7C94.0437 181.25 97.7652 173.799 101.487 166.349C101.683 165.859 101.976 165.369 102.368 165.173C103.152 164.683 103.641 165.075 103.935 165.859H104.033Z" fill="#F48F00"/>
<path d="M239.087 194.288C236.051 188.994 234.582 183.211 233.113 177.427C230.371 167.231 228.804 156.742 227.433 146.253C227.139 143.704 227.139 141.155 227.433 138.606C228.902 131.548 229.881 124.294 234.092 118.118C238.5 111.648 243.984 106.354 252.015 104.589C260.927 102.629 265.824 105.472 268.762 114.098C268.86 114.393 269.056 114.687 269.154 114.981C270.329 119 269.839 122.921 267.782 126.548C267.293 127.431 266.803 128.705 265.628 128.215C264.453 127.725 264.942 126.45 265.138 125.47C265.726 122.039 266.607 118.706 265.726 115.275C264.942 112.04 263.081 109.687 260.339 107.824C259.654 107.334 258.87 107.236 257.989 107.138C252.602 107.138 248.097 109.099 243.984 112.53C237.324 118.118 234.092 125.568 231.84 133.803C230.175 139.979 230.371 146.057 230.958 152.331C231.644 159.683 233.113 166.839 235.17 173.898C236.933 180.074 238.5 186.348 240.556 192.426C241.046 193.994 240.752 194.582 239.087 194.19V194.288Z" fill="#420600"/>
<path d="M221.557 128.411C222.536 128.411 223.515 128.411 224.397 128.411C224.789 128.411 225.18 128.411 225.278 128.999C225.278 129.489 224.985 129.881 224.495 129.881C222.34 129.881 220.284 129.881 218.129 129.881C217.737 129.881 217.346 129.587 217.443 129.097C217.443 128.705 217.835 128.411 218.227 128.411C219.304 128.411 220.382 128.411 221.459 128.411H221.557Z" fill="#AC4829"/>
<path d="M151.238 130.372C149.965 130.274 148.496 130.078 147.027 129.98C146.635 129.98 146.146 129.882 146.146 129.391C146.146 128.901 146.537 128.803 146.929 128.803C148.888 128.803 150.846 128.803 152.805 128.803C153.295 128.803 153.882 128.803 153.882 129.587C153.882 130.274 153.393 130.372 152.903 130.372C152.413 130.372 152.022 130.372 151.238 130.372Z" fill="#AD4929"/>
<path d="M208.727 128.313C209.51 128.313 210.098 128.313 210.783 128.313C211.273 128.313 211.861 128.313 211.861 129.097C211.861 129.783 211.469 130.078 210.979 130.078C209.314 130.078 207.649 129.979 206.082 129.881C205.887 129.881 205.593 129.587 205.593 129.391C205.593 128.999 205.887 128.607 206.278 128.607C207.16 128.509 208.041 128.411 208.825 128.411L208.727 128.313Z" fill="#AE492A"/>
<path d="M195.995 130.274C195.604 130.274 195.212 130.274 194.722 130.176C194.33 130.078 193.841 129.881 193.841 129.293C193.841 128.803 194.33 128.803 194.722 128.705C196.191 128.313 197.66 128.313 199.031 128.313C199.619 128.313 200.109 128.509 200.109 129.097C200.109 129.685 199.619 129.783 199.227 129.881C198.15 129.979 197.073 130.078 195.897 130.176L195.995 130.274Z" fill="#AB4728"/>
<path d="M185.81 130.47C184.831 129.98 182.97 131.058 182.97 129.587C182.97 128.215 184.733 128.803 185.614 128.803C186.691 128.803 188.552 127.921 188.552 129.587C188.552 131.058 186.593 129.783 185.712 130.372L185.81 130.47Z" fill="#AD4929"/>
<path d="M162.893 128.803C163.676 128.803 164.46 128.803 165.145 128.803C165.733 128.803 166.125 129.097 166.125 129.784C166.125 130.274 165.733 130.666 165.243 130.666C163.578 130.568 162.011 130.372 160.346 130.176C160.053 130.176 159.759 129.882 159.759 129.489C159.759 129.097 160.053 128.901 160.346 128.901C161.13 128.901 162.011 128.901 162.795 128.901L162.893 128.803Z" fill="#AC4829"/>
<path d="M175.233 130.96C174.058 130.372 172.687 130.96 171.511 130.47C171.12 130.274 170.532 130.176 170.63 129.587C170.63 129.195 171.218 129.097 171.609 129.097C172.883 129.097 174.156 129.097 175.429 129.097C176.016 129.097 176.604 129.195 176.604 129.979C176.604 130.764 176.016 131.058 175.233 130.96Z" fill="#AD4929"/>
<path d="M137.919 129.98C136.646 129.98 134.883 130.078 134.883 128.999C134.883 127.725 136.646 128.705 137.626 128.411C137.626 128.411 137.723 128.411 137.821 128.411C138.605 128.607 139.976 127.921 139.976 129.195C139.976 130.568 138.507 129.587 137.919 129.98Z" fill="#AD4929"/>
<path d="M128.811 128.019C129.496 128.215 130.77 127.627 130.672 128.901C130.672 129.783 129.594 129.587 129.007 129.587C128.223 129.587 127.048 129.881 127.146 128.705C127.146 127.725 128.223 128.313 128.811 128.019Z" fill="#AD4929"/>
<path d="M141.641 309.181C141.641 310.357 141.641 311.436 141.641 312.612C141.641 313.298 141.445 313.984 140.661 313.886C139.976 313.886 139.78 313.298 139.78 312.71C139.78 307.808 139.78 303.005 139.78 298.103C139.78 297.515 139.78 296.829 140.661 296.927C141.445 296.927 141.347 297.613 141.347 298.103C141.347 301.828 141.347 305.456 141.347 309.181C141.445 309.181 141.641 309.181 141.739 309.181H141.641Z" fill="#EDB73B"/>
<path d="M185.027 308.691C185.125 310.259 184.831 312.122 185.222 313.886C185.418 314.573 185.124 315.259 184.243 315.259C183.46 315.259 183.264 314.573 183.264 313.886C183.46 310.553 183.655 307.318 183.851 303.985C183.851 303.495 183.851 302.809 184.439 302.711C185.124 302.711 184.929 303.397 185.027 303.887C185.027 305.358 185.027 306.828 185.027 308.593V308.691Z" fill="#ECB639"/>
<path d="M153.883 303.593C153.393 306.73 153.589 310.455 153.491 314.082C153.491 314.769 153.491 315.749 152.609 315.651C151.63 315.651 151.63 314.671 151.728 313.886C152.218 309.965 151.728 305.946 152.413 302.024C152.511 301.338 152.022 300.162 153.197 300.162C154.274 300.162 153.883 301.338 153.98 302.024C153.98 302.417 153.98 302.809 153.98 303.593H153.883Z" fill="#ECB639"/>
<path d="M196.974 306.534C196.974 308.201 196.974 309.867 196.974 311.534C196.974 312.122 196.779 312.612 196.093 312.612C195.505 312.612 195.505 312.122 195.31 311.632C194.624 309.475 195.31 307.318 195.31 305.162C195.31 303.985 195.31 302.809 195.31 301.73C195.31 301.24 195.407 300.652 196.093 300.652C196.779 300.652 196.877 301.24 196.877 301.828C196.877 303.397 196.877 305.063 196.877 306.632L196.974 306.534Z" fill="#EDB73B"/>
<path d="M208.433 303.985C208.433 305.75 208.433 307.416 208.433 309.181C208.433 309.867 208.433 310.749 207.454 310.651C206.67 310.651 206.572 309.769 206.572 309.181C207.062 305.75 206.67 302.319 206.866 298.888C206.866 298.299 206.866 297.417 207.747 297.515C208.531 297.515 208.433 298.299 208.433 298.888C208.433 300.652 208.433 302.319 208.433 304.083V303.985Z" fill="#EDB73B"/>
<path d="M175.037 310.161C175.037 312.318 175.037 314.376 175.037 316.533C175.037 317.121 175.037 317.808 174.253 317.808C173.47 317.808 173.568 317.023 173.568 316.533C173.372 312.416 173.96 308.2 173.96 304.083C173.96 303.593 173.96 303.103 174.645 303.201C175.135 303.201 175.135 303.789 175.135 304.083C175.135 306.142 175.135 308.2 175.135 310.259L175.037 310.161Z" fill="#ECB639"/>
<path d="M171.707 298.986C173.274 298.986 174.841 298.986 176.31 298.986C174.743 299.28 173.176 299.28 171.707 298.986Z" fill="#F58F00"/>
<path d="M164.166 309.377C164.166 311.239 164.166 313.2 164.166 315.063C164.166 315.651 164.166 316.533 163.187 316.435C162.305 316.435 162.305 315.553 162.403 314.965C162.893 311.239 162.599 307.612 162.697 303.887C162.697 303.299 162.795 302.515 163.48 302.515C164.362 302.515 164.264 303.299 164.264 303.985C164.264 305.75 164.264 307.514 164.264 309.377H164.166Z" fill="#ECB43A"/>
<path d="M42.1376 425.25C43.2149 419.466 45.3695 414.564 47.3282 409.565C50.6581 401.33 53.792 392.9 58.1012 385.057C61.3331 379.175 64.2712 373.097 67.1113 367.019C67.699 365.745 68.2866 364.274 68.6783 362.902C69.168 361.137 70.2453 360.353 71.7144 359.765C73.3793 359.079 74.6524 358 75.5339 356.53C75.9256 355.844 76.1215 355.158 76.3173 354.275C76.7091 351.53 78.1781 349.178 79.941 347.119C80.1369 346.923 80.6265 346.727 80.9204 346.825C82.6832 347.511 83.1729 346.139 84.0543 345.06C86.3068 342.217 87.678 338.884 88.8532 335.453C89.0491 334.963 89.2449 334.473 89.5387 333.983C109.322 301.926 129.203 269.968 148.986 237.912C177.387 191.935 205.789 145.861 234.19 99.8838C243.69 84.4929 253.19 69.2 263.18 54.1031C269.937 43.9079 277.576 34.3988 285.019 24.6937C287.37 21.5567 289.133 18.3217 290.308 14.5965C290.993 12.2437 292.267 11.2634 294.813 11.1654C297.555 11.1654 300.003 10.3811 302.256 8.81262C302.746 8.4205 303.333 8.22445 303.921 8.61658C304.509 9.10674 304.704 9.59689 304.607 10.4792C303.823 14.1063 302.06 17.2433 299.318 19.6941C298.241 20.6744 297.653 21.7528 297.359 23.1252C296.967 25.576 295.596 27.7327 294.323 29.8894C289.328 38.026 284.53 46.1626 279.535 54.2992C244.474 111.844 209.119 169.094 173.764 226.442C156.821 253.989 139.878 281.536 122.837 309.083C115.786 320.552 108.734 332.022 101.683 343.492C100.997 344.668 100.41 345.844 98.7447 345.844C98.0592 345.844 97.4716 346.629 97.0798 347.315C95.4149 350.746 93.6521 354.177 93.6521 358.196C93.6521 360.157 92.6727 362.118 91.3016 363.686C89.4408 365.843 88.3635 368.392 87.9717 371.137C87.6779 373.097 86.9924 374.764 85.9151 376.332C79.0596 386.528 72.3999 396.919 64.8588 406.82C59.3744 414.074 53.6941 421.035 47.3282 427.505C46.0551 428.779 44.9778 430.151 43.4108 431.132C42.9211 431.524 42.4314 431.622 41.8438 431.328C41.1583 430.936 41.6479 430.544 41.6479 430.053C41.6479 428.289 41.8438 426.622 42.1376 425.348V425.25Z" fill="#420600"/>
<path d="M77.3948 355.942C81.2143 357.51 84.2503 360.059 87.2864 362.608C88.2657 363.392 88.6575 364.176 87.4822 365.157C86.6008 365.941 86.4049 367.117 86.2091 368.196C86.0132 370.352 85.3276 372.215 84.0545 373.881C75.534 385.253 67.9929 397.311 59.7663 408.879C55.4571 414.859 50.5603 420.446 45.5656 425.936C45.2717 426.23 44.9779 426.524 44.5862 426.72C44.2924 427.014 43.9006 427.21 43.5089 426.916C43.1171 426.622 43.4109 426.23 43.4109 425.936C43.7048 422.603 45.0759 419.466 46.2511 416.329C48.2098 411.329 50.1686 406.232 52.0293 401.134C53.7922 396.331 56.3385 392.017 58.4931 387.508C62.1168 379.959 65.9363 372.607 69.462 365.059C70.3434 363.196 71.6166 361.824 73.3794 360.941C75.6319 359.863 76.9051 358.098 77.4927 355.746L77.3948 355.942Z" fill="#F58F00"/>
<path d="M246.433 89.5906C245.943 90.3748 245.551 91.1591 245.159 91.8453C233.701 108.903 223.222 126.646 212.351 144.096C190.021 179.877 167.79 215.757 145.558 251.538C144.971 252.421 144.481 253.303 143.893 254.283C143.502 254.871 143.208 255.067 142.522 254.675C141.543 254.185 142.229 253.695 142.522 253.303C150.651 240.363 158.78 227.423 166.811 214.483C190.217 176.937 213.722 139.292 237.129 101.746C239.479 97.9232 241.536 94.002 244.278 90.3748C244.67 89.8846 245.061 89.4925 245.453 89.1004C245.649 88.9043 246.041 88.8063 246.237 89.1004C246.335 89.2965 246.335 89.4925 246.433 89.6886V89.5906Z" fill="#FF7C00"/>
<path d="M288.741 23.7135C290.21 24.2037 291.385 24.5958 292.365 25.38C293.246 26.1643 293.736 27.0466 292.952 28.223C289.133 34.1048 285.607 40.2808 281.983 46.3588C280.025 49.5938 278.066 52.9269 276.205 56.1619C275.52 57.3383 274.932 57.6324 273.561 56.7501C272.092 55.7698 270.329 55.2796 268.664 54.5934C266.901 53.8091 266.607 53.1229 267.685 51.4564C273.855 42.3395 280.221 33.4186 286.978 24.7919C287.468 24.1056 288.055 23.5174 288.741 23.6155V23.7135Z" fill="#AE4A2A"/>
<path d="M135.373 267.91C134.296 269.772 133.218 271.733 132.043 273.497C119.703 293.398 107.363 313.396 95.0232 333.297C94.5335 333.983 94.0438 334.865 93.0645 334.277C92.0851 333.689 92.5748 332.904 93.0645 332.12C106.286 310.945 119.409 289.771 133.022 268.89C133.414 268.302 133.806 267.714 134.296 267.125C134.589 266.733 134.883 266.439 135.275 266.733C135.765 267.027 135.373 267.517 135.373 267.91Z" fill="#FF7C00"/>
<path d="M254.659 90.8649C252.798 88.022 250.448 86.2574 247.314 85.8653C246.334 85.7673 246.432 85.2771 246.824 84.4929C248.489 81.846 250.056 79.2972 251.525 76.5523C252.015 75.67 252.504 75.572 253.386 75.67C256.422 76.2582 258.576 78.0228 260.143 80.6696C260.339 81.0618 260.437 81.3558 260.143 81.846C258.283 84.7869 256.52 87.7279 254.561 90.8649H254.659Z" fill="#0C0000"/>
<path d="M91.1058 353.785C90.2244 353.393 89.8327 352.609 89.245 352.02C87.9719 350.746 86.6987 349.57 84.9358 348.981C83.7606 348.589 83.7606 347.903 84.5441 347.119C86.5028 345.158 88.4615 343.1 89.0492 340.257C89.1471 339.767 89.4409 339.766 89.8327 339.963C90.0285 339.963 90.1265 340.159 90.3223 340.257C91.8893 341.139 93.848 341.727 94.6315 343.198C95.5129 344.864 93.5542 346.335 93.0645 348.001C92.4769 349.864 91.7914 351.726 91.1058 353.687V353.785Z" fill="#EDB739"/>
<path d="M302.256 10.7732C301.375 14.1063 299.808 16.1649 298.045 18.2236C296.772 19.6941 295.694 21.1645 295.107 23.0271C294.911 23.7133 294.519 23.8114 293.931 23.5173C292.658 22.8311 291.385 22.0468 290.014 21.5566C289.426 21.3606 289.524 21.0665 289.818 20.6744C291.091 18.5177 291.973 16.263 292.952 13.9102C293.246 13.322 293.54 13.0279 294.127 13.0279C296.869 13.0279 299.612 12.5378 302.354 10.8712L302.256 10.7732Z" fill="#EEB83E"/>
<path d="M142.424 257.518C145.069 258.106 146.832 259.773 148.301 262.028C148.496 262.42 148.79 262.91 148.496 263.204C147.419 264.478 146.342 265.753 145.362 267.223C145.069 267.615 144.775 267.223 144.579 266.929C142.914 264.969 140.857 263.4 138.409 262.714C137.626 262.518 137.43 262.126 137.919 261.439C138.605 260.263 139.29 259.087 139.976 257.91C140.662 256.832 141.543 257.616 142.424 257.616V257.518Z" fill="#0C0000"/>
<path d="M88.8531 361.432C87.1882 360.059 85.7192 358.687 84.2501 357.412C82.6831 356.04 80.9203 354.765 78.8636 354.079C78.1781 353.785 78.0801 353.589 78.3739 353.001C79.0595 351.726 79.7451 350.452 80.4306 349.276C83.5646 351.334 87.0903 352.903 89.5387 355.844C90.1263 356.628 90.4201 357.216 89.8325 358C89.1469 358.981 89.2449 360.157 88.8531 361.53V361.432Z" fill="#EDB739"/>
<path d="M256.814 73.0232C256.226 72.5331 256.422 72.0429 256.814 71.5528C257.695 70.0823 258.674 68.6119 259.654 67.0434C261.613 64.0044 263.473 60.9654 265.432 57.9264C265.726 57.4363 266.118 56.554 266.901 56.9461C267.881 57.5343 267.097 58.2205 266.705 58.7107C263.865 63.0241 261.025 67.4355 258.185 71.7489C257.891 72.239 257.597 72.7292 256.912 72.9252L256.814 73.0232Z" fill="#FF7B00"/>
<path d="M68.8741 371.823C69.9514 372.215 69.2659 372.999 69.2659 373.587C69.2659 374.274 68.9721 375.156 69.6576 375.548C70.539 375.94 71.2246 375.156 71.7143 374.568C72.4978 373.587 73.0854 372.509 73.673 371.431C75.5338 368.196 77.3946 364.863 79.2554 361.628C79.5492 361.039 79.843 360.059 80.7244 360.451C81.8017 360.941 81.1161 361.726 80.7244 362.412C78.3739 366.921 76.1214 371.627 73.5751 376.038C72.4978 377.901 71.4205 379.861 71.2246 382.116C71.2246 382.9 71.2246 383.587 72.0081 383.881C72.8895 384.175 72.7916 383.194 73.0854 382.802C73.3792 382.214 73.673 381.528 74.5544 382.018C75.24 382.41 75.142 383.096 74.7503 383.783C73.8689 385.547 72.3019 386.724 70.4411 387.214C69.4617 387.508 68.9721 387.9 68.5803 388.684C66.9154 391.919 64.8587 394.762 62.0186 397.017C59.9619 398.683 58.7867 398.683 57.0239 397.605C56.5342 395.939 56.6321 394.468 58.1991 393.39C58.7867 393.39 59.0805 393.684 59.3743 394.076C60.3537 395.35 60.6475 395.448 61.7248 394.174C63.2918 392.507 64.6629 390.743 65.4463 388.586C66.5236 385.841 67.601 383.096 68.7762 380.351C69.07 379.469 69.07 378.979 68.2865 378.391C67.2092 377.607 66.8175 376.528 66.9154 375.254C66.9154 374.568 67.1113 373.881 67.3072 373.195C67.503 372.607 67.7968 372.019 68.6783 372.117L68.8741 371.823Z" fill="#420600"/>
<path d="M58.6891 393.194C57.0241 394.174 57.7097 395.938 57.22 397.311C55.3592 400.742 54.2819 404.467 52.7149 407.996C51.05 411.918 49.483 416.035 47.8181 419.956C47.6223 420.446 47.4264 421.231 46.6429 420.936C45.8594 420.642 46.0553 419.956 46.1532 419.368C46.3491 418.29 47.0347 417.309 47.4264 416.231C51.148 406.82 55.2613 397.507 59.2767 388.194C62.7044 380.155 67.0136 372.509 70.6373 364.568C70.8331 364.078 71.127 363.784 71.5187 363.49C73.6733 362.02 75.8279 360.745 77.2969 358.49C77.4928 358.098 77.8845 357.804 78.3742 358.196C78.8639 358.589 78.9618 359.079 78.668 359.765C77.5907 361.824 75.7299 363.098 73.7712 364.078C72.2042 364.765 71.6166 365.941 70.9311 367.313C70.2455 368.784 69.56 370.352 68.9724 371.823C67.5033 372.509 68.1889 374.175 67.5033 375.254C67.3074 377.607 66.1322 379.567 65.1528 381.724C63.5859 385.057 62.0189 388.39 60.256 391.625C59.8643 392.311 59.6684 393.096 58.6891 393.194Z" fill="#EDB739"/>
<path d="M269.35 52.1425C269.741 50.0838 271.112 48.7114 272.19 47.1429C276.989 40.1827 281.885 33.2224 286.782 26.3602C287.272 25.674 287.664 24.3996 288.643 24.9878C289.427 25.4779 288.545 26.5563 288.055 27.1445C282.277 35.2811 276.597 43.4177 270.525 51.3582C270.329 51.6523 270.133 52.0445 269.35 52.1425Z" fill="#F48E00"/>
<path d="M58.6888 393.194C61.9207 387.704 64.5649 381.92 67.0133 376.038C67.1113 375.744 67.3071 375.548 67.4051 375.254C67.4051 376.626 68.0906 377.509 69.1679 377.999C69.9514 378.391 69.8535 378.587 69.5597 379.273C68.2865 382.41 67.2092 385.547 65.8381 388.586C64.8588 390.939 63.1938 392.9 61.5289 394.762C60.9413 395.448 60.2557 395.35 59.5702 395.154C58.7867 394.958 59.0805 394.37 59.0805 393.88C59.0805 393.488 58.8846 393.194 58.5908 392.998L58.6888 393.194Z" fill="#F48F00"/>
</g>
<defs>
<clipPath id="clip0_255_4">
<rect width="328" height="244" fill="white" transform="translate(-7 460)"/>
</clipPath>
<clipPath id="clip1_255_4">
<rect width="308" height="431" fill="white" transform="translate(3)"/>
</clipPath>
</defs>
</svg>
