<svg width="782" height="706" viewBox="0 0 782 706" fill="none" xmlns="http://www.w3.org/2000/svg">
<g clip-path="url(#clip0_255_3)">
<path d="M602.629 456.26C602.629 456.974 602.376 457.807 602.25 458.52C598.458 477.435 574.698 486.239 554.477 482.551C534.382 478.982 525.409 464.35 529.327 445.435C530.843 438.178 532.486 429.494 537.415 424.497C541.459 425.806 545.125 426.282 546.768 424.854C548.916 422.832 546.768 427.59 538.805 429.256C537.415 429.494 549.042 433.062 554.098 424.854C555.109 423.189 551.949 438.654 554.098 435.561C556.499 432.23 556.499 426.044 558.395 426.044C558.521 426.044 558.648 426.282 558.774 426.282C560.164 427.233 561.681 428.185 563.071 429.256C565.725 431.04 568.379 432.825 571.16 434.728C582.408 442.223 593.403 449.598 602.503 456.379L602.629 456.26Z" stroke="#231F20" stroke-miterlimit="10"/>
<path d="M628.79 478.149C628.537 481.242 622.976 473.51 613.75 465.182C610.591 462.327 606.926 459.353 602.755 456.26C593.782 449.479 582.786 442.222 571.412 434.609C568.631 432.824 565.977 430.921 563.323 429.137C561.807 428.185 560.417 427.233 559.026 426.163C559.026 426.044 558.774 425.925 558.647 425.925C555.74 424.021 552.96 422.118 550.306 420.214C548.916 419.263 547.652 418.311 546.388 417.478C542.596 414.861 539.184 412.363 535.898 409.984C522.754 400.229 514.792 392.972 517.193 389.879C519.847 386.31 531.854 393.21 549.168 404.511C554.856 408.318 561.175 412.482 567.873 417.002C571.033 419.144 574.319 421.285 577.605 423.545C584.935 428.423 592.518 432.943 599.595 437.345C606.926 441.866 613.624 446.267 618.806 450.788C622.092 453.643 624.746 456.617 626.515 459.591C631.191 467.561 629.043 475.413 628.79 477.911V478.149Z" stroke="#231F20" stroke-miterlimit="10"/>
<path d="M559.026 426.282C558.9 426.282 558.773 426.163 558.647 426.044C558.773 426.044 558.9 426.044 559.026 426.282Z" stroke="#231F20" stroke-miterlimit="10"/>
<path d="M623.229 424.497L618.806 450.907C613.624 446.386 606.926 441.985 599.596 437.464C592.518 433.062 584.809 428.542 577.605 423.664C574.319 421.404 571.033 419.263 567.873 417.121C561.175 412.601 554.856 408.318 549.168 404.63L572.676 386.905L623.229 424.497Z" stroke="#231F20" stroke-miterlimit="10"/>
<path d="M546.388 417.597C542.091 418.668 538.047 418.668 534.508 418.192C525.914 417.003 520.985 412.72 524.524 412.72C528.062 412.72 532.739 411.292 535.898 410.222C539.058 412.601 542.596 415.099 546.388 417.716V417.597Z" stroke="#231F20" stroke-miterlimit="10"/>
<path d="M558.647 426.044C556.625 426.044 556.752 432.23 554.35 435.561C552.202 438.654 555.361 423.189 554.35 424.854C549.295 432.944 537.668 429.494 539.058 429.256C547.02 427.709 549.169 422.832 547.02 424.854C545.377 426.282 541.712 425.806 537.668 424.497C529.958 421.999 521.111 416.765 523.386 417.359C528.947 418.787 532.36 418.787 534.508 418.192C537.92 418.668 542.091 418.668 546.388 417.597C547.652 418.549 549.042 419.382 550.306 420.334C552.96 422.118 555.741 424.021 558.647 426.044Z" stroke="#231F20" stroke-miterlimit="10"/>
<path d="M563.323 429.256C562.439 430.088 561.175 431.04 559.784 432.111C558.015 433.419 559.532 427.59 558.9 426.281C560.29 427.233 561.807 428.185 563.197 429.256H563.323Z" stroke="#231F20" stroke-miterlimit="10"/>
<path d="M587.21 452.096L583.924 443.055L590.623 447.695C590.623 447.695 586.452 449.36 587.084 452.096H587.21Z" stroke="#231F20" stroke-miterlimit="10"/>
<path d="M594.288 452.691C594.288 452.691 592.013 453.167 591.254 458.044" stroke="#231F20" stroke-miterlimit="10"/>
<path d="M595.93 463.636C595.93 463.636 590.748 460.543 596.941 456.379" stroke="#231F20" stroke-miterlimit="10"/>
<path d="M588.474 465.42C588.474 465.42 592.392 474.58 602.755 456.26" stroke="#231F20" stroke-miterlimit="10"/>
<path d="M566.357 447.576C566.357 447.576 564.208 436.75 556.12 445.197" stroke="#231F20" stroke-miterlimit="10"/>
<path d="M542.47 441.509C542.47 441.509 538.679 429.612 530.337 440.676" stroke="#231F20" stroke-miterlimit="10"/>
<path d="M537.794 446.267C537.794 446.267 533.876 447.933 533.497 450.312C533.118 452.691 536.404 453.405 537.794 453.881" stroke="#231F20" stroke-miterlimit="10"/>
<path d="M561.68 448.884C561.68 448.884 559.911 451.382 559.532 453.762C559.153 456.141 562.439 456.855 563.829 457.331" stroke="#231F20" stroke-miterlimit="10"/>
<path d="M534.887 452.215C535.167 452.215 535.393 451.416 535.393 450.431C535.393 449.445 535.167 448.646 534.887 448.646C534.608 448.646 534.382 449.445 534.382 450.431C534.382 451.416 534.608 452.215 534.887 452.215Z" stroke="#231F20" stroke-miterlimit="10"/>
<path d="M560.922 455.665C561.201 455.665 561.428 454.866 561.428 453.881C561.428 452.895 561.201 452.096 560.922 452.096C560.643 452.096 560.417 452.895 560.417 453.881C560.417 454.866 560.643 455.665 560.922 455.665Z" stroke="#231F20" stroke-miterlimit="10"/>
<path d="M545.63 453.643C545.63 453.643 547.02 454.714 544.619 456.379C542.218 458.044 536.657 461.256 538.3 464.468C539.943 467.68 549.042 469.346 550.306 465.42C551.57 461.494 550.685 460.067 550.053 459.948" stroke="#231F20" stroke-miterlimit="10"/>
<path d="M551.823 477.792C551.823 477.792 566.61 474.461 569.516 468.632C572.423 462.803 570.148 471.725 570.148 471.725C570.148 471.725 568.505 476.721 562.439 474.223" stroke="#231F20" stroke-miterlimit="10"/>
<path d="M574.066 496.588C573.182 505.63 556.752 512.886 563.577 511.816C563.956 511.816 564.461 511.816 564.84 511.816" stroke="#231F20" stroke-miterlimit="10"/>
<path d="M581.144 483.502C581.144 483.502 594.035 486.476 592.139 493.614C590.243 500.752 575.709 515.027 577.731 518.953C578.742 520.976 576.847 518.953 573.687 516.336" stroke="#231F20" stroke-miterlimit="10"/>
<path d="M570.401 484.573C570.401 484.573 564.461 506.343 560.164 485.525" stroke="#231F20" stroke-miterlimit="10"/>
<path d="M546.261 483.502C546.261 483.502 543.228 482.194 539.31 484.573C535.392 486.952 535.392 495.755 528.062 499.086C520.732 502.417 536.024 504.083 533.37 509.198C530.716 514.314 546.009 499.562 547.02 495.637C548.031 491.711 544.745 512.41 544.745 512.41" stroke="#231F20" stroke-miterlimit="10"/>
<path d="M573.814 516.336C570.022 520.857 554.983 530.968 550.812 528.708C546.768 526.448 523.64 516.217 516.941 513.243C515.804 512.767 515.172 512.41 515.172 512.41C515.172 512.41 512.391 513.005 509.864 512.41C509.737 512.41 509.611 512.41 509.358 512.291C507.21 511.696 505.44 510.864 505.44 510.864C502.66 508.841 509.105 510.15 508.6 509.793L507.715 509.555C504.935 508.603 502.154 507.057 502.533 505.867C502.913 504.797 505.819 504.559 506.957 504.559L506.451 504.321C492.549 499.919 505.187 499.681 505.187 499.681C505.187 499.681 498.236 498.135 500.259 495.874C500.89 495.161 502.154 495.518 502.913 495.399C503.165 495.399 503.418 495.399 503.671 495.399C504.935 495.28 506.199 495.161 507.21 495.042C508.726 495.042 509.99 495.042 511.128 495.042C512.518 495.161 513.655 495.399 514.666 495.756C516.056 496.231 517.068 496.826 517.952 497.302C519.595 498.135 521.112 500.395 522.502 502.893C524.145 505.748 525.662 508.722 526.799 509.555C528.948 511.102 558.016 519.786 558.016 519.786L564.714 511.815C567.747 512.053 571.16 514.314 573.687 516.336H573.814Z" stroke="#231F20" stroke-miterlimit="10"/>
<path d="M526.546 501.704L522.755 502.893" stroke="#231F20" stroke-miterlimit="10"/>
<path d="M502.659 477.554L507.588 495.042C509.105 495.042 510.369 495.042 511.506 495.042C512.896 495.161 514.034 495.399 515.045 495.755C513.402 491.83 510.116 483.026 512.896 482.313C515.677 481.599 510.748 475.056 503.417 472.201" stroke="#231F20" stroke-miterlimit="10"/>
<path d="M495.203 471.368C495.329 471.011 491.537 470.06 490.4 474.699C489.389 479.101 494.065 477.554 496.845 476.008C497.225 475.77 497.477 475.651 497.857 475.413" stroke="#231F20" stroke-miterlimit="10"/>
<path d="M491.538 477.673C491.538 477.673 491.538 481.599 498.868 478.982C506.198 476.365 500.384 476.603 496.972 475.651" stroke="#231F20" stroke-miterlimit="10"/>
<path d="M493.434 479.933C493.434 479.933 493.56 484.692 501.017 482.075C508.473 479.458 502.912 479.933 499.5 478.863" stroke="#231F20" stroke-miterlimit="10"/>
<path d="M495.076 482.432C495.076 482.432 495.076 486.833 502.533 484.335C509.989 481.837 503.038 482.67 501.775 481.837" stroke="#231F20" stroke-miterlimit="10"/>
<path d="M418.235 321C418.235 321 422.279 595.922 347.208 667.418" stroke="#231F20" stroke-miterlimit="10"/>
<path d="M500.258 484.93C501.522 488.499 502.785 491.949 503.923 495.28C505.187 495.161 506.451 495.042 507.462 494.923" stroke="#231F20" stroke-miterlimit="10"/>
<path d="M504.555 478.268C502.912 477.792 499.373 476.365 497.983 475.413C496.087 474.104 494.823 472.796 495.455 471.844" stroke="#231F20" stroke-miterlimit="10"/>
<path d="M503.291 472.32C501.269 471.487 498.994 470.417 496.846 471.011C496.088 471.13 495.582 471.487 495.329 471.844C495.329 471.725 495.329 471.606 495.203 471.368C493.434 466.848 491.285 461.138 489.516 456.855L496.088 454.238C498.615 460.067 501.017 466.134 503.418 472.32" stroke="#231F20" stroke-miterlimit="10"/>
<path d="M521.237 529.065L514.918 531.325C514.918 531.325 513.023 524.187 509.357 512.291C509.484 512.291 509.61 512.291 509.863 512.41C512.391 513.005 515.171 512.41 515.171 512.41C515.171 512.41 515.803 512.648 516.94 513.243C518.457 518.477 519.847 523.712 521.237 529.065Z" stroke="#231F20" stroke-miterlimit="10"/>
<path d="M496.087 454.238L489.515 456.855C483.828 442.698 477.003 427.59 469.294 412.363C454.254 382.741 435.549 352.882 412.927 329.327C422.532 333.848 448.441 362.637 474.096 409.389C481.553 422.951 488.883 437.94 495.834 454.357L496.087 454.238Z" stroke="#231F20" stroke-miterlimit="10"/>
<path d="M474.223 409.27L469.294 412.363" stroke="#231F20" stroke-miterlimit="10"/>
<path d="M585.82 499.562C585.82 499.562 583.039 526.448 584.05 531.325C585.062 536.203 583.671 535.013 579.753 537.868" stroke="#231F20" stroke-miterlimit="10"/>
<path d="M583.545 534.775C582.534 540.009 586.705 542.389 580.765 546.314" stroke="#231F20" stroke-miterlimit="10"/>
<path d="M547.273 551.787C547.273 551.787 514.034 557.735 510.369 563.445C507.209 568.322 509.989 595.565 509.737 609.959C509.737 611.982 509.61 613.766 509.357 615.194C509.105 616.621 508.852 618.049 508.599 619.238C506.703 627.685 503.291 631.491 500.005 634.109C496.087 636.964 500.005 647.789 511.253 640.295C522.501 632.8 519.342 625.9 526.672 626.852C534.002 627.803 531.348 618.881 531.348 618.881L528.062 608.888C528.062 608.888 529.705 598.896 530.084 589.26" stroke="#231F20" stroke-miterlimit="10"/>
<path d="M551.823 572.605C569.896 572.01 589.991 569.631 584.809 550.121C584.43 548.813 543.229 543.816 539.816 540.247C539.564 540.009 539.564 539.771 539.69 539.534C542.344 535.013 542.976 529.184 542.976 524.782" stroke="#231F20" stroke-miterlimit="10"/>
<path d="M528.315 612.22C527.81 613.885 521.238 613.528 509.737 609.959" stroke="#231F20" stroke-miterlimit="10"/>
<path d="M539.69 540.247C514.919 544.411 497.351 554.285 492.549 557.378C487.62 560.59 493.307 596.754 493.56 607.223C493.56 607.223 493.56 607.342 493.56 607.461C493.813 617.692 489.895 620.666 485.851 622.926C468.915 632.681 487.241 631.967 487.241 631.967C487.241 631.967 502.533 627.447 508.726 619.357" stroke="#231F20" stroke-miterlimit="10"/>
<path d="M493.56 607.223C499.247 608.175 507.588 608.175 508.978 608.175" stroke="#231F20" stroke-miterlimit="10"/>
<path d="M584.809 550.121C584.556 547.504 584.177 544.292 584.05 542.984" stroke="#231F20" stroke-miterlimit="10"/>
<path d="M410.905 321L418.236 332.777L425.692 321" stroke="#231F20" stroke-miterlimit="10"/>
<path d="M495.582 473.272V471.606" stroke="#231F20" stroke-miterlimit="10"/>
<path d="M617.29 551.311C628.159 550.716 640.544 549.169 651.16 547.742" stroke="#231F20" stroke-miterlimit="10"/>
<path d="M540.827 531.325L474.35 537.035V546.671C474.35 546.671 482.691 556.664 476.119 566.776C469.547 576.888 490.527 575.698 490.527 575.698" stroke="#231F20" stroke-miterlimit="10"/>
<path d="M661.397 631.967L651.16 628.636L617.29 617.573" stroke="#231F20" stroke-miterlimit="10"/>
<path d="M474.223 537.035L507.462 550.121" stroke="#231F20" stroke-miterlimit="10"/>
<path d="M617.289 603.535L590.622 594.018V583.907L551.822 572.724C542.091 572.962 532.991 572.724 528.568 574.39C530.084 577.721 530.337 583.431 530.211 589.26L617.416 617.692" stroke="#231F20" stroke-miterlimit="10"/>
<path d="M590.623 583.906C590.623 583.906 685.41 550.002 698.049 550.121" stroke="#231F20" stroke-miterlimit="10"/>
<path d="M584.809 590.687L540.827 575.579" stroke="#231F20" stroke-miterlimit="10"/>
<path d="M491.538 550.121L474.223 543.578" stroke="#231F20" stroke-miterlimit="10"/>
<path d="M644.083 597.468V613.171L617.29 603.536L590.623 594.019V583.907C590.749 586.167 604.146 589.855 617.29 592.829C629.802 595.684 642.061 598.063 642.061 598.063L643.956 597.587L644.083 597.468Z" stroke="#231F20" stroke-miterlimit="10"/>
<path d="M644.083 613.052L644.462 613.171L655.71 617.216" stroke="#231F20" stroke-miterlimit="10"/>
<path d="M773.879 562.731L644.083 597.468" stroke="#231F20" stroke-miterlimit="10"/>
<path d="M617.289 527.399H584.809" stroke="#231F20" stroke-miterlimit="10"/>
<path d="M651.16 531.087C699.691 536.441 782.978 545.72 782.346 546.552C771.098 558.449 667.211 562.731 667.211 562.731" stroke="#231F20" stroke-miterlimit="10"/>
<path d="M679.596 619.476L646.736 603.059C646.736 603.059 778.555 562.731 782.346 564.159" stroke="#231F20" stroke-miterlimit="10"/>
<path d="M617.29 551.311C628.159 550.716 640.544 549.169 651.16 547.742" stroke="#231F20" stroke-miterlimit="10"/>
<path d="M617.29 527.399C617.29 527.399 631.318 528.946 651.16 531.087" stroke="#231F20" stroke-miterlimit="10"/>
<path d="M594.288 550.121C599.09 551.668 607.558 551.906 617.289 551.311" stroke="#231F20" stroke-miterlimit="10"/>
<path d="M676.942 543.578C676.942 543.578 665.694 545.72 651.286 547.742" stroke="#231F20" stroke-miterlimit="10"/>
<path d="M611.223 542.984L585.567 547.623" stroke="#231F20" stroke-miterlimit="10"/>
<path d="M463.481 619.476L461.711 570.345C461.711 570.345 450.084 513.6 461.711 509.198C473.338 504.797 497.604 509.198 497.604 509.198L496.719 535.013" stroke="#231F20" stroke-miterlimit="10"/>
<path d="M648.506 627.804C649.265 633.99 649.896 642.912 649.896 642.912L623.229 634.703V619.595" stroke="#231F20" stroke-miterlimit="10"/>
<path d="M619.944 527.637L617.416 511.934L651.287 507.295C651.287 507.295 651.034 521.451 650.276 530.968" stroke="#231F20" stroke-miterlimit="10"/>
<path d="M361.994 648.622C386.892 650.644 405.344 658.02 405.344 666.942C405.344 675.864 380.067 685.857 348.85 685.857C317.634 685.857 345.944 685.857 344.427 685.857" stroke="#231F20" stroke-miterlimit="10"/>
<path d="M337.729 686.214C312.705 684.192 294 676.221 294 666.704C294 657.187 319.277 646.719 350.62 646.719C381.963 646.719 354.032 646.719 355.675 646.719" stroke="#231F20" stroke-miterlimit="10"/>
<path d="M354.664 653.5C354.538 653.5 354.285 653.5 354.158 653.5C353.274 653.5 352.263 653.5 351.378 653.5C331.662 653.5 315.738 660.28 315.738 668.608C315.738 676.935 325.722 680.861 339.751 682.883C339.877 682.883 340.13 682.883 340.256 682.883" stroke="#231F20" stroke-miterlimit="10"/>
<path d="M344.427 680.266C344.553 680.266 344.806 680.266 344.932 680.266C345.691 680.266 346.449 680.266 347.207 680.266C366.923 680.266 382.847 673.842 382.847 665.991C382.847 658.139 372.989 654.57 359.214 652.548C358.961 652.548 358.834 652.548 358.582 652.548" stroke="#231F20" stroke-miterlimit="10"/>
<path d="M348.345 657.782C348.218 657.782 347.966 657.782 347.839 657.782C347.713 657.782 347.713 657.782 347.586 657.782C339.624 657.782 333.179 661.47 333.179 665.991C333.179 670.511 336.465 672.058 341.394 673.485C341.646 673.485 341.899 673.604 342.152 673.723" stroke="#231F20" stroke-miterlimit="10"/>
<path d="M341.899 677.411H342.152C342.405 677.411 342.784 677.411 343.037 677.411C354.664 677.173 363.89 672.89 363.89 667.537C363.89 662.184 359.088 660.399 352.01 658.734C351.631 658.734 351.252 658.615 350.873 658.496" stroke="#231F20" stroke-miterlimit="10"/>
<path d="M348.345 664.206C346.196 664.206 344.427 665.872 344.427 667.418C344.427 668.965 345.311 669.797 346.449 670.392" stroke="#231F20" stroke-miterlimit="10"/>
<path d="M349.609 671.106C352.389 670.392 352.768 669.441 352.895 667.894C353.021 666.347 352.768 666.11 350.873 665.277" stroke="#231F20" stroke-miterlimit="10"/>
</g>
<g clip-path="url(#clip1_255_3)">
<path d="M77.0828 284.189C76.3037 281.291 76.5263 278.282 76.7489 275.273C77.9731 257.886 82.4248 241.503 90.3264 226.011C90.6603 225.343 91.2168 224.674 91.2168 223.782C96.1136 221.665 101.233 221.888 105.907 224.117C109.914 226.011 113.475 228.798 116.702 232.03C117.036 232.921 116.591 233.59 116.146 234.259C112.028 241.391 109.246 249.082 108.244 257.218C105.907 277.167 110.025 295.557 123.046 311.383C128.722 318.293 135.844 323.531 143.857 327.766C145.416 328.546 147.085 329.103 148.309 330.441C149.199 332.113 149.088 333.784 148.532 335.456C147.641 336.236 147.641 335.122 147.196 334.787C147.085 341.252 147.196 347.604 147.196 354.068C147.196 358.415 147.196 362.65 147.196 366.997C147.196 370.34 146.751 370.675 143.412 369.56C134.509 366.551 126.607 361.536 119.373 355.74C108.912 347.381 99.7862 337.797 92.9974 326.094C87.3216 316.175 82.4248 305.922 80.8667 294.554C80.3102 290.764 80.0876 286.975 78.8634 283.409C78.7522 282.963 78.6409 282.405 78.1957 281.96C77.5279 282.628 77.9731 283.743 77.1941 284.3L77.0828 284.189Z" fill="#AE4A2A"/>
<path d="M77.0827 284.188C77.4165 283.185 76.8601 282.182 77.4166 281.179C77.5279 280.845 77.6392 280.399 78.0843 280.399C78.5295 280.399 78.752 280.733 78.8633 281.068C79.6424 284.077 80.8666 287.086 81.0892 290.095C81.423 297.117 83.315 303.581 85.8747 310.045C92.107 325.648 101.344 339.022 113.92 350.167C120.486 355.963 127.498 361.09 135.065 365.325C138.181 366.997 141.632 368.111 144.859 369.448C146.417 370.117 146.64 369.448 146.64 368.111C146.64 357.746 146.64 347.27 146.64 336.905C146.64 335.567 146.64 334.23 147.419 332.67C148.198 333.784 147.641 335.01 148.309 335.902C149.311 336.793 149.088 338.019 149.088 339.134C149.088 340.806 149.088 342.477 149.088 344.149C149.088 351.839 149.088 359.641 149.088 367.331C149.088 368.223 148.754 369.894 149.978 369.894C151.203 369.894 150.646 368.223 150.757 367.331C151.648 357.189 151.091 347.047 151.314 337.016C151.314 336.236 151.314 335.567 151.314 334.787C151.314 334.119 151.648 333.338 152.427 333.338C153.317 333.338 153.428 334.23 153.317 334.787C153.317 337.908 153.874 340.917 153.874 343.926C153.874 352.174 153.874 360.421 153.874 368.668C153.874 369.894 153.762 371.12 155.32 371.677C158.659 372.903 159.438 372.458 159.438 368.891C159.438 359.195 159.438 349.499 159.438 339.803C159.438 338.688 159.104 337.239 160.551 336.459C162.109 336.682 162.109 338.019 162.109 339.134C162.109 342.254 162.22 345.264 162.109 348.384C162.332 355.629 162.777 362.873 162.666 370.229C162.666 371.232 162.22 372.903 163.778 372.792C165.114 372.792 164.669 371.232 164.669 370.229C164.669 363.207 163.89 356.297 164.335 349.276C164.224 346.601 164.335 343.926 164.335 341.363C164.335 340.36 164.224 339.357 165.337 338.688C166.895 338.799 167.006 340.025 167.006 341.028C167.006 344.595 167.562 348.161 167.562 351.728C167.562 358.192 168.23 364.656 168.007 371.12C168.007 372.012 168.007 373.126 169.12 373.461C170.567 373.907 172.014 374.129 173.349 373.684C174.017 373.461 173.906 372.681 173.795 372.123C173.238 362.204 173.683 352.285 173.572 342.477C173.572 341.251 173.127 339.691 175.13 339.357C176.02 339.58 176.243 340.36 176.243 341.028C176.243 344.372 176.911 347.604 176.688 350.948C176.799 358.415 176.688 365.882 177.133 373.461C177.356 365.994 177.69 358.526 178.024 350.948C177.912 348.941 178.024 346.935 178.024 344.929C178.024 344.038 178.024 343.035 179.025 342.589C180.249 342.923 180.138 343.926 180.25 344.818C181.14 350.279 180.472 355.851 180.695 361.424C180.695 365.102 180.695 368.891 180.695 372.569C180.695 373.906 181.14 374.798 182.698 374.798C184.479 374.798 185.035 374.464 184.812 372.681C184.145 365.325 184.701 357.858 184.479 350.39C184.479 347.938 185.035 345.486 185.035 343.035C185.035 342.366 185.146 341.586 186.037 341.251C187.261 341.474 187.15 342.477 187.261 343.257C187.817 346.155 187.706 349.053 187.595 351.839C187.706 358.415 187.595 365.102 187.595 371.677C187.595 372.569 187.15 374.241 188.374 374.241C189.709 374.241 189.153 372.681 189.153 371.677C189.153 365.102 189.153 358.415 189.153 351.839C189.153 348.719 188.93 345.486 190.154 342.477C191.49 342.143 191.712 343.146 192.046 344.038C192.269 345.041 192.269 346.044 192.269 347.047C192.269 355.294 192.269 363.653 192.269 371.9C192.269 373.461 192.492 374.575 194.495 374.575C196.498 374.575 196.943 374.241 196.943 372.235C196.943 367.554 197.054 362.873 196.943 358.303C196.832 353.4 197.388 348.384 197.5 343.48C197.5 342.477 197.388 341.14 198.946 341.14C200.059 341.809 200.059 342.923 200.059 343.926C200.059 346.49 200.059 349.053 200.059 351.728C200.059 359.084 200.838 366.439 200.838 373.795C201.506 366.439 201.172 359.084 201.284 351.839C201.506 348.161 201.284 344.483 202.285 340.806C204.177 340.471 204.177 342.032 204.288 343.146C204.511 345.487 204.288 347.827 204.288 350.167C204.288 357.412 204.288 364.767 204.288 372.012C204.288 373.126 203.955 374.464 205.846 374.464C207.516 374.464 208.072 373.572 208.072 372.012C208.072 370.229 208.072 368.334 208.072 366.551C207.738 358.638 208.74 350.836 208.517 343.035C208.517 341.92 208.406 340.248 209.853 340.248C211.3 340.248 211.077 341.92 211.077 343.035C211.077 347.158 211.3 351.282 211.522 355.406C211.856 360.532 210.855 365.548 211.188 370.674C211.188 371.678 210.632 373.572 212.079 373.572C213.971 373.572 213.192 371.678 213.192 370.674C213.192 364.099 213.859 357.635 213.748 351.059C213.526 347.938 213.859 344.706 214.193 341.586C214.193 341.028 214.305 340.471 214.75 340.025C216.085 339.58 216.419 340.471 216.642 341.474C216.864 342.366 216.753 343.369 216.753 344.261C216.976 352.731 216.53 361.09 216.308 369.56C216.308 370.34 216.308 371.009 216.308 371.789C216.308 373.015 216.976 373.461 218.088 373.349C221.205 373.349 221.761 372.792 221.761 369.671C221.761 360.421 221.761 351.17 221.761 341.92C221.761 340.806 221.761 339.691 221.984 338.688C222.54 337.128 223.208 337.016 224.543 338.242C225.211 341.809 224.766 345.486 224.877 349.164C224.877 355.963 224.877 362.65 224.877 369.448C224.877 370.34 224.432 371.9 225.768 371.9C227.214 371.9 226.88 370.452 226.88 369.448C226.88 362.427 226.88 355.406 226.88 348.273C226.88 344.372 226.324 340.471 227.214 336.57C228.327 335.456 228.884 336.236 229.218 337.239C229.551 338.131 229.44 339.134 229.44 340.025C229.44 349.387 229.44 358.861 229.44 368.223C229.44 369.226 228.661 371.009 230.776 371.009C232.668 371.009 233.558 370.117 233.669 368C234.337 358.08 234.114 348.05 234.114 338.019C234.114 337.016 234.114 335.902 234.337 335.01C234.671 334.007 235.227 333.227 236.34 334.23C237.342 337.128 236.563 340.137 236.785 343.035C236.785 343.815 236.785 344.595 236.785 345.375C236.897 352.396 236.785 359.529 236.785 366.551C236.785 367.442 236.34 368.891 237.564 368.891C239.011 368.891 238.9 367.442 238.9 366.328C238.677 358.972 239.568 351.616 239.456 344.372C239.456 343.146 239.456 341.809 239.568 340.583C240.124 338.911 239.901 337.239 239.901 335.567C239.901 334.899 239.902 334.23 240.013 333.561C240.124 333.004 240.347 332.335 241.126 332.335C241.793 332.335 242.016 333.004 242.239 333.561C242.35 334.007 242.35 334.453 242.239 334.899C241.682 338.465 242.016 342.032 242.016 345.598C242.016 352.285 241.348 358.972 241.571 365.659C241.571 367.777 241.571 367.777 243.685 366.997C255.26 362.427 265.721 356.186 274.29 346.935C282.637 337.908 288.981 327.766 293.21 316.286C296.771 306.702 298.997 296.671 299.999 286.529C300.333 282.628 299.776 278.727 299.887 274.715C299.887 273.824 299.887 272.82 299.887 271.929C300.11 270.926 300.444 269.923 301.668 269.811C302.892 269.811 303.226 270.591 303.56 271.595C303.56 271.817 303.56 272.152 303.783 272.375C307.233 287.309 304.562 301.686 299.108 315.618C291.652 334.676 279.855 350.39 262.939 362.093C257.819 365.659 252.477 368.557 246.468 370.34C244.91 370.786 245.243 371.678 246.134 372.346C247.914 373.795 249.473 375.244 250.14 377.584C250.363 378.476 251.365 378.699 252.255 379.033C256.929 380.594 261.381 382.6 265.832 384.717C268.169 385.832 270.84 386.946 270.84 390.067C270.84 393.299 268.169 394.748 265.721 395.862C259.934 398.537 253.813 399.875 247.581 400.878C226.213 404.444 204.622 405.113 183.032 404.556C174.128 404.333 165.337 403.887 156.433 403.107C145.527 402.104 134.62 400.989 124.159 397.423C121.933 396.643 119.93 395.639 118.149 393.968C116.035 391.962 115.701 389.955 116.925 387.281C117.927 385.052 119.596 383.268 121.933 382.265C125.383 380.705 128.388 378.476 131.949 377.139C132.951 376.804 133.396 376.024 133.285 374.91C133.285 374.575 133.173 374.129 133.285 373.795C134.62 370.674 132.394 369.671 130.28 368.334C112.585 357.635 98.1167 343.703 88.2118 325.425C82.9811 315.729 79.7537 305.253 77.6391 294.442C76.9714 290.876 76.4149 287.309 76.5262 283.631L77.0827 284.188Z" fill="#420600"/>
<path d="M304.562 272.821C304.339 272.486 304.228 272.263 304.005 271.929C303.671 271.149 303.226 270.369 302.225 270.703C301.334 270.926 301.112 271.818 301.112 272.598C301.112 276.164 300.889 279.731 301.223 283.297C301.668 287.421 300.778 291.21 300.11 295.111C298.218 307.036 294.768 318.516 288.87 328.992C279.41 345.821 266.5 358.972 248.248 366.105C246.023 366.997 244.019 368.334 241.571 368.78C241.794 356.743 242.127 344.818 242.35 332.893C242.127 332.893 241.905 332.893 241.571 332.893C240.681 335.345 241.794 338.019 240.792 340.471C240.236 340.026 240.124 339.357 240.124 338.8C240.124 335.902 239.902 332.893 240.236 329.995C240.792 328.435 242.239 327.989 243.463 327.32C252.032 322.305 259.489 315.841 264.608 307.259C270.061 298.231 274.291 288.647 275.626 278.059C276.294 272.598 275.626 267.137 275.292 261.676C274.958 254.654 273.4 247.856 272.399 240.946C272.065 238.717 271.62 236.488 270.952 234.37C270.618 233.144 270.061 232.03 270.173 230.804C273.178 228.129 276.294 225.788 279.966 224.117C282.415 223.002 284.863 222.333 287.534 222.222C288.87 222.222 289.537 222.668 289.983 223.782C290.428 225.12 290.984 226.568 291.318 228.017C291.652 227.46 291.429 226.68 292.097 226.234C294.657 231.249 295.77 236.711 297.439 242.06C300.11 250.419 302.336 258.889 303.56 267.582C303.783 269.254 304.005 271.037 304.117 272.709L304.562 272.821Z" fill="#AE4A2A"/>
<path d="M128.61 119.352C134.843 124.256 138.293 130.609 139.628 138.411C139.962 140.528 139.962 142.534 140.073 144.652C140.852 145.543 140.741 146.658 140.741 147.772C140.741 150.336 140.741 152.788 140.741 155.351C139.962 158.695 139.851 162.15 139.517 165.493C137.402 182.768 133.173 199.486 126.607 215.646C125.16 219.213 123.38 222.668 121.488 226.011C120.82 227.348 119.818 228.352 118.372 228.909C117.481 228.909 116.925 228.352 116.257 227.906C111.138 223.336 105.239 220.661 98.3392 220.327C97.4489 220.327 96.5586 220.327 95.7795 220.55C94.8892 220.661 93.9988 220.884 93.3311 220.104C98.1166 211.188 103.013 202.272 107.576 193.244C111.694 185.22 115.923 177.196 118.817 168.614C119.485 166.719 119.93 164.713 120.041 162.707C119.818 161.815 120.486 161.37 120.931 160.812C124.938 155.574 126.496 149.667 124.938 143.203C124.604 141.754 124.047 140.305 122.935 138.968C122.155 139.859 122.489 140.528 122.823 141.308C124.159 144.763 123.825 148.218 122.935 151.673C122.044 155.463 119.707 158.137 116.146 159.921C109.134 163.376 102.68 162.818 96.6698 157.803C93.665 155.24 91.1053 152.342 89.1021 148.887C86.8762 140.863 86.6536 132.95 90.5488 125.259C94.6666 117.123 104.015 113.111 112.918 115.117C125.272 117.792 131.838 125.817 135.177 137.408C136.623 142.311 136.512 147.327 136.178 152.342C135.956 155.463 135.622 158.472 136.623 161.258C137.402 156.577 138.849 151.785 138.627 146.769C138.181 137.519 135.177 129.272 129.501 122.027C128.944 121.359 128.165 120.801 128.61 119.798V119.352Z" fill="#AE4A2A"/>
<path d="M297.996 113.334C302.113 115.786 305.23 119.13 306.899 123.699C310.126 132.615 311.017 141.42 306.454 150.225C303.672 155.686 299.331 159.475 294.1 162.484C292.431 163.487 290.317 163.264 288.425 163.487C288.425 162.261 289.649 162.15 290.428 161.704C294.101 159.475 297.439 157.023 299.22 152.899C299.665 152.008 300.555 150.893 299.554 150.113C298.552 149.444 297.773 150.67 296.994 151.228C294.991 153.011 293.321 155.24 291.43 157.134C284.863 163.822 276.183 161.258 271.175 154.46C270.618 153.568 270.284 152.565 270.396 151.562C270.841 146.101 271.62 140.863 275.404 136.516C276.739 134.956 278.297 133.841 280.189 133.173C284.863 131.501 288.981 134.398 288.759 139.302C288.536 143.983 286.199 147.215 282.081 149.221C280.078 150.225 278.742 149.221 278.965 146.992C279.076 145.544 279.521 144.095 279.967 142.757C280.3 141.754 280.857 141.086 282.081 141.531C282.415 141.643 282.971 141.866 283.194 141.308C283.305 140.863 283.194 140.417 282.749 140.194C281.525 139.191 280.3 139.414 279.188 140.194C276.517 142.089 275.404 147.884 277.184 150.559C277.963 151.785 279.299 152.119 280.634 152.119C287.646 152.342 294.768 143.872 293.321 137.073C292.431 132.615 286.978 129.049 281.858 129.495C278.408 129.829 275.849 131.389 273.734 133.953C269.728 138.968 268.058 144.986 267.613 151.228C267.391 154.014 267.168 156.912 267.168 159.698C267.168 169.506 269.171 178.756 273.512 187.561C275.292 191.127 276.294 195.028 277.852 198.706C279.967 203.832 283.083 208.29 285.531 213.194C287.089 216.315 286.199 218.321 282.86 219.213C278.186 220.439 274.179 223.002 271.175 226.791C270.729 227.349 270.395 228.352 269.394 227.906C268.17 225.565 267.836 223.113 268.058 220.55C269.171 219.881 269.171 218.878 268.837 217.764C267.391 212.637 266.055 207.51 264.386 202.495C261.047 191.796 258.933 180.762 257.82 169.617C256.707 157.692 259.712 146.77 265.387 136.516C268.615 130.721 273.4 126.485 279.076 123.476C282.415 121.693 286.088 121.024 289.871 121.247C291.207 121.247 292.209 121.805 293.21 122.585C298.218 126.374 299.888 131.389 299.109 137.408C298.886 139.302 298.441 141.086 298.107 142.98C298.107 143.537 297.884 144.318 298.441 144.541C299.109 144.763 299.443 144.206 299.776 143.649C301.78 140.64 302.447 137.185 302.113 133.618C302.113 132.615 301.668 131.612 301.78 130.609C303.449 128.603 303.338 126.374 302.781 124.034C301.891 120.801 300.889 117.681 298.441 115.117C297.884 114.56 297.217 114.003 297.551 113.111L297.996 113.334Z" fill="#AE4A2A"/>
<path d="M165.337 338.8C164.446 340.694 165.114 342.812 164.891 344.706C164.78 346.267 164.891 347.716 164.891 349.276C163.556 349.945 162.443 349.499 161.553 348.384C161.553 345.264 161.553 342.143 161.553 339.134C161.553 338.242 161.553 337.239 160.774 336.571C160.106 336.013 159.995 335.233 159.995 334.342C160.329 321.413 159.549 308.596 159.438 295.668C159.438 290.541 159.327 285.303 159.104 280.176C158.437 260.338 158.325 240.388 158.103 220.55C158.103 209.182 157.658 197.703 157.212 186.335C156.879 178.422 156.99 170.509 156.879 162.484C156.879 161.927 156.879 161.37 156.879 160.701C156.656 158.583 156.656 156.354 153.54 156.354C153.206 156.354 152.872 156.02 152.761 155.686C153.095 154.905 153.874 154.794 154.653 154.794C156.211 154.794 156.545 153.902 156.545 152.565C156.545 150.67 156.545 148.776 156.545 146.992C156.545 146.101 156.545 145.209 157.212 144.541C157.658 139.637 157.546 134.621 157.658 129.718C157.658 128.826 157.435 127.6 158.77 127.489C160.217 127.489 160.217 128.714 160.217 129.718C160.329 133.173 160.217 136.516 160.329 139.971C160.329 141.643 160.551 143.315 160.774 144.986C161.887 147.773 161.553 150.782 161.887 153.68C161.887 154.46 161.887 155.24 161.887 156.02C162.554 165.605 162.666 175.19 162.888 184.774C163.222 196.365 163.445 207.956 163.779 219.436C164.001 227.126 164.224 234.816 164.669 242.506C165.114 249.973 164.669 257.552 165.114 265.019C165.671 274.269 165.114 283.52 165.559 292.77C166.004 301.018 165.559 309.265 166.004 317.401C166.338 323.642 166.45 329.884 166.338 336.125C166.338 337.016 166.338 337.908 165.671 338.465L165.337 338.8Z" fill="#F58F00"/>
<path d="M269.728 228.24C273.178 223.002 278.074 219.881 284.195 218.544C287.2 217.875 287.2 217.875 285.753 214.978C284.529 212.414 282.971 209.851 281.524 207.287C278.297 201.715 276.071 195.808 273.845 189.79C272.287 185.666 270.173 181.765 269.06 177.419C267.502 171.512 266.278 165.605 266.611 159.364C266.945 152.677 266.945 145.989 269.728 139.748C271.063 136.628 272.955 133.841 275.403 131.501C281.079 126.263 291.986 129.383 293.989 136.739C295.213 141.643 291.874 148.33 286.644 151.116C285.865 151.562 285.086 151.896 284.195 152.119C281.747 153.011 279.187 153.568 277.184 151.562C275.292 149.667 275.515 146.993 276.071 144.541C276.628 142.312 277.518 140.194 279.744 139.08C281.524 138.188 283.528 138.857 284.084 140.528C284.307 141.197 284.418 141.866 283.862 142.423C283.305 142.98 282.749 142.423 282.304 142.2C281.079 141.309 280.745 141.643 280.523 142.98C280.3 144.429 279.744 145.767 279.521 147.215C279.299 148.441 279.744 149.333 281.191 148.999C285.086 148.107 288.981 142.2 288.313 138.411C287.868 136.182 286.978 134.064 284.752 133.284C282.192 132.504 279.744 133.507 277.629 135.179C273.845 138.299 272.287 142.646 271.508 147.327C270.507 153.457 271.842 156.02 277.407 158.806C282.749 161.37 286.866 160.59 291.207 156.466C293.544 154.237 295.213 151.228 298.107 149.556C298.775 149.222 299.22 148.218 300.11 148.999C300.889 149.667 300.889 150.559 300.555 151.451C299.665 153.568 298.552 155.686 296.883 157.357C294.434 159.921 291.541 161.704 288.425 163.376C281.191 165.939 275.403 163.822 270.841 157.692C270.841 161.147 271.508 164.49 272.176 167.722C274.958 183.326 280.968 197.814 287.868 211.857C290.094 216.426 291.763 221.219 292.542 226.234C292.32 227.349 292.765 228.575 292.097 229.912C290.762 228.352 290.762 226.569 290.205 224.897C289.649 223.336 289.315 222.445 287.089 222.779C281.524 223.782 276.516 225.788 272.732 230.024C272.065 230.804 271.286 230.581 270.618 230.804C268.949 230.358 268.949 229.355 269.839 228.129L269.728 228.24Z" fill="#420600"/>
<path d="M199.503 351.951C199.503 349.164 199.503 346.49 199.503 343.703C199.503 342.923 199.503 342.143 199.058 341.363C198.501 340.806 198.501 340.025 198.39 339.357C198.279 338.465 198.39 337.462 198.39 336.57C198.39 277.39 198.39 218.21 198.39 159.029C198.39 158.249 198.39 157.469 198.39 156.577C198.39 152.676 197.945 148.776 198.724 144.986C199.28 142.423 198.947 139.748 199.058 137.185C199.169 132.392 199.058 127.6 199.058 122.807C199.058 121.247 199.837 120.244 201.061 120.244C202.619 120.244 202.619 121.582 202.619 122.807C202.619 129.383 202.619 136.07 202.619 142.646C202.619 143.426 202.508 144.206 202.842 144.986C203.509 148.887 203.064 152.676 203.176 156.577C203.398 162.707 203.176 168.837 203.176 174.967C203.732 212.414 203.732 249.862 203.509 287.309C203.509 302.244 203.176 317.178 203.176 332.112C203.176 334.453 203.176 336.793 203.176 339.134C203.176 339.914 202.842 340.471 202.508 341.029C202.285 344.595 202.174 348.273 201.951 351.839C201.061 352.508 200.282 352.508 199.392 351.839L199.503 351.951Z" fill="#F59000"/>
<path d="M175.909 351.059C175.798 347.827 175.575 344.484 175.464 341.251C175.464 340.694 175.687 340.137 175.019 339.691C174.574 339.245 174.462 338.688 174.351 338.131C174.351 332.001 173.795 325.871 173.795 319.853C174.017 294.776 173.461 269.811 173.238 244.735C173.016 226.791 173.461 208.736 172.904 190.793C172.571 179.313 172.904 167.834 172.459 156.354C172.682 153.568 172.459 150.893 172.571 148.107C172.571 147.104 172.571 146.101 173.127 145.209C173.127 138.968 173.127 132.727 173.127 126.374C173.127 125.371 173.127 124.368 173.238 123.365C173.35 122.473 174.017 121.805 174.796 121.916C175.575 121.916 175.798 122.808 175.798 123.588C175.798 124.814 175.798 126.04 175.798 127.266C175.909 133.284 176.021 139.191 176.243 145.209C176.911 146.101 176.911 147.104 176.911 148.107C176.911 151.005 176.911 153.902 177.022 156.689C176.688 159.921 177.467 163.041 177.356 166.273C177.022 184.886 177.69 203.387 177.912 221.999C177.912 232.141 177.801 242.394 178.246 252.536C178.914 267.471 178.246 282.405 178.692 297.34C179.137 309.265 178.803 321.19 179.025 333.116C179.025 335.01 179.471 336.905 179.359 338.8C179.359 340.137 179.804 341.697 178.692 342.923C177.801 345.71 178.469 348.496 178.246 351.282C177.356 352.508 176.577 351.839 175.798 351.282L175.909 351.059Z" fill="#F58F00"/>
<path d="M190.266 342.812C190.043 345.821 189.932 348.942 189.709 351.951C188.708 352.731 187.706 352.731 186.704 351.951C186.593 348.83 186.704 345.821 186.259 342.7C186.259 342.255 186.259 341.697 185.814 341.363C185.146 340.806 185.146 340.137 185.146 339.357C185.035 338.465 185.146 337.574 185.146 336.794C185.146 326.986 185.146 317.29 185.146 307.482C185.703 257.775 185.592 208.179 185.592 158.472C185.592 157.803 185.592 157.135 185.592 156.466C185.48 153.345 185.592 150.113 185.592 146.993C185.592 146.212 185.703 145.544 186.148 144.986C186.816 138.188 186.371 131.278 186.593 124.479C186.593 123.922 186.593 123.253 186.593 122.696C186.593 121.805 187.15 121.024 188.04 121.024C189.264 121.024 188.708 122.139 188.708 122.696C188.819 130.163 188.708 137.519 189.264 144.986C189.821 145.655 189.821 146.435 189.821 147.215C189.821 150.336 189.932 153.345 189.821 156.466C190.043 159.029 189.821 161.704 189.821 164.379C189.821 173.072 189.821 181.654 189.821 190.347C190.377 230.581 190.043 270.703 190.377 310.937C190.377 319.63 190.6 328.212 190.711 336.905C190.711 337.797 190.711 338.688 190.711 339.468C190.711 340.583 190.934 341.809 190.043 342.812H190.266Z" fill="#F58F00"/>
<path d="M215.195 340.248C214.972 343.815 214.75 347.493 214.639 351.059C212.079 352.397 211.077 351.839 210.966 349.053C210.966 345.598 211.3 342.255 210.521 338.911C211.3 312.943 210.298 286.863 210.966 260.895C211.522 238.717 210.743 216.426 211.411 194.248C211.745 181.765 211.411 169.171 211.856 156.689C211.745 153.568 211.856 150.336 211.856 147.215C211.856 146.435 211.968 145.767 212.413 145.209C212.413 138.634 212.858 132.058 212.413 125.371C212.413 124.591 212.301 123.811 213.192 123.365C213.971 123.031 214.527 123.253 215.195 123.588C215.863 123.922 215.863 124.368 215.863 125.037C215.195 131.612 215.64 138.188 215.64 144.875C216.419 146.101 216.085 147.438 216.197 148.664C216.197 151.339 216.197 154.014 216.197 156.689C216.308 157.915 216.197 159.141 216.197 160.367C216.197 199.374 216.53 238.494 216.085 277.502C215.863 297.117 215.974 316.844 215.751 336.459C215.751 336.905 215.751 337.351 215.751 337.797C215.751 338.688 215.751 339.58 215.195 340.248Z" fill="#F58F00"/>
<path d="M241.015 329.549C241.015 333.227 241.015 336.905 241.015 340.694C241.015 342.032 241.015 343.258 240.903 344.595C239.79 345.598 238.677 346.49 237.119 345.933C237.119 342.143 237.119 338.354 237.008 334.676C236.452 333.673 236.229 332.67 236.229 331.555C236.229 329.772 236.229 327.877 236.229 326.094C236.563 305.587 236.452 284.969 236.785 264.462C237.119 249.416 236.563 234.482 237.231 219.436C237.676 207.176 237.119 194.805 237.676 182.545C238.121 173.852 237.676 165.048 238.121 156.354C238.121 152.899 238.677 149.444 238.566 145.989C238.566 145.432 238.677 144.875 239.123 144.318C239.123 141.754 239.123 139.079 239.234 136.516C239.234 135.625 239.456 134.621 240.458 134.51C241.571 134.51 241.905 135.402 241.905 136.516C241.905 139.191 241.905 141.754 241.905 144.429C242.795 147.773 242.461 151.116 242.795 154.46C242.795 155.128 242.684 155.909 242.795 156.577C242.795 166.385 243.24 176.081 242.573 185.777C242.573 186.558 242.573 187.226 242.573 188.006C242.906 224.451 241.905 261.007 242.127 297.451C242.127 307.259 241.348 317.067 241.682 326.874C241.682 327.877 241.682 328.769 241.015 329.661V329.549Z" fill="#F58F00"/>
<path d="M228.327 336.682C228.327 340.583 228.216 344.483 228.105 348.384C227.214 349.387 226.102 349.722 224.766 349.276C224.766 345.709 224.655 342.032 224.543 338.465C224.543 337.462 223.764 336.682 223.876 335.679C223.987 321.19 223.653 306.702 223.876 292.213C224.766 251.756 223.876 211.188 224.321 170.731C224.321 166.05 224.655 161.258 224.766 156.577C224.655 153.122 224.766 149.556 224.766 146.101C224.766 145.432 224.877 144.763 225.323 144.206C225.323 139.079 225.768 133.953 225.323 128.826C225.211 127.711 225.1 126.374 226.881 126.262C228.55 126.262 228.773 127.266 228.661 128.603C228.216 133.841 228.661 138.968 228.661 144.206C229.218 144.875 229.329 145.655 229.329 146.435C229.329 149.779 229.329 153.122 229.329 156.466C229.329 157.246 229.329 158.026 229.329 158.918C229.329 173.852 229.552 188.786 229.329 203.721C228.773 246.518 228.995 289.427 228.884 332.224C228.884 333.004 228.884 333.784 228.884 334.676C228.884 335.456 228.55 336.125 228.327 336.682Z" fill="#F58F00"/>
<path d="M148.42 344.038C148.42 341.252 148.42 338.577 148.309 335.79C148.309 334.007 148.643 332.224 147.975 330.552C147.53 327.877 147.196 325.091 147.196 322.305C147.419 299.903 146.862 277.613 146.64 255.211C146.417 239.497 146.751 223.894 146.306 208.179C145.749 191.684 146.195 175.078 145.972 158.583C145.972 157.58 145.972 156.689 145.972 155.797C146.195 152.788 145.972 149.779 146.194 146.77C146.194 145.878 146.194 144.986 146.751 144.318C146.751 142.089 146.751 139.86 146.862 137.631C146.862 136.962 146.862 136.182 147.641 136.07C148.643 136.07 148.532 136.962 148.532 137.631C148.532 139.302 148.532 140.974 148.532 142.646C148.532 143.315 148.532 144.095 149.199 144.541C149.199 148.33 149.867 152.119 149.533 155.909C149.533 162.484 149.978 168.948 149.978 175.524C149.978 190.57 150.424 205.616 150.646 220.662C150.646 229.578 150.535 238.382 150.98 247.298C151.536 258.109 150.98 268.808 151.425 279.619C151.982 290.207 151.425 300.683 151.87 311.271C152.204 318.181 152.093 325.091 152.315 332.001C151.314 334.787 151.87 337.685 151.759 340.583C151.759 341.475 151.759 342.366 151.759 343.146C151.759 343.926 152.315 345.152 151.203 345.487C150.09 345.821 149.088 345.264 148.532 344.038H148.42Z" fill="#F58F00"/>
<path d="M128.611 119.353C130.614 122.027 132.617 124.814 134.286 127.823C139.406 137.631 140.63 147.884 137.736 158.583C137.403 159.921 137.403 161.37 136.735 162.596C136.735 162.818 136.512 162.93 136.401 162.93C133.841 156.689 136.401 150.224 135.622 143.872C134.286 132.392 130.169 122.25 118.817 117.235C109.691 113.223 101.01 113.557 93.7764 121.136C89.77 125.371 88.4345 130.609 87.9893 136.293C87.6554 140.528 88.657 144.54 89.3248 148.553C89.77 150.002 90.6603 151.562 88.7683 152.676C76.415 138.968 80.7554 115.117 102.791 109.991C107.91 108.765 112.919 109.768 117.593 111.774C121.711 113.557 125.383 115.898 128.499 119.13L128.611 119.353Z" fill="#F58F00"/>
<path d="M297.995 113.334C300.444 116.232 302.67 119.13 303.449 123.03C303.671 124.479 304.005 125.817 304.228 127.265C304.45 128.826 303.894 129.94 302.558 130.72C301.445 130.386 301.445 129.272 301.112 128.491C299.999 126.04 298.886 123.699 296.771 121.804C292.987 118.238 288.424 119.018 283.973 119.352C280.189 119.687 276.85 121.359 273.845 123.588C266.5 129.16 260.713 135.959 258.598 145.209C257.708 148.998 256.261 152.676 255.927 156.689C255.927 157.246 255.927 158.137 254.814 157.803C254.147 156.911 254.147 155.685 253.813 154.682C253.145 152.008 253.479 149.333 253.479 146.658C253.479 145.766 253.813 144.986 254.369 144.317C256.706 131.835 262.827 121.693 273.4 114.672C281.302 109.433 289.537 107.984 297.995 113.557V113.334Z" fill="#F58F00"/>
<path d="M88.8795 152.788C89.9925 151.562 89.1021 150.002 89.436 148.664C91.3279 150.559 92.4409 153.011 94.4441 154.905C98.5619 158.583 102.902 162.261 108.801 161.258C116.146 160.032 120.82 157.469 122.267 151.451C123.157 147.884 123.602 144.318 121.933 140.751C121.71 140.305 121.71 139.637 121.599 139.079C121.599 138.411 121.822 137.965 122.489 137.742C123.269 137.631 123.491 138.076 123.714 138.634C127.72 146.212 126.273 155.797 120.264 161.927C120.152 162.038 120.041 162.261 119.818 162.373C116.814 163.376 114.143 165.048 110.915 165.605C107.354 166.273 104.238 165.27 100.899 164.379C94.6667 162.707 91.7731 157.58 88.657 152.676L88.8795 152.788Z" fill="#420600"/>
<path d="M254.369 144.206C253.924 147.772 253.813 151.227 254.369 154.794C254.036 155.463 253.59 155.908 252.923 156.02C249.695 156.466 246.356 157.134 243.129 156.689C242.795 156.689 242.461 156.354 242.127 156.243C242.127 152.342 241.682 148.33 241.905 144.429C246.023 144.429 250.14 144.429 254.369 144.429V144.206Z" fill="#420600"/>
<path d="M173.016 145.098C173.016 148.776 173.35 152.453 172.904 156.131C172.125 156.8 171.124 156.689 170.233 156.8C167.896 156.8 165.67 156.8 163.333 156.8C162.554 156.8 161.775 156.8 161.107 156.02C160.885 152.342 160.774 148.664 160.551 145.098C164.669 145.098 168.787 145.098 173.016 145.098Z" fill="#420600"/>
<path d="M93.3311 219.881C96.336 219.547 99.3409 219.547 102.457 219.993C108.801 220.996 113.586 224.562 118.26 228.575C119.818 229.132 119.262 230.246 118.706 231.138C118.26 231.807 117.593 232.252 116.702 232.141C114.143 230.358 111.694 228.463 109.134 226.568C104.46 223.002 99.2296 222.445 93.665 223.448C92.886 223.559 92.1069 223.671 91.3279 223.671C89.7698 222.222 89.9924 220.996 91.8844 220.216C92.4408 219.993 92.9973 219.881 93.4424 219.658L93.3311 219.881Z" fill="#420600"/>
<path d="M228.661 156.466C228.661 152.342 228.661 148.33 228.661 144.206C232.111 144.206 235.561 144.206 238.9 144.206C239.123 148.218 238.9 152.119 238.566 156.131C235.227 156.8 232 157.803 228.661 156.466Z" fill="#420600"/>
<path d="M225.434 144.206C225.434 148.33 225.434 152.342 225.434 156.466C222.206 157.58 218.979 157.58 215.751 156.466C215.751 152.565 215.751 148.553 215.751 144.652C218.979 144.54 222.206 144.429 225.434 144.206Z" fill="#420800"/>
<path d="M212.413 144.986C212.413 148.776 212.413 152.565 212.413 156.466C209.185 157.58 205.958 157.58 202.73 156.466C202.73 152.676 202.397 148.887 202.953 144.986C206.18 144.986 209.408 144.986 212.524 144.986H212.413Z" fill="#430700"/>
<path d="M186.259 145.098C186.259 148.887 186.259 152.676 186.259 156.466C183.032 157.58 179.804 157.692 176.688 156.466C176.132 152.676 176.688 148.887 176.354 145.209C179.693 145.209 183.032 145.209 186.37 145.209L186.259 145.098Z" fill="#420600"/>
<path d="M189.375 156.466C189.375 152.676 189.375 148.887 189.375 145.098C192.492 145.098 195.496 145.098 198.613 145.098C199.169 148.887 198.835 152.676 198.835 156.577C195.719 157.692 192.603 157.692 189.487 156.577L189.375 156.466Z" fill="#420600"/>
<path d="M148.866 155.686C148.754 152.565 148.532 149.444 148.42 146.435C148.42 145.767 148.086 144.986 149.088 144.541C151.759 144.541 154.43 144.541 157.101 144.652C157.101 147.661 157.101 150.67 157.212 153.68C157.212 155.24 156.878 155.909 155.209 155.686C154.541 155.574 153.762 155.686 153.095 155.686C151.648 156.466 150.312 156.577 148.866 155.686Z" fill="#420600"/>
<path d="M146.417 144.206C146.417 147.995 146.751 151.785 146.306 155.574C144.303 156.577 142.411 156.577 140.407 155.574C139.517 153.456 140.296 151.339 140.074 149.11C139.962 147.55 140.074 146.101 140.074 144.54C142.188 144.429 144.303 144.318 146.528 144.206H146.417Z" fill="#430700"/>
<path d="M104.572 282.182C106.018 284.077 105.907 286.083 106.352 287.866C108.912 298.454 113.475 308.15 120.375 316.621C125.16 322.528 130.836 327.543 137.848 330.775C138.293 330.998 138.738 331.221 139.183 331.444C139.962 331.778 140.407 332.447 139.962 333.227C139.628 334.007 138.738 333.784 138.182 333.561C136.735 332.893 135.288 332.224 133.841 331.444C124.604 326.094 117.815 318.404 112.473 309.265C108.356 302.132 105.573 294.442 104.238 286.195C104.015 285.08 104.015 283.854 104.46 282.294L104.572 282.182Z" fill="#F48F00"/>
<path d="M79.6423 271.817C80.1988 260.672 83.3149 249.304 87.6553 238.271C89.1021 234.481 90.8827 230.803 93.2198 227.46C93.7763 226.791 94.2214 226.011 94.8892 225.454C95.5569 224.897 96.2247 223.782 97.2263 224.562C98.0054 225.231 97.4489 226.568 97.0037 227.126C88.9908 237.156 86.0972 249.193 83.0924 261.23C81.7569 266.579 81.2004 272.04 81.423 277.613C81.423 278.17 81.7569 279.173 81.0891 279.396C80.0875 279.619 80.1988 278.505 79.9762 277.836C79.4197 276.053 79.9762 274.269 79.6423 271.595V271.817Z" fill="#F58F00"/>
<path d="M144.414 336.682C144.748 338.8 143.857 341.029 143.969 343.369C143.969 344.038 143.746 344.706 142.967 344.818C141.965 344.818 141.743 344.149 141.854 343.258C142.077 339.803 142.411 336.348 142.744 332.893C142.744 332.335 143.078 331.89 143.746 332.001C144.191 332.001 144.414 332.558 144.414 333.004C144.414 334.119 144.414 335.345 144.414 336.793V336.682Z" fill="#ECB639"/>
<path d="M190.488 390.847C182.698 391.181 174.907 390.736 167.117 390.29C161.219 390.067 155.209 389.733 149.422 388.284C148.531 388.061 147.752 387.838 146.973 387.281C146.194 386.723 145.304 386.501 144.748 387.392C143.969 388.507 144.748 389.287 145.638 389.621C147.641 390.624 149.867 391.181 152.093 391.627C158.214 392.853 164.446 393.076 170.678 393.299C180.249 393.522 189.82 394.191 199.392 393.856C210.298 393.41 221.093 392.965 232 391.85C239.456 391.07 246.802 390.401 254.147 388.729C255.371 388.395 256.706 388.172 257.374 387.169C258.487 385.386 259.489 385.943 260.824 386.723C262.271 387.615 263.718 388.395 265.165 389.287C266.611 390.178 266.611 391.293 265.165 392.407C264.163 393.299 262.939 393.856 261.715 394.302C255.371 396.865 248.582 397.98 242.016 399.094C232.779 400.766 223.43 400.989 214.193 401.435C204.066 401.881 193.827 401.992 183.699 401.658C172.57 401.212 161.441 400.766 150.312 399.763C142.633 398.983 135.065 397.646 127.72 395.751C125.828 395.305 124.159 394.525 122.489 393.522C120.041 392.073 119.596 389.955 121.265 387.615C122.601 385.832 124.27 384.494 126.273 383.603C128.165 382.823 130.168 382.265 131.838 381.262C134.064 379.925 136.178 380.036 138.404 380.594C147.196 382.711 156.099 384.494 165.003 385.943C167.674 386.389 170.345 386.723 173.016 386.723C182.809 386.723 192.491 386.835 202.285 386.612C207.961 386.501 213.525 385.832 219.201 385.163C223.542 384.606 227.882 384.494 232.222 384.16C237.787 383.603 243.463 382.934 249.027 382.488C251.364 382.265 253.479 383.157 255.371 384.383C256.595 385.163 255.705 385.832 254.814 386.166C251.921 387.169 248.805 387.726 245.689 388.172C233.001 389.844 220.203 390.624 207.293 390.959C201.617 391.07 195.941 391.07 190.266 391.181L190.488 390.847Z" fill="#AE4A2A"/>
<path d="M148.42 344.038C148.754 344.261 149.088 344.372 149.311 344.595C150.98 345.598 151.425 345.041 151.425 343.146C151.425 339.468 150.98 335.79 151.759 332.224C152.315 331.778 152.872 331.89 153.428 332.224C155.654 333.338 158.325 333.227 160.217 335.122C160.551 335.567 160.662 336.125 160.662 336.682C159.883 337.462 160.217 338.465 160.217 339.357C160.217 349.945 160.217 360.644 160.217 371.232C160.217 373.015 159.661 373.238 158.103 373.015C153.206 372.346 153.206 372.346 153.206 367.442C153.206 359.195 153.206 350.948 153.206 342.7C153.206 339.691 152.872 336.571 152.649 333.227C151.648 334.119 151.981 335.01 151.981 335.679C151.981 344.038 151.981 352.285 151.87 360.644C151.87 363.653 151.648 366.774 151.536 369.783C151.536 370.452 151.648 371.232 150.646 371.232C149.867 371.232 148.865 371.232 148.531 370.117C148.531 369.894 148.531 369.56 148.531 369.226C148.531 360.867 148.531 352.508 148.531 344.149L148.42 344.038Z" fill="#AE4A2A"/>
<path d="M211.188 338.799C211.188 341.809 211.188 344.818 211.188 347.827C211.188 351.393 210.521 351.059 214.527 351.059C214.972 358.526 213.971 365.882 214.193 373.349C214.193 375.467 212.635 374.687 211.745 374.91C210.298 375.244 210.743 374.018 210.743 373.349C210.855 369.003 210.743 364.656 210.966 360.31C211.188 354.18 210.855 347.938 210.743 341.809C210.743 341.251 210.743 340.583 210.076 340.583C209.519 340.583 209.408 341.251 209.408 341.697C209.408 342.589 209.408 343.592 209.408 344.484C209.297 354.068 208.74 363.653 208.963 373.349C208.963 376.693 206.403 375.133 205.067 375.467C203.287 376.024 203.732 374.241 203.732 373.349C203.732 363.542 203.732 353.845 203.732 344.038C203.732 342.923 204.066 341.697 202.508 341.14C202.508 340.583 202.396 340.137 202.842 339.691C205.513 338.354 208.295 338.131 211.188 338.799Z" fill="#AE4A2A"/>
<path d="M174.796 338.242C174.796 338.688 174.796 339.134 174.907 339.58C173.906 339.691 174.017 340.583 174.017 341.251C174.017 350.836 174.017 360.421 174.017 370.006C174.017 370.229 174.017 370.452 174.017 370.674C174.017 372.012 175.13 374.352 173.906 374.575C171.903 375.021 169.565 374.575 167.562 374.018C167.006 373.795 167.117 373.126 167.117 372.681C167.117 371.12 167.117 369.671 167.117 368.111C167.006 361.313 166.895 354.514 166.561 347.604C166.561 345.152 166.115 342.7 166.227 340.248C166.227 339.468 166.004 339.022 165.336 338.688C165.336 338.019 165.336 337.239 165.336 336.57C165.559 336.348 165.893 336.013 166.227 336.125C169.12 336.57 172.125 336.682 174.796 338.242Z" fill="#AE4A2A"/>
<path d="M224.321 336.125C224.877 336.793 224.655 337.685 224.655 338.465C224.21 337.908 223.653 337.128 223.208 338.465C222.985 339.134 222.985 339.914 222.985 340.583C222.985 350.725 222.985 360.867 222.985 371.009C222.985 372.904 222.763 373.907 220.426 374.018C215.863 374.241 215.751 374.464 215.974 369.894C216.197 360.755 216.419 351.728 216.308 342.589C216.308 341.697 216.864 340.36 215.084 340.36C215.084 339.58 215.084 338.8 215.084 338.019C217.977 336.793 220.982 335.79 224.21 336.236L224.321 336.125Z" fill="#AE4A2A"/>
<path d="M228.327 336.682C228.327 336.013 228.327 335.456 228.327 334.787C230.776 333.004 233.558 331.89 236.563 331.778C237.119 332.67 236.786 333.561 236.897 334.453C235.227 333.896 235.673 335.233 235.673 335.902C235.673 340.025 235.673 344.149 235.673 348.384C235.784 355.183 235.339 361.87 235.339 368.668C235.339 370.563 234.671 371.232 232.89 371.678C229.552 372.346 229.552 372.458 229.552 369.114C229.552 358.972 229.552 348.719 229.552 338.577C229.552 337.908 230.331 336.236 228.327 336.793V336.682Z" fill="#AE4A2A"/>
<path d="M190.266 342.812C190.266 341.809 190.266 340.806 190.266 339.803C190.599 339.357 191.045 339.357 191.601 339.357C193.493 339.691 195.385 339.691 197.166 339.357C197.833 339.357 198.39 339.357 198.835 339.691C198.835 340.248 198.835 340.806 198.835 341.474C197.5 341.586 198.056 342.589 197.945 343.369C197.388 353.288 197.5 363.319 197.611 373.238C197.611 375.132 197.277 375.801 195.274 375.69C190.711 375.467 191.49 376.247 191.49 371.9C191.49 363.207 191.49 354.403 191.49 345.709C191.49 344.595 191.824 343.257 190.266 342.923V342.812Z" fill="#AE4A2A"/>
<path d="M185.814 339.58C185.814 340.137 185.814 340.694 185.814 341.363C184.812 343.815 185.035 346.49 185.035 349.053C185.035 357.078 184.59 364.991 185.258 373.015C185.258 374.241 185.814 375.69 183.588 375.69C179.804 375.69 179.693 375.69 179.693 373.127C179.693 365.102 179.693 357.189 179.693 349.165C179.693 347.047 179.693 344.818 178.803 342.812C178.803 341.586 178.803 340.249 178.803 339.023C181.251 338.354 183.588 338.688 185.814 339.803V339.58Z" fill="#AE4A2A"/>
<path d="M237.008 345.821C238.232 345.375 239.568 344.929 240.792 344.484C241.126 352.508 240.124 360.421 240.347 368.446C240.347 369.449 238.232 370.898 237.342 370.675C236.674 370.452 236.897 369.894 236.897 369.337C236.897 361.536 236.897 353.623 236.897 345.821H237.008Z" fill="#AE4A2A"/>
<path d="M224.766 349.276C225.879 348.942 226.992 348.719 228.105 348.384C228.105 355.963 228.105 363.542 228.216 371.12C228.216 373.238 226.769 373.015 225.545 373.126C224.21 373.126 224.766 372.012 224.766 371.343C224.766 363.987 224.766 356.632 224.766 349.276Z" fill="#AE4928"/>
<path d="M161.553 348.384C162.666 348.719 163.778 348.942 164.891 349.276C165.114 356.855 165.225 364.433 165.448 371.9C165.448 373.015 165.448 373.907 163.89 373.795C162.554 373.795 161.775 373.461 161.887 371.9C161.887 370.674 161.887 369.448 161.887 368.223C162.109 361.647 161.441 354.96 161.553 348.384Z" fill="#AE4A2A"/>
<path d="M186.816 351.951C187.817 351.951 188.819 351.951 189.821 351.951C189.821 359.306 189.821 366.662 189.821 374.018C189.821 375.021 189.709 375.69 188.374 375.69C187.15 375.69 186.704 375.244 186.704 374.018C186.704 366.662 186.704 359.306 186.704 351.951H186.816Z" fill="#AE492A"/>
<path d="M199.503 351.951C200.393 351.951 201.172 351.951 202.063 351.951C202.063 359.306 202.063 366.662 202.063 374.018C202.063 374.687 202.174 375.578 201.061 375.578C199.837 375.578 199.837 374.798 199.948 374.018C200.171 366.662 199.392 359.306 199.503 351.951Z" fill="#AE4928"/>
<path d="M175.909 351.059C176.799 350.948 177.578 351.616 178.358 351.059C178.246 358.526 178.135 365.994 178.024 373.572C178.024 374.241 178.246 375.133 177.022 375.133C175.798 375.133 175.798 374.464 175.798 373.572C175.798 366.105 175.798 358.526 175.798 351.059H175.909Z" fill="#AE4928"/>
<path d="M286.421 273.935C285.865 288.201 283.083 300.795 275.849 311.94C272.287 317.512 267.724 321.97 261.826 325.091C260.824 325.648 259.823 325.871 258.71 325.76C258.042 325.76 257.374 325.76 257.152 324.868C256.929 324.199 257.152 323.531 257.708 323.085C259.266 321.747 260.824 320.521 262.494 319.296C267.947 315.06 271.397 309.376 274.179 303.247C277.852 294.999 279.744 286.418 280.412 277.39C280.968 271.149 280.745 265.019 279.744 259.001C279.521 257.663 279.744 256.437 280.857 256.103C282.192 255.657 282.971 256.772 283.416 257.886C284.752 261.118 285.531 264.573 285.865 268.028C286.087 270.369 286.644 272.82 286.533 274.046L286.421 273.935Z" fill="#F58F00"/>
<path d="M244.353 337.239C244.353 335.79 244.353 334.341 244.353 332.893C244.353 332.335 244.353 331.555 245.132 331.555C245.8 331.555 245.8 332.335 245.8 332.67C246.245 335.79 246.023 338.911 246.023 342.032C246.023 342.589 245.689 343.035 245.132 343.035C244.465 343.035 244.353 342.477 244.353 341.92C244.353 340.36 244.353 338.688 244.353 337.128V337.239Z" fill="#EDB53A"/>
<path d="M131.838 155.24C131.838 168.614 127.498 180.651 119.93 191.684C116.591 196.588 114.254 201.715 113.475 207.622C113.364 208.736 113.141 209.851 111.805 209.739C110.47 209.628 110.693 208.402 110.804 207.51C111.138 202.718 112.807 198.26 115.033 194.136C118.928 186.669 123.38 179.536 125.828 171.4C128.388 162.93 128.833 154.348 127.943 145.544C127.386 140.083 126.162 134.844 123.38 130.052C120.931 125.928 117.259 123.588 112.696 122.696C108.689 121.916 103.57 126.04 102.568 130.721C101.455 136.293 101.344 141.977 102.123 147.661C102.457 149.89 103.57 151.896 105.796 152.676C108.578 153.568 113.03 152.119 114.365 150.113C116.035 147.438 116.925 144.541 116.035 141.42C115.701 140.083 115.033 138.745 113.475 138.411C112.251 138.076 111.249 138.745 110.693 139.637C109.802 140.974 109.246 142.534 109.691 144.206C109.691 144.429 110.136 144.763 110.47 144.875C111.026 144.986 111.138 144.541 111.36 144.095C111.805 143.092 111.805 141.308 113.475 142.089C114.922 142.757 114.143 144.318 113.697 145.432C113.141 146.881 112.028 147.661 110.47 147.55C108.912 147.438 107.465 146.881 107.02 145.098C106.352 142.089 106.241 138.968 108.578 136.516C111.805 132.838 113.03 133.173 116.146 136.628C119.818 140.863 120.152 146.212 118.26 151.451C116.925 155.017 113.697 155.909 110.47 156.689C105.017 158.138 102.346 154.905 100.343 151.673C99.2296 149.89 98.4505 147.773 98.3393 145.767C98.0054 139.525 97.4489 133.173 100.12 127.266C101.901 123.142 104.683 119.91 109.468 118.907C111.138 118.572 112.807 118.907 114.365 119.353C120.82 121.136 125.049 125.705 128.277 131.389C130.168 134.844 130.614 138.522 130.948 142.2C131.393 146.658 131.949 151.005 131.838 155.463V155.24Z" fill="#420600"/>
<path d="M114.81 188.564C114.588 189.121 114.365 189.678 114.031 190.124C109.58 198.483 105.239 206.841 100.788 215.2C100.343 216.092 99.8974 217.875 98.7845 217.318C97.6716 216.761 98.7845 215.423 99.2297 214.532C103.459 206.061 107.688 197.591 111.917 189.121C112.139 188.564 112.473 188.006 112.918 187.783C113.809 187.226 114.365 187.672 114.699 188.564H114.81Z" fill="#F48F00"/>
<path d="M268.281 220.884C264.831 214.866 263.162 208.29 261.492 201.715C258.376 190.124 256.595 178.199 255.037 166.273C254.703 163.376 254.703 160.478 255.037 157.58C256.707 149.556 257.82 141.308 262.605 134.287C267.613 126.931 273.845 120.913 282.971 118.907C293.099 116.678 298.663 119.91 302.002 129.718C302.113 130.052 302.336 130.386 302.447 130.721C303.783 135.29 303.226 139.748 300.889 143.872C300.333 144.875 299.776 146.324 298.441 145.766C297.105 145.209 297.662 143.76 297.884 142.646C298.552 138.745 299.554 134.956 298.552 131.055C297.662 127.377 295.547 124.702 292.431 122.585C291.652 122.027 290.762 121.916 289.76 121.805C283.639 121.805 278.52 124.034 273.845 127.934C266.278 134.287 262.605 142.757 260.045 152.119C258.153 159.141 258.376 166.051 259.044 173.183C259.823 181.542 261.492 189.678 263.829 197.703C265.832 204.724 267.613 211.857 269.95 218.767C270.507 220.55 270.173 221.219 268.281 220.773V220.884Z" fill="#420600"/>
<path d="M248.36 145.989C249.473 145.989 250.586 145.989 251.587 145.989C252.032 145.989 252.478 145.989 252.589 146.658C252.589 147.215 252.255 147.661 251.698 147.661C249.25 147.661 246.913 147.661 244.465 147.661C244.019 147.661 243.574 147.327 243.686 146.769C243.686 146.324 244.131 145.989 244.576 145.989C245.8 145.989 247.024 145.989 248.248 145.989H248.36Z" fill="#AC4829"/>
<path d="M168.453 148.218C167.006 148.107 165.337 147.884 163.667 147.772C163.222 147.772 162.666 147.661 162.666 147.104C162.666 146.546 163.111 146.435 163.556 146.435C165.782 146.435 168.007 146.435 170.233 146.435C170.79 146.435 171.458 146.435 171.458 147.327C171.458 148.107 170.901 148.218 170.345 148.218C169.788 148.218 169.343 148.218 168.453 148.218Z" fill="#AD4929"/>
<path d="M233.78 145.878C234.671 145.878 235.339 145.878 236.118 145.878C236.674 145.878 237.342 145.878 237.342 146.77C237.342 147.55 236.897 147.884 236.34 147.884C234.448 147.884 232.556 147.773 230.776 147.661C230.553 147.661 230.219 147.327 230.219 147.104C230.219 146.658 230.553 146.212 230.998 146.212C232 146.101 233.002 145.989 233.892 145.989L233.78 145.878Z" fill="#AE492A"/>
<path d="M219.313 148.107C218.867 148.107 218.422 148.107 217.866 147.995C217.421 147.884 216.864 147.661 216.864 146.992C216.864 146.435 217.421 146.435 217.866 146.324C219.535 145.878 221.205 145.878 222.763 145.878C223.43 145.878 223.987 146.101 223.987 146.77C223.987 147.438 223.43 147.55 222.985 147.661C221.761 147.773 220.537 147.884 219.201 147.995L219.313 148.107Z" fill="#AB4728"/>
<path d="M207.738 148.33C206.626 147.773 204.511 148.999 204.511 147.327C204.511 145.767 206.514 146.435 207.516 146.435C208.74 146.435 210.855 145.432 210.855 147.327C210.855 148.999 208.629 147.55 207.627 148.218L207.738 148.33Z" fill="#AD4929"/>
<path d="M181.696 146.435C182.587 146.435 183.477 146.435 184.256 146.435C184.924 146.435 185.369 146.769 185.369 147.55C185.369 148.107 184.924 148.553 184.367 148.553C182.475 148.441 180.695 148.218 178.803 147.995C178.469 147.995 178.135 147.661 178.135 147.215C178.135 146.769 178.469 146.546 178.803 146.546C179.693 146.546 180.695 146.546 181.585 146.546L181.696 146.435Z" fill="#AC4829"/>
<path d="M195.719 148.887C194.384 148.218 192.825 148.887 191.49 148.33C191.045 148.107 190.377 147.995 190.488 147.327C190.488 146.881 191.156 146.77 191.601 146.77C193.048 146.77 194.495 146.77 195.942 146.77C196.609 146.77 197.277 146.881 197.277 147.773C197.277 148.664 196.609 148.999 195.719 148.887Z" fill="#AD4929"/>
<path d="M153.317 147.773C151.87 147.773 149.867 147.884 149.867 146.658C149.867 145.209 151.87 146.324 152.983 145.989C152.983 145.989 153.095 145.989 153.206 145.989C154.096 146.212 155.654 145.432 155.654 146.881C155.654 148.441 153.985 147.327 153.317 147.773Z" fill="#AD4929"/>
<path d="M142.967 145.543C143.746 145.766 145.193 145.098 145.082 146.547C145.082 147.55 143.857 147.327 143.19 147.327C142.299 147.327 140.964 147.661 141.075 146.324C141.075 145.209 142.299 145.878 142.967 145.543Z" fill="#AD4929"/>
<path d="M157.546 351.505C157.546 352.842 157.546 354.068 157.546 355.406C157.546 356.186 157.324 356.966 156.433 356.855C155.654 356.855 155.432 356.186 155.432 355.517C155.432 349.945 155.432 344.484 155.432 338.911C155.432 338.242 155.432 337.462 156.433 337.574C157.324 337.574 157.212 338.354 157.212 338.911C157.212 343.146 157.212 347.27 157.212 351.505C157.324 351.505 157.546 351.505 157.657 351.505H157.546Z" fill="#EDB73B"/>
<path d="M206.848 350.948C206.959 352.731 206.625 354.848 207.071 356.855C207.293 357.635 206.959 358.415 205.958 358.415C205.067 358.415 204.845 357.635 204.845 356.855C205.067 353.065 205.29 349.387 205.513 345.598C205.513 345.041 205.512 344.261 206.18 344.149C206.959 344.149 206.737 344.929 206.848 345.487C206.848 347.158 206.848 348.83 206.848 350.836V350.948Z" fill="#ECB639"/>
<path d="M171.458 345.152C170.901 348.719 171.124 352.954 171.012 357.078C171.012 357.858 171.012 358.972 170.011 358.861C168.898 358.861 168.898 357.746 169.009 356.855C169.566 352.397 169.009 347.827 169.788 343.369C169.9 342.589 169.343 341.251 170.679 341.251C171.903 341.251 171.458 342.589 171.569 343.369C171.569 343.815 171.569 344.261 171.569 345.152H171.458Z" fill="#ECB639"/>
<path d="M220.426 348.496C220.426 350.39 220.426 352.285 220.426 354.18C220.426 354.848 220.203 355.406 219.424 355.406C218.756 355.406 218.756 354.848 218.534 354.291C217.755 351.839 218.534 349.387 218.534 346.935C218.534 345.598 218.534 344.26 218.534 343.035C218.534 342.477 218.645 341.809 219.424 341.809C220.203 341.809 220.314 342.477 220.314 343.146C220.314 344.929 220.314 346.824 220.314 348.607L220.426 348.496Z" fill="#EDB73B"/>
<path d="M233.447 345.598C233.447 347.604 233.447 349.499 233.447 351.505C233.447 352.285 233.447 353.288 232.334 353.177C231.444 353.177 231.332 352.174 231.332 351.505C231.889 347.604 231.444 343.703 231.666 339.803C231.666 339.134 231.666 338.131 232.668 338.242C233.558 338.242 233.447 339.134 233.447 339.803C233.447 341.809 233.447 343.703 233.447 345.709V345.598Z" fill="#EDB73B"/>
<path d="M195.497 352.62C195.497 355.071 195.497 357.412 195.497 359.864C195.497 360.533 195.497 361.313 194.606 361.313C193.716 361.313 193.827 360.421 193.827 359.864C193.605 355.183 194.272 350.391 194.272 345.71C194.272 345.152 194.272 344.595 195.051 344.706C195.608 344.706 195.608 345.375 195.608 345.71C195.608 348.05 195.608 350.39 195.608 352.731L195.497 352.62Z" fill="#ECB639"/>
<path d="M191.712 339.914C193.493 339.914 195.274 339.914 196.943 339.914C195.162 340.248 193.382 340.248 191.712 339.914Z" fill="#F58F00"/>
<path d="M183.143 351.728C183.143 353.845 183.143 356.074 183.143 358.192C183.143 358.861 183.143 359.864 182.03 359.752C181.028 359.752 181.028 358.749 181.14 358.08C181.696 353.845 181.362 349.722 181.474 345.487C181.474 344.818 181.585 343.926 182.364 343.926C183.366 343.926 183.254 344.818 183.254 345.598C183.254 347.604 183.254 349.61 183.254 351.728H183.143Z" fill="#ECB43A"/>
<path d="M44.4743 483.463C45.6985 476.887 48.1469 471.315 50.3727 465.631C54.1566 456.269 57.718 446.684 62.6148 437.768C66.2874 431.081 69.6261 424.171 72.8536 417.261C73.5213 415.812 74.1891 414.14 74.6342 412.58C75.1907 410.574 76.4149 409.682 78.0843 409.014C79.9762 408.233 81.423 407.008 82.4246 405.336C82.8698 404.556 83.0923 403.775 83.3149 402.772C83.7601 399.652 85.4295 396.977 87.4327 394.637C87.6553 394.414 88.2117 394.191 88.5456 394.302C90.5489 395.082 91.1053 393.522 92.1069 392.296C94.6666 389.064 96.2247 385.275 97.5602 381.374C97.7828 380.817 98.0053 380.259 98.3392 379.702C120.82 343.258 143.412 306.925 165.893 270.48C198.167 218.21 230.442 165.828 262.716 113.557C273.511 96.0593 284.307 78.6729 295.658 61.5095C303.337 49.9186 312.018 39.1078 320.476 28.0742C323.147 24.5078 325.15 20.8299 326.486 16.5947C327.265 13.9199 328.712 12.8054 331.605 12.694C334.721 12.694 337.504 11.8023 340.063 10.0191C340.62 9.57331 341.288 9.35043 341.955 9.79623C342.623 10.3535 342.846 10.9107 342.734 11.9138C341.844 16.0375 339.841 19.6039 336.725 22.3902C335.5 23.5047 334.833 24.7306 334.499 26.291C334.054 29.0772 332.496 31.5292 331.049 33.9811C325.373 43.2315 319.92 52.482 314.244 61.7324C274.402 127.154 234.226 192.241 194.05 257.44C174.796 288.758 155.543 320.076 136.178 351.393C128.165 364.433 120.152 377.473 112.139 390.513C111.36 391.85 110.693 393.188 108.801 393.188C108.022 393.188 107.354 394.079 106.909 394.859C105.017 398.76 103.013 402.661 103.013 407.23C103.013 409.459 101.901 411.688 100.342 413.472C98.2279 415.924 97.0037 418.821 96.5586 421.942C96.2247 424.171 95.4457 426.066 94.2215 427.849C86.4311 439.44 78.8633 451.254 70.2939 462.51C64.0616 470.757 57.6067 478.671 50.3727 486.026C48.926 487.475 47.7018 489.035 45.9211 490.15C45.3646 490.596 44.8082 490.707 44.1405 490.373C43.3614 489.927 43.9179 489.481 43.9179 488.924C43.9179 486.918 44.1405 485.023 44.4743 483.574V483.463Z" fill="#420600"/>
<path d="M84.5392 404.667C88.8796 406.45 92.3296 409.348 95.7796 412.246C96.8926 413.137 97.3377 414.029 96.0022 415.143C95.0006 416.035 94.778 417.372 94.5554 418.598C94.3329 421.05 93.5538 423.168 92.107 425.063C82.4247 437.991 73.8553 451.699 64.5068 464.851C59.61 471.649 54.0455 478.002 48.3696 484.243C48.0358 484.577 47.7019 484.912 47.2567 485.135C46.9228 485.469 46.4777 485.692 46.0325 485.357C45.5873 485.023 45.9212 484.577 45.9212 484.243C46.2551 480.454 47.8132 476.887 49.1487 473.321C51.3745 467.637 53.6003 461.841 55.7149 456.046C57.7181 450.585 60.6117 445.681 63.0601 440.554C67.1778 431.972 71.5182 423.614 75.5247 415.032C76.5263 412.914 77.9731 411.354 79.9763 410.351C82.536 409.125 83.9828 407.119 84.6505 404.444L84.5392 404.667Z" fill="#F58F00"/>
<path d="M276.628 101.855C276.071 102.746 275.626 103.638 275.181 104.418C262.16 123.811 250.252 143.983 237.898 163.821C212.524 204.501 187.261 245.292 161.998 285.972C161.33 286.975 160.774 287.978 160.106 289.092C159.661 289.761 159.327 289.984 158.548 289.538C157.435 288.981 158.214 288.424 158.548 287.978C167.785 273.266 177.022 258.555 186.148 243.843C212.746 201.158 239.456 158.36 266.055 115.675C268.726 111.328 271.063 106.87 274.179 102.746C274.624 102.189 275.069 101.743 275.515 101.297C275.737 101.075 276.182 100.963 276.405 101.297C276.516 101.52 276.516 101.743 276.628 101.966V101.855Z" fill="#FF7C00"/>
<path d="M324.705 26.9596C326.375 27.5168 327.71 27.9627 328.823 28.8543C329.825 29.7459 330.381 30.7489 329.491 32.0863C325.151 38.7734 321.144 45.7948 317.026 52.7048C314.801 56.3827 312.575 60.172 310.46 63.8499C309.681 65.1873 309.013 65.5216 307.455 64.5186C305.786 63.4041 303.783 62.8468 301.891 62.0667C299.887 61.175 299.554 60.3949 300.778 58.5002C307.789 48.1353 315.023 37.9932 322.702 28.1856C323.259 27.4054 323.926 26.7367 324.705 26.8481V26.9596Z" fill="#AE4A2A"/>
<path d="M150.423 304.584C149.199 306.702 147.975 308.931 146.64 310.937C132.617 333.561 118.594 356.297 104.571 378.922C104.015 379.702 103.459 380.705 102.346 380.036C101.233 379.368 101.789 378.476 102.346 377.584C117.37 353.511 132.283 329.438 147.752 305.699C148.198 305.03 148.643 304.361 149.199 303.692C149.533 303.247 149.867 302.912 150.312 303.247C150.869 303.581 150.423 304.138 150.423 304.584Z" fill="#FF7C00"/>
<path d="M285.976 103.304C283.861 100.072 281.19 98.0654 277.629 97.6196C276.516 97.5082 276.628 96.9509 277.073 96.0593C278.965 93.0501 280.745 90.1524 282.415 87.0318C282.971 86.0287 283.528 85.9173 284.529 86.0287C287.979 86.6974 290.428 88.7035 292.208 91.7127C292.431 92.1585 292.542 92.4929 292.208 93.0501C290.094 96.3936 288.091 99.7372 285.865 103.304H285.976Z" fill="#0C0000"/>
<path d="M100.12 402.215C99.1184 401.769 98.6732 400.878 98.0055 400.209C96.5587 398.76 95.1119 397.423 93.1087 396.754C91.7732 396.308 91.7731 395.528 92.6635 394.637C94.8893 392.408 97.1151 390.067 97.7829 386.835C97.8941 386.278 98.228 386.278 98.6732 386.501C98.8958 386.501 99.0071 386.724 99.2297 386.835C101.01 387.838 103.236 388.507 104.126 390.179C105.128 392.073 102.902 393.745 102.346 395.64C101.678 397.757 100.899 399.875 100.12 402.104V402.215Z" fill="#EDB739"/>
<path d="M340.063 12.248C339.062 16.0374 337.281 18.3779 335.278 20.7183C333.831 22.3901 332.607 24.0619 331.939 26.1794C331.717 26.9596 331.271 27.071 330.604 26.7367C329.157 25.9565 327.71 25.0649 326.152 24.5077C325.484 24.2848 325.596 23.9504 325.93 23.5046C327.376 21.0527 328.378 18.4893 329.491 15.8145C329.825 15.1458 330.159 14.8114 330.826 14.8114C333.942 14.8114 337.059 14.2542 340.175 12.3595L340.063 12.248Z" fill="#EEB83E"/>
<path d="M158.436 292.77C161.441 293.439 163.445 295.334 165.114 297.897C165.336 298.343 165.67 298.9 165.337 299.234C164.112 300.683 162.888 302.132 161.775 303.804C161.441 304.25 161.107 303.804 160.885 303.47C158.993 301.24 156.656 299.457 153.874 298.677C152.983 298.454 152.761 298.008 153.317 297.228C154.096 295.891 154.875 294.553 155.654 293.216C156.433 291.99 157.435 292.882 158.436 292.882V292.77Z" fill="#0C0000"/>
<path d="M97.5602 410.908C95.6683 409.348 93.9989 407.788 92.3295 406.339C90.5489 404.779 88.5456 403.33 86.2085 402.55C85.4295 402.215 85.3182 401.992 85.6521 401.324C86.4311 399.875 87.2102 398.426 87.9892 397.088C91.5505 399.429 95.557 401.212 98.3392 404.556C99.007 405.447 99.3409 406.116 98.6731 407.008C97.8941 408.122 98.0054 409.459 97.5602 411.02V410.908Z" fill="#EDB739"/>
<path d="M288.424 83.0194C287.757 82.4622 287.979 81.9049 288.424 81.3477C289.426 79.6759 290.539 78.0042 291.652 76.2209C293.878 72.766 295.992 69.311 298.218 65.856C298.552 65.2987 298.997 64.2957 299.887 64.7415C301 65.4102 300.11 66.1903 299.665 66.7476C296.437 71.6514 293.21 76.6667 289.982 81.5706C289.649 82.1278 289.315 82.6851 288.536 82.908L288.424 83.0194Z" fill="#FF7B00"/>
<path d="M74.8567 422.722C76.0809 423.168 75.3019 424.06 75.3019 424.728C75.3019 425.508 74.968 426.511 75.7471 426.957C76.7487 427.403 77.5277 426.511 78.0842 425.843C78.9745 424.728 79.6423 423.502 80.31 422.276C82.4245 418.598 84.5391 414.809 86.6536 411.131C86.9875 410.462 87.3213 409.348 88.323 409.794C89.5472 410.351 88.7681 411.243 88.323 412.023C85.652 417.15 83.0923 422.499 80.1987 427.515C78.9745 429.632 77.7503 431.861 77.5277 434.424C77.5277 435.316 77.5277 436.096 78.4181 436.431C79.4197 436.765 79.3084 435.65 79.6423 435.205C79.9761 434.536 80.31 433.756 81.3116 434.313C82.0907 434.759 81.9794 435.539 81.5342 436.319C80.5326 438.325 78.7519 439.663 76.6374 440.22C75.5245 440.554 74.968 441 74.5229 441.892C72.6309 445.57 70.2938 448.802 67.0663 451.365C64.7292 453.26 63.3938 453.26 61.3905 452.034C60.8341 450.139 60.9453 448.467 62.726 447.241C63.3938 447.241 63.7276 447.576 64.0615 448.021C65.1744 449.47 65.5083 449.582 66.7325 448.133C68.5131 446.238 70.0712 444.232 70.9615 441.78C72.1857 438.66 73.41 435.539 74.7455 432.418C75.0793 431.415 75.0793 430.858 74.189 430.189C72.9648 429.298 72.5196 428.072 72.6309 426.623C72.6309 425.843 72.8535 425.063 73.0761 424.282C73.2987 423.614 73.6325 422.945 74.6342 423.056L74.8567 422.722Z" fill="#420600"/>
<path d="M63.2826 447.019C61.3907 448.133 62.1697 450.139 61.6132 451.699C59.4987 455.6 58.2745 459.835 56.4939 463.848C54.6019 468.306 52.8212 472.987 50.9293 477.445C50.7067 478.002 50.4842 478.894 49.5938 478.559C48.7035 478.225 48.9261 477.445 49.0374 476.776C49.26 475.55 50.039 474.436 50.4841 473.21C54.7132 462.51 59.3874 451.922 63.9504 441.335C67.8456 432.196 72.7424 423.502 76.8601 414.475C77.0827 413.918 77.4166 413.583 77.8618 413.249C80.3102 411.577 82.7586 410.128 84.4279 407.565C84.6505 407.119 85.0957 406.785 85.6521 407.231C86.2086 407.676 86.3199 408.234 85.986 409.014C84.7618 411.354 82.6473 412.803 80.4214 413.918C78.6408 414.698 77.973 416.035 77.194 417.595C76.415 419.267 75.6359 421.05 74.9682 422.722C73.2988 423.502 74.0779 425.397 73.2988 426.623C73.0762 429.298 71.7407 431.527 70.6278 433.979C68.8472 437.768 67.0665 441.557 65.0633 445.235C64.6181 446.015 64.3955 446.907 63.2826 447.019Z" fill="#EDB739"/>
<path d="M302.67 59.2805C303.115 56.94 304.673 55.3797 305.897 53.5965C311.351 45.6835 316.915 37.7705 322.48 29.9689C323.036 29.1888 323.481 27.7399 324.594 28.4086C325.485 28.9658 324.483 30.1918 323.926 30.8605C317.36 40.111 310.905 49.3614 304.005 58.3889C303.783 58.7233 303.56 59.1691 302.67 59.2805Z" fill="#F48E00"/>
<path d="M63.2824 447.018C66.955 440.777 69.9599 434.202 72.7422 427.514C72.8535 427.18 73.076 426.957 73.1873 426.623C73.1873 428.183 73.9664 429.186 75.1906 429.743C76.0809 430.189 75.9696 430.412 75.6358 431.192C74.189 434.759 72.9648 438.325 71.4067 441.78C70.2938 444.455 68.4018 446.684 66.5099 448.802C65.8421 449.582 65.0631 449.47 64.2841 449.247C63.3937 449.025 63.7276 448.356 63.7276 447.798C63.7276 447.353 63.505 447.018 63.1711 446.795L63.2824 447.018Z" fill="#F48F00"/>
</g>
<defs>
<clipPath id="clip0_255_3">
<rect width="518" height="385" fill="white" transform="translate(264 321)"/>
</clipPath>
<clipPath id="clip1_255_3">
<rect width="350" height="490" fill="white"/>
</clipPath>
</defs>
</svg>
