<?xml version="1.0" encoding="UTF-8"?>
<svg id="Layer_1" data-name="Layer 1" xmlns="http://www.w3.org/2000/svg" version="1.1" viewBox="0 0 1053.9 665.9">
  <defs>
    <style>
      .cls-1 {
        fill: #343434;
      }

      .cls-1, .cls-2, .cls-3, .cls-4, .cls-5, .cls-6, .cls-7, .cls-8, .cls-9, .cls-10, .cls-11, .cls-12, .cls-13, .cls-14, .cls-15, .cls-16, .cls-17, .cls-18, .cls-19, .cls-20, .cls-21, .cls-22, .cls-23, .cls-24, .cls-25, .cls-26, .cls-27, .cls-28, .cls-29 {
        stroke-width: 0px;
      }

      .cls-2 {
        fill: #e8eaeb;
      }

      .cls-3 {
        fill: #8f8b89;
      }

      .cls-4 {
        fill: #02b6d5;
      }

      .cls-5 {
        fill: #dfdfe0;
      }

      .cls-6 {
        fill: #504949;
      }

      .cls-7 {
        fill: #eeeff0;
      }

      .cls-8 {
        fill: #87f1fe;
      }

      .cls-9 {
        fill: #838281;
      }

      .cls-10 {
        fill: #7b7474;
      }

      .cls-11 {
        fill: #ffd903;
      }

      .cls-12 {
        fill: #fe0233;
      }

      .cls-13 {
        fill: #abaead;
      }

      .cls-14 {
        fill: #02b7d5;
      }

      .cls-15 {
        fill: #767473;
      }

      .cls-16 {
        fill: #999;
      }

      .cls-17 {
        fill: #ebeced;
      }

      .cls-18 {
        fill: #6b6868;
      }

      .cls-19 {
        fill: #eceeef;
      }

      .cls-20 {
        fill: #615e5e;
      }

      .cls-21 {
        fill: #a60126;
      }

      .cls-22 {
        fill: #e5e8e9;
      }

      .cls-23 {
        fill: #ff8701;
      }

      .cls-24 {
        fill: #413e3d;
      }

      .cls-25 {
        fill: #1f1f1f;
      }

      .cls-26 {
        fill: #cecfcf;
      }

      .cls-27 {
        fill: #e3e5e5;
      }

      .cls-28 {
        fill: #030303;
      }

      .cls-29 {
        fill: #f0f1f2;
      }
    </style>
  </defs>
  <path class="cls-25" d="M165.9,600.4c-1.9,0-3.8-.1-5.7-.2-11.8-.3-23.5-.5-35.3-1-6.5-.3-13-1.2-19.5-1.9-.7-1-1.8-.9-2.9-.9-1.6,0-3.2,0-4.7,0,0,0,0,0,0,0-.3,0-.7,0-1,0-.6,0-1.2-.1-1.9-.2-1.1-1.2-2.5-.9-3.8-.7,0,0,0,0,0,0,.1-.8.5-1.6,1.4-1.7,1.6-.1,3.2-.1,4.8-.1,288,0,575.9,0,863.9,0,1.4,0,2.9,0,4.3,0,.7,0,1.4.7,2.1,1,0,.2-.2.5-.2.7,0,0,0,0,0,0-1.3-.2-2.7-.5-3.8.6-.6,0-1.2.1-1.9.2-.3,0-.7,0-1,0h-.5c0,.1-.5,0-.5,0-1.4-.3-2.7-.5-3.9.6-.6,0-1.2.1-1.9.2-.3,0-.7,0-1,0-15.8,2-31.7,2.8-47.6,2.9-4.3,0-8.6.1-12.9.2-1.1,0-2.2-.2-3.3-.2-21.8,0-43.6,0-65.4,0-1.1,0-2.2.1-3.3.2-1.6,0-3.2-.2-4.7-.2-10,0-19.9,0-29.9,0-2.5,0-5.1.1-7.6.2-1.4,0-2.9-.2-4.3-.2-29,0-57.9,0-86.9,0-1.3,0-2.5,0-3.8.1-1.6,0-3.2-.2-4.8-.2-95.4,0-190.8,0-286.1,0-1.6,0-3.2.2-4.8.2-1.1,0-2.2-.1-3.3-.1-33.4,0-66.9,0-100.3,0-1.3,0-2.5.1-3.8.2-.8,0-1.6-.2-2.4-.2-12.5,0-25,0-37.5,0-.8,0-1.6.1-2.4.2-1.1,0-2.2-.2-3.3-.2-21.8,0-43.6,0-65.4,0-1.1,0-2.2.2-3.3.2Z"/>
  <path class="cls-24" d="M967.5,594.8c-.7-.4-1.3-.9-2.1-1-1.4-.2-2.9,0-4.3,0-288,0-575.9,0-863.9,0-1.6,0-3.2,0-4.8.1-.9,0-1.2.9-1.4,1.7-1,0-2-.1-2.9-.2-.8-.9-1.9-.8-3-.6-4.9-.8-9.9-1.6-14.8-2.5-3.4-.6-6.7-1.6-10-2.4,1.8-1.6,4-.9,6-.9,308.1,0,616.3,0,924.4,0,1.4,0,2.9,0,4.3,0,.7,0,1.4.6,2.1,1-1.5.4-3,1-4.5,1.3-6.5,1.2-13,2.3-19.5,3.5-1-.2-2.1-.3-2.9.6-.6,0-1.3.2-1.9.2-.3-.2-.5-.5-.8-.7Z"/>
  <path class="cls-10" d="M156.4,57.4c2.8-2.3,6.2-2.4,9.5-2.8,1.6-.2,3.2,0,4.8,0,241.6,0,483.1,0,724.7,0,5,0,9.9.1,14.4,2.7,0,.3,0,.6,0,.9-1.1.1-2.5-.2-2.8,1.4-3.6-1.4-7.4-1.6-11.3-1.6-241.7,0-483.4,0-725.2,0-3.9,0-7.7.2-11.3,1.5-.4-.4-.8-.9-1.2-1.2-.5-.3-1-.5-1.6-.8Z"/>
  <path class="cls-27" d="M165.9,600.4c1.1,0,2.2-.2,3.3-.2,21.8,0,43.6,0,65.4,0,1.1,0,2.2.1,3.3.2,0,1.2.6,2.3,1.8,2.5,2.5.5,4.9,1.4,7.5,1.2,2.9-.2,5.8-.4,8.6.2,3,.7,6,.8,9,.7,3.3-.1,6.6,1.1,9.9.1.3,0,.7,0,.9.2,2.1,1,4.4.7,6.6.7,3.7,0,7.3,0,11,0,1.3,0,2.5.2,3.8.3,1.7.2,3.5.5,5.2.6,2.9,0,5.7,0,8.6,0,6.5.2,13.1-.8,19.5.9.3,0,.6,0,1,0,8.6,0,17.2,0,25.9,0,.9,0,1.7-.6,2.6-.9,2.3,0,4.6-.2,6.9.7.8.3,1.8.1,2.8.2,1.2,1.5,3,.9,4.5.9,10,0,20.1,0,30.1,0,2.3-.6,4.5-1.3,6.9-.2.7.3,1.8-.1,2.7-.3,4.8-.8,9.7-.7,14.6-.1,2.2.3,4.3.5,6.5.6,1.4,1.5,3.3.9,5,.9,18.4,0,36.9,0,55.3,0,1.3,0,2.6,0,3.8,0,.7,0,1.4-.6,2.1-.9,18.9,0,37.8,0,56.7,0,1.4,1.5,3.3.9,5,.9,18.8,0,37.5,0,56.3,0,1.1,0,2.2,0,3.3,0,.6,0,1.1-.6,1.6-.9,1.6,0,3.2.1,4.7-.2,5.8-1.2,11.5-1.2,17.3,0,.6.1,1.4.3,1.9,0,2.4-1.2,4.6-.5,6.9.2,10,0,20.1,0,30.1,0,1.5,0,3.2.5,4.5-.9.9,0,1.9.1,2.8-.2,2.2-.9,4.5-.8,6.9-.7.9.3,1.7.9,2.6.9,8.6,0,17.2,0,25.9,0,.8,0,1.7,0,2.4-.2,2.2-.9,4.4-.7,6.6-.7,5.7,0,11.5,0,17.2,0,3,0,6,.3,9-.8.9-.3,1.9-.1,2.9-.2,2.6,0,5.1,0,7.7,0,3.5-.1,7,.5,10.4-.8.7-.2,1.6,0,2.3.2.8,0,1.5.2,2.3.1,1.9-.1,3.8-.3,5.7-.4,1.9,0,3.9.4,5.7-.1,4.3-1.1,8.6-.6,12.8-.9,2.2-.1,4.4-.7,6.5-1.1,1.2-.3,1.7-1.3,1.8-2.5,1.1,0,2.2-.2,3.3-.2,21.8,0,43.6,0,65.4,0,1.1,0,2.2.2,3.3.2,0,1.3-1,2-2.1,2.3-2.6.7-5.2,1.6-7.9,1.5-2.9-.1-5.7,0-8.5.7-2.4.6-5.1.2-7.6.2-2.1,0-4.1,0-6.2.7-1.2.4-2.5.2-3.8.3-4.6.2-9.3-.5-13.8.9-.9.3-1.9,0-2.9,0-4,0-8,0-12,0-2.4,0-4.8-.1-7.1.7-1.1.4-2.5.2-3.8.2-5.6,0-11.2,0-16.8,0-2.9,0-5.7-.2-8.5.8-1.2.4-2.5.2-3.8.2-6.1,0-12.2,0-18.2,0-3.7,0-7.3-.4-10.9.8-1.2.4-2.5.1-3.8.1-11.5,0-23,0-34.5,0-1.9,0-3.8.4-5.7.6-1.6.1-3.2.3-4.8.3-18.1,0-36.1,0-54.2,0-2.2,0-4.4,0-6.6.6-1.6.5-3.5.3-5.2.3-69.1,0-138.1,0-207.2,0-7,0-14.1,0-21.1,0-2.5,0-5.1.1-7.6-.7-1.3-.4-2.8-.2-4.3-.2-17.9,0-35.8,0-53.7,0-2.4,0-4.8.1-7.1-.7-1.3-.4-2.8-.2-4.3-.2-11.4,0-22.7,0-34.1,0-2.2,0-4.4.1-6.6-.7-1.2-.4-2.5-.3-3.8-.3-6.2,0-12.5,0-18.7,0-3.7,0-7.3.4-10.9-.8-1-.3-2.2-.1-3.3-.1-5.1,0-10.2,0-15.3,0-3.3,0-6.7.3-10-.8-1-.3-2.2-.1-3.3-.1-4.2,0-8.3,0-12.5,0-2.2,0-4.4,0-6.6-.7-1.5-.5-3.2-.2-4.8-.3-4.1-.2-8.2.2-12.4-.8-2.4-.6-5.1,0-7.6-.2-1.9,0-3.8-.5-5.7-.6-2.1-.2-4.1-.4-6.2-.3-2.8.2-5.4-.7-8-1.3-1.2-.3-2.4-.9-2.5-2.5Z"/>
  <path class="cls-1" d="M997.1,589.9c-.7-.3-1.4-.9-2.1-1-1.4-.2-2.9,0-4.3,0-308.1,0-616.3,0-924.4,0-2,0-4.2-.8-6,.9-1-.2-2-.4-3.1-.6-.3,0-.6-.2-.9-.2-2.2-.5-4.3-1-6.5-1.5.7-.2,1.3-.3,2-.5,1.7,0,3.5,0,5.2,0,2.4,0,4.7-.4,6.9-1.9,0-4.1.2-8.2.3-12.3.6,0,1.2,0,1.8,0,.3.2.6.5,1,.7.7,0,1.4,0,2,.1-.5,4.3.7,8.8-1,13.3,5,0,9.9,0,14.8,0,.1,0,.3-.3.4-.5-1.2-.4-2.3-.7-3.7-1.2v-11.6c0-.3,0-.6,0-.9,2.2,0,4.5,0,6.7,0,1.3,1.8.9,3.9,1,5.9.1,2.3-.5,4.7.6,6.8,1.8.5,3.5,1.1,5.2,1.2,2.6.1,5.3,1.1,7.7-.7,17.9,0,35.8,0,53.7,0,.3,1,.8,1.7,1.9,1.7,11.6,0,23.1,0,34.7,0,1.1,0,1.7-.6,2-1.7,3.6-.2,7.2.4,10.8.6,7.2.4,14.5,0,21.8,0,.5,0,1,.1,1.4.1,14.9,0,29.7,0,44.6,0,.6,0,1.3-.1,1.9-.2,1.1,0,2.2.2,3.3.2,16,0,32.1,0,48.1,0,1.1,0,2.2-.1,3.3-.2.9,0,1.9.2,2.8.2,13,0,26,0,39,0,1.1,0,2.2-.2,3.3-.2.9,0,1.9.2,2.8.2,15.2,0,30.5,0,45.7,0,1.1,0,2.2-.2,3.3-.3,1.8,0,3.5.2,5.3.2,51.7,0,103.3,0,155,0,1.9,0,3.8-.1,5.7-.2,1.6,0,3.2.2,4.8.2,24.8,0,49.6,0,74.5,0,1.4,0,2.9-.1,4.3-.2,1.6,0,3.2.2,4.8.2,23.1,0,46.1,0,69.2,0,1.6,0,3.2-.1,4.8-.2,1.3,0,2.5.2,3.8.2,18.4,0,36.8,0,55.3,0,1.1,0,2.2,0,3.3-.1,1.6,0,3.2.2,4.7.2,10,0,19.9,0,29.9,0,1.2,1.5,3,.9,4.5.9,14.8,0,29.7,0,44.5,0,1.1,0,2.3.1,3.3-.2.6-.2,1-1.1,1.5-1.6,8,0,15.9,0,23.9,0,.8,1,2,.9,3.1.9,10.5,0,21.1,0,31.6,0,2.3,0,4.4-.4,6.6-2v-11.3c0-.3,0-.6,0-.9,3.2,0,6.3,0,9.5,0,0,.3,0,.6,0,.9-.2,3.9.4,7.9-.4,11.8-1.3.4-2.3.7-3.4,1,0,.1,0,.3,0,.4h14.9c-.2-1.6-.6-3.1-.7-4.6-.1-2.9,0-5.7,0-8.6.1-.3.2-.6.2-.9,1,0,2,0,3,0-.1,3.6-.2,7.2-.3,10.8,0,1.9,1.2,2.9,2.4,3.7,1.3.9,2.9,1,4.3-.3,1,0,1.9,0,2.9,0,.3,0,.6,0,.9.1,0,.6,0,1.1,0,1.7l-.4.2s-.5,0-.5,0c-.3,0-.6,0-.8.2-1.3.3-2.7.5-4,.8Z"/>
  <path class="cls-20" d="M154.3,586.1c-17.9,0-35.8,0-53.7-.1,0-4.5,0-8.9,0-13.4,1.6-.1,3.2-.3,4.8-.3,12.1,0,24.3,0,36.4,0,.4,0,.8-.1,1.3-.2.2,0,.3,0,.5,0,.6,1.4,1.9,1.4,3.2,1.4,4.1,0,8.3,0,12.4,0,2.1.3,4.3-.5,6.5.8.4,3.9.1,7.8.2,11.7-3.9,0-7.8,0-11.6.1Z"/>
  <path class="cls-16" d="M143.8,377.7c0-1.4-.2-2.9-.2-4.3,0-56,0-112,0-168,0-1.8.1-3.5.2-5.3.9,0,1.9,0,2.8,0,0,1.1.2,2.2.2,3.3,0,56.8,0,113.6,0,170.4,0,1.3-.1,2.6-.2,3.8-.9,0-1.9,0-2.8,0Z"/>
  <path class="cls-16" d="M922.2,218.4c0,1.9.2,3.8.2,5.7,0,50.6,0,101.1,0,151.7,0,1.6-.1,3.2-.2,4.8-.9,0-1.9,0-2.8,0,0-1.4-.2-2.9-.2-4.3,0-51.2,0-102.4,0-153.6,0-1.4.1-2.9.2-4.3.9,0,1.9,0,2.8,0Z"/>
  <path class="cls-3" d="M922.2,218.4c-.9,0-1.9,0-2.8,0,0-1.8-.2-3.5-.2-5.3,0-43.2,0-86.3,0-129.5,0-4,0-8-.9-11.9.3-.6.6-1.2.9-1.8.6,1,.7,2.4,2.3,2.6,0,0,0,0,0,0-.2,1.4-.4,2.8.9,3.9.2.4.5.8.5,1.3,0,4.3-.3,8.6-.3,12.9,0,40.7,0,81.4,0,122.1,0,1.9,0,3.8-.1,5.7Z"/>
  <path class="cls-3" d="M146.6,200.1c-.9,0-1.9,0-2.8,0,0-1.9-.1-3.8-.1-5.7,0-36.2,0-72.5,0-108.7,0-2.7-.3-5.4-.4-8.1,0-.4.3-.9.4-1.3.4-.6.9-1.2,1.3-1.8.6-1,1.3-2,1.9-3,0,3.5,0,7,0,10.5,0,37.4,0,74.8,0,112.3,0,1.9-.1,3.8-.2,5.7Z"/>
  <path class="cls-6" d="M100.6,572.6c0,4.5,0,8.9,0,13.4-2.4,1.8-5.1.9-7.7.7-1.7,0-3.3-.8-5.2-1.2-1.1-2.1-.4-4.5-.6-6.8-.1-2,.3-4.1-1-5.9,4.8,0,9.6,0,14.4,0Z"/>
  <path class="cls-20" d="M143.7,571.6c0-6.5,0-13,0-19.5,0-12.1,0-24.1,0-36.2,0-1.6.1-3.2.2-4.7.9,0,1.9,0,2.8,0,0,1.7.2,3.5.2,5.2,0,16.2,0,32.5,0,48.7,0,2.1.1,4.1.2,6.2-1.1.1-2.2.2-3.3.4Z"/>
  <path class="cls-20" d="M922.2,511.1c0,1.1.2,2.2.2,3.3,0,17.2,0,34.3,0,51.5,0,1.5.4,3.2-1.1,4.4,0,.4,0,.8,0,1.2-1.1,0-2.2-.2-3.2-.2,1.4-1.8,1.2-3.9,1.2-6,0-16.3,0-32.6,0-48.9,0-1.8.1-3.5.2-5.3,1,0,1.9,0,2.9,0Z"/>
  <path class="cls-18" d="M64.3,572.8c0,4.1-.2,8.2-.3,12.3-2.2,1.5-4.5,1.9-6.9,1.9-1.7,0-3.5,0-5.2,0,0-1,0-1.9-.1-2.9.1-.1.3-.2.3-.3,1.1-3.1.7-6.2.2-9.3,0-.4-1-.6-1.5-.8-.7,0-1.4-.1-2-.2.3-.3.6-.9.9-.9,4.9,0,9.8.1,14.6.2Z"/>
  <path class="cls-18" d="M146.6,511.1c-.9,0-1.9,0-2.8,0,0-.9-.2-1.9-.2-2.8,0-14.1,0-28.2,0-42.3,0-.9.1-1.9.2-2.8.9,0,1.9,0,2.8,0,0,1.6.2,3.2.2,4.7,0,10.6,0,21.2,0,31.8,0,3.8-.1,7.6-.2,11.4Z"/>
  <path class="cls-10" d="M146.6,463.1c-.9,0-1.9,0-2.8,0,0-.9-.2-1.9-.2-2.8,0-13.9,0-27.9,0-41.8,0-.8,0-1.6.1-2.4.9,0,1.9,0,2.8,0,0,1.7.2,3.5.2,5.2,0,9.8,0,19.6,0,29.5,0,4.1-.1,8.2-.2,12.4Z"/>
  <path class="cls-9" d="M919.4,380.6c.9,0,1.9,0,2.8,0,0,10.8.2,21.5.2,32.3,0,4.6-.1,9.2-.2,13.8-.9,0-1.9,0-2.8,0,0-.8-.2-1.6-.2-2.4,0-13.6,0-27.2,0-40.9,0-.9.2-1.9.2-2.8Z"/>
  <path class="cls-15" d="M919.4,426.6c.9,0,1.9,0,2.8,0,0,3.5.2,7,.2,10.4,0,9,0,18,0,27.1,0,1.6-.1,3.2-.2,4.7-.9,0-1.9,0-2.8,0,0-.9-.1-1.9-.1-2.8,0-12,0-24.1,0-36.1,0-1.1.1-2.2.2-3.3Z"/>
  <path class="cls-18" d="M919.4,468.9c.9,0,1.9,0,2.8,0,0,1.9.2,3.8.2,5.7,0,10.6,0,21.2,0,31.8,0,1.6-.1,3.2-.2,4.7-1,0-1.9,0-2.9,0,0-12.5-.1-25-.2-37.5,0-1.6.1-3.2.2-4.7Z"/>
  <path class="cls-3" d="M146.6,416.1c-.9,0-1.9,0-2.8,0,0-.3-.2-.6-.2-.9,0-12.5.1-25,.2-37.5.9,0,1.9,0,2.8,0,0,3,.2,6,.2,9,0,9.8-.1,19.6-.2,29.4Z"/>
  <path class="cls-6" d="M999,586.9c-1.3,1.4-2.9,1.2-4.3.3-1.2-.8-2.5-1.9-2.4-3.7.1-3.6.2-7.2.3-10.8,1.5,0,3,0,4.4,0,0,3.2.2,6.4,0,9.6-.1,2,.6,3.4,2,4.6Z"/>
  <path class="cls-24" d="M146.8,71.6c-.6,1-1.2,2-1.9,3-.4.6-.9,1.2-1.3,1.8,0-7.6,3.8-13.1,9.7-17.4.4-.2.8-.4,1.1-.6.6-.3,1.3-.6,1.9-.9.5.3,1.1.5,1.6.8.5.3.8.8,1.2,1.2-1.5,1.6-3.4,2.8-5.5,3.6-1.2,0-2.2.4-2.8,1.3-1.4,1.8-2.6,3.7-3.9,5.6,0,.4-.1.9-.2,1.3.1.2.1.3,0,.5Z"/>
  <path class="cls-18" d="M969.4,572.7c0,.3,0,.6,0,.9-13.8,0-27.5,0-41.3,0-4.8,0-9.7,0-14.5,0,.8-.3,1.7-.8,2.5-.9,2.2-.2,4.4-.2,6.6-.2,14.1,0,28.3,0,42.4,0,1.4,0,2.8.2,4.2.3Z"/>
  <path class="cls-10" d="M1002.9,587c-.3,0-.6-.1-.9-.1-1.2-1.1-2.1-2.3-2-4.1.1-3.3,0-6.7,0-10.1,1.3,0,2.6,0,3.9,0,0,4.4,0,8.8,0,13.2l-1.1,1Z"/>
  <path class="cls-24" d="M921.4,72.4c-1.6-.2-1.7-1.6-2.3-2.6-.4-1.5-1.2-2.6-2.7-3.1h0c0-1.3-.6-2-1.9-1.9h0c-.3-.3-.7-.6-1-1h0c-.4-.3-.8-.6-1.2-1-.3-.2-.5-.4-.8-.6-.2-1.2-1.1-1.3-2.1-1.3-.9-.5-1.7-1-2.6-1.5.4-1.6,1.7-1.3,2.8-1.4.3,0,.7,0,1,0,.3,0,.5.2.7.3.3.3.6.5.9.8.4.5.8,1.1,1.3,1.3,4.6,2.3,6.5,6.5,7.9,11.1,0,.2-.2.6-.3.9Z"/>
  <path class="cls-20" d="M1000,572.7c0,3.4.1,6.7,0,10.1,0,1.8.8,3,2,4.1-1,0-1.9,0-2.9,0-1.4-1.2-2.1-2.6-2-4.6.2-3.2,0-6.4,0-9.6,1,0,1.9,0,2.9,0Z"/>
  <path class="cls-6" d="M1002.9,587c.4-.3.7-.7,1.1-1,1.3-.2,1.8-1.1,1.8-2.4,0-3.6,0-7.3,0-10.9.9,0,1.8-.2,2.6-.3.7,0,1.1.3,1.1,1-1.3.1-1.9.9-1.9,2.2,0,3.9-.1,7.9-.2,11.8-1.3,1-2.9,1.4-4.5,1.3,0-.6,0-1.1,0-1.7Z"/>
  <path class="cls-15" d="M922.7,572.3c-2.2,0-4.4,0-6.6.2-.9,0-1.7.6-2.5.9-5.1,0-10.2,0-15.3,0,0-.7,0-1.4,0-2.1,6.6,0,13.2,0,19.8,0,1.1,0,2.2.2,3.2.2.3,0,.7,0,1,0,.3.2.4.4.4.8Z"/>
  <path class="cls-25" d="M51.7,584c0,1,0,1.9.1,2.9-.7.2-1.3.3-2,.5-.9-.1-1.4-.7-1.4-1.6,0-4.1.1-8.3.2-12.4.7,0,1.4.1,2,.2,0,2.7,0,5.3,0,8,0,1,0,1.9,1,2.5Z"/>
  <path class="cls-20" d="M1005.8,572.7c0,3.6,0,7.3,0,10.9,0,1.3-.5,2.1-1.8,2.4,0-4.4,0-8.8,0-13.2.6,0,1.3,0,1.9,0Z"/>
  <path class="cls-25" d="M1007.4,587.5c0-3.9.2-7.9.2-11.8,0-1.3.6-2.1,1.9-2.2,0,4.5,0,8.9-.1,13.4-.4.2-.8.4-1.2.6h-.4c0,.1-.4,0-.4,0Z"/>
  <path class="cls-6" d="M79.6,572.7c0,.3,0,.6,0,.9-3.5,0-7,0-10.5,0-.7,0-1.4,0-2-.1,0-.3,0-.5,0-.8,4.2,0,8.3,0,12.5,0Z"/>
  <path class="cls-6" d="M978.9,573.6c0-.3,0-.6,0-.9,3.6,0,7.2,0,10.8,0,0,.3,0,.6-.2.9-3.5,0-7,0-10.5,0Z"/>
  <path class="cls-18" d="M143.7,571.6c1.1-.1,2.2-.2,3.3-.3,0,0-.1.2-.1.2,0,.7,0,1.4,0,2.1-1.3,0-2.5,0-3.2-1.4,0,0-.1-.3-.1-.3l.2-.2Z"/>
  <path class="cls-20" d="M97.8,596.5c1.6,0,3.2,0,4.7,0,0,.2,0,.5,0,.7-1.6-.3-3.2-.5-4.8-.8Z"/>
  <path class="cls-24" d="M922.2,76.3c-1.2-1.1-1.1-2.5-.9-3.9.3.3.8.5.8.8.1,1,0,2.1,0,3.1Z"/>
  <path class="cls-20" d="M91.1,595.5c1.4-.2,2.7-.5,3.8.7-1.3-.2-2.5-.4-3.8-.7Z"/>
  <path class="cls-20" d="M963.5,596.1c1.1-1.2,2.5-.9,3.8-.6-1.3.2-2.5.4-3.8.6Z"/>
  <path class="cls-20" d="M955.8,597.2c1.1-1.2,2.5-.9,3.9-.6-1.3.2-2.6.4-3.9.6Z"/>
  <path class="cls-20" d="M85.2,594.7c1.1-.2,2.1-.3,3,.6-1-.2-2-.4-3-.6Z"/>
  <path class="cls-20" d="M970.3,595.2c.8-.9,1.9-.8,2.9-.6-1,.2-1.9.4-2.9.6Z"/>
  <path class="cls-6" d="M102.6,597.3c0-.2,0-.5,0-.7,1,0,2.1-.1,2.9.9-.9,0-1.9,0-2.8-.1Z"/>
  <path class="cls-6" d="M922.3,571.6c-.3,0-.7,0-1,0,0-.4,0-.8,0-1.2.3.4.6.8.9,1.3Z"/>
  <path class="cls-13" d="M143.1,572.1c-.4,0-.8.1-1.3.2.4,0,.8-.1,1.3-.2Z"/>
  <path class="cls-20" d="M96.8,596.4c.3,0,.7,0,1,0-.3,0-.7,0-1,0Z"/>
  <path class="cls-20" d="M960.6,596.5c.3,0,.7,0,1,0-.3,0-.7,0-1,0Z"/>
  <path class="cls-20" d="M953,597.4c.3,0,.7,0,1,0-.3,0-.7,0-1,0Z"/>
  <path class="cls-3" d="M912.5,59.1c-.3-.3-.6-.5-.9-.8.3.3.6.5.9.8Z"/>
  <path class="cls-9" d="M154.5,58.3c-.4.2-.8.4-1.1.6.4-.2.8-.4,1.1-.6Z"/>
  <path class="cls-3" d="M910.8,58c-.3,0-.7,0-1,0,0-.3,0-.6,0-.9.4.3.7.5,1.1.8Z"/>
  <path class="cls-6" d="M1008.2,587.5c.4-.2.8-.4,1.2-.6-.1.8-.6.9-1.2.6Z"/>
  <path class="cls-24" d="M56.4,588.9c.3,0,.6.2.9.2-.3,0-.6-.2-.9-.2Z"/>
  <path class="cls-24" d="M1001.2,589c.2-.2.5-.2.8-.2-.3,0-.5.1-.8.2Z"/>
  <path class="cls-18" d="M67.1,572.6c0,.3,0,.5,0,.8-.3-.2-.6-.5-1-.7.3,0,.7,0,1,0Z"/>
  <path class="cls-20" d="M967.5,594.8c.3.2.5.5.8.7-.3,0-.7,0-1,0,0-.3,0-.5.2-.7Z"/>
  <path class="cls-26" d="M434.7,609c-2.2,0-4.4-.3-6.5-.6-4.8-.6-9.7-.7-14.6.1-.9.2-2,.6-2.7.3-2.4-1.1-4.6-.4-6.9.2-.2-1.7-1.4-1.9-2.8-1.9-9.7,0-19.5,0-29.2,0-1,0-1.9,0-2.6,1-.9,0-1.9.1-2.8-.2-2.2-.9-4.5-.8-6.9-.7-.9-1.2-2.3-1-3.5-1-7.2,0-14.3,0-21.5,0-1.4,0-2.8-.2-4.3-.3-1.9-.2-3.8-.6-5.6-.6-4.1,0-8.3,0-12.4,0-1.1,0-2.3.2-3.3-.2-2.8-1-5.7-.7-8.5-.8-1.6,0-3.3.3-4.7-.2-3.1-1-6.3-.7-9.5-.8-1.1,0-2.3,0-3.3-.2-1.4-.3-2.8-.8-3-2.6,1.3,0,2.5-.2,3.8-.2,33.4,0,66.9,0,100.3,0,1.1,0,2.2,0,3.3.1.3.5.5,1.3,1,1.5,1.7.8,3.5,1.3,5.5,1.3,4.3-.1,8.6,0,13,0,1.4,0,3-.2,4.3.2,2.8.9,5.7.7,8.5.8,8.2,0,16.3,0,24.5,0,1.4,0,2.9.2,4.3.3,1.7.2,3.5.6,5.2.6,57.9,0,115.8,0,173.7,0,1.3,0,2.7.2,3.8-.2,2.5-.9,5-.7,7.6-.7,5.4,0,10.9,0,16.3,0,1.3,0,2.7.2,3.8-.2,2.7-.9,5.4-.7,8.1-.7,2.7,0,5.4-.1,8.2,0,2.5.1,4.7-.8,7-1.3.4,0,.7-1,1-1.5,1.3,0,2.5-.1,3.8-.1,29,0,57.9,0,86.9,0,1.4,0,2.9.1,4.3.2-.4.6-.7,1.4-1.3,1.9-1.2.9-2.7.9-4.1.9-2.5,0-5.2-.4-7.6.2-3.3.8-6.6.7-9.9.8-1.3,0-2.6-.2-3.8.2-2.6.9-5.3.7-8,.7-3.7,0-7.3,0-11,0-1.1,0-2.3-.2-3.3.2-2.3.9-4.7.7-7.1.7-6.7,0-13.4,0-20.1,0-1.2,0-2.6-.3-3.5,1-2.3,0-4.6-.2-6.9.7-.8.3-1.8.1-2.8.2-.5-.3-1.1-.9-1.6-.9-10.4,0-20.7,0-31.1,0-1.2,0-1.6.8-1.8,1.8-2.3-.6-4.5-1.4-6.9-.2-.5.3-1.2,0-1.9,0-5.8-1.2-11.5-1.1-17.3,0-1.5.3-3.1.1-4.7.2-1.4-1.6-3.3-.9-4.9-.9-18.8,0-37.6,0-56.3,0-1.1,0-2.2,0-3.3,0-.6,0-1.1.6-1.6.9-18.9,0-37.8,0-56.7,0-1.4-1.6-3.3-.9-4.9-.9-18.8,0-37.6,0-56.3,0-1.1,0-2.2,0-3.3,0-.6,0-1.1.6-1.6.9Z"/>
  <path class="cls-13" d="M683.3,600.5c-.3.5-.6,1.4-1,1.5-2.3.5-4.5,1.4-7,1.3-2.7-.1-5.4,0-8.2,0-2.7,0-5.4-.2-8.1.7-1.2.4-2.5.2-3.8.2-5.4,0-10.9,0-16.3,0-2.5,0-5.1-.2-7.6.7-1.2.4-2.5.2-3.8.2-57.9,0-115.8,0-173.7,0-1.7,0-3.5-.4-5.2-.6-1.4-.1-2.9-.3-4.3-.3-8.2,0-16.3,0-24.5,0-2.9,0-5.7.2-8.5-.8-1.3-.4-2.9-.2-4.3-.2-4.3,0-8.6,0-13,0-2,0-3.8-.5-5.5-1.3-.5-.2-.6-1-1-1.5,1.6,0,3.2-.2,4.8-.2,95.4,0,190.8,0,286.1,0,1.6,0,3.2.2,4.8.2Z"/>
  <path class="cls-5" d="M280.1,600.5c.2,1.8,1.6,2.3,3,2.6,1.1.3,2.2.1,3.3.2,3.2,0,6.3-.2,9.5.8,1.5.5,3.2.1,4.7.2,2.8,0,5.7-.2,8.5.8,1,.4,2.2.2,3.3.2,4.1,0,8.3,0,12.4,0,1.9,0,3.8.4,5.6.6,1.4.1,2.8.3,4.3.3,7.2,0,14.3,0,21.5,0,1.2,0,2.6-.3,3.5,1-.9.3-1.7.9-2.6.9-8.6,0-17.2,0-25.9,0-.3,0-.7,0-1,0-6.4-1.7-13-.7-19.5-.9-2.9,0-5.7,0-8.6,0-1.7,0-3.5-.4-5.2-.6-1.3-.1-2.5-.3-3.8-.3-3.7,0-7.3,0-11,0-2.2,0-4.5.3-6.6-.7-.3-.1-.7-.2-.9-.2-3.3.9-6.6-.3-9.9-.1-3,.1-6,0-9-.7-2.7-.6-5.7-.4-8.6-.2-2.6.2-5-.8-7.5-1.2-1.2-.2-1.7-1.3-1.8-2.5.8,0,1.6-.2,2.4-.2,12.5,0,25,0,37.5,0,.8,0,1.6.1,2.4.2Z"/>
  <path class="cls-5" d="M698.6,607.1c.9-1.2,2.3-1,3.5-1,6.7,0,13.4,0,20.1,0,2.4,0,4.7.2,7.1-.7,1-.4,2.2-.2,3.3-.2,3.7,0,7.3,0,11,0,2.7,0,5.4.2,8-.7,1.1-.4,2.5-.2,3.8-.2,3.3-.1,6.6,0,9.9-.8,2.4-.6,5.1-.2,7.6-.2,1.5,0,2.9,0,4.1-.9.6-.4.9-1.2,1.3-1.9,2.5,0,5.1-.2,7.6-.2,10,0,19.9,0,29.9,0,1.6,0,3.2.1,4.7.2,0,1.2-.6,2.3-1.8,2.5-2.2.5-4.3,1-6.5,1.1-4.3.3-8.6-.3-12.8.9-1.8.5-3.8,0-5.7.1-1.9,0-3.8.3-5.7.4-.8,0-1.5,0-2.3-.1-.8,0-1.7-.4-2.3-.2-3.4,1.3-7,.7-10.4.8-2.6,0-5.1,0-7.7,0-1,0-2-.2-2.9.2-2.9,1.1-6,.8-9,.8-5.7,0-11.5,0-17.2,0-2.2,0-4.5-.2-6.6.7-.7.3-1.6.2-2.4.2-8.6,0-17.2,0-25.9,0-.9,0-1.7-.6-2.6-.9Z"/>
  <path class="cls-28" d="M918.1,571.3c-6.6,0-13.2,0-19.8,0-4.4-.2-8.9-.5-13.3-.5-16.1,0-32.2,0-48.3,0-1.2,0-2.5.3-3.7.5-.8,0-1.6,0-2.4,0-22.9,0-45.7,0-68.6,0-1.3,0-2.5.1-3.8.2-1.3,0-2.5-.2-3.8-.2-46.2,0-92.5,0-138.7,0-1.4,0-2.9.1-4.3.2-4,0-7.9,0-11.8-.2-1.4,0-2,.8-2.5,1.8,0,0,0,0,0,0,.3-1.4-.3-2.3-1.6-2.3-3,0-6.1,0-9.1,0-6.7,0-13.5.1-20.2.2-1.9,0-3.7,0-5.6,0-1,0-2,0-3.1,0-5.1-.2-10.2-.6-15.3.2-6.9-.1-13.7-.2-20.6-.3-1.1,0-2.2.2-3.3.3-.6-.1-1.2-.4-1.9-.4-12.8,0-25.6,0-38.4,0-5.4,0-10.8-.2-16.1-.2-.4,0-.8.4-1.3.6-45.8,0-91.5,0-137.3,0-1.9,0-3.8.1-5.7.2-1.8,0-3.5-.2-5.3-.2-53.6,0-107.1,0-160.7,0-1.6,0-3.2,0-4.8.1,0,0,.1-.2.1-.2,0-2.1-.2-4.1-.2-6.2,0-16.2,0-32.5,0-48.7,0-1.7-.1-3.5-.2-5.2,0-3.8.2-7.6.2-11.4,0-10.6,0-21.2,0-31.8,0-1.6-.1-3.2-.2-4.7,0-4.1.2-8.2.2-12.4,0-9.8,0-19.6,0-29.5,0-1.7-.1-3.5-.2-5.2,0-9.8.2-19.6.2-29.4,0-3-.1-6-.2-9,0-1.3.2-2.6.2-3.8,0-56.8,0-113.6,0-170.4,0-1.1-.1-2.2-.2-3.3,0-1.9.2-3.8.2-5.7,0-37.4,0-74.8,0-112.3,0-3.5,0-7,0-10.5.1-.2.1-.3,0-.5.4,0,.8-.2,1.2-.3,1.9-2.6,3.8-5.3,5.7-7.9,2.1-.8,3.9-1.9,5.5-3.6,3.7-1.2,7.5-1.5,11.3-1.5,241.7,0,483.4,0,725.2,0,3.9,0,7.7.2,11.3,1.6.9.5,1.7,1,2.6,1.5.7.4,1.4.9,2.1,1.3.3.2.5.4.8.6.4.3.8.7,1.2,1,0,0,0,0,0,0,.3.3.7.7,1,1,0,0,0,0,0,0,.2,1.1.5,2.1,1.9,1.9,0,0,0,0,0,0-.4,2,.9,3.4,1.9,4.9,1,3.9.9,7.9.9,11.9,0,43.2,0,86.3,0,129.5,0,1.8.1,3.5.2,5.3,0,1.4-.2,2.9-.2,4.3,0,51.2,0,102.4,0,153.6,0,1.4.1,2.9.2,4.3,0,.9-.2,1.9-.2,2.8,0,13.6,0,27.2,0,40.9,0,.8,0,1.6.2,2.4,0,1.1-.2,2.2-.2,3.3,0,12,0,24.1,0,36.1,0,.9,0,1.9.1,2.8,0,1.6-.2,3.2-.2,4.7,0,12.5.1,25,.2,37.5,0,1.8-.2,3.5-.2,5.3,0,16.3,0,32.6,0,48.9,0,2.1.2,4.2-1.2,6ZM163.2,87.9c0,.3,0,.6,0,.9,0,1.6-.2,3.2-.2,4.8,0,92.2,0,184.3,0,276.5,0,1.6.1,3.2.2,4.8,0,1.3-.2,2.5-.2,3.8,0,36.2,0,72.4,0,108.5,0,1.3.1,2.5.2,3.8,0,1-.2,1.9-.2,2.9,0,16,0,32,0,48,0,1,.1,1.9.2,2.9.3.3.6.8,1,.9,1.6.1,3.2.1,4.8.1,31.7,0,63.3,0,95,0,211.3,0,422.5,0,633.8,0,1.4,0,2.9,0,4.3-.1.3,0,.7-.6,1-.9,0-1.3.2-2.5.2-3.8,0-33.3,0-66.5,0-99.8,0-1.3-.1-2.5-.2-3.8,0-1.4.2-2.9.2-4.3,0-61.4,0-122.9,0-184.3,0-1.4-.1-2.9-.2-4.3,0-1.3.2-2.5.2-3.8,0-39.1,0-78.1,0-117.2,0-1.3-.1-2.5-.2-3.8,0-10.2,0-20.5,0-30.7.1-.8.1-1.7-1-1.7-1.3-.1-2.6,0-3.8,0-243.4,0-486.8,0-730.2,0-1.3,0-2.6,0-3.8,0-.3,0-.6.5-.9.8Z"/>
  <path class="cls-5" d="M557.5,609c.5-.3,1-.8,1.6-.9,1.1-.2,2.2,0,3.3,0,18.8,0,37.6,0,56.3,0,1.7,0,3.5-.6,4.9.9-.5.3-1,.8-1.6.9-1.1.2-2.2,0-3.3,0-18.8,0-37.5,0-56.3,0-1.7,0-3.5.6-5-.9Z"/>
  <path class="cls-5" d="M434.7,609c.5-.3,1-.8,1.6-.9,1.1-.2,2.2,0,3.3,0,18.8,0,37.6,0,56.3,0,1.7,0,3.5-.6,4.9.9-.7.3-1.4.8-2.1.9-1.3.1-2.5,0-3.8,0-18.4,0-36.9,0-55.3,0-1.7,0-3.5.6-5-.9Z"/>
  <path class="cls-5" d="M654.4,609c.2-1,.7-1.8,1.8-1.8,10.4,0,20.7,0,31.1,0,.5,0,1.1.6,1.6.9-1.2,1.5-3,.9-4.5.9-10,0-20.1,0-30.1,0Z"/>
  <path class="cls-5" d="M369.4,608c.7-.9,1.6-1,2.6-1,9.7,0,19.5,0,29.2,0,1.4,0,2.6.2,2.8,1.9-10,0-20.1,0-30.1,0-1.5,0-3.2.5-4.5-.9Z"/>
  <path class="cls-9" d="M611.2,571.5c1.4,0,2.9-.2,4.3-.2,46.2,0,92.5,0,138.7,0,1.3,0,2.5.1,3.8.2,1.2,1.6,2.9,1,4.4,1,14.9,0,29.7,0,44.6,0,1.6,0,3.1,0,4.7.2-.7.6-1.5.8-2.2.8-4,0-8,0-12,0-13,0-25.9,0-38.9,0-1.7,0-3.5-.5-5.4,1,0,3.9-.1,8.1-.2,12.2-1.6,0-3.2.2-4.8.2-23.1,0-46.1,0-69.2,0-1.6,0-3.2-.1-4.8-.2.3-4.2-.5-8.6.6-13,4.3-.3,8.4-.1,12.6-.2,4.2,0,8.3,0,12.5,0,4.3,0,8.6,0,13,0,4.2,0,8.3,0,12.5,0,4.1,0,8.2.2,12.3-.5-1.7-.4-3.4-.5-5.2-.5-38.4,0-76.8,0-115.2,0-1.4,0-2.9,0-4.3,0-.7,0-1.4-.6-2.1-1Z"/>
  <path class="cls-3" d="M611.2,571.5c.7.3,1.3.9,2.1,1,1.4.2,2.9,0,4.3,0,38.4,0,76.8,0,115.2,0,1.7,0,3.4,0,5.2.5-4.1.6-8.2.4-12.3.5-4.2,0-8.3,0-12.5,0-4.3,0-8.6,0-13,0-4.2,0-8.3,0-12.5,0-4.1,0-8.3-.2-12.6.2-1.1,4.5-.3,8.8-.6,13-1.4,0-2.9.2-4.3.2-24.8,0-49.6,0-74.5,0-1.6,0-3.2-.2-4.8-.2.1-1.1.2-2.2.4-3.2.9-.5,1.6-1,2.3-1.3,2-.9,2.4-2.4,2-4.3,0-.2,0-.4.1-.6.3-.5.6-.9.9-1.4,0-1,0-1.9.1-2.9.5-1,1.1-1.8,2.5-1.8,3.9,0,7.9.1,11.8.2Z"/>
  <path class="cls-16" d="M595.8,577.9c.4,1.9,0,3.5-2,4.3-.7.3-1.4.8-2.3,1.3-.1,1-.2,2.1-.4,3.2-1.9,0-3.8.2-5.7.2-51.7,0-103.3,0-155,0-1.8,0-3.5-.1-5.3-.2-.4-4.2.5-8.5-.5-12.6-.6-.2-.9-.5-1.2-.5-16.7,0-33.5,0-50.2-.1-8,0-16,0-24,0,1.3-1.5,3-.9,4.5-.9,15.8,0,31.6,0,47.4,0,19.8,0,39.6,0,59.3,0h.4c-.1,3.4,1.6,5.9,4.3,7.8,1.8,2.1,4.3,2.6,6.9,2.6,7.6,0,15.3-.1,22.9-.2,7.4,0,14.8,0,22.2,0,8.7,0,17.3,0,26,0,4.8,0,9.6,0,14.4,0,3.5,0,7,0,10.5,0,6,0,12,.2,18,.2,1,0,2.1-.6,3.1-.9,2.8-.5,4.8-2.2,6.6-4.1Z"/>
  <path class="cls-15" d="M753.3,586.7c0-4.1.1-8.3.2-12.2,1.8-1.5,3.7-1,5.4-1,13,0,25.9,0,38.9,0,4,0,8,0,12,0,.7,0,1.5-.2,2.2-.8-1.6,0-3.1-.2-4.7-.2-14.9,0-29.7,0-44.6,0-1.5,0-3.3.6-4.4-1,1.3,0,2.5-.2,3.8-.2,22.9,0,45.7,0,68.6,0,.8,0,1.6,0,2.4.1,1,1.5,2.5,1.1,3.9,1.1,7.5,0,15,0,22.5,0,.8,0,1.6.2,2.4.3-1.6.6-3.2.6-4.7.6-12.1,0-24.2,0-36.3,0-1.5,0-3.2-.5-4.8,1.1,0,3.9,0,8-.1,12.1-1.1,0-2.2.1-3.3.1-18.4,0-36.8,0-55.3,0-1.3,0-2.5-.1-3.8-.2Z"/>
  <path class="cls-18" d="M815.7,586.7c0-4.1,0-8.2.1-12.1,1.6-1.6,3.3-1.1,4.8-1.1,12.1,0,24.2,0,36.3,0,1.6,0,3.1,0,4.7-.6-.8-.1-1.6-.3-2.4-.3-7.5,0-15,0-22.5,0-1.4,0-2.9.3-3.9-1.1,1.2-.2,2.5-.5,3.7-.5,16.1,0,32.2,0,48.3,0,4.4,0,8.9.4,13.3.5,0,.7,0,1.4,0,2.1-7,0-13.9,0-20.9,0-1.2,0-2.4.3-3.7.4-.7,4.2-.2,8.1-.4,12-6.5,0-13,0-19.5,0-1.2,0-2.6-.3-3.5.9-10,0-19.9,0-29.9,0-1.6,0-3.2-.1-4.7-.2Z"/>
  <path class="cls-18" d="M165.9,585.9c-.1-3.9.2-7.8-.2-11.7-2.2-1.3-4.4-.5-6.5-.8.4-.3.8-.8,1.2-.8,2.9,0,5.8-.4,8.6.1,2.2.4,4.4.6,6.6.6,16.6,0,33.2,0,49.9,0,0,4.4,0,8.8,0,13.2-7.3,0-14.5.4-21.8,0-3.6-.2-7.2-.8-10.8-.6-1.7,0-3.5-.2-5.2-.2-7.3,0-14.5,0-21.8,0Z"/>
  <path class="cls-10" d="M328.2,586.7c-1.1,0-2.2.2-3.3.2-16,0-32.1,0-48.1,0-1.1,0-2.2-.1-3.3-.2,0-4.4,0-8.8,0-13.2,18.2,0,36.5,0,54.7,0,0,4.4,0,8.8,0,13.2Z"/>
  <path class="cls-3" d="M373.2,573.5c16.7,0,33.5,0,50.2.1.3,0,.6.2,1.2.5,1.1,4,.2,8.3.5,12.6-1.1,0-2.2.3-3.3.3-15.2,0-30.5,0-45.7,0-.9,0-1.9-.1-2.8-.2,0-4.4,0-8.8,0-13.2Z"/>
  <path class="cls-20" d="M873.3,586c.2-3.9-.3-7.9.4-12,1.3-.1,2.5-.4,3.7-.4,7,0,13.9,0,20.9,0,5.1,0,10.2,0,15.3,0,4.8,0,9.7,0,14.5,0,0,4.2,0,8.3,0,12.5-8,0-15.9,0-23.9,0-10.3,0-20.5,0-30.8-.1Z"/>
  <path class="cls-15" d="M273.4,573.5c0,4.4,0,8.8,0,13.2-.6,0-1.3.2-1.9.2-14.9,0-29.7,0-44.6,0-.5,0-1,0-1.4-.1,0-4.4,0-8.8,0-13.2,13.8,0,27.5,0,41.3,0,2.2,0,4.5,0,6.7,0Z"/>
  <path class="cls-9" d="M373.2,573.5c0,4.4,0,8.8,0,13.2-1.1,0-2.2.2-3.3.2-13,0-26,0-39,0-.9,0-1.9-.1-2.8-.2,0-4.4,0-8.8,0-13.2,7.1,0,14.1,0,21.2,0,8,0,16,0,24,0Z"/>
  <path class="cls-6" d="M928,586.1c0-4.2,0-8.3,0-12.5,13.8,0,27.5,0,41.3,0,0,3.8,0,7.6,0,11.3-2.2,1.6-4.3,2-6.6,2-10.5,0-21.1,0-31.6,0-1.1,0-2.3.1-3.1-.9Z"/>
  <path class="cls-25" d="M978.9,573.6c3.5,0,7,0,10.5,0,0,2.9,0,5.7,0,8.6,0,1.5.4,3,.7,4.6h-14.9c0-.1,0-.3,0-.4,1.1-.3,2.2-.6,3.4-1,.7-3.9.2-7.9.4-11.8Z"/>
  <path class="cls-25" d="M69.1,573.6c3.5,0,7,0,10.5,0,0,3.8,0,7.6,0,11.6,1.3.4,2.5.8,3.7,1.2-.2.2-.3.5-.4.5-4.9,0-9.8,0-14.8,0,1.8-4.5.6-8.9,1-13.3Z"/>
  <path class="cls-6" d="M873.3,586c10.3,0,20.5,0,30.8.1-.5.6-.9,1.4-1.5,1.6-1,.3-2.2.2-3.3.2-14.8,0-29.7,0-44.5,0-1.5,0-3.2.5-4.5-.9.9-1.2,2.3-.9,3.5-.9,6.5,0,13,0,19.5,0Z"/>
  <path class="cls-6" d="M165.9,585.9c7.3,0,14.5,0,21.8,0,1.7,0,3.5.1,5.2.2-.3,1-.9,1.7-2,1.7-11.6,0-23.1,0-34.7,0-1.1,0-1.7-.7-1.9-1.7,3.9,0,7.7,0,11.6-.1Z"/>
  <path class="cls-10" d="M266.7,573.5c-13.8,0-27.5,0-41.3,0-16.6,0-33.2,0-49.9,0-2.2,0-4.4-.2-6.6-.6-2.8-.5-5.7-.2-8.6-.1-.4,0-.8.5-1.2.8-4.1,0-8.3,0-12.4,0,0-.7,0-1.4,0-2.1,1.6,0,3.2-.1,4.8-.1,53.6,0,107.1,0,160.7,0,1.8,0,3.5.2,5.3.2-.9,1.3-2.2,1-3.5,1-7.2,0-14.3,0-21.5,0-7.5,0-14.9,0-22.4,0-1.2,0-2.6-.3-3.5.9Z"/>
  <path class="cls-18" d="M918.3,71.7c-1-1.5-2.2-2.9-1.9-4.9,1.5.5,2.3,1.6,2.7,3.1-.3.6-.6,1.2-.9,1.8Z"/>
  <path class="cls-1" d="M51.7,584c-.9-.6-1-1.5-1-2.5,0-2.7,0-5.3,0-8,.5.3,1.5.5,1.5.8.5,3.1.8,6.3-.2,9.3,0,.1-.2.2-.3.3Z"/>
  <path class="cls-18" d="M153.7,62.9c-1.9,2.6-3.8,5.3-5.7,7.9-.3-.3-.7-.7-1-1,1.3-1.9,2.5-3.8,3.9-5.6.7-.9,1.7-1.3,2.8-1.3Z"/>
  <path class="cls-3" d="M147,69.8c.3.3.7.7,1,1-.4,0-.8.2-1.2.3,0-.4.1-.9.2-1.3Z"/>
  <path class="cls-18" d="M916.4,66.8c-1.4.2-1.7-.8-1.9-1.9,1.3,0,2,.6,1.9,1.9Z"/>
  <path class="cls-6" d="M911.6,62.3c-.7-.4-1.4-.9-2.1-1.3,1,0,1.9.1,2.1,1.3Z"/>
  <path class="cls-18" d="M913.6,63.9c-.4-.3-.8-.7-1.2-1,.4.3.8.7,1.2,1Z"/>
  <path class="cls-18" d="M914.6,64.9c-.3-.3-.7-.7-1-1,.3.3.7.7,1,1Z"/>
  <path class="cls-29" d="M163.1,374.8c0-1.6-.2-3.2-.2-4.8,0-92.2,0-184.3,0-276.5,0-1.6.1-3.2.2-4.8.3-.3.6-.5.9-.8,2.1,0,4.2-.1,6.2-.1,143.8,0,287.6,0,431.5,0,1.9,0,3.8,0,5.7.1.1,1.3-.2,2.5-1.2,3.5-1,1-2,2-3,3-5.3,5.3-10.5,10.6-15.8,15.8-1.2,1.2-2.2,2.3-2,4.1-.6,0-1.3.1-1.9.2-.2-.8-.3-1.6-1.3-1.6-1.3,0-1.4.9-1.5,1.9-2.2.5-4.4,1-6.5,1.4-1.3-1.7-2.2-1.9-3.3-.7-.4.4-.5,1.1-.7,1.7-2.8.9-5.7,1.7-8.5,2.6-.4-.9-1.2-1.5-2.1-1-.5.3-.6,1.2-.9,1.9,0,.1,0,.3,0,.4-1.2.7-2.5,1.4-3.7,2.1-8.3,4.2-16.6,8.4-24.9,12.7-1.4.3-2.8.5-4.1.8-2.4.4-2.9,2.1-2.7,4.2-2.1,2.2-4.3,4.4-6.4,6.6-2.4-.5-4.4,0-6,2-1,1.2-2.3,2.2-3.3,3.4-.8,1-1.5,2-2.1,3.2-.6,1.1.2,1.8,1.2,2.1-.3.8-.6,1.6-.9,2.4,0,0,.1,0,.1,0-.9-.2-1.2.2-1.1,1v-.2c-.3.1-.6.3-.9.4-.5.3-1,.6-1.5.9q-4,0-4.2,3.8c-1.5,1.2-3,2.3-4.4,3.5-.4.3-.7.9-1.4,1.8,2.3-.3,3.9-.3,5.3-.7,4.9-1.4,9.8-2.5,14.8-3.4,6.3-1.1,12.4-2.5,18.3-5.1.3-.1.6,0,.9-.1.2,3.2-1.9,5.3-3.9,7.3-27.5,27.5-55.1,55-82.6,82.6-.7.7-1.3,1.4-2,2-1.9,1.6-2.8,1.7-4.8-.3-1.1-1-2.1-1.4-3.4-.7v-.2c1.1-1.5.7-3-.3-4.3-1-1.4-2.5-.9-3.9-.8h0c.2-1.7.3-3.3-1.1-4.7-1.1-1.1-2.4-1.3-3.8-1.1-.5-.6-1-1.1-1.5-1.7,1-.4,1.7-.9,1.2-2.1-.7-1.8-1.3-2-4.2-1.5-1.8-1.8-3.6-3.6-5.3-5.5-16.7-17.7-35.6-32.5-57.6-43-8.3-4-16.7-8-25.8-10.1-4.5-1-9.1-1.8-13.7-2.4-6.7-.9-13.4-.8-19.9,1.3-4.9,1.6-9.6,3.4-14.2,5.8-13,6.7-23.6,16.3-32.7,27.7-5.5,6.9-10.1,14.4-15.2,21.5-5.1,7.1-8.9,14.7-12,22.8-7,18.5-11.7,37.5-13,57.2-.4,6.1-.6,12.1-.9,18.2-1.6,0-2.6,1.1-3.4,2.3-.8,1-1.4,2.1-2.3,3-12.2,12.2-24.4,24.4-36.6,36.7-1.6,1.6-3.3,2.4-5.5,2.2Z"/>
  <path class="cls-5" d="M902.9,244.3c0,1.4.2,2.9.2,4.3,0,61.4,0,122.9,0,184.3,0,1.4-.1,2.9-.2,4.3-3,.9-5.2,3-7.3,5.1-32,32-64,64-95.9,95.9-.5.5-.9.9-1.4,1.4-1.4,1.4-2.4,3-2.7,4.9-1.4,0-2.9.1-4.3.1-59,0-118.1,0-177.1,0-1.6,0-3.2-.1-4.8-.2-.3-2.2,1.3-3.5,2.6-4.8,10.2-10.2,20.4-20.3,30.5-30.5,5.2-5.2,4.2-3.3,4.3-10.3,5,2.4,10.2,4.5,15.1,7.1,12.2,6.4,24.8,11.7,37.6,16.8,8.2,3.2,16.4,6.3,24.4,9.9,10.4,4.8,21.4,7.4,32.9,7.9,12,.5,23.5-2.3,34.2-7.7,5.7-2.9,10.8-6.9,14.8-12,.8-1,1.6-2,2.5-2.9,12.2-13.3,20.9-28.5,27-45.4,5-14,8.4-28.5,10.1-43.3.6-5.1.8-10.2,1.2-15.3.9-4.9,1.1-13,.4-18-.9,1.6-1.6,2.8-2.2,4-6.1,11.9-13.9,22.6-23.5,31.9-4.9,4.8-10.6,8.8-16.1,12.9-2.9,2.1-5.9,3.8-9.3,4.8-4,1.2-7.9,2.6-12,3.4-6.9,1.5-13.8,2.4-20.9,1.6-5.1-.6-10.2-.9-15.3-1.4-9.7-1-19.4-1.6-29.1-3.1-11.8-1.8-23.6-4-35.4-6.4-12.5-2.5-24.8-6-36.8-10.5.7-.6,1.3-1.4,2.1-1.9,9.5-5.9,19-11.8,28.6-17.6,7.5-4.5,15.3-8.6,22.9-13.1,29.3-17,58.5-34,87.8-51.1,4.9-2.9,10.3-4.4,15.8-5.4,1.1-.2,2.2-.2,3.3,0,3.2.4,4.8,2.1,4.9,5.4,0,1.1,0,2.2-.3,3.3-.5,2.2-1.1,4.3-1.9,6.4-3.4,9.2-8.1,17.7-14.1,25.5-6.4,8.4-11.9,17.4-18.6,25.5-.7.9-1.2,1.9-1.8,2.8-.2.4-.2.9-.3,1.6.8-.1,1.4-.1,1.9-.3,3.7-1.5,7.5-2.8,11.1-4.6,16-7.7,29.1-19,40.5-32.4,3.7-4.4,7.2-8.9,9.7-14.2,2-1.7,2.9-4.1,4.1-6.4,3.2-5.9,5.1-12.1,4.3-18.8-1.3-11-3.5-21.8-10.8-30.7-.2-.2-.3-.6-.4-.9,2.1,0,3.7-.8,5.2-2.1,1-.8,1.8-1.8,2.7-2.7,18-18,35.9-35.9,53.9-53.9.9-.9,1.8-1.8,2.7-2.7.9-.9,2-.9,3.1-.9Z"/>
  <path class="cls-7" d="M163.1,374.8c2.2.3,3.9-.6,5.5-2.2,12.2-12.3,24.4-24.4,36.6-36.7.9-.9,1.6-2,2.3-3,.9-1.2,1.8-2.3,3.4-2.3.6,6,1.1,12.1,1.9,18.1,2.6,20.7,9.5,39.9,20.1,57.8.3.6,1,1,1.9,1.8,1.8-10.2,1.1-19.9.4-29.6.1-.9.3-1.9.3-2.8.2-11.3.8-22.7,2.2-33.9,1.5-11.9,3.6-23.7,6.8-35.2,1.5-5.3,9.7-21.2,13.3-25.3,4.3-4.9,8.9-9.6,14.5-13.1,9.7-6.2,20-7.9,31.2-5.1,6.6,1.6,12.5,4.7,18.2,8.4,7,4.6,12.9,10.4,18.6,16.5,4.8,5.2,9.4,10.5,13,16.5-.7.3-1.5.5-2,1-1.6,1.6-3,3.3-4.6,4.9-58.6,58.6-117.2,117.2-175.8,175.8-.8.8-1.7,1.5-2.4,2.4-1.4,1.8-3.3,2.5-5.5,2.2,0-1.3-.2-2.5-.2-3.8,0-36.2,0-72.4,0-108.5,0-1.3.1-2.5.2-3.8Z"/>
  <path class="cls-27" d="M902.9,244.3c-1.1,0-2.2,0-3.1.9-.9.9-1.8,1.8-2.7,2.7-18,18-35.9,35.9-53.9,53.9-.9.9-1.8,1.8-2.7,2.7-1.5,1.3-3.1,2.2-5.2,2.1-6.6-8-15-13.1-24.9-16.1-6.3-1.9-12.7-3-19.1-4.3-6.6-1.4-13.3-2.1-20-1.4-5.6.6-11.1.6-16.7.6-10.7,0-21.3,1.1-31.8,3.2-3.3.6-6.6,1.2-9.9,1.7,4.1-3.4,8-6.8,12.2-10,5.8-4.6,12.3-8.1,18.7-11.7,13.4-7.8,27-15.1,41.6-20.7,7.3-2.8,14.4-6.2,21.5-9.5,5.6-2.6,10.2-6.6,14-11.4,3.8-4.9,6.6-10.5,9.1-16.2.4-.8.3-1.8.4-2.7,0,0,0,0,0,0,1.1-.3,1-1.1,1-2h0c.3-.2.6-.5.8-.8.7-1.9,1.5-3.8,2-5.8.8-3.2,1.3-6.5,2-9.7,1.1-.1,2-.5,1.9-1.7-.1-1.4-.5-2.8-.9-4.4,1.2-1.3,2.4-2.5,3.6-3.8,18.9-18.9,37.7-37.7,56.6-56.6.9-.9,1.8-1.8,2.7-2.7.9-.9,2-.9,3.1-.9,0,1.3.2,2.5.2,3.8,0,39.1,0,78.1,0,117.2,0,1.3-.1,2.5-.2,3.8Z"/>
  <path class="cls-22" d="M902.9,119.5c-1.1,0-2.2,0-3.1.9-.9.9-1.8,1.8-2.7,2.7-18.9,18.9-37.7,37.7-56.6,56.6-1.2,1.2-2.4,2.5-3.6,3.8.3,1.6.7,3,.9,4.4.1,1.2-.8,1.6-1.9,1.7-.2-1.2.3-2.5-1.1-3.7-.6.7-1.3,1.2-1.8,2-3.4,5.6-7.7,10.4-12.5,14.9-1,1-2.1,1.9-3.1,3-3.9,4-9,5.8-14,7.7-1.6.6-3.2.1-3.9-1.7.6-.7,1.1-1.6,1.8-2.2,3.6-3.1,6.7-6.8,9.8-10.4,5.8-6.6,9.7-14.2,11.8-22.7,4.5-18.3-.2-34.3-12.7-48.2-.5-.6-1.1-1.2-2-.9h0c.4-1-.4-1.5-1-2-.7-.7-1.5-.9-1.7.1-.3,1.4-.3,2.9-.2,4.3.4,6.7-.6,13.4-2.1,19.8-3.5,15.3-9,29.8-17.1,43.3-3.1,5.2-7,9.8-11.5,13.9-1.3,1.2-2.5,1.2-3.8.2.4-1.7.8-3.4,1.3-5.1,3.7-11.3,5.7-22.8,4.6-34.8-.5-5.6-1.1-11.1-2.1-16.6,0-.3.1-.7,0-.9-1.6-5.5-2.7-11.2-6.3-15.9-.3-.4-.3-.9-.5-1.3.3-2.3,1.6-4.1,3.2-5.7,3.9-3.8,7.7-7.7,11.5-11.5,7.7-7.7,15.4-15.4,23.1-23.1,1.1-1.1,2.6-2,2.6-3.9,1.9,0,3.8-.1,5.7-.1,20.7,0,41.4,0,62.1,0,7.3,0,14.7,0,22,0,1.7,0,3.5-.2,5.1.9,0,10.2,0,20.5,0,30.7Z"/>
  <path class="cls-19" d="M163.1,490.9c2.2.3,4.1-.4,5.5-2.2.7-.9,1.6-1.6,2.4-2.4,58.6-58.6,117.2-117.2,175.8-175.8,1.6-1.6,3-3.3,4.6-4.9.5-.5,1.4-.7,2-1,1.2,1.5,2.5,2.9,3.6,4.5,5.7,8.3,10.8,17,15.3,25.9,1.6,3.3,3.1,6.6,4.6,10-1.5.5-3,.9-4.5,1.5-5.5,2.4-11,4.9-16.5,7.4-2.2,1-4.4,1.8-6.5,2.7-.9-.2-1.7,0-2.1.8-.2.1-.4.2-.6.2-1.4.1-2.9,0-4.2.4-11.6,3.6-22.6,8.6-33.1,14.8-7.2,4.2-13.8,9.1-20.5,14-7.8,5.8-15.5,11.8-22,19.1-1.7,1.9-3.2,3.9-5,5.7-7.7,7.8-13.7,16.8-19.7,25.8-1.5,2.3-2.8,4.6-4,7.1-3.3,7.3-6.4,14.6-9.6,21.9-3.2,7.2-5.9,14.5-7.8,22.1-3.1,12.5-6.8,24.9-8.1,37.8-.6,6-1.8,12-1.7,18-.8,0-1.6.2-2.4.2-15.2,0-30.4,0-45.5,0,0-1-.2-1.9-.2-2.9,0-16,0-32,0-48,0-1,.1-1.9.2-2.9Z"/>
  <path class="cls-26" d="M795.5,544.5c.4-2,1.3-3.6,2.7-4.9.5-.4.9-.9,1.4-1.4,32-32,64-64,95.9-95.9,2.1-2.1,4.3-4.2,7.3-5.1,0,1.3.2,2.5.2,3.8,0,33.3,0,66.5,0,99.8,0,1.3-.1,2.5-.2,3.8-1.1,0-2.2,0-3.4,0-33.4,0-66.8,0-100.2,0-1.3,0-2.6-.1-3.8-.2Z"/>
  <path class="cls-26" d="M902.9,88.8c-1.6-1.1-3.3-.9-5.1-.9-7.3,0-14.7,0-22,0-20.7,0-41.4,0-62.1,0-1.9,0-3.8,0-5.7.1-1.6,0-3.2-.1-4.8-.1-63.7,0-127.4,0-191,0-1.6,0-3.2,0-4.8.1-1.9,0-3.8-.1-5.7-.1-143.8,0-287.6,0-431.5,0-2.1,0-4.2,0-6.2.1-.3,0-.5-.1-.8-.2.3-.3.6-.8.9-.8,1.3-.1,2.6,0,3.8,0,243.4,0,486.8,0,730.2,0,1.3,0,2.6,0,3.8,0,1.1,0,1.1.9,1,1.7Z"/>
  <path class="cls-9" d="M795.5,544.5c1.3,0,2.6.2,3.8.2,33.4,0,66.8,0,100.2,0,1.1,0,2.2,0,3.4,0-.3.3-.6.8-1,.9-1.4.1-2.9.1-4.3.1-211.3,0-422.5,0-633.8,0-31.7,0-63.3,0-95,0-1.6,0-3.2,0-4.8-.1-.3,0-.6-.6-1-.9,15.2,0,30.4,0,45.5,0,.8,0,1.6-.1,2.4-.2,7.3,0,14.6,0,21.8,0,8.9,0,17.9,0,26.8,0,1.9,0,3.8.1,5.7.1,57.8,0,115.7,0,173.5,0,1.8,0,3.5,0,5.3-.1,1.6,0,3.2.2,4.8.2,51.8,0,103.7,0,155.5,0,1.6,0,3.2,0,4.8-.1,1.6,0,3.2.2,4.8.2,59,0,118.1,0,177.1,0,1.4,0,2.9,0,4.3-.1Z"/>
  <path class="cls-24" d="M495,582.8c-7.6,0-15.3.1-22.9.2-2.6,0-5.1-.5-6.9-2.6,2.1-2.4,1.1-4.9.6-7.7-1.8,0-3.3-.2-4.9-.2,0,0-.4,0-.4,0,0-.4,0-.9,0-1.3.4-.2.8-.6,1.3-.6,5.4,0,10.8.1,16.1.2.1,1.2.8,1.6,1.9,1.6,3.9,0,7.9,0,11.8,0,1,0,2.1.4,3.3.6v9.7Z"/>
  <path class="cls-18" d="M543.2,582.8c-8.7,0-17.3,0-26,0,.2-3.9-.3-7.9,1.1-11.7,1.1-.1,2.2-.3,3.3-.3,6.9,0,13.7.2,20.6.3,1,3,1.2,6.1,1,9.3,0,.8,0,1.6,0,2.4Z"/>
  <path class="cls-20" d="M518.2,571.1c-1.4,3.8-.9,7.8-1.1,11.7-7.4,0-14.8,0-22.2,0,0-3.1,0-6.3,0-9.7-1.2-.2-2.2-.6-3.3-.6-3.9,0-7.9,0-11.8,0-1.1,0-1.8-.4-1.9-1.6,12.8,0,25.6,0,38.4,0,.6,0,1.2.2,1.9.4Z"/>
  <path class="cls-24" d="M589.2,582.1c-1,.3-2.1.9-3.1.9-6,0-12-.1-18-.2.1-3.3-.5-6.6.5-10,1.7,0,3.3-.2,4.8-.2,3.6,0,7.3,0,10.9,0,1.1,0,1.7-.6,1.9-1.7,3,0,6.1-.1,9.1,0,1.3,0,1.9.9,1.6,2.3-2.4-.8-4.9-.7-7.5,0-.5,3.1-.2,6.1-.3,9Z"/>
  <path class="cls-3" d="M460.6,571.2c0,.4,0,.9,0,1.3-19.8,0-39.6,0-59.3,0-15.8,0-31.6,0-47.4,0-1.5,0-3.2-.5-4.5.9-7.1,0-14.1,0-21.2,0-18.2,0-36.5,0-54.7,0-2.2,0-4.5,0-6.7,0,.9-1.2,2.3-.9,3.5-.9,7.5,0,14.9,0,22.4,0,7.2,0,14.3,0,21.5,0,1.2,0,2.6.2,3.5-1,1.9,0,3.8-.2,5.7-.2,45.8,0,91.5,0,137.3,0Z"/>
  <path class="cls-20" d="M543.2,582.8c0-.8,0-1.6,0-2.4.1-3.2,0-6.3-1-9.3,5.1-.8,10.2-.4,15.3-.2,0,3.9.1,7.9.2,11.8-4.8,0-9.6,0-14.4,0Z"/>
  <path class="cls-6" d="M557.6,582.8c0-3.9-.1-7.9-.2-11.8,1,0,2,0,3.1,0,.2.4.3,1,.6,1.2,1.4.6,3,.6,4.4,0,.3-.1.4-.8.6-1.2,6.7,0,13.5-.1,20.2-.2-.1,1.1-.7,1.7-1.9,1.7-3.6,0-7.3,0-10.9,0-1.6,0-3.1.1-4.8.2-1,3.5-.4,6.8-.5,10-3.5,0-7,0-10.5,0Z"/>
  <path class="cls-25" d="M589.2,582.1c0-2.9-.2-5.9.3-9,2.6-.7,5.1-.8,7.5,0,0,0,0,0,0,0,0,1,0,1.9-.1,2.9-.3.5-.6.9-.9,1.4-.2.2-.2.4-.1.6-1.8,2-3.8,3.7-6.6,4.1Z"/>
  <path class="cls-20" d="M566.1,570.9c-.2.4-.3,1-.6,1.2-1.4.6-3,.6-4.4,0-.3-.1-.4-.8-.6-1.2,1.9,0,3.7,0,5.6,0Z"/>
  <path class="cls-19" d="M163.2,87.9c.3,0,.5,0,.8.2-.3.3-.6.5-.9.8,0-.3,0-.6,0-.9Z"/>
  <path class="cls-16" d="M595.9,577.3c.3-.5.6-.9.9-1.4-.3.4-.6.9-.9,1.4Z"/>
  <path class="cls-25" d="M460.9,572.5c1.6,0,3.1.2,4.9.2.5,2.7,1.5,5.3-.6,7.7-2.7-1.9-4.4-4.4-4.3-7.9Z"/>
  <path class="cls-23" d="M838,363.4c-2.5,5.2-6,9.8-9.7,14.2-11.4,13.4-24.5,24.7-40.5,32.4-3.6,1.7-7.4,3.1-11.1,4.6-.5.2-1.1.2-1.9.3.1-.8,0-1.3.3-1.6.5-1,1.1-2,1.8-2.8,6.7-8.2,12.2-17.2,18.6-25.5,6-7.8,10.7-16.3,14.1-25.5.8-2.1,1.3-4.3,1.9-6.4.3-1.1.4-2.2.3-3.3-.1-3.3-1.8-5-4.9-5.4-1.1-.1-2.3-.1-3.3,0-5.5,1-10.9,2.5-15.8,5.4-29.2,17.1-58.5,34.1-87.8,51.1-7.6,4.4-15.3,8.6-22.9,13.1-9.6,5.7-19.1,11.7-28.6,17.6-.8.5-1.4,1.3-2.1,1.9-.6.3-1.2.5-1.7.8-6.8,4.2-13.5,8.4-20.3,12.6-2.7,1.7-5.4,3.2-8.2,4.8-5,1.7-10,3.3-14.9,5.2-13.2,5-26.6,8.9-40.7,10.5-9.9,1.1-19.7.8-29.5-.8-7.1-1.2-13.7-4-20.5-6,.8-.1,1.5-.3,2.3-.5-.2-.5-.2-.9-.4-1-.6-.5-1.2-1.1-1.8-1.5-5.1-3.4-9.5-7.6-13.5-12.2-8.3-9.7-12.6-21.3-15.4-33.5-1.1-4.7-2.3-9.3-2-14.1,0-.2,0-.3,0-.5-1-3.6-1-7.2,0-10.9.3-1.1.2-2.2.2-3.3-.2-3.9.6-7.6,1.4-11.4,1.6-7.5,3.6-14.9,6.3-22.1,2.7-7.2,6-14.1,10-20.7,3.8-6.3,7.6-12.5,11.5-18.8,4.4-7.1,9.4-13.6,15.4-19.5,6.7-6.6,13.2-13.5,20.4-19.5,3.8-3.2,7.5-6.5,11.3-9.6,3.7-3,7.4-6,11.2-9,5.3-4.1,10.6-8.2,15.9-12.3,7.9-6.2,15.9-12.3,22.9-19.6,1.7-1.7,3.4-3.4,5.1-5.1,7.1-6.9,13.3-14.7,18.2-23.4,3.5-6.3,6.7-12.7,7.2-20.1,1.7-4.7.5-9.2-.8-13.6-2.9-9.8-9.8-15.9-19-19.5-7-2.8-14.4-4.2-22-4-3,.1-6.1.2-9.1,0-4.2-.2-8.3.4-12.3,1.3-12.4,2.7-24.9,5.7-36.7,10.5-9.5,3.9-18.9,7.7-27.7,13.1-.9.6-2.1.6-3.1.9.3-.8.6-1.6.9-2.4,3.4-3.6,6.8-7.2,10.2-10.8,2.1-2.2,4.3-4.4,6.4-6.6,2.3-1.7,4.5-3.3,6.8-5,8.3-4.2,16.6-8.4,24.9-12.7,1.3-.6,2.5-1.4,3.7-2.1,1-.4,2-.9,3-1.3,2.8-.9,5.7-1.7,8.5-2.6,1.3-.3,2.7-.7,4-1,2.2-.5,4.4-1,6.5-1.4,1,0,1.9-.2,2.9-.3.6,0,1.3-.1,1.9-.2,1.1,0,2.2,0,3.3,0,10.1-1.1,20.1,0,30,1.9,8.5,1.7,15,6.4,20.2,12.8,6.7,8.2,10.7,17.7,12.6,28.1.2,1.3.5,2.5.8,3.8,1.3,5.3,1.8,10.7,1.5,16.2-.3,4.8-.6,9.6-1.3,14.3-1.2,7.9-2.6,15.8-5.3,23.3-4.8,13.5-12.2,25.6-19.9,37.6-3.9,6.1-7.9,12-11.8,18-.8,1.2-1.6,2.4-2.5,3.5-3,4.1-6,8.3-9,12.4-4.7,6.1-9.4,12.2-14.1,18.3-.3.4-.4.8-.6,1.3-.7.9-1.4,1.7-2.1,2.6-13.6,17.8-27.1,35.7-42.7,52-4.4,4.6-6.8,10.3-6.9,16.8,0,.2-.1.3-.1.5-.3,7.5,2.3,14.2,6.5,20.3.9,1.2,2.1,1.9,3.7,1.6.6,1.2,1.7,1.9,3.1,1.9,6.1.3,12.1-.4,17.8-2.6,5-1.9,9.4-4.7,13.8-7.6,2.7-1.8,5-4,7.8-5.5,5.5-2.8,9.7-7.2,14.5-11,5.6-4.4,11-9.2,16.8-13.4,8.8-6.4,17.5-12.8,26.9-18.3,6.3-3.7,12.6-7.5,19.1-10.9,5.2-2.8,10.7-5,16-7.6,6.9-3.4,14.1-5.9,21.4-8.4,6.3-2.2,12.8-3.9,19.3-5.3,7.9-1.7,15.9-3.3,24-3.5.9,0,1.9-.2,2.8-.3,4.1-.5,8.2-1.4,12.3-1.4,8.6,0,17.2-.9,25.8.8,4.1.8,8.2,1.1,12.2,2.1,7.2,1.7,14.1,4.3,20,8.9,2,1.6,3.8,3.5,5.9,4.8,4,2.6,6.2,6.5,7.5,10.7,1.8,5.5,2.7,11.1,2.9,16.9.2,4.5.2,8.9.2,13.4Z"/>
  <path class="cls-17" d="M604.1,286.5c3-4.1,6-8.3,9-12.4.8-1.2,1.7-2.3,2.5-3.5,4-6,8-12,11.8-18,7.7-12,15.1-24.1,19.9-37.6,2.7-7.6,4.1-15.4,5.3-23.3.7-4.7,1-9.5,1.3-14.3.3-5.4-.2-10.9-1.5-16.2-.3-1.2-.5-2.5-.8-3.8-1.9-10.4-5.9-20-12.6-28.1-5.2-6.4-11.7-11.1-20.2-12.8-9.9-2-19.9-3-30-1.9-1.1.1-2.2,0-3.3,0-.2-1.8.8-2.9,2-4.1,5.3-5.3,10.6-10.5,15.8-15.8,1-1,2-2.1,3-3,1-1,1.3-2.1,1.2-3.5,1.6,0,3.2-.1,4.8-.1,63.7,0,127.4,0,191,0,1.6,0,3.2,0,4.8.1,0,1.9-1.5,2.8-2.6,3.9-7.7,7.7-15.4,15.4-23.1,23.1-3.8,3.8-7.7,7.7-11.5,11.5-1.6,1.6-2.9,3.4-3.2,5.7-1.9-1.9-3.9-3.8-5.8-5.7-.4-.3-.9-.4-1.8-.8,0,1.1,0,1.8.2,2.3,1.6,4.3,1.9,8.7,1.8,13.2,0,2.7-.5,5.4-.9,8.1-1.2,8.5-3.8,16.4-7.4,24.1-2.9,6.3-7,11.8-11.1,17.3-4.6,6.1-9.2,12.2-15,17.3-6.8,6-13.5,12.2-20.5,17.9-9.8,8-19.9,15.4-30.4,22.4-6.1,4.1-12.3,8.1-18.6,11.8-6.6,3.9-13.5,7.3-20.1,11.2-9.1,5.3-18.8,9.4-28.6,13.4-1.8.7-3.6,1.2-5.4,1.8Z"/>
  <path class="cls-17" d="M434.8,253.6c1.3-.7,2.3-.4,3.4.7,2,1.9,2.9,1.9,4.8.3.7-.6,1.4-1.3,2-2,27.5-27.5,55-55,82.6-82.6,2.1-2.1,4.1-4.1,3.9-7.3.5-.3,1.1-.7,1.7-.9,11.9-4.3,23.9-8.2,36.3-10.7,8.5-1.7,17-3,25.7-2.7,5,.2,9.9.9,14.5,3,6.8,3.1,9.9,9,8.7,16.4-.7,4.6-2.5,8.9-4.8,13-3.1,5.4-6.8,10.4-10.9,15.2-4.2,4.8-8.8,9.3-12.4,14.6-.4.7-1,1.2-1.6,1.8-4,3.7-8,7.4-12.1,10.9-7.3,6.3-14.8,12.2-21.9,18.6-10.6,9.5-20.9,19.3-31.2,29.1-5.6,5.3-10.5,11.2-15.2,17.3-6.1,8-11.8,16.3-16.3,25.4-1,2-2.2,3.9-3.3,5.8-4.7-5.6-9.3-11.3-14-16.9-8.9-10.6-17.3-21.6-26.7-31.9-4.8-5.2-8.7-11.3-13.1-17Z"/>
  <path class="cls-12" d="M434.8,253.6c4.3,5.7,8.3,11.8,13.1,17,9.4,10.2,17.8,21.2,26.7,31.9,4.7,5.6,9.4,11.3,14,16.9-2.3,5.9-4.7,11.8-6.8,17.8-1.5,4.3-2.9,8.7-4,13.2-1.2,4.9-2.2,9.9-3.2,14.9-.5-.4-1-.8-1.4-1.3-6-7.6-12-15.3-18-23-6.3-8.2-12.6-16.4-19-24.6-7.7-10-15.4-19.9-23.1-29.9-7.5-9.7-14.5-19.8-23-28.8-.3-.3-.5-.8-.8-1.2-5.1-5.9-10.2-11.9-15.5-17.6-2.4-2.6-5.2-4.7-7.8-7-7.3-6.7-15.5-12.3-24.4-16.7-1-.5-2-1.1-3.1-1.4-8.3-2.1-16.8-3.7-25.3-4.9-1.4-.2-2.9,0-4.3.3-5.1,1.1-10.3,2.3-15.4,3.6-14.9,3.8-27,12.2-36.8,23.7-5.9,6.9-10.7,14.7-15.6,22.3-.5.8-.9,1.7-1.3,2.6-4.2,10-7.2,20.4-10.5,30.8-1.1,3.5-1.8,7.1-2.6,10.7-.4,2-.6,4.1-.8,6.1-.6,4.9-1.3,9.8-1.6,14.7-.2,5.7-.4,11.5.8,17.2,1.2,5.9,1.8,11.9,3,17.9,1.1,5.6,2.7,11.1,4.7,16.5.5,1.3.7,2.8,2.1,3.6.8,9.7,1.5,19.4-.4,29.6-.9-.8-1.6-1.2-1.9-1.8-10.6-17.9-17.5-37.1-20.1-57.8-.8-6-1.3-12-1.9-18.1.3-6.1.5-12.1.9-18.2,1.3-19.8,6-38.8,13-57.2,3.1-8.1,7-15.7,12-22.8,5.1-7.1,9.7-14.6,15.2-21.5,9.1-11.4,19.7-20.9,32.7-27.7,4.5-2.4,9.3-4.2,14.2-5.8,6.5-2.1,13.2-2.2,19.9-1.3,4.6.6,9.2,1.4,13.7,2.4,9.1,2.1,17.5,6,25.8,10.1,22,10.6,40.9,25.3,57.6,43,1.7,1.9,3.6,3.7,5.3,5.5,1,1.2,2,2.4,3,3.6.5.6,1,1.1,1.5,1.7l4.9,5.9s0,0,0,0c1.4,1.7,2.8,3.4,4.1,5.2v.2Z"/>
  <path class="cls-11" d="M474.6,365.2c1.1-5,2-10,3.2-14.9,1.1-4.5,2.5-8.9,4-13.2,2.1-6,4.5-11.9,6.8-17.8,1.1-1.9,2.3-3.8,3.3-5.8,4.5-9.1,10.2-17.4,16.3-25.4,4.7-6.1,9.6-12,15.2-17.3,10.3-9.8,20.7-19.6,31.2-29.1,7.1-6.4,14.7-12.4,21.9-18.6,4.1-3.5,8.1-7.3,12.1-10.9.6-.5,1.2-1.1,1.6-1.8,3.6-5.3,8.2-9.8,12.4-14.6,4.1-4.7,7.8-9.7,10.9-15.2,2.3-4,4.1-8.3,4.8-13,1.2-7.4-1.9-13.3-8.7-16.4-4.6-2.1-9.5-2.8-14.5-3-8.7-.3-17.2,1-25.7,2.7-12.4,2.5-24.4,6.3-36.3,10.7-.6.2-1.1.6-1.7.9-.3,0-.7,0-.9.1-5.8,2.6-12,4-18.3,5.1-5,.9-9.9,2-14.8,3.4-1.5.4-3.1.4-5.3.7.7-1,1-1.5,1.4-1.8,1.5-1.2,3-2.3,4.4-3.5,1.8-.8,3.4-1.9,4.2-3.8.5-.3,1-.6,1.5-.9.6.5.9.3.9-.4,0,0,0,.2,0,.2.4-.3.7-.7,1.1-1,0,0-.1,0-.1,0,1.1-.3,2.2-.4,3.1-.9,8.7-5.4,18.2-9.3,27.7-13.1,11.9-4.8,24.3-7.8,36.7-10.5,4-.9,8.1-1.5,12.3-1.3,3,.2,6.1,0,9.1,0,7.6-.3,15,1.2,22,4,9.2,3.6,16.1,9.8,19,19.5,1.3,4.4,2.5,8.9.8,13.6-.5,7.4-3.6,13.9-7.2,20.1-4.9,8.7-11,16.4-18.2,23.4-1.7,1.7-3.4,3.4-5.1,5.1-7,7.3-14.9,13.4-22.9,19.6-5.3,4.1-10.6,8.2-15.9,12.3-3.8,2.9-7.5,5.9-11.2,9-3.8,3.1-7.5,6.4-11.3,9.6-7.3,6-13.8,12.9-20.4,19.5-5.9,5.9-11,12.4-15.4,19.5-3.9,6.2-7.7,12.5-11.5,18.8-4,6.6-7.2,13.5-10,20.7-2.7,7.2-4.8,14.6-6.3,22.1-.8,3.7-1.6,7.5-1.4,11.4,0,1.1,0,2.3-.2,3.3-1,3.6-1,7.3,0,10.9,0,.2,0,.3,0,.5-.3,4.9,1,9.5,2,14.1,2.8,12.3,7.1,23.9,15.4,33.5,4,4.6,8.4,8.8,13.5,12.2.7.4,1.3,1,1.8,1.5.2.2.2.5.4,1-.8.2-1.5.3-2.3.5-.8-.3-1.5-.5-2.2-.8-7.7-3.6-13.9-9.1-18.9-15.9-8.4-11.3-14.2-23.8-16.9-37.7-1.4-7.3-1.9-14.5-.5-21.9,1.2-6.3,1.7-12.6,2.6-18.9Z"/>
  <path class="cls-17" d="M516.7,147.5c-3.4,3.6-6.8,7.2-10.2,10.8-1-.4-1.8-1-1.2-2.1.6-1.1,1.3-2.2,2.1-3.2,1-1.2,2.3-2.2,3.3-3.4,1.6-1.9,3.6-2.5,6-2Z"/>
  <path class="cls-17" d="M529.9,135.9c-2.3,1.7-4.5,3.3-6.8,5-.3-2.1.2-3.8,2.7-4.2,1.4-.2,2.8-.5,4.1-.8Z"/>
  <path class="cls-17" d="M434.8,253.4c-1.4-1.7-2.8-3.4-4.1-5.2,1.4,0,2.9-.6,3.9.8,1,1.4,1.4,2.8.2,4.3Z"/>
  <path class="cls-17" d="M430.7,248.3l-4.9-5.9c1.4-.2,2.7,0,3.8,1.1,1.4,1.4,1.3,3,1.1,4.7Z"/>
  <path class="cls-17" d="M424.3,240.8c-1-1.2-2-2.4-3-3.6,2.9-.6,3.5-.4,4.2,1.5.5,1.2-.3,1.7-1.2,2.1Z"/>
  <path class="cls-17" d="M502.2,162.8c-.8,1.9-2.3,3-4.2,3.8q.2-3.8,4.2-3.8Z"/>
  <path class="cls-17" d="M574,116.3c-1.3.3-2.7.7-4,1,.2-.6.3-1.3.7-1.7,1.1-1.2,1.9-1,3.3.7Z"/>
  <path class="cls-17" d="M561.5,119.9c-1,.4-2,.9-3,1.3,0-.1,0-.3,0-.4.3-.6.4-1.6.9-1.9.9-.5,1.7.1,2.1,1Z"/>
  <path class="cls-17" d="M583.4,114.6c-1,0-1.9.2-2.9.3.1-1,.2-1.9,1.5-1.9,1,0,1.2.8,1.3,1.6Z"/>
  <path class="cls-23" d="M504.6,161.5c0,.8-.3,1-.9.4.3-.1.6-.3.9-.4Z"/>
  <path class="cls-23" d="M505.6,160.7c-.4.3-.7.7-1.1,1,0-.8.2-1.2,1.1-1Z"/>
  <path class="cls-21" d="M474.6,365.2c-.8,6.3-1.4,12.7-2.6,18.9-1.4,7.4-.9,14.6.5,21.9,2.6,13.9,8.4,26.4,16.9,37.7,5,6.7,11.2,12.2,18.9,15.9.7.3,1.5.5,2.2.8,6.8,2,13.4,4.8,20.5,6,9.8,1.7,19.6,2,29.5.8,14.1-1.6,27.5-5.5,40.7-10.5,4.9-1.8,9.9-3.5,14.9-5.2,4.7,1.6,9.3,3.2,14,4.9,2.1.7,4.3,1.4,6.2,2.5,5.4,3.1,11,5.7,16.7,8.3,8.7,3.9,17.5,7.7,26.6,10.8,9.8,3.3,19.6,6.8,29.7,9.2,9.6,2.3,19.2,4.5,29,5.7,6.8.8,13.6,1.9,20.4,1.8,4.2,0,8.3.1,12.5,0,4.3-.2,8.6-.4,12.8-1.2,6.9-1.3,13.7-2.9,20.2-5.6,8.9-3.8,16.4-9.4,22-17.2,4.5-6.2,8.4-12.8,11.5-19.9,1.6-3.8,3.4-7.6,4.1-11.7.9-4.7,1.7-9.4,2.8-14,.7-3,1.1-5.9,1.1-9,0-.7.6-1.4.9-2.1-.4,5.1-.6,10.2-1.2,15.3-1.8,14.8-5.1,29.2-10.1,43.3-6.1,16.9-14.8,32.1-27,45.4-.9.9-1.7,1.9-2.5,2.9-4,5.1-9,9.1-14.8,12-10.7,5.4-22.2,8.2-34.2,7.7-11.4-.4-22.5-3.1-32.9-7.9-8-3.7-16.2-6.7-24.4-9.9-12.8-5.1-25.4-10.4-37.6-16.8-4.9-2.6-10.1-4.8-15.1-7.1-.4-.3-.8-.6-1.2-.8-24.1-10.8-49.2-17.8-75.6-19.3-6.1-.3-12.1-.3-18.2.4-8.1.8-16.2-.3-24.3-1.1-.3,0-.6-.2-.9-.2-5.6-1.2-11.2-2.4-16.8-3.6-1.8-.5-3.6-1.1-5.5-1.6-7.5-2.2-15.1-4.2-22.5-6.7-13.1-4.4-25.5-10.1-36.7-18.3-2.4-1.8-5-3.5-7.4-5.2-3.5-3.3-7-6.5-10.4-9.9-7.9-7.6-14.5-16.2-19.5-25.9-3-5.7-5.8-11.4-8.7-17.1-1.4-2.7-2.5-5.5-4.1-8.1-4.7-7.6-8.4-15.8-12-23.9-1.9-4.2-3.9-8.4-5.9-12.6-1.5-3.3-3-6.7-4.6-10-4.5-9-9.7-17.6-15.3-25.9-1.1-1.6-2.4-3-3.6-4.5-3.6-6.1-8.3-11.4-13-16.5-5.6-6.1-11.6-11.9-18.6-16.5-5.6-3.7-11.6-6.8-18.2-8.4-11.1-2.8-21.5-1-31.2,5.1-5.6,3.6-10.2,8.2-14.5,13.1-3.6,4.1-11.9,20-13.3,25.3-3.2,11.6-5.3,23.3-6.8,35.2-1.4,11.3-2,22.6-2.2,33.9,0,.9-.2,1.9-.3,2.8-1.5-.7-1.6-2.3-2.1-3.6-2-5.4-3.6-10.9-4.7-16.5-1.2-5.9-1.8-11.9-3-17.9-1.1-5.7-1-11.5-.8-17.2.2-4.9,1-9.8,1.6-14.7.2-2.1.4-4.1.8-6.1.8-3.6,1.5-7.2,2.6-10.7,3.3-10.3,6.4-20.7,10.5-30.8.4-.9.8-1.8,1.3-2.6,4.9-7.6,9.7-15.4,15.6-22.3,9.9-11.6,21.9-20,36.8-23.7,5.1-1.3,10.2-2.4,15.4-3.6,1.4-.3,2.9-.5,4.3-.3,8.5,1.1,17,2.8,25.3,4.9,1.1.3,2.1.9,3.1,1.4,8.9,4.4,17,10,24.4,16.7,2.6,2.4,5.4,4.5,7.8,7,5.3,5.8,10.3,11.7,15.5,17.6.3.4.5.8.8,1.2,8.4,9,15.4,19.1,23,28.8,7.7,9.9,15.4,19.9,23.1,29.9,6.3,8.2,12.6,16.4,19,24.6,6,7.7,12,15.3,18,23,.4.5.9.9,1.4,1.3Z"/>
  <path class="cls-27" d="M509.6,474.3c5.6,1.2,11.2,2.4,16.8,3.6.3,0,.6.2.9.2,8.1.8,16.2,1.9,24.3,1.1,6.1-.6,12.1-.7,18.2-.4,26.5,1.5,51.5,8.5,75.6,19.3.4.2.8.5,1.2.8,0,7.1.8,5.1-4.3,10.3-10.1,10.2-20.3,20.3-30.5,30.5-1.4,1.4-2.9,2.6-2.6,4.8-1.6,0-3.2.1-4.8.1-51.8,0-103.7,0-155.5,0-1.6,0-3.2-.1-4.8-.2.2-2.2,2-3.2,3.3-4.5,18.7-18.8,37.5-37.5,56.2-56.3.9-.9,1.9-1.7,2.7-2.7,1.5-2,3.3-3.9,3.2-6.7Z"/>
  <path class="cls-12" d="M846.5,414.1c-.3.7-.9,1.4-.9,2.1,0,3.1-.4,6-1.1,9-1,4.7-1.9,9.3-2.8,14-.8,4.1-2.5,7.9-4.1,11.7-3,7.1-7,13.7-11.5,19.9-5.6,7.8-13.1,13.4-22,17.2-6.5,2.8-13.3,4.4-20.2,5.6-4.2.8-8.5,1-12.8,1.2-4.1.2-8.3,0-12.5,0-6.9,0-13.6-1-20.4-1.8-9.8-1.2-19.4-3.4-29-5.7-10.1-2.5-19.9-5.9-29.7-9.2-9.1-3.1-17.9-6.9-26.6-10.8-5.7-2.6-11.3-5.2-16.7-8.3-1.9-1.1-4.1-1.7-6.2-2.5-4.7-1.7-9.3-3.2-14-4.9,2.7-1.6,5.5-3.2,8.2-4.8,6.8-4.2,13.5-8.4,20.3-12.6.5-.3,1.1-.5,1.7-.8,12,4.5,24.3,8,36.8,10.5,11.7,2.4,23.5,4.6,35.4,6.4,9.6,1.4,19.4,2.1,29.1,3.1,5.1.5,10.2.8,15.3,1.4,7.1.8,14-.1,20.9-1.6,4.1-.9,8-2.2,12-3.4,3.4-1,6.4-2.7,9.3-4.8,5.5-4.1,11.1-8.1,16.1-12.9,9.6-9.3,17.4-20,23.5-31.9.6-1.2,1.3-2.4,2.2-4,.7,4.9.5,13.1-.4,18Z"/>
  <path class="cls-11" d="M838,363.4c0-4.5,0-8.9-.2-13.4-.2-5.8-1.1-11.4-2.9-16.9-1.4-4.3-3.5-8.1-7.5-10.7-2.1-1.4-3.9-3.3-5.9-4.8-5.9-4.6-12.8-7.1-20-8.9-4-1-8.2-1.3-12.2-2.1-8.6-1.6-17.2-.8-25.8-.8-4.1,0-8.2.9-12.3,1.4-.9.1-1.9.3-2.8.3-8.2.2-16.1,1.8-24,3.5-6.6,1.4-13,3.1-19.3,5.3-7.2,2.5-14.5,5-21.4,8.4-5.3,2.6-10.8,4.9-16,7.6-6.5,3.4-12.8,7.2-19.1,10.9-9.4,5.5-18.1,12-26.9,18.3-5.8,4.2-11.2,9-16.8,13.4-4.8,3.7-9,8.1-14.5,11-2.8,1.4-5.2,3.7-7.8,5.5-4.4,2.9-8.8,5.7-13.8,7.6-5.8,2.2-11.7,3-17.8,2.6-1.4,0-2.4-.7-3.1-1.9,2.9-2.1,5.7-4.2,8.6-6.4,2.2-.3,3.7-1.8,5.3-3.1,11.9-9.7,23.8-19.3,35.7-29,1.4-1.1,2.6-2.3,3.9-3.5,7.6-7.3,15.6-14.2,24.1-20.4,11.5-8.4,23-16.7,34.6-24.8,6.4-4.5,12.8-9,20.2-11.9,3.6-1.4,7.1-2.9,10.7-4.1,4.4-1.5,8.8-2.8,13.2-4.1,2.9-.8,5.9-1.5,8.8-2.2,3.3-.6,6.6-1.1,9.9-1.7,10.5-2.1,21.1-3.2,31.8-3.2,5.6,0,11.1,0,16.7-.6,6.7-.7,13.4,0,20,1.4,6.4,1.3,12.8,2.4,19.1,4.3,9.9,3,18.3,8.1,24.9,16.1.1.3.2.6.4.9,7.3,8.9,9.5,19.7,10.8,30.7.8,6.8-1.2,13-4.3,18.8-1.2,2.2-2.1,4.7-4.1,6.4Z"/>
  <path class="cls-14" d="M712.9,290.3c-2.9.7-5.9,1.3-8.8,2.2-4.4,1.3-8.9,2.6-13.2,4.1-3.6,1.2-7.2,2.7-10.7,4.1-7.4,2.9-13.8,7.4-20.2,11.9-11.7,8.1-23.2,16.5-34.6,24.8-8.5,6.2-16.5,13.1-24.1,20.4-1.3,1.2-2.5,2.4-3.9,3.5-11.9,9.7-23.8,19.3-35.7,29-1.6,1.3-3.1,2.7-5.3,3.1-3.2-2.8-6.3-5.7-9.5-8.5-3-2.6-6-5-9.1-7.5,0-6.5,2.5-12.2,6.9-16.8,15.5-16.3,29.1-34.2,42.7-52,.7-.9,1.4-1.7,2.1-2.6,19.2-7.6,38-16,55.7-26.7,13.1-8,26.3-15.8,39.3-23.9,9.1-5.7,17.5-12.3,25.7-19.2,6.1-5.1,12.3-10.2,18.1-15.6,5.3-4.9,10.3-10.1,15.2-15.3,4.6-4.8,8.9-10,13.7-14.8,5-5,8.5-10.9,11.3-17.1,2.2-4.9,3.6-10.2,4.4-15.6.4-2.4,0-5.1,1.6-7.3,1.1,5.5,1.6,11,2.1,16.6,1.1,12-.9,23.5-4.6,34.8-.5,1.7-.9,3.4-1.3,5.1-1.4,3-2.8,5.9-3.6,9.6.9-.1,1.6,0,2-.3,6.2-4.3,12.3-8.8,16.9-14.7,11.7-14.9,20.8-31.1,23.6-50.1,1-6.8,1.1-13.7-.7-20.4-.3-1.2-.4-2.5-.6-3.7,1-.3,1.5.3,2,.9,12.5,13.9,17.2,29.9,12.7,48.2-2.1,8.5-6,16.1-11.8,22.7-3.2,3.6-6.2,7.3-9.8,10.4-.7.6-1.2,1.5-1.8,2.2-.6.9-1.4,1.7-1.8,2.7-.7,1.7,0,3.1,1.6,4,.4.2.8.5,1.3.6,5,1.3,10,2,14.7-.7,1.8-1,3.7-1.9,5.3-3.1,2.4-1.8,4.6-3.9,6.8-5.8.8-.7,1.5-1.7,2.8-1.4-.1.9,0,1.9-.4,2.7-2.5,5.7-5.3,11.3-9.1,16.2-3.7,4.8-8.4,8.8-14,11.4-7.1,3.4-14.2,6.7-21.5,9.5-14.5,5.6-28.1,12.9-41.6,20.7-6.4,3.7-12.9,7.2-18.7,11.7-4.1,3.2-8.1,6.7-12.2,10Z"/>
  <path class="cls-8" d="M830.2,207.8c-1.3-.3-2,.7-2.8,1.4-2.3,2-4.5,4-6.8,5.8-1.6,1.2-3.5,2.1-5.3,3.1-4.8,2.7-9.8,2-14.7.7-.5-.1-.9-.4-1.3-.6-1.6-.9-2.3-2.3-1.6-4,.4-1,1.2-1.8,1.8-2.7.7,1.9,2.3,2.3,3.9,1.7,5-1.9,10.1-3.7,14-7.7,1-1,2.1-2,3.1-3,4.8-4.5,9.1-9.2,12.5-14.9.4-.7,1.2-1.3,1.8-2,1.5,1.2.9,2.5,1.1,3.7-.6,3.2-1.2,6.5-2,9.7-.5,2-1.3,3.9-2,5.8-.3.3-.6.6-.8.8,0,0,0,0,0,0-.9.4-1.2,1-1,2h0Z"/>
  <path class="cls-14" d="M830.1,207.9c-.3-.9,0-1.6,1-2,0,.9.2,1.7-1,2Z"/>
  <path class="cls-14" d="M831.1,205.9c.3-.3.6-.6.8-.8-.3.3-.6.6-.8.8Z"/>
  <path class="cls-8" d="M774.3,150.4c-1.6,2.2-1.2,4.9-1.6,7.3-.8,5.4-2.2,10.7-4.4,15.6-2.8,6.2-6.3,12.2-11.3,17.1-4.7,4.7-9,9.9-13.7,14.8-5,5.2-10,10.4-15.2,15.3-5.9,5.4-12,10.5-18.1,15.6-8.2,6.8-16.6,13.5-25.7,19.2-13,8.1-26.2,16-39.3,23.9-17.7,10.7-36.5,19.1-55.7,26.7.2-.4.3-.9.6-1.2,4.7-6.1,9.4-12.2,14.1-18.3,1.8-.6,3.7-1,5.4-1.8,9.8-3.9,19.4-8.1,28.6-13.4,6.6-3.8,13.5-7.3,20.1-11.2,6.3-3.7,12.5-7.7,18.6-11.8,10.5-7,20.6-14.4,30.4-22.4,7-5.8,13.7-11.9,20.5-17.9,5.8-5.1,10.4-11.2,15-17.3,4.1-5.5,8.1-11,11.1-17.3,3.6-7.7,6.2-15.7,7.4-24.1.4-2.7.8-5.3.9-8.1,0-4.5-.2-8.9-1.8-13.2-.2-.6-.1-1.2-.2-2.3.8.4,1.4.5,1.8.8,2,1.9,3.9,3.8,5.8,5.7.1.5.2,1,.5,1.3,3.6,4.7,4.7,10.4,6.3,15.9,0,.3,0,.6,0,.9Z"/>
  <path class="cls-8" d="M808.1,127.1c.2,1.2.3,2.5.6,3.7,1.8,6.8,1.7,13.6.7,20.4-2.8,19.1-11.9,35.3-23.6,50.1-4.7,5.9-10.8,10.4-16.9,14.7-.4.3-1.1.2-2,.3.8-3.7,2.2-6.6,3.6-9.6,1.3.9,2.5,1,3.8-.2,4.5-4.1,8.4-8.7,11.5-13.9,8.1-13.5,13.6-28.1,17.1-43.3,1.5-6.5,2.5-13.1,2.1-19.8,0-1.4-.1-2.9.2-4.3.2-1.1,1.1-.9,1.7-.1,0,.8,0,1.8,1,2.1h0Z"/>
  <path class="cls-14" d="M808.1,127.2c-1.1-.3-1-1.3-1-2.1.6.6,1.5,1,1,2.1Z"/>
  <path class="cls-4" d="M376.9,345c2,4.2,4,8.3,5.9,12.6,3.6,8.2,7.3,16.3,12,23.9,1.6,2.6,2.7,5.4,4.1,8.1,2.9,5.7,5.7,11.4,8.7,17.1,5.1,9.7,11.7,18.3,19.5,25.9,3.4,3.3,7,6.6,10.5,9.9-1.1.2-2.2.5-3.3.6-9.1.4-18.1,1.4-27.1,3-26.9,4.8-52.5,13.5-76.6,26.3-13.4,7.2-26,15.6-36.9,26.3-9,8.8-17.3,18.4-24.4,28.8-3.7,5.4-7.4,10.8-9.6,17-8.9,0-17.9,0-26.8,0,.2-8.8,0-17.6,1-26.3,1.1-8.9,2.4-17.7,4.6-26.4,2.6-10.2,6.1-20.2,10.3-29.8,6.3-14.1,14.4-27.1,24-39.1,5.7-7.1,11.5-14.1,17.5-21,3.8-4.3,7.9-8.3,12.2-12.2,4.6-4.2,9.5-8,14.4-11.9,8.5-6.7,17.3-13.1,27-18.2,1-.5,1.8-1.3,2.7-1.9.2,0,.4,0,.6-.2.9.1,1.6,0,2.1-.8,2.2-.9,4.4-1.8,6.5-2.7,5.5-2.4,11-5,16.5-7.4,1.4-.6,3-1,4.5-1.5Z"/>
  <path class="cls-8" d="M346.7,357.8c-.9.6-1.7,1.4-2.7,1.9-9.7,5.1-18.5,11.4-27,18.2-4.9,3.9-9.8,7.7-14.4,11.9-4.3,3.8-8.4,7.9-12.2,12.2-6,6.8-11.8,13.8-17.5,21-9.6,12-17.7,25-24,39.1-4.3,9.7-7.7,19.6-10.3,29.8-2.2,8.7-3.6,17.5-4.6,26.4-1,8.8-.8,17.5-1,26.3-7.3,0-14.6,0-21.8,0-.1-6.1,1.1-12,1.7-18,1.3-12.9,5-25.3,8.1-37.8,1.9-7.6,4.6-14.9,7.8-22.1,3.2-7.3,6.3-14.6,9.6-21.9,1.1-2.5,2.5-4.8,4-7.1,5.9-9.1,12-18.1,19.7-25.8,1.8-1.8,3.3-3.9,5-5.7,6.5-7.3,14.2-13.3,22-19.1,6.7-4.9,13.4-9.8,20.5-14,10.5-6.2,21.5-11.2,33.1-14.8,1.3-.4,2.8-.3,4.2-.4Z"/>
  <path class="cls-8" d="M349.4,356.7c-.5.8-1.2,1-2.1.8.5-.9,1.2-1,2.1-.8Z"/>
  <path class="cls-2" d="M259.7,544.5c2.2-6.2,5.9-11.6,9.6-17,7.2-10.4,15.4-20,24.4-28.8,10.9-10.7,23.5-19.2,36.9-26.3,24.1-12.9,49.7-21.5,76.6-26.3,9-1.6,18-2.6,27.1-3,1.1,0,2.2-.4,3.3-.6,2.5,1.7,5,3.4,7.4,5.2,11.2,8.2,23.6,13.9,36.7,18.3,7.4,2.5,15,4.5,22.5,6.7,1.8.5,3.6,1.1,5.5,1.6.1,2.8-1.7,4.7-3.2,6.7-.8,1-1.8,1.8-2.7,2.7-18.7,18.7-37.5,37.5-56.2,56.3-1.3,1.3-3.1,2.3-3.3,4.5-1.8,0-3.5.1-5.3.1-57.8,0-115.7,0-173.5,0-1.9,0-3.8,0-5.7-.1Z"/>
  <path class="cls-12" d="M537.7,377.4c3,2.5,6.1,5,9.1,7.5,3.2,2.8,6.4,5.6,9.5,8.5-2.9,2.1-5.7,4.2-8.6,6.4-1.6.3-2.8-.4-3.7-1.6-4.2-6.1-6.8-12.7-6.5-20.3,0-.2,0-.3.1-.5Z"/>
</svg>